<svg width="156" height="208" viewBox="0 0 156 208" fill="none" xmlns="http://www.w3.org/2000/svg">
<path d="M103.714 5.09513L101.32 3.7929L97.1721 1.49562C96.2059 0.960459 95.1196 0.679688 94.0151 0.679688C91.9337 0.679688 89.9776 1.67403 88.751 3.35554L86.3968 6.58291C85.9386 7.21102 85.5604 7.89374 85.2709 8.61531L83.2088 13.7552L80.6111 18.5033C79.857 19.8817 79.4617 21.4278 79.4617 22.9991V23.7174V31.8601C79.4617 33.4524 78.9892 35.0089 78.1042 36.3325C76.611 38.5655 74.1019 39.9061 71.4157 39.9061H71.343C69.441 39.9061 67.7141 41.0167 66.9251 42.7473L65.3322 46.2411C65.1778 46.5799 65.0979 46.9478 65.0979 47.3201C65.0979 48.9609 63.5973 50.1918 61.9882 49.871L59.6122 49.3972C57.3818 48.9524 55.1622 50.2086 54.3952 52.3496L53.6606 54.4004C53.029 56.1636 51.3579 57.3401 49.485 57.3401H45.7379H41.4102C40.145 57.3401 38.893 57.5964 37.7297 58.0935L36.1522 58.7675C35.4673 59.0601 34.8198 59.4334 34.2233 59.8794L33.4993 60.4208C32.9172 60.8561 32.3877 61.3576 31.9216 61.9153L30.0467 64.1584C29.6834 64.5931 29.2814 64.9939 28.8456 65.356L25.7535 67.925L20.1329 71.6608L13.8877 75.3967C12.0554 76.8582 9.46096 76.8759 7.60881 75.4397L6.849 74.8505C5.74416 73.9937 4.38577 73.5288 2.98768 73.5288H2.64649C1.53422 73.5288 0.837536 74.7311 1.39062 75.6961L2.53841 77.6987C2.61036 77.8242 2.69197 77.9439 2.78252 78.0568L5.14455 81.0005L8.26712 85.9816L9.69755 88.8339C10.352 90.1389 11.6869 90.9627 13.1467 90.9627C13.6363 90.9627 14.1213 91.0559 14.5761 91.2372L18.4619 92.7869C19.5658 93.2272 20.7434 93.4533 21.9318 93.4533H25.7535H29.5006H30.0976C33.2047 93.4533 36.0742 95.1161 37.6193 97.8118L39.4928 102.17L42.6154 108.397L49.485 122.095L52.6076 127.699L54.886 130.879C55.4454 131.66 56.1217 132.35 56.8911 132.925L59.0204 134.517C60.1278 135.345 61.4735 135.793 62.8563 135.793C64.3075 135.793 65.7158 136.286 66.8503 137.191L69.3553 139.189C70.6114 140.191 71.343 141.71 71.343 143.317C71.343 144.493 71.7361 145.637 72.46 146.564L73.9719 148.502C75.1083 149.959 76.65 151.047 78.4033 151.63L83.2088 153.227L85.8821 154.226C87.4024 154.795 88.7411 155.763 89.7569 157.029C90.3832 157.81 90.8752 158.689 91.2127 159.631L93.2768 165.393C93.6399 166.407 93.8255 167.475 93.8255 168.552V169.177C93.8255 171.344 93.0741 173.444 91.6994 175.12L89.475 177.83C88.6377 178.85 87.5943 179.682 86.413 180.271L83.2088 181.868L80.0566 183.44C79.6605 183.637 79.2789 183.863 78.9146 184.114L73.0673 188.15C71.9444 188.925 70.6123 189.34 69.2478 189.34C66.7039 189.34 64.3779 190.776 63.2375 193.05L62.9498 193.623C62.718 194.086 62.4131 194.507 62.0469 194.873C60.2509 196.663 60.1559 199.584 62.2772 200.974C63.9976 202.101 66.0973 203.038 68.2204 203.038H71.343H73.6234C74.9987 203.038 76.3553 203.358 77.5861 203.971L78.7382 204.546C79.214 204.783 79.6281 205.127 79.9476 205.552C80.7864 206.667 82.2175 207.162 83.5659 206.804L89.5173 205.221C90.3038 205.012 91.0573 204.694 91.7558 204.276L92.0894 204.077C93.2255 203.397 94.5247 203.038 95.8486 203.038C96.9824 203.038 98.1008 203.302 99.1155 203.807L99.4461 203.972C100.678 204.586 102.036 204.906 103.413 204.906H105.073C107.035 204.906 108.883 203.984 110.063 202.416L110.123 202.335C111.265 200.818 113.054 199.925 114.953 199.925H115.286C117.095 199.925 118.785 199.022 119.791 197.518C121.071 195.603 121.001 193.089 119.617 191.248L119.381 190.935C118.603 189.9 118.182 188.64 118.182 187.345V183.736V179.378V176.525C118.182 175.349 117.229 174.397 116.054 174.397C115.423 174.397 114.825 174.117 114.421 173.634L111.936 170.661C109.716 168.447 109.224 165.034 110.729 162.283L111.936 160.076L113.863 157.002C114.649 155.749 115.721 154.699 116.991 153.939L117.075 153.889C117.809 153.45 118.599 153.112 119.427 152.894C122.048 152.206 126.259 151.158 128.798 150.736C132.545 150.114 132.545 148.868 134.419 148.246C136.292 147.623 140.04 145.755 141.289 145.133C142.157 144.7 144.032 142.668 145.191 141.326C145.506 140.961 145.788 140.569 146.018 140.145C146.668 138.942 147.534 137.037 147.534 135.793V132.057V125.208C147.534 123.232 148.398 121.356 149.9 120.072L150.957 119.17C151.585 118.633 152.123 117.998 152.549 117.29L153.185 116.233C154.634 113.825 154.254 110.738 152.263 108.754C152.025 108.516 151.768 108.299 151.493 108.103L150.07 107.089C148.478 105.956 147.534 104.124 147.534 102.17V97.8118V94.9777C147.534 93.9681 147.381 92.9614 147 92.0265C146.164 89.9762 144.741 87.1624 143.162 85.9816C140.817 84.2281 140.821 79.7038 138.26 78.285L137.913 78.0929C137.666 77.956 137.43 77.7988 137.21 77.6227L135.033 75.8869C134.624 75.5607 134.19 75.2707 133.734 75.0144C131.602 73.816 127.729 71.5726 125.051 69.7929C123.915 69.038 123.173 67.1688 123.888 66.0077C125.222 63.8435 126.979 61.6804 128.798 61.0759C129.13 60.9657 129.404 60.8442 129.626 60.7143C131.977 59.3419 128.798 55.704 128.798 52.9816C128.798 50.5745 130.749 48.6231 133.156 48.6231H137.541C140.108 48.6231 142.297 48.1095 143.811 47.5771C144.997 47.1597 145.66 45.9852 145.66 44.7274C145.66 44.0197 145.45 43.328 145.057 42.7397L144.154 41.39C143.499 40.4104 142.657 39.5703 141.675 38.918L137.541 36.1703L134.552 33.9349C133.237 32.9519 132.204 31.6406 131.556 30.1324L129.56 25.4887C129.057 24.3201 128.798 23.0614 128.798 21.7895V17.491V14.723C128.798 12.1376 127.648 9.68619 125.659 8.03397C125.255 7.69785 124.881 7.32545 124.544 6.92189C122.887 4.93974 120.436 3.7929 117.852 3.7929H117.441C115.878 3.7929 114.34 4.18415 112.966 4.931L112.664 5.09513C109.874 6.6126 106.505 6.6126 103.714 5.09513Z" fill="#5C5C5C" fill-opacity="0.9"/>
<path d="M56.7238 91.6791C57.4756 91.6791 58.0658 91.7622 58.4941 91.9283C58.9225 92.0944 59.2285 92.3829 59.4121 92.7938C59.6044 93.2047 59.7006 93.7861 59.7006 94.5379C59.7006 95.2811 59.6088 95.8624 59.4252 96.2821C59.2504 96.693 58.9531 96.9815 58.5335 97.1476C58.1226 97.305 57.5674 97.3837 56.868 97.3837C56.4921 97.3837 56.1293 97.3749 55.7796 97.3574C55.4386 97.3399 55.1239 97.3137 54.8354 97.2787C54.5469 97.2438 54.2977 97.2088 54.0879 97.1738C53.8868 97.1301 53.7469 97.0908 53.6682 97.0558L53.7076 96.2952C54.1797 96.2952 54.6693 96.2952 55.1763 96.2952C55.6921 96.2952 56.1992 96.2952 56.6975 96.2952C57.1172 96.2865 57.4494 96.234 57.6942 96.1378C57.939 96.0417 58.1138 95.8668 58.2187 95.6133C58.3237 95.3597 58.3761 95.0013 58.3761 94.5379C58.3761 94.0659 58.3237 93.703 58.2187 93.4495C58.1138 93.196 57.939 93.0211 57.6942 92.9249C57.4494 92.82 57.1172 92.7676 56.6975 92.7676C55.9632 92.7676 55.3293 92.772 54.796 92.7807C54.2715 92.7894 53.913 92.8026 53.7207 92.82L53.5371 91.7972C53.8781 91.7622 54.1928 91.736 54.4813 91.7185C54.7786 91.701 55.102 91.6922 55.4517 91.6922C55.8014 91.6835 56.2254 91.6791 56.7238 91.6791ZM54.8485 91.7972V100.846H53.5371V91.7972H54.8485ZM67.0795 94.4462L64.5748 101.147C64.4961 101.375 64.3955 101.606 64.2731 101.842C64.1507 102.087 64.0021 102.319 63.8273 102.537C63.6612 102.756 63.4645 102.944 63.2371 103.101C62.9049 103.329 62.5334 103.464 62.1225 103.508C61.7203 103.552 61.2919 103.543 60.8373 103.482L60.9422 102.616C61.2395 102.625 61.5236 102.612 61.7946 102.577C62.0656 102.542 62.3061 102.459 62.5159 102.328C62.6995 102.196 62.8656 102.017 63.0142 101.79C63.1628 101.571 63.2896 101.331 63.3945 101.069L63.7224 100.295C63.7923 100.111 63.8622 99.9102 63.9322 99.6917C64.0021 99.4644 64.0677 99.2677 64.1289 99.1016L65.7157 94.4462H67.0795ZM61.8471 94.4462L63.4601 99.1016C63.5038 99.2327 63.5431 99.3682 63.5781 99.5081C63.6131 99.6392 63.648 99.7747 63.683 99.9146H63.9977L63.565 100.846H63.224C63.1104 100.846 63.0142 100.819 62.9355 100.767C62.8656 100.706 62.8088 100.623 62.765 100.518L60.4964 94.4462H61.8471ZM70.0572 94.3281C70.774 94.3281 71.3467 94.3762 71.7751 94.4724C72.2035 94.5598 72.5138 94.7259 72.7062 94.9707C72.8985 95.2155 72.9947 95.5739 72.9947 96.046C72.9947 96.5094 72.8941 96.8635 72.693 97.1083C72.5007 97.3443 72.151 97.4842 71.6439 97.5279V97.5672C72.2122 97.611 72.6187 97.7727 72.8635 98.0525C73.1083 98.3235 73.2307 98.73 73.2307 99.272C73.2307 99.7267 73.1345 100.076 72.9422 100.321C72.7499 100.566 72.4482 100.736 72.0373 100.833C71.6264 100.92 71.0932 100.964 70.4375 100.964C70.0266 100.964 69.5938 100.946 69.1392 100.911C68.6933 100.885 68.2606 100.837 67.8409 100.767L67.9458 99.8228C68.2606 99.8578 68.6365 99.8884 69.0736 99.9146C69.5107 99.9321 69.9348 99.9408 70.3457 99.9408C70.9576 99.9408 71.3729 99.8797 71.5915 99.7573C71.81 99.6261 71.9193 99.377 71.9193 99.0098C71.9193 98.7475 71.8712 98.5508 71.7751 98.4196C71.6789 98.2798 71.5172 98.1836 71.2899 98.1311C71.0626 98.0699 70.7566 98.0393 70.3719 98.0393L68.772 98.0262V97.1476L70.3588 97.1345C70.7172 97.1345 70.997 97.1083 71.1981 97.0558C71.3991 97.0033 71.539 96.9116 71.6177 96.7804C71.7051 96.6493 71.7488 96.4613 71.7488 96.2165C71.7488 95.9805 71.6964 95.8056 71.5915 95.692C71.4953 95.5696 71.3248 95.4865 71.08 95.4428C70.844 95.3903 70.5118 95.3641 70.0834 95.3641C69.7337 95.3641 69.384 95.3772 69.0343 95.4035C68.6846 95.4209 68.383 95.4472 68.1294 95.4821L68.0245 94.5379C68.4004 94.4505 68.7676 94.3937 69.1261 94.3675C69.4845 94.3412 69.7949 94.3281 70.0572 94.3281ZM77.6504 94.2888C77.8515 94.2888 78.0744 94.2975 78.3192 94.315C78.564 94.3325 78.8131 94.3631 79.0667 94.4068C79.3202 94.4505 79.5563 94.5161 79.7748 94.6035L79.6175 95.4166C79.3115 95.3903 78.9967 95.3729 78.6733 95.3641C78.3585 95.3466 78.0875 95.3379 77.8602 95.3379C77.3794 95.3379 76.9947 95.4078 76.7062 95.5477C76.4177 95.6789 76.2079 95.9105 76.0767 96.2427C75.9543 96.575 75.8931 97.0383 75.8931 97.6328C75.8931 98.2273 75.9543 98.695 76.0767 99.036C76.2079 99.377 76.4177 99.613 76.7062 99.7441C76.9947 99.8753 77.3794 99.9408 77.8602 99.9408C77.9913 99.9408 78.1618 99.9365 78.3716 99.9277C78.5902 99.919 78.8219 99.9059 79.0667 99.8884C79.3115 99.8709 79.5431 99.8447 79.7617 99.8097L79.8797 100.649C79.565 100.771 79.2109 100.859 78.8175 100.911C78.4241 100.972 78.0307 101.003 77.6373 101.003C76.8941 101.003 76.2953 100.894 75.8407 100.675C75.3948 100.457 75.0713 100.103 74.8702 99.613C74.6692 99.1234 74.5686 98.4634 74.5686 97.6328C74.5686 96.811 74.6692 96.1553 74.8702 95.6657C75.0713 95.1762 75.3948 94.8265 75.8407 94.6166C76.2953 94.3981 76.8985 94.2888 77.6504 94.2888ZM86.8709 94.4462C86.7223 94.8396 86.5868 95.1936 86.4644 95.5084C86.342 95.8231 86.2196 96.0985 86.0972 96.3345C85.9748 96.5706 85.8349 96.7673 85.6776 96.9247C85.529 97.082 85.3541 97.2088 85.153 97.305C84.9607 97.4011 84.7246 97.4623 84.4449 97.4886V97.541C84.7421 97.5672 84.9913 97.6241 85.1924 97.7115C85.4022 97.7989 85.5858 97.9257 85.7432 98.0918C85.9093 98.2579 86.0579 98.4677 86.189 98.7213C86.3202 98.9661 86.4557 99.2677 86.5955 99.6261C86.7354 99.9758 86.8884 100.382 87.0545 100.846H85.73C85.5727 100.417 85.4284 100.046 85.2973 99.731C85.1749 99.4076 85.0525 99.1365 84.9301 98.918C84.8077 98.6907 84.6766 98.5114 84.5367 98.3803C84.3968 98.2404 84.2307 98.1443 84.0384 98.0918C83.8548 98.0306 83.6362 98 83.3827 98V97.0427C83.6886 97.0427 83.9466 96.9902 84.1564 96.8853C84.3662 96.7717 84.5454 96.6056 84.694 96.387C84.8514 96.1684 84.9957 95.9018 85.1268 95.5871C85.2579 95.2636 85.4022 94.8833 85.5596 94.4462H86.8709ZM82.6352 94.4462V96.2952C82.6352 96.4963 82.6177 96.7017 82.5827 96.9116C82.5565 97.1126 82.5128 97.305 82.4516 97.4886C82.504 97.6809 82.5477 97.8732 82.5827 98.0656C82.6177 98.2579 82.6352 98.4371 82.6352 98.6032V100.846H81.3631V94.4462H82.6352ZM83.8154 97.0427V98H82.268V97.0427H83.8154ZM94.2018 94.4462V100.846H93.0609V96.7673C93.0609 96.6187 93.0652 96.4744 93.074 96.3345C93.0827 96.1947 93.0958 96.0417 93.1133 95.8756H93.074C93.0215 96.0067 92.9516 96.1466 92.8642 96.2952C92.7855 96.4351 92.7068 96.5575 92.6281 96.6624L89.5201 100.846H88.4579V94.4462H89.5988V98.5377C89.5988 98.6775 89.5944 98.8174 89.5857 98.9573C89.5857 99.0972 89.577 99.2502 89.5595 99.4163H89.5857C89.6556 99.2764 89.73 99.1409 89.8086 99.0098C89.8873 98.8699 89.966 98.7519 90.0447 98.6557L93.1527 94.4462H94.2018ZM101.95 94.4462V100.846H100.809V96.7673C100.809 96.6187 100.813 96.4744 100.822 96.3345C100.831 96.1947 100.844 96.0417 100.861 95.8756H100.822C100.769 96.0067 100.7 96.1466 100.612 96.2952C100.533 96.4351 100.455 96.5575 100.376 96.6624L97.2681 100.846H96.2058V94.4462H97.3467V98.5377C97.3467 98.6775 97.3424 98.8174 97.3336 98.9573C97.3336 99.0972 97.3249 99.2502 97.3074 99.4163H97.3336C97.4036 99.2764 97.4779 99.1409 97.5566 99.0098C97.6352 98.8699 97.7139 98.7519 97.7926 98.6557L100.901 94.4462H101.95ZM100.127 91.6004H101.045C101.08 91.9502 101.019 92.2649 100.861 92.5446C100.704 92.8157 100.472 93.0386 100.166 93.2135C99.8602 93.3796 99.493 93.4626 99.0647 93.4626C98.6275 93.4626 98.2516 93.3796 97.9369 93.2135C97.6309 93.0386 97.3992 92.8157 97.2418 92.5446C97.0845 92.2649 97.0189 91.9502 97.0451 91.6004H97.9762C97.9675 91.9851 98.0593 92.278 98.2516 92.4791C98.4439 92.6714 98.715 92.7676 99.0647 92.7676C99.4056 92.7676 99.6679 92.6714 99.8515 92.4791C100.035 92.278 100.127 91.9851 100.127 91.6004Z" fill="white"/>
</svg>
