<svg width="120" height="179" viewBox="0 0 120 179" fill="none" xmlns="http://www.w3.org/2000/svg">
<path d="M49.4669 1.4536H51.0914C53.6432 1.4536 55.712 3.52224 55.712 6.07403C55.712 6.72233 55.8484 7.36338 56.1124 7.9555L56.3289 8.44107C57.4732 11.0077 60.0204 12.6609 62.8305 12.6609H63.2064H66.1508C67.5026 12.6609 68.8384 12.9535 70.0664 13.5186L76.3212 16.3967L77.4601 16.9645C78.3603 17.4132 79.2001 17.9904 79.8127 18.7882C80.8208 20.1013 81.9418 22.0407 81.9418 23.8684C81.9418 24.807 82.3557 25.5981 82.9494 26.2419C84.6617 28.0984 86.9592 29.5003 88.3147 31.6312C89.8175 33.9935 91.5741 36.3213 92.5585 36.3213C93.7404 36.3213 94.9998 37.6116 95.7859 38.6662C96.1549 39.1612 96.5153 39.663 96.9278 40.1223C99.1846 42.6355 103.061 47.1318 104.424 49.3967C105.565 51.292 107.742 50.9037 109.36 50.1525C110.266 49.7318 110.935 48.9551 111.45 48.0993L112.104 47.0137C112.391 46.5368 112.808 46.1516 113.306 45.9033C115.252 44.9331 117.539 46.3486 117.539 48.5232V49.0268C117.539 49.2726 117.511 49.5177 117.456 49.7572L116.206 55.1576C115.851 56.6886 115.117 58.1059 114.072 59.2789L111.399 62.2768C110.914 62.8203 110.495 63.4185 110.149 64.0591L107.306 69.323C106.644 70.5479 106.298 71.9181 106.298 73.3102C106.298 75.5398 107.185 77.6778 108.764 79.252L109.391 79.8764C110.235 80.7187 110.912 81.7146 111.383 82.8106L112.543 85.51L115.394 92.3315C115.575 92.7643 115.723 93.2101 115.837 93.6652L117.539 100.453L118.929 104.611C119.249 105.569 119.413 106.572 119.413 107.582V110.63C119.413 111.315 119.34 111.999 119.178 112.665C118.705 114.617 117.96 117.265 117.539 117.265C117.039 117.265 116.082 119.34 115.666 120.378L111.137 128.28C110.826 128.822 110.462 129.331 110.05 129.801L106.76 133.55C106.452 133.9 106.118 134.226 105.759 134.523C103.727 136.212 102.551 138.718 102.551 141.361V143.416V149.363C102.551 150.373 102.384 151.374 102.085 152.338C101.451 154.386 100.677 157.183 100.677 158.359C100.677 159.347 99.4035 159.301 98.1191 158.976C96.8926 158.666 95.6534 158.359 94.3883 158.359H86.3134H85.8135C83.3341 158.359 80.9558 159.342 79.2 161.093L76.1476 164.136C75.4353 164.846 74.6133 165.437 73.7131 165.886L73.0774 166.202C71.9217 166.779 70.8976 167.588 70.0694 168.578L68.2025 170.812L65.4888 173.856C64.0368 175.484 61.9586 176.416 59.7767 176.416H59.3163C58.5865 176.416 57.8643 176.563 57.1932 176.85C55.1662 177.716 52.8163 177.264 51.2553 175.708L50.1417 174.598C49.6935 174.151 49.3019 173.651 48.9756 173.109L48.8827 172.954C48.0386 171.551 46.8353 170.4 45.397 169.617L42.8164 168.214C41.4431 167.467 39.9047 167.076 38.3415 167.076H37.6011H34.4785H29.4824C27.9096 167.076 26.4282 166.337 25.4827 165.08L24.74 164.092C23.7648 162.796 23.2375 161.209 23.2375 159.587C23.2375 158.776 23.1065 157.967 22.8495 157.199L21.8473 154.201C21.5272 153.243 21.364 152.24 21.364 151.231V147.501C21.364 146.043 21.0154 144.609 20.4053 143.285C19.3883 141.077 18.2412 138.298 18.2412 137.189V132.622C18.2412 130.348 17.4142 128.153 15.9145 126.444L14.8397 125.219C14.1971 124.487 13.4441 123.859 12.6079 123.359L8.48955 120.895C7.91498 120.552 7.3847 120.139 6.91056 119.666C5.36856 118.129 4.60545 116.006 4.03128 113.905C3.58778 112.283 2.77666 110.629 1.37931 109.793C-0.783457 108.499 0.0185298 106.179 0.948258 104.771C1.21419 104.368 1.50457 103.983 1.74947 103.567C2.48029 102.326 3.66592 100.252 4.50187 98.5854C5.7509 96.0949 6.99993 94.8496 7.62444 92.9817C8.24896 91.1137 10.747 87.3779 11.3715 85.51C11.996 83.642 13.8696 81.7741 18.2412 78.6609C21.7385 76.1703 25.5272 72.642 26.9844 71.1892L32.605 65.5854C34.6386 63.5579 34.8787 60.5676 34.6731 58.63C34.5921 57.8662 34.4901 57.1022 34.4303 56.3364C34.2899 54.5375 33.8118 52.0668 32.605 51.2647C31.5498 50.5633 30.6391 48.9979 30.0471 47.6982C29.6286 46.7794 29.4824 45.7688 29.4824 44.7591V43.9449C29.4824 41.0946 30.7096 38.2716 33.2095 36.9024C33.6677 36.6515 34.1032 36.446 34.4785 36.3213C35.9774 35.8232 39.2665 33.2081 40.7237 31.9628L41.8137 31.0313C43.8962 29.2516 45.0953 26.6496 45.0953 23.9103V23.1231C45.0953 21.5689 44.7086 20.0392 43.9701 18.6718L40.7237 12.6609C38.9133 9.41217 39.7614 5.40657 42.2415 2.63513C42.604 2.23002 42.9376 1.83136 43.2217 1.4536C45.0953 -1.03697 47.5933 1.4536 49.4669 1.4536Z" fill="#5C5C5C" fill-opacity="0.9"/>
<path d="M32.7623 85.5628V94.6113H31.4771V85.5628H32.7623ZM23.9629 85.5628V94.6113H22.6777V85.5628H23.9629ZM31.8443 93.5753V94.6113H23.858L23.8449 93.5753H31.8443ZM28.356 85.5628V94.6113H27.084V85.5628H28.356ZM37.9491 88.0544C38.4387 88.0544 38.8496 88.12 39.1818 88.2511C39.514 88.3735 39.7632 88.5877 39.9293 88.8937C40.1041 89.1997 40.1916 89.6193 40.1916 90.1526V94.6113H39.1949L38.9982 93.2213L38.9326 93.0639V90.1526C38.9239 89.7767 38.8321 89.5057 38.6572 89.3396C38.4911 89.1735 38.1633 89.0904 37.6737 89.0904C37.3328 89.0904 36.9087 89.1079 36.4017 89.1429C35.9033 89.1778 35.4094 89.2128 34.9198 89.2478L34.8018 88.3429C35.099 88.2905 35.4312 88.2424 35.7984 88.1987C36.1656 88.155 36.5372 88.12 36.9131 88.0938C37.289 88.0675 37.6344 88.0544 37.9491 88.0544ZM39.6146 90.6641L39.6014 91.5558L36.5984 91.5689C36.3011 91.5777 36.0913 91.6563 35.9689 91.805C35.8465 91.9448 35.7853 92.1416 35.7853 92.3951V92.7885C35.7853 93.1032 35.864 93.3349 36.0214 93.4835C36.1787 93.6234 36.4192 93.6934 36.7426 93.6934C36.9874 93.6934 37.2584 93.6496 37.5557 93.5622C37.8617 93.4661 38.1677 93.3262 38.4737 93.1426C38.7796 92.9502 39.055 92.7098 39.2998 92.4213V93.2475C39.2211 93.3699 39.0944 93.5185 38.9195 93.6934C38.7447 93.8595 38.5305 94.0212 38.2769 94.1786C38.0322 94.3359 37.7568 94.4671 37.4508 94.572C37.1448 94.6769 36.8126 94.7294 36.4541 94.7294C36.0695 94.7294 35.7285 94.6638 35.4312 94.5326C35.1427 94.3928 34.9154 94.1917 34.7493 93.9294C34.592 93.6584 34.5133 93.3305 34.5133 92.9459V92.2508C34.5133 91.7525 34.6706 91.3635 34.9854 91.0837C35.3088 90.8039 35.7547 90.6641 36.323 90.6641H39.6146ZM47.767 88.2118L45.7999 91.3198L47.9243 94.6113H46.5605L44.5147 91.3198L46.4162 88.2118H47.767ZM42.9411 88.2118L44.8426 91.3198L42.7837 94.6113H41.4199L43.5443 91.3198L41.5903 88.2118H42.9411ZM45.4196 90.8214V91.7525H43.9377V90.8214H45.4196ZM51.8368 88.0544C52.5886 88.0544 53.1875 88.1637 53.6334 88.3823C54.0792 88.6008 54.4027 88.9593 54.6038 89.4576C54.8049 89.9472 54.9054 90.5985 54.9054 91.4116C54.9054 92.2334 54.8049 92.8934 54.6038 93.3917C54.4027 93.8813 54.0792 94.2354 53.6334 94.454C53.1875 94.6725 52.5886 94.7818 51.8368 94.7818C51.0849 94.7818 50.4817 94.6725 50.027 94.454C49.5812 94.2354 49.2577 93.8813 49.0566 93.3917C48.8555 92.8934 48.755 92.2334 48.755 91.4116C48.755 90.5985 48.8555 89.9472 49.0566 89.4576C49.2577 88.9593 49.5812 88.6008 50.027 88.3823C50.4817 88.1637 51.0849 88.0544 51.8368 88.0544ZM51.8368 89.0773C51.3996 89.0773 51.0499 89.1472 50.7876 89.2871C50.5341 89.427 50.3505 89.6674 50.2369 90.0084C50.132 90.3406 50.0795 90.8083 50.0795 91.4116C50.0795 92.0148 50.132 92.4869 50.2369 92.8278C50.3505 93.1688 50.5341 93.4092 50.7876 93.5491C51.0499 93.6802 51.3996 93.7458 51.8368 93.7458C52.2739 93.7458 52.6192 93.6802 52.8727 93.5491C53.1263 93.4092 53.3055 93.1688 53.4104 92.8278C53.5153 92.4869 53.5678 92.0148 53.5678 91.4116C53.5678 90.8083 53.5153 90.3406 53.4104 90.0084C53.3055 89.6674 53.1263 89.427 52.8727 89.2871C52.6192 89.1472 52.2739 89.0773 51.8368 89.0773ZM59.3011 88.0544C60.289 88.0544 61.0015 88.2336 61.4386 88.5921C61.8845 88.9418 62.1118 89.462 62.1206 90.1526C62.1206 90.7296 61.9938 91.1755 61.7403 91.4902C61.4867 91.805 61.0715 91.9623 60.4944 91.9623H56.7832V91.0575H60.1666C60.4464 91.0575 60.63 90.9657 60.7174 90.7821C60.8135 90.5985 60.8573 90.3887 60.8485 90.1526C60.8485 89.7592 60.7349 89.4794 60.5076 89.3133C60.289 89.1472 59.9043 89.0642 59.3535 89.0642C58.9077 89.0642 58.558 89.1297 58.3044 89.2609C58.0509 89.392 57.8717 89.6193 57.7668 89.9428C57.6619 90.2663 57.6094 90.7209 57.6094 91.3066C57.6094 91.9623 57.675 92.465 57.8061 92.8147C57.9372 93.1557 58.1427 93.3917 58.4225 93.5229C58.711 93.654 59.0913 93.7196 59.5634 93.7196C59.9043 93.7196 60.2803 93.7065 60.6912 93.6802C61.1108 93.6453 61.4911 93.6059 61.8321 93.5622L61.9501 94.3884C61.749 94.4758 61.4955 94.5501 61.1895 94.6113C60.8922 94.6638 60.5862 94.7031 60.2715 94.7294C59.9568 94.7556 59.6683 94.7687 59.406 94.7687C58.6629 94.7687 58.0596 94.655 57.5963 94.4277C57.1417 94.2004 56.8095 93.842 56.5996 93.3524C56.3986 92.8541 56.298 92.2028 56.298 91.3984C56.298 90.5592 56.4029 89.8947 56.6128 89.4051C56.8226 88.9156 57.146 88.5702 57.5832 88.3691C58.0203 88.1593 58.5929 88.0544 59.3011 88.0544ZM66.434 88.1462C67.1072 88.1462 67.6405 88.1943 68.0339 88.2905C68.4273 88.3866 68.7114 88.5571 68.8863 88.8019C69.0699 89.0467 69.1617 89.3964 69.1617 89.851C69.1617 90.3056 69.0524 90.6509 68.8338 90.887C68.6153 91.1143 68.2612 91.2498 67.7716 91.2935V91.3329C68.3661 91.3766 68.7814 91.5427 69.0174 91.8312C69.2622 92.1197 69.3846 92.5219 69.3846 93.0377C69.3846 93.4748 69.2972 93.8158 69.1223 94.0605C68.9475 94.2966 68.6721 94.4627 68.2962 94.5589C67.9202 94.655 67.4219 94.7031 66.8012 94.7031C66.3378 94.7031 65.9313 94.6988 65.5816 94.69C65.2406 94.69 64.9259 94.6813 64.6374 94.6638C64.3576 94.655 64.0604 94.6419 63.7457 94.6244L63.903 93.7196C64.0779 93.7283 64.4057 93.7371 64.8866 93.7458C65.3761 93.7458 65.9488 93.7458 66.6045 93.7458C66.9804 93.7458 67.2776 93.7196 67.4962 93.6671C67.7235 93.6147 67.8809 93.5185 67.9683 93.3786C68.0645 93.23 68.1126 93.0246 68.1126 92.7623C68.1126 92.3689 67.9989 92.1022 67.7716 91.9623C67.5443 91.8137 67.1378 91.7394 66.552 91.7394H63.8899V90.887H66.552C66.893 90.887 67.164 90.8651 67.3651 90.8214C67.5749 90.769 67.7235 90.6772 67.8109 90.546C67.9071 90.4062 67.9552 90.2138 67.9552 89.969C67.9552 89.733 67.9027 89.5538 67.7978 89.4314C67.7017 89.309 67.5399 89.2215 67.3126 89.1691C67.0853 89.1166 66.7793 89.0904 66.3946 89.0904C66.0012 89.0817 65.6515 89.0773 65.3455 89.0773C65.0396 89.0773 64.7685 89.0817 64.5325 89.0904C64.2964 89.0904 64.0866 89.0991 63.903 89.1166L63.7457 88.2249C64.0254 88.1987 64.2921 88.1812 64.5456 88.1724C64.7991 88.1637 65.0745 88.1593 65.3718 88.1593C65.6778 88.1506 66.0318 88.1462 66.434 88.1462ZM64.939 88.2249V94.6244H63.7457V88.2249H64.939ZM73.8255 88.0544C74.0266 88.0544 74.2495 88.0632 74.4943 88.0806C74.7391 88.0981 74.9882 88.1287 75.2418 88.1724C75.4953 88.2161 75.7314 88.2817 75.9499 88.3691L75.7926 89.1822C75.4866 89.156 75.1718 89.1385 74.8484 89.1297C74.5336 89.1123 74.2626 89.1035 74.0353 89.1035C73.5545 89.1035 73.1698 89.1735 72.8813 89.3133C72.5928 89.4445 72.383 89.6762 72.2518 90.0084C72.1294 90.3406 72.0682 90.8039 72.0682 91.3984C72.0682 91.9929 72.1294 92.4607 72.2518 92.8016C72.383 93.1426 72.5928 93.3786 72.8813 93.5098C73.1698 93.6409 73.5545 93.7065 74.0353 93.7065C74.1664 93.7065 74.3369 93.7021 74.5467 93.6934C74.7653 93.6846 74.997 93.6715 75.2418 93.654C75.4866 93.6365 75.7182 93.6103 75.9368 93.5753L76.0548 94.4146C75.7401 94.537 75.386 94.6244 74.9926 94.6769C74.5992 94.7381 74.2058 94.7687 73.8124 94.7687C73.0692 94.7687 72.4704 94.6594 72.0158 94.4408C71.5699 94.2223 71.2464 93.8682 71.0453 93.3786C70.8443 92.889 70.7437 92.229 70.7437 91.3984C70.7437 90.5766 70.8443 89.9209 71.0453 89.4314C71.2464 88.9418 71.5699 88.5921 72.0158 88.3823C72.4704 88.1637 73.0736 88.0544 73.8255 88.0544ZM83.046 88.2118C82.8974 88.6052 82.7619 88.9593 82.6395 89.274C82.5171 89.5887 82.3947 89.8641 82.2723 90.1002C82.1499 90.3362 82.01 90.5329 81.8527 90.6903C81.7041 90.8477 81.5292 90.9744 81.3281 91.0706C81.1358 91.1668 80.8997 91.228 80.62 91.2542V91.3066C80.9172 91.3329 81.1664 91.3897 81.3675 91.4771C81.5773 91.5645 81.7609 91.6913 81.9183 91.8574C82.0844 92.0235 82.233 92.2334 82.3641 92.4869C82.4953 92.7317 82.6308 93.0333 82.7707 93.3917C82.9105 93.7414 83.0635 94.148 83.2296 94.6113H81.9051C81.7478 94.1829 81.6035 93.8114 81.4724 93.4967C81.35 93.1732 81.2276 92.9022 81.1052 92.6836C80.9828 92.4563 80.8517 92.2771 80.7118 92.1459C80.5719 92.006 80.4058 91.9099 80.2135 91.8574C80.0299 91.7962 79.8113 91.7656 79.5578 91.7656V90.8083C79.8638 90.8083 80.1217 90.7559 80.3315 90.6509C80.5413 90.5373 80.7205 90.3712 80.8691 90.1526C81.0265 89.9341 81.1708 89.6674 81.3019 89.3527C81.433 89.0292 81.5773 88.6489 81.7347 88.2118H83.046ZM78.8103 88.2118V90.0608C78.8103 90.2619 78.7928 90.4674 78.7578 90.6772C78.7316 90.8783 78.6879 91.0706 78.6267 91.2542C78.6791 91.4465 78.7228 91.6389 78.7578 91.8312C78.7928 92.0235 78.8103 92.2028 78.8103 92.3689V94.6113H77.5382V88.2118H78.8103ZM79.9905 90.8083V91.7656H78.4431V90.8083H79.9905ZM90.3769 88.2118V94.6113H89.236V90.5329C89.236 90.3843 89.2403 90.24 89.2491 90.1002C89.2578 89.9603 89.2709 89.8073 89.2884 89.6412H89.2491C89.1966 89.7723 89.1267 89.9122 89.0393 90.0608C88.9606 90.2007 88.8819 90.3231 88.8032 90.428L85.6952 94.6113H84.633V88.2118H85.7739V92.3033C85.7739 92.4432 85.7696 92.5831 85.7608 92.7229C85.7608 92.8628 85.7521 93.0158 85.7346 93.1819H85.7608C85.8307 93.042 85.9051 92.9065 85.9837 92.7754C86.0624 92.6355 86.1411 92.5175 86.2198 92.4213L89.3278 88.2118H90.3769ZM98.1248 88.2118V94.6113H96.9839V90.5329C96.9839 90.3843 96.9883 90.24 96.997 90.1002C97.0057 89.9603 97.0189 89.8073 97.0363 89.6412H96.997C96.9446 89.7723 96.8746 89.9122 96.7872 90.0608C96.7085 90.2007 96.6298 90.3231 96.5511 90.428L93.4432 94.6113H92.3809V88.2118H93.5218V92.3033C93.5218 92.4432 93.5175 92.5831 93.5087 92.7229C93.5087 92.8628 93.5 93.0158 93.4825 93.1819H93.5087C93.5787 93.042 93.653 92.9065 93.7317 92.7754C93.8103 92.6355 93.889 92.5175 93.9677 92.4213L97.0757 88.2118H98.1248ZM96.302 85.3661H97.2199C97.2549 85.7158 97.1937 86.0305 97.0363 86.3103C96.879 86.5813 96.6473 86.8042 96.3413 86.9791C96.0353 87.1452 95.6681 87.2282 95.2398 87.2282C94.8026 87.2282 94.4267 87.1452 94.112 86.9791C93.806 86.8042 93.5743 86.5813 93.4169 86.3103C93.2596 86.0305 93.194 85.7158 93.2202 85.3661H94.1513C94.1426 85.7507 94.2344 86.0436 94.4267 86.2447C94.619 86.437 94.8901 86.5332 95.2398 86.5332C95.5807 86.5332 95.843 86.437 96.0266 86.2447C96.2102 86.0436 96.302 85.7507 96.302 85.3661Z" fill="white"/>
</svg>
