<svg width="202" height="198" viewBox="0 0 202 198" fill="none" xmlns="http://www.w3.org/2000/svg">
<path d="M93.5472 145.843L87.5017 147.234C86.8129 147.392 86.1083 147.472 85.4014 147.472H81.9082C81.2013 147.472 80.4967 147.392 79.8079 147.234L73.7624 145.843C73.0736 145.684 72.369 145.604 71.6621 145.604H71.6232C69.894 145.604 68.1986 145.126 66.7247 144.221L60.8601 140.623L58.04 139.016C57.0149 138.432 56.1093 137.66 55.3709 136.74L53.9904 135.019L51.7555 132.791C51.1663 132.204 50.5016 131.697 49.7788 131.286L48.7159 130.68C47.2627 129.852 46.0576 128.65 45.2259 127.199L44.4836 125.904C44.1609 125.341 43.7857 124.81 43.3318 124.346C41.4071 122.378 37.9073 119.453 35.255 119.453C34.1787 119.453 31.4047 120.708 30.5629 121.378C28.9624 122.653 26.8247 124.123 24.6383 125.057C21.1422 126.551 23.1796 126.924 24.6367 126.925H22.2295C20.5363 126.925 18.8748 126.466 17.4216 125.597L16.5196 125.057L14.0215 123.189L12.9315 122.258C10.849 120.478 9.75486 117.853 9.24693 115.161C8.82034 112.901 7.99894 110.7 6.52736 110.114C3.40479 108.869 6.52736 103.887 3.40479 102.019C1.62707 100.955 1.43073 98.7779 1.69039 97.012C1.871 95.7838 2.0064 94.5246 1.72645 93.3151L1.08438 90.5412C0.643581 88.6368 1.84927 86.7409 3.76083 86.3324C5.3743 85.9877 6.52736 84.5622 6.52736 82.9123V82.8663C6.52736 82.3576 6.63657 81.8549 6.8476 81.392L8.80594 77.0965C9.36212 75.8766 9.64993 74.5515 9.64993 73.2108V72.1321C9.64993 70.6881 9.03299 66.2097 6.57271 59.7973C6.54292 59.7197 6.4052 59.4988 6.35779 59.4304C5.69958 58.4818 2.79982 54.7957 2.57273 53.6636L2.23174 51.9637C2.18182 51.7148 2.19226 51.4576 2.26218 51.2136L2.74932 49.5137C3.13737 48.1596 4.37555 47.2264 5.78415 47.2264C6.27294 47.2264 6.75322 47.1113 7.19599 46.9042C9.06575 46.0298 12.2574 44.7361 14.0215 44.7361C16.02 44.7361 16.5196 43.0757 16.5196 42.2455V37.3013C16.5196 35.9054 17.6512 34.7738 19.0471 34.7738C19.4384 34.7738 19.8245 34.6829 20.1747 34.5083L21.8439 33.6762C23.6577 32.772 25.1294 31.3039 26.038 29.4922L26.2127 29.1437C26.4119 28.7467 26.5825 28.336 26.7233 27.9147L28.527 22.5198C28.8468 21.5633 29.319 20.6648 29.9252 19.8589L30.8834 18.5851C33.4598 15.6494 37.6474 14.9618 41.3651 16.1597C42.4055 16.4949 43.3444 16.717 43.9982 16.717H48.9943H53.9904H56.4885H56.5499C58.0619 16.717 59.4633 15.9248 60.2429 14.6293C60.6467 13.9583 60.8601 13.19 60.8601 12.4069V7.37738C60.8601 5.72312 64.0436 4.06139 65.016 2.72306C65.0889 2.6226 65.1609 2.51382 65.2317 2.39625C66.7305 -0.0943214 68.3542 1.35851 68.9787 2.39625C69.8114 3.43398 72.1013 5.50945 74.5994 5.50945C77.7219 5.50945 78.9709 7.37738 80.8445 7.37738C82.7957 7.37738 84.5878 6.36584 85.963 4.98164C86.9865 3.95141 88.2576 2.92669 89.5877 2.39625C89.9351 2.25768 90.2705 2.12554 90.5921 2.00016C93.0809 1.02988 95.8662 1.45816 98.0288 3.02625C100.18 4.5861 101.453 7.08263 101.453 9.73988V11.7359C101.453 12.697 102.142 14.5683 102.856 16.2231C103.487 17.6893 104.959 18.5851 106.556 18.5851C106.9 18.5851 107.243 18.543 107.577 18.4598L113.452 16.9951C114.194 16.8104 114.954 16.717 115.718 16.717H122.687H127.292C128.366 16.717 129.418 17.008 130.34 17.5591C131.452 18.2248 132.751 18.4973 134.045 18.4031C135.804 18.275 137.675 18.2331 137.675 18.5851C137.675 19.0832 141.422 20.453 143.296 21.0757L147.737 22.5517C148.441 22.7857 148.916 23.4444 148.916 24.1864C148.916 24.5903 149.058 24.9813 149.317 25.2912L150.478 26.6795C151.486 27.8862 152.039 29.4091 152.039 30.9819V32.2832C152.039 33.8281 151.218 35.2458 149.949 36.1272C147.96 37.5089 145.794 39.2996 145.794 40.3776C145.794 41.1949 144.922 41.6769 143.894 41.9459C142.319 42.3578 140.699 42.7261 139.344 43.6269C138.247 44.3558 137.341 45.3362 136.7 46.4864L135.369 48.8742C134.834 49.8354 134.553 50.9174 134.553 52.0177V52.4937C134.553 53.9051 135.114 55.2584 136.114 56.255L136.969 57.1079C137.421 57.5584 137.675 58.1702 137.675 58.8082C137.675 59.3711 137.477 59.9161 137.116 60.348L135.002 62.8773C134.703 63.2355 134.378 63.5672 134.037 63.8857C132.151 65.646 128.433 69.5027 124.476 74.6932C123.29 76.2494 122.252 78.0191 121.188 79.6616C120.387 80.8984 119.564 82.9205 119.564 87.0757V98.2833C119.564 102.642 122.687 103.264 125.809 105.755C127.642 107.217 130.697 105.545 133.041 105.491C134.689 105.454 136.419 105.505 137.675 105.755C140.736 106.365 141.396 106.976 156.118 109.93C156.721 110.051 157.354 110.076 157.953 110.216C159.288 110.527 160.079 111.496 160.482 112.349C160.747 112.908 160.782 113.538 160.782 114.156V119.453C160.782 121.845 161.701 124.422 164.037 124.933C164.396 125.011 164.77 125.057 165.154 125.057C166.625 125.057 167.417 126.783 166.458 127.898L165.699 128.782C165.347 129.191 165.154 129.712 165.154 130.252V130.515C165.154 131.396 165.546 132.232 166.224 132.795L168.901 135.019L172.023 138.133L173.537 139.339C174.597 140.185 175.452 141.256 176.112 142.441C177.098 144.211 178.446 146.404 179.518 147.472C181.391 149.34 186.387 145.604 188.885 145.604H191.677C193.089 145.604 194.443 146.164 195.443 147.161C195.651 147.368 195.874 147.558 196.116 147.724C196.652 148.092 197.34 148.539 198.071 148.969C200.11 150.17 202 152.503 202 154.869C202 155.331 201.926 155.79 201.779 156.228L201.093 158.279C200.465 160.158 199.202 161.738 197.82 163.158C196.722 164.286 195.755 165.627 195.755 166.774C195.755 168.795 195.003 170.743 194.368 172.661C194.085 173.516 193.881 174.487 193.881 175.491V179.116C193.881 180.818 193.432 182.497 192.485 183.911C191.177 185.863 189.593 187.944 188.885 187.944C188.152 187.944 186.25 186.601 184.714 185.394C183.764 184.647 182.6 184.208 181.391 184.208C180.182 184.208 179.013 184.64 178.093 185.425L177.332 186.076C175.921 187.281 174.126 187.944 172.271 187.944H171.106C169.656 187.944 168.225 187.607 166.927 186.96L165.154 186.076L161.244 184.405C160.937 184.274 160.642 184.115 160.364 183.93L159.038 183.049C157.845 182.255 156.275 182.324 155.155 183.217C154.37 183.843 153.913 184.793 153.913 185.797V187.944V192.343C153.913 192.727 153.834 193.107 153.683 193.459C152.895 195.293 150.467 195.754 149.448 194.037C149.22 193.652 149.033 193.274 148.916 192.925C148.518 191.734 147.3 189.936 146.4 188.73C146.005 188.201 145.642 187.648 145.361 187.05C144.673 185.584 143.699 183.326 143.296 181.717C142.796 179.725 141.839 177.982 141.422 177.359C140.59 176.321 138.674 173.872 137.675 172.378C136.426 170.51 135.802 168.642 134.553 166.774C134.115 166.12 133.661 165.6 133.255 165.206C132.533 164.506 131.691 163.921 130.979 163.211L128.932 161.17L122.687 153.699L119.564 150.585L118.297 149.322C117.109 148.137 115.5 147.472 113.822 147.472C112.675 147.472 111.559 147.144 110.523 146.653C109.398 146.119 108.038 145.604 107.074 145.604H101.453H95.6475C94.9406 145.604 94.236 145.684 93.5472 145.843Z" fill="#5C5C5C" fill-opacity="0.9"/>
<path d="M31.2575 82.5253C31.6947 82.5253 32.1362 82.5253 32.582 82.5253C33.0366 82.5253 33.4825 82.534 33.9196 82.5515C34.3655 82.5602 34.7939 82.5777 35.2048 82.6039L35.1392 83.6137H31.5329C31.2794 83.6137 31.0914 83.6793 30.969 83.8104C30.8466 83.9415 30.7854 84.1514 30.7854 84.4399V89.6854C30.7854 89.9739 30.8466 90.1881 30.969 90.328C31.0914 90.4591 31.2794 90.5247 31.5329 90.5247H35.1392L35.2048 91.5213C34.7939 91.5476 34.3655 91.5651 33.9196 91.5738C33.4825 91.5825 33.0366 91.5869 32.582 91.5869C32.1362 91.5957 31.6947 91.6 31.2575 91.6C30.7155 91.6 30.2827 91.4558 29.9593 91.1673C29.6358 90.87 29.4741 90.4766 29.4741 89.987V84.1383C29.4741 83.6399 29.6358 83.2465 29.9593 82.958C30.2827 82.6695 30.7155 82.5253 31.2575 82.5253ZM29.697 86.3152H34.6278V87.3249H29.697V86.3152ZM38.2794 85.148C38.8476 85.148 39.4203 85.1524 39.9973 85.1611C40.583 85.1699 41.1382 85.2048 41.6627 85.266L41.6103 86.1578H38.817C38.5548 86.1578 38.3624 86.219 38.24 86.3414C38.1264 86.455 38.0696 86.643 38.0696 86.9053V91.5869H36.8237V86.5774C36.8237 86.1053 36.9461 85.7513 37.1909 85.5152C37.4357 85.2704 37.7985 85.148 38.2794 85.148ZM45.5979 85.03C46.3498 85.03 46.9486 85.1393 47.3945 85.3578C47.8404 85.5764 48.1639 85.9349 48.3649 86.4332C48.566 86.9228 48.6666 87.5741 48.6666 88.3871C48.6666 89.2089 48.566 89.869 48.3649 90.3673C48.1639 90.8569 47.8404 91.211 47.3945 91.4295C46.9486 91.6481 46.3498 91.7574 45.5979 91.7574C44.8461 91.7574 44.2428 91.6481 43.7882 91.4295C43.3423 91.211 43.0189 90.8569 42.8178 90.3673C42.6167 89.869 42.5162 89.2089 42.5162 88.3871C42.5162 87.5741 42.6167 86.9228 42.8178 86.4332C43.0189 85.9349 43.3423 85.5764 43.7882 85.3578C44.2428 85.1393 44.8461 85.03 45.5979 85.03ZM45.5979 86.0529C45.1608 86.0529 44.8111 86.1228 44.5488 86.2627C44.2953 86.4026 44.1117 86.643 43.998 86.984C43.8931 87.3162 43.8407 87.7839 43.8407 88.3871C43.8407 88.9904 43.8931 89.4625 43.998 89.8034C44.1117 90.1444 44.2953 90.3848 44.5488 90.5247C44.8111 90.6558 45.1608 90.7214 45.5979 90.7214C46.035 90.7214 46.3804 90.6558 46.6339 90.5247C46.8874 90.3848 47.0667 90.1444 47.1716 89.8034C47.2765 89.4625 47.3289 88.9904 47.3289 88.3871C47.3289 87.7839 47.2765 87.3162 47.1716 86.984C47.0667 86.643 46.8874 86.4026 46.6339 86.2627C46.3804 86.1228 46.035 86.0529 45.5979 86.0529ZM54.1245 85.03C54.92 85.03 55.4883 85.3185 55.8293 85.8955C56.1702 86.4725 56.3407 87.3162 56.3407 88.4265C56.3407 89.257 56.2533 89.9171 56.0784 90.4067C55.9036 90.8875 55.6369 91.2328 55.2785 91.4427C54.92 91.6437 54.4698 91.7443 53.9278 91.7443C53.4994 91.7443 53.0797 91.6875 52.6688 91.5738C52.2579 91.4514 51.8689 91.2678 51.5017 91.023L51.5804 90.3149C51.9651 90.4285 52.306 90.5203 52.6033 90.5903C52.9005 90.6602 53.2196 90.6952 53.5606 90.6952C53.919 90.6952 54.2032 90.634 54.413 90.5116C54.6315 90.3892 54.7889 90.1619 54.8851 89.8297C54.9812 89.4974 55.0293 89.0297 55.0293 88.4265C55.0293 87.832 54.9856 87.3686 54.8982 87.0364C54.8108 86.6955 54.6709 86.455 54.4785 86.3152C54.2862 86.1665 54.0239 86.0922 53.6917 86.0922C53.3595 86.0922 53.0317 86.1709 52.7082 86.3283C52.3847 86.4769 52.0131 86.7129 51.5935 87.0364L51.4493 86.2496C51.6678 86.0048 51.9213 85.7906 52.2099 85.607C52.5071 85.4234 52.8218 85.2835 53.154 85.1874C53.4863 85.0825 53.8097 85.03 54.1245 85.03ZM51.3968 85.1874L51.541 86.4856L51.6328 86.6561V90.7739L51.5673 90.9312C51.5935 91.176 51.611 91.4164 51.6197 91.6525C51.6372 91.8885 51.6416 92.1377 51.6328 92.4V94.1966H50.3739V85.1874H51.3968ZM60.7065 87.6265C61.3797 87.6265 61.9086 87.6877 62.2933 87.8101C62.6779 87.9325 62.949 88.1423 63.1063 88.4396C63.2724 88.7368 63.3555 89.139 63.3555 89.6461C63.3555 90.1706 63.2724 90.5815 63.1063 90.8788C62.9402 91.176 62.6736 91.3815 62.3064 91.4951C61.9479 91.6088 61.4802 91.6656 60.9032 91.6656C60.4748 91.6656 60.1033 91.6612 59.7885 91.6525C59.4738 91.6525 59.1853 91.6437 58.923 91.6263C58.6607 91.6175 58.3853 91.6044 58.0968 91.5869L58.2411 90.6689C58.4072 90.6777 58.7088 90.6864 59.1459 90.6952C59.5918 90.7039 60.112 90.7083 60.7065 90.7083C61.0387 90.7083 61.3054 90.6777 61.5064 90.6165C61.7075 90.5553 61.8474 90.446 61.9261 90.2886C62.0135 90.1313 62.0572 89.8996 62.0572 89.5936C62.0572 89.3226 62.0179 89.1084 61.9392 88.951C61.8605 88.7937 61.725 88.6844 61.5327 88.6232C61.3403 88.5532 61.0649 88.5183 60.7065 88.5183H58.228V87.6265H60.7065ZM59.2902 85.1874V91.5869H58.0575V85.1874H59.2902ZM67.572 85.03C68.5599 85.03 69.2724 85.2092 69.7096 85.5677C70.1554 85.9174 70.3827 86.4375 70.3915 87.1282C70.3915 87.7052 70.2647 88.1511 70.0112 88.4658C69.7576 88.7806 69.3424 88.9379 68.7654 88.9379H65.0541V88.0331H68.4375C68.7173 88.0331 68.9009 87.9413 68.9883 87.7577C69.0845 87.5741 69.1282 87.3643 69.1194 87.1282C69.1194 86.7348 69.0058 86.455 68.7785 86.2889C68.5599 86.1228 68.1752 86.0398 67.6245 86.0398C67.1786 86.0398 66.8289 86.1053 66.5753 86.2365C66.3218 86.3676 66.1426 86.5949 66.0377 86.9184C65.9328 87.2419 65.8803 87.6965 65.8803 88.2822C65.8803 88.9379 65.9459 89.4406 66.077 89.7903C66.2082 90.1313 66.4136 90.3673 66.6934 90.4985C66.9819 90.6296 67.3622 90.6952 67.8343 90.6952C68.1752 90.6952 68.5512 90.6821 68.9621 90.6558C69.3817 90.6209 69.762 90.5815 70.103 90.5378L70.221 91.364C70.0199 91.4514 69.7664 91.5257 69.4604 91.5869C69.1631 91.6394 68.8572 91.6787 68.5424 91.7049C68.2277 91.7312 67.9392 91.7443 67.6769 91.7443C66.9338 91.7443 66.3306 91.6306 65.8672 91.4033C65.4126 91.176 65.0804 90.8176 64.8705 90.328C64.6695 89.8297 64.5689 89.1783 64.5689 88.374C64.5689 87.5347 64.6738 86.8703 64.8837 86.3807C65.0935 85.8911 65.417 85.5458 65.8541 85.3447C66.2912 85.1349 66.8638 85.03 67.572 85.03ZM74.7049 85.1218C75.3781 85.1218 75.9114 85.1699 76.3048 85.266C76.6982 85.3622 76.9823 85.5327 77.1572 85.7775C77.3408 86.0223 77.4326 86.372 77.4326 86.8266C77.4326 87.2812 77.3233 87.6265 77.1047 87.8626C76.8862 88.0899 76.5321 88.2254 76.0425 88.2691V88.3085C76.637 88.3522 77.0523 88.5183 77.2883 88.8068C77.5331 89.0953 77.6555 89.4974 77.6555 90.0133C77.6555 90.4504 77.5681 90.7913 77.3932 91.0361C77.2184 91.2722 76.943 91.4383 76.5671 91.5345C76.1911 91.6306 75.6928 91.6787 75.0721 91.6787C74.6087 91.6787 74.2022 91.6743 73.8525 91.6656C73.5115 91.6656 73.1968 91.6569 72.9083 91.6394C72.6285 91.6306 72.3313 91.6175 72.0166 91.6L72.1739 90.6952C72.3488 90.7039 72.6766 90.7127 73.1575 90.7214C73.647 90.7214 74.2197 90.7214 74.8754 90.7214C75.2513 90.7214 75.5486 90.6952 75.7671 90.6427C75.9944 90.5903 76.1518 90.4941 76.2392 90.3542C76.3354 90.2056 76.3835 90.0001 76.3835 89.7379C76.3835 89.3444 76.2698 89.0778 76.0425 88.9379C75.8152 88.7893 75.4087 88.715 74.8229 88.715H72.1608V87.8626H74.8229C75.1639 87.8626 75.4349 87.8407 75.636 87.797C75.8458 87.7446 75.9944 87.6528 76.0818 87.5216C76.178 87.3817 76.2261 87.1894 76.2261 86.9446C76.2261 86.7086 76.1736 86.5293 76.0687 86.4069C75.9726 86.2846 75.8108 86.1971 75.5835 86.1447C75.3562 86.0922 75.0502 86.066 74.6656 86.066C74.2721 86.0572 73.9224 86.0529 73.6164 86.0529C73.3105 86.0529 73.0394 86.0572 72.8034 86.066C72.5673 86.066 72.3575 86.0747 72.1739 86.0922L72.0166 85.2005C72.2963 85.1742 72.563 85.1568 72.8165 85.148C73.07 85.1393 73.3454 85.1349 73.6427 85.1349C73.9487 85.1262 74.3027 85.1218 74.7049 85.1218ZM73.2099 85.2005V91.6H72.0166V85.2005H73.2099ZM82.0964 85.03C82.2975 85.03 82.5204 85.0387 82.7652 85.0562C83.01 85.0737 83.2591 85.1043 83.5127 85.148C83.7662 85.1917 84.0023 85.2573 84.2208 85.3447L84.0635 86.1578C83.7575 86.1316 83.4427 86.1141 83.1193 86.1053C82.8045 86.0878 82.5335 86.0791 82.3062 86.0791C81.8254 86.0791 81.4407 86.149 81.1522 86.2889C80.8637 86.4201 80.6539 86.6517 80.5227 86.984C80.4003 87.3162 80.3391 87.7795 80.3391 88.374C80.3391 88.9685 80.4003 89.4362 80.5227 89.7772C80.6539 90.1182 80.8637 90.3542 81.1522 90.4854C81.4407 90.6165 81.8254 90.6821 82.3062 90.6821C82.4373 90.6821 82.6078 90.6777 82.8176 90.6689C83.0362 90.6602 83.2679 90.6471 83.5127 90.6296C83.7575 90.6121 83.9892 90.5859 84.2077 90.5509L84.3257 91.3902C84.011 91.5126 83.6569 91.6 83.2635 91.6525C82.8701 91.7137 82.4767 91.7443 82.0833 91.7443C81.3402 91.7443 80.7413 91.635 80.2867 91.4164C79.8408 91.1979 79.5173 90.8438 79.3163 90.3542C79.1152 89.8646 79.0146 89.2046 79.0146 88.374C79.0146 87.5522 79.1152 86.8965 79.3163 86.4069C79.5173 85.9174 79.8408 85.5677 80.2867 85.3578C80.7413 85.1393 81.3445 85.03 82.0964 85.03ZM91.3169 85.1874C91.1683 85.5808 91.0328 85.9349 90.9104 86.2496C90.788 86.5643 90.6656 86.8397 90.5432 87.0758C90.4208 87.3118 90.281 87.5085 90.1236 87.6659C89.975 87.8232 89.8001 87.95 89.599 88.0462C89.4067 88.1423 89.1706 88.2035 88.8909 88.2298V88.2822C89.1881 88.3085 89.4373 88.3653 89.6384 88.4527C89.8482 88.5401 90.0318 88.6669 90.1892 88.833C90.3553 88.9991 90.5039 89.2089 90.635 89.4625C90.7662 89.7073 90.9017 90.0089 91.0416 90.3673C91.1814 90.717 91.3344 91.1236 91.5005 91.5869H90.176C90.0187 91.1585 89.8744 90.787 89.7433 90.4722C89.6209 90.1488 89.4985 89.8777 89.3761 89.6592C89.2537 89.4319 89.1226 89.2527 88.9827 89.1215C88.8428 88.9816 88.6767 88.8855 88.4844 88.833C88.3008 88.7718 88.0822 88.7412 87.8287 88.7412V87.7839C88.1347 87.7839 88.3926 87.7314 88.6024 87.6265C88.8122 87.5129 88.9914 87.3468 89.1401 87.1282C89.2974 86.9096 89.4417 86.643 89.5728 86.3283C89.7039 86.0048 89.8482 85.6245 90.0056 85.1874H91.3169ZM87.0812 85.1874V87.0364C87.0812 87.2375 87.0637 87.4429 87.0287 87.6528C87.0025 87.8538 86.9588 88.0462 86.8976 88.2298C86.95 88.4221 86.9938 88.6144 87.0287 88.8068C87.0637 88.9991 87.0812 89.1783 87.0812 89.3444V91.5869H85.8091V85.1874H87.0812ZM88.2614 87.7839V88.7412H86.714V87.7839H88.2614ZM98.6478 85.1874V91.5869H97.5069V87.5085C97.5069 87.3599 97.5113 87.2156 97.52 87.0758C97.5287 86.9359 97.5419 86.7829 97.5593 86.6168H97.52C97.4675 86.7479 97.3976 86.8878 97.3102 87.0364C97.2315 87.1763 97.1528 87.2987 97.0741 87.4036L93.9661 91.5869H92.9039V85.1874H94.0448V89.2789C94.0448 89.4188 94.0405 89.5586 94.0317 89.6985C94.0317 89.8384 94.023 89.9914 94.0055 90.1575H94.0317C94.1017 90.0176 94.176 89.8821 94.2547 89.751C94.3333 89.6111 94.412 89.4931 94.4907 89.3969L97.5987 85.1874H98.6478ZM106.396 85.1874V91.5869H105.255V87.5085C105.255 87.3599 105.259 87.2156 105.268 87.0758C105.277 86.9359 105.29 86.7829 105.307 86.6168H105.268C105.215 86.7479 105.146 86.8878 105.058 87.0364C104.979 87.1763 104.901 87.2987 104.822 87.4036L101.714 91.5869H100.652V85.1874H101.793V89.2789C101.793 89.4188 101.788 89.5586 101.78 89.6985C101.78 89.8384 101.771 89.9914 101.753 90.1575H101.78C101.85 90.0176 101.924 89.8821 102.003 89.751C102.081 89.6111 102.16 89.4931 102.239 89.3969L105.347 85.1874H106.396ZM104.573 82.3417H105.491C105.526 82.6914 105.465 83.0061 105.307 83.2859C105.15 83.5569 104.918 83.7798 104.612 83.9547C104.306 84.1208 103.939 84.2038 103.511 84.2038C103.074 84.2038 102.698 84.1208 102.383 83.9547C102.077 83.7798 101.845 83.5569 101.688 83.2859C101.53 83.0061 101.465 82.6914 101.491 82.3417H102.422C102.413 82.7263 102.505 83.0192 102.698 83.2203C102.89 83.4126 103.161 83.5088 103.511 83.5088C103.852 83.5088 104.114 83.4126 104.297 83.2203C104.481 83.0192 104.573 82.7263 104.573 82.3417Z" fill="white"/>
</svg>
