<svg width="140" height="99" viewBox="0 0 140 99" fill="none" xmlns="http://www.w3.org/2000/svg">
<path d="M9.57221 51.7875L3.73503 53.1569C1.95943 53.5734 0.704102 55.1573 0.704102 56.9811V62.53C0.704102 64.4951 1.73649 66.3157 3.42287 67.3245L3.47063 67.353C3.70757 67.4948 3.93218 67.6562 4.14208 67.8356L5.13911 68.6876C6.7877 70.0964 6.94924 72.8691 6.94924 75.0377C6.94924 75.8616 7.0916 76.7848 7.28804 77.6577C7.70215 79.498 9.43455 80.6415 11.3208 80.6415H16.5207C18.4215 80.6415 20.2712 81.2282 21.866 82.2625C24.7165 84.1112 28.2989 86.2453 29.4317 86.2453C30.9306 86.2453 34.2197 83.7547 35.6769 82.5094C36.5096 81.8868 38.5496 80.6415 40.0485 80.6415H41.1647C42.9625 80.6415 44.4201 82.0989 44.4201 83.8968C44.4201 85.299 45.3169 86.5625 46.6974 86.8085C48.7775 87.1792 51.4243 87.2855 53.1632 86.2453C53.551 86.0133 53.8434 85.7784 54.0569 85.5447C55.1387 84.3603 55.047 81.5704 56.4826 80.8547C56.7639 80.7145 57.0739 80.6415 57.3882 80.6415H65.6535H68.5534C70.3305 80.6415 72.0596 80.1153 73.6353 79.2936C76.3522 77.8766 80.1799 76.283 83.1399 76.283H86.887C88.2666 76.283 89.385 77.4014 89.385 78.7811V83.9255C89.385 85.438 89.8538 86.9066 90.5469 88.2508C91.336 89.7812 92.1872 91.8003 92.5076 93.717C93.1321 97.4528 95.0057 98.6981 96.2547 98.6981H103.749C105.03 98.6981 105.866 97.8457 106.356 96.9603C106.816 96.1296 107.292 95.2705 108.052 94.7019C108.894 94.0727 109.956 93.8144 110.992 93.9866L120.1 95.5C120.44 95.5565 120.784 95.5849 121.129 95.5849C122.022 95.5849 122.905 95.7757 123.719 96.1445L126.36 97.3413C128.276 98.2095 130.459 98.2742 132.423 97.5212L134.348 96.7831C136.23 96.0613 137.473 94.2542 137.473 92.2384C137.473 89.8582 135.751 87.8271 133.403 87.437L129.112 86.724C127.45 86.4478 126.231 85.01 126.231 83.325C126.231 82.7887 126.357 82.2598 126.597 81.7804L126.971 81.0343C128.378 78.228 131.563 76.9779 134.64 76.3581C134.753 76.3354 134.865 76.3104 134.975 76.283C137.473 75.6604 139.971 72.5471 139.971 71.3019C139.971 70.3056 138.305 65.9056 137.473 63.8302L136.501 62.1344C135.509 60.4045 133.992 59.0361 132.169 58.2283L131.166 57.7842C129.971 57.2547 128.679 56.9811 127.372 56.9811H121.796C121.025 56.9811 120.273 56.7409 119.646 56.2938C117.834 55.004 117.559 52.4207 119.057 50.7777L120.888 48.7696C121.915 47.6432 122.484 46.1739 122.484 44.6496V40.1698V36.8465C122.484 35.587 123.505 34.566 124.765 34.566C125.658 34.566 126.469 34.0444 126.84 33.2315L128.309 30.0091C128.988 28.519 129.181 26.8527 128.858 25.247L126.427 13.1259C126.297 12.4788 126.081 11.852 125.786 11.2621L121.979 3.6715C121.339 2.39589 119.594 2.21075 118.701 3.32377C118.329 3.78703 117.767 4.05657 117.173 4.05657H106.871H99.9767C99.1642 4.05657 98.3551 4.16228 97.5699 4.37105L90.5679 6.23266C89.7827 6.44142 88.9736 6.54713 88.1611 6.54713H83.1399H81.4797C79.3221 6.54713 77.2307 7.29197 75.5588 8.65577L72.2495 11.3553C71.6022 11.8833 70.8871 12.3224 70.1234 12.6608L66.7565 14.1528C66.0242 14.4772 65.3366 14.8943 64.7104 15.3937L60.5159 18.7393C59.816 19.2975 59.4084 20.144 59.4084 21.0392C59.4084 22.664 58.0913 23.9811 56.4665 23.9811H54.8661C53.7682 23.9811 52.7074 23.5834 51.8801 22.8617L49.2341 20.5534C48.5462 19.9533 47.6641 19.6226 46.7512 19.6226C45.3222 19.6226 44.0156 18.8162 43.375 17.5388L43.171 17.132C42.4054 15.6054 40.8437 14.6415 39.1358 14.6415H37.4013C36.2672 14.6415 35.1486 14.9048 34.1336 15.4108L29.3356 17.8026C27.0073 18.9633 25.2665 21.0401 24.5304 23.5354L22.9449 28.91C22.691 29.7705 22.5621 30.6631 22.5621 31.5603V37.1164C22.5621 39.1006 21.932 41.0336 20.7626 42.6366L18.4887 45.7539C17.8778 46.5914 17.1321 47.3217 16.282 47.915L12.7937 50.3494C11.8207 51.0285 10.7274 51.5165 9.57221 51.7875Z" fill="#5C5C5C" fill-opacity="0.9"/>
<path d="M38.2185 45.0442V48.4932C38.2097 48.9128 38.3015 49.2188 38.4939 49.4111C38.6862 49.5947 39.0009 49.6865 39.4381 49.6865C39.7528 49.6865 40.0457 49.6647 40.3167 49.621C40.5964 49.5772 40.885 49.5029 41.1822 49.398C41.4882 49.2844 41.8248 49.1357 42.192 48.9522L42.2969 49.857C41.9209 50.0931 41.5319 50.2854 41.1297 50.434C40.7363 50.5739 40.356 50.6788 39.9888 50.7487C39.6217 50.8099 39.2851 50.8405 38.9791 50.8405C38.2709 50.8405 37.7464 50.6701 37.4054 50.3291C37.0732 49.9881 36.9071 49.468 36.9071 48.7686V45.0442H38.2185ZM43.3198 45.0442V54.0928H42.0215V45.0442H43.3198ZM48.1176 47.5359C49.1055 47.5359 49.818 47.7151 50.2551 48.0735C50.701 48.4232 50.9283 48.9434 50.937 49.6341C50.937 50.2111 50.8103 50.6569 50.5567 50.9717C50.3032 51.2864 49.8879 51.4438 49.3109 51.4438H45.5997V50.5389H48.9831C49.2628 50.5389 49.4464 50.4471 49.5339 50.2635C49.63 50.0799 49.6737 49.8701 49.665 49.6341C49.665 49.2407 49.5514 48.9609 49.324 48.7948C49.1055 48.6287 48.7208 48.5456 48.17 48.5456C47.7242 48.5456 47.3745 48.6112 47.1209 48.7423C46.8674 48.8735 46.6882 49.1008 46.5833 49.4242C46.4783 49.7477 46.4259 50.2023 46.4259 50.7881C46.4259 51.4438 46.4915 51.9465 46.6226 52.2962C46.7537 52.6371 46.9592 52.8732 47.2389 53.0043C47.5274 53.1355 47.9077 53.201 48.3798 53.201C48.7208 53.201 49.0967 53.1879 49.5076 53.1617C49.9273 53.1267 50.3076 53.0874 50.6485 53.0437L50.7666 53.8698C50.5655 53.9573 50.312 54.0316 50.006 54.0928C49.7087 54.1452 49.4027 54.1846 49.088 54.2108C48.7733 54.237 48.4848 54.2501 48.2225 54.2501C47.4794 54.2501 46.8761 54.1365 46.4128 53.9092C45.9582 53.6819 45.6259 53.3234 45.4161 52.8338C45.215 52.3355 45.1145 51.6842 45.1145 50.8799C45.1145 50.0406 45.2194 49.3762 45.4292 48.8866C45.6391 48.397 45.9625 48.0517 46.3997 47.8506C46.8368 47.6408 47.4094 47.5359 48.1176 47.5359ZM58.0087 47.6932L56.0416 50.8012L58.166 54.0928H56.8022L54.7564 50.8012L56.658 47.6932H58.0087ZM53.1828 47.6932L55.0843 50.8012L53.0254 54.0928H51.6616L53.786 50.8012L51.8321 47.6932H53.1828ZM55.6613 50.3029V51.234H54.1794V50.3029H55.6613ZM62.0785 47.5359C62.8303 47.5359 63.4292 47.6451 63.8751 47.8637C64.3209 48.0823 64.6444 48.4407 64.8455 48.939C65.0466 49.4286 65.1471 50.0799 65.1471 50.893C65.1471 51.7148 65.0466 52.3749 64.8455 52.8732C64.6444 53.3628 64.3209 53.7168 63.8751 53.9354C63.4292 54.154 62.8303 54.2633 62.0785 54.2633C61.3266 54.2633 60.7234 54.154 60.2688 53.9354C59.8229 53.7168 59.4994 53.3628 59.2983 52.8732C59.0973 52.3749 58.9967 51.7148 58.9967 50.893C58.9967 50.0799 59.0973 49.4286 59.2983 48.939C59.4994 48.4407 59.8229 48.0823 60.2688 47.8637C60.7234 47.6451 61.3266 47.5359 62.0785 47.5359ZM62.0785 48.5587C61.6413 48.5587 61.2916 48.6287 61.0294 48.7686C60.7758 48.9084 60.5922 49.1489 60.4786 49.4898C60.3737 49.822 60.3212 50.2898 60.3212 50.893C60.3212 51.4962 60.3737 51.9683 60.4786 52.3093C60.5922 52.6503 60.7758 52.8907 61.0294 53.0306C61.2916 53.1617 61.6413 53.2273 62.0785 53.2273C62.5156 53.2273 62.8609 53.1617 63.1145 53.0306C63.368 52.8907 63.5472 52.6503 63.6521 52.3093C63.757 51.9683 63.8095 51.4962 63.8095 50.893C63.8095 50.2898 63.757 49.822 63.6521 49.4898C63.5472 49.1489 63.368 48.9084 63.1145 48.7686C62.8609 48.6287 62.5156 48.5587 62.0785 48.5587ZM69.5297 47.6277C70.2029 47.6277 70.7362 47.6757 71.1296 47.7719C71.523 47.8681 71.8071 48.0386 71.982 48.2833C72.1656 48.5281 72.2574 48.8778 72.2574 49.3325C72.2574 49.7871 72.1481 50.1324 71.9295 50.3684C71.711 50.5958 71.3569 50.7313 70.8673 50.775V50.8143C71.4618 50.858 71.8771 51.0241 72.1131 51.3126C72.3579 51.6011 72.4803 52.0033 72.4803 52.5191C72.4803 52.9562 72.3929 53.2972 72.218 53.542C72.0432 53.778 71.7678 53.9441 71.3919 54.0403C71.0159 54.1365 70.5176 54.1846 69.8969 54.1846C69.4335 54.1846 69.027 54.1802 68.6773 54.1715C68.3363 54.1715 68.0216 54.1627 67.7331 54.1452C67.4533 54.1365 67.1561 54.1234 66.8414 54.1059L66.9987 53.201C67.1736 53.2098 67.5014 53.2185 67.9823 53.2273C68.4718 53.2273 69.0445 53.2273 69.7002 53.2273C70.0761 53.2273 70.3734 53.201 70.5919 53.1486C70.8192 53.0961 70.9766 53 71.064 52.8601C71.1602 52.7114 71.2083 52.506 71.2083 52.2437C71.2083 51.8503 71.0946 51.5837 70.8673 51.4438C70.64 51.2952 70.2335 51.2208 69.6477 51.2208H66.9856V50.3684H69.6477C69.9887 50.3684 70.2597 50.3466 70.4608 50.3029C70.6706 50.2504 70.8192 50.1586 70.9066 50.0275C71.0028 49.8876 71.0509 49.6953 71.0509 49.4505C71.0509 49.2144 70.9984 49.0352 70.8935 48.9128C70.7974 48.7904 70.6356 48.703 70.4083 48.6505C70.181 48.5981 69.875 48.5718 69.4904 48.5718C69.0969 48.5631 68.7472 48.5587 68.4412 48.5587C68.1353 48.5587 67.8642 48.5631 67.6282 48.5718C67.3921 48.5718 67.1823 48.5806 66.9987 48.5981L66.8414 47.7063C67.1211 47.6801 67.3878 47.6626 67.6413 47.6539C67.8948 47.6451 68.1702 47.6408 68.4675 47.6408C68.7735 47.632 69.1275 47.6277 69.5297 47.6277ZM68.0347 47.7063V54.1059H66.8414V47.7063H68.0347ZM76.9212 47.5359C77.1223 47.5359 77.3452 47.5446 77.59 47.5621C77.8348 47.5796 78.0839 47.6102 78.3375 47.6539C78.591 47.6976 78.8271 47.7632 79.0456 47.8506L78.8883 48.6636C78.5823 48.6374 78.2675 48.6199 77.9441 48.6112C77.6293 48.5937 77.3583 48.585 77.131 48.585C76.6502 48.585 76.2655 48.6549 75.977 48.7948C75.6885 48.9259 75.4787 49.1576 75.3475 49.4898C75.2251 49.822 75.1639 50.2854 75.1639 50.8799C75.1639 51.4744 75.2251 51.9421 75.3475 52.2831C75.4787 52.624 75.6885 52.8601 75.977 52.9912C76.2655 53.1223 76.6502 53.1879 77.131 53.1879C77.2621 53.1879 77.4326 53.1835 77.6424 53.1748C77.861 53.1661 78.0927 53.1529 78.3375 53.1355C78.5823 53.118 78.8139 53.0918 79.0325 53.0568L79.1505 53.8961C78.8358 54.0185 78.4817 54.1059 78.0883 54.1583C77.6949 54.2195 77.3015 54.2501 76.9081 54.2501C76.165 54.2501 75.5661 54.1409 75.1115 53.9223C74.6656 53.7037 74.3421 53.3497 74.1411 52.8601C73.94 52.3705 73.8394 51.7104 73.8394 50.8799C73.8394 50.0581 73.94 49.4024 74.1411 48.9128C74.3421 48.4232 74.6656 48.0735 75.1115 47.8637C75.5661 47.6451 76.1693 47.5359 76.9212 47.5359ZM86.1417 47.6932C85.9931 48.0866 85.8576 48.4407 85.7352 48.7554C85.6128 49.0702 85.4904 49.3456 85.368 49.5816C85.2456 49.8177 85.1058 50.0144 84.9484 50.1717C84.7998 50.3291 84.6249 50.4559 84.4238 50.552C84.2315 50.6482 83.9955 50.7094 83.7157 50.7356V50.7881C84.0129 50.8143 84.2621 50.8711 84.4632 50.9586C84.673 51.046 84.8566 51.1728 85.014 51.3389C85.1801 51.505 85.3287 51.7148 85.4598 51.9683C85.591 52.2131 85.7265 52.5147 85.8664 52.8732C86.0062 53.2229 86.1592 53.6294 86.3253 54.0928H85.0008C84.8435 53.6644 84.6992 53.2928 84.5681 52.9781C84.4457 52.6546 84.3233 52.3836 84.2009 52.165C84.0785 51.9377 83.9474 51.7585 83.8075 51.6274C83.6676 51.4875 83.5015 51.3913 83.3092 51.3389C83.1256 51.2777 82.907 51.2471 82.6535 51.2471V50.2898C82.9595 50.2898 83.2174 50.2373 83.4272 50.1324C83.637 50.0187 83.8162 49.8526 83.9649 49.6341C84.1222 49.4155 84.2665 49.1489 84.3976 48.8341C84.5287 48.5107 84.673 48.1303 84.8304 47.6932H86.1417ZM81.906 47.6932V49.5423C81.906 49.7434 81.8885 49.9488 81.8535 50.1586C81.8273 50.3597 81.7836 50.552 81.7224 50.7356C81.7748 50.928 81.8186 51.1203 81.8535 51.3126C81.8885 51.505 81.906 51.6842 81.906 51.8503V54.0928H80.6339V47.6932H81.906ZM83.0862 50.2898V51.2471H81.5388V50.2898H83.0862ZM93.4726 47.6932V54.0928H92.3317V50.0144C92.3317 49.8657 92.3361 49.7215 92.3448 49.5816C92.3535 49.4417 92.3667 49.2887 92.3841 49.1226H92.3448C92.2923 49.2538 92.2224 49.3936 92.135 49.5423C92.0563 49.6822 91.9776 49.8045 91.8989 49.9095L88.7909 54.0928H87.7287V47.6932H88.8696V51.7847C88.8696 51.9246 88.8653 52.0645 88.8565 52.2044C88.8565 52.3443 88.8478 52.4973 88.8303 52.6634H88.8565C88.9265 52.5235 89.0008 52.388 89.0795 52.2568C89.1581 52.117 89.2368 51.9989 89.3155 51.9028L92.4235 47.6932H93.4726ZM101.221 47.6932V54.0928H100.08V50.0144C100.08 49.8657 100.084 49.7215 100.093 49.5816C100.101 49.4417 100.115 49.2887 100.132 49.1226H100.093C100.04 49.2538 99.9703 49.3936 99.8829 49.5423C99.8042 49.6822 99.7255 49.8045 99.6468 49.9095L96.5389 54.0928H95.4766V47.6932H96.6176V51.7847C96.6176 51.9246 96.6132 52.0645 96.6044 52.2044C96.6044 52.3443 96.5957 52.4973 96.5782 52.6634H96.6044C96.6744 52.5235 96.7487 52.388 96.8274 52.2568C96.9061 52.117 96.9847 51.9989 97.0634 51.9028L100.171 47.6932H101.221ZM99.3977 44.8475H100.316C100.351 45.1972 100.289 45.512 100.132 45.7917C99.9747 46.0627 99.743 46.2857 99.437 46.4605C99.131 46.6266 98.7638 46.7097 98.3355 46.7097C97.8983 46.7097 97.5224 46.6266 97.2077 46.4605C96.9017 46.2857 96.67 46.0627 96.5126 45.7917C96.3553 45.512 96.2897 45.1972 96.3159 44.8475H97.247C97.2383 45.2322 97.3301 45.5251 97.5224 45.7261C97.7147 45.9185 97.9858 46.0147 98.3355 46.0147C98.6764 46.0147 98.9387 45.9185 99.1223 45.7261C99.3059 45.5251 99.3977 45.2322 99.3977 44.8475Z" fill="white"/>
</svg>
