<svg width="175" height="145" viewBox="0 0 175 145" fill="none" xmlns="http://www.w3.org/2000/svg">
<path d="M124.332 137.322V140.422C124.332 142.836 122.374 144.793 119.96 144.793H115.803C114.428 144.793 113.069 144.49 111.824 143.906L104.575 140.505C103.598 140.046 102.707 139.422 101.942 138.66L100.599 137.322L97.6217 134.353C97.129 133.861 96.8521 133.194 96.8521 132.498C96.8521 131.622 97.2911 130.803 98.0214 130.318L99.7579 129.164C100.315 128.793 100.812 128.339 101.231 127.817L102.186 126.628C102.776 125.892 103.098 124.977 103.098 124.033C103.098 121.744 101.242 119.888 98.9526 119.888H97.6498C97.1209 119.888 96.5947 119.811 96.088 119.659L91.6605 118.334C90.9754 118.129 90.2437 118.14 89.5651 118.366L89.1231 118.513C87.0877 119.189 84.9872 117.674 84.9872 115.529V115.058C84.9872 112.208 83.6892 109.512 81.4605 107.735L81.1007 107.448C79.5737 106.23 77.6783 105.567 75.7251 105.567H75.0196C73.7817 105.567 72.5714 105.932 71.5405 106.618C68.3976 108.706 64.0049 107.615 62.7942 104.041C62.675 103.689 62.576 103.363 62.5039 103.076C62.1096 101.503 59.875 100.861 58.1318 100.661L58.0535 100.652C57.2544 100.56 56.4527 100.468 55.6767 100.257L50.0136 98.7172L42.6014 97.5807C42.1316 97.5087 41.6571 97.4725 41.1818 97.4725H40.5308C38.9672 97.4725 37.4285 97.0811 36.0549 96.334L33.3721 94.8747C31.9986 94.1275 30.4598 93.7361 28.8962 93.7361H27.5319H24.4902C24.0427 93.7361 23.6182 93.9346 23.3312 94.278C22.426 95.3613 20.6617 94.7211 20.6617 93.3094V91.8688V88.1329V87.5157C20.6617 85.9028 20.095 84.3411 19.0605 83.1035C18.0747 81.9241 16.7223 81.1088 15.2191 80.7876L9.61875 79.5912C9.13875 79.4886 8.79571 79.0646 8.79571 78.5737C8.79571 78.3144 8.69886 78.0644 8.52414 77.8728L4.44153 73.3948C3.20811 72.042 2.39816 70.3573 2.11179 68.5491L0.677228 59.4908C0.469057 58.6606 0.177617 57.0002 0.677228 57.0002C1.13886 57.0002 1.99147 53.1024 2.44687 50.709C2.51752 50.3377 2.55077 49.9616 2.55077 49.5836V45.9534C2.55077 44.4891 3.73777 43.3021 5.202 43.3021C5.90378 43.3021 6.57823 43.5781 7.06388 44.0847C8.66377 45.7536 11.0706 48.4607 11.9185 50.1518C12.5342 51.3799 13.9722 52.5132 15.3262 53.3478C16.7217 54.208 17.9818 55.2922 19.2582 56.3209C19.7466 56.7145 20.2471 57.0002 20.6617 57.0002C21.9107 57.0002 27.5319 61.3593 31.279 59.4908C33.0219 58.6217 34.2862 57.9914 35.1211 57.5753C35.8806 57.1968 36.5407 56.6472 37.0507 55.9691C37.7629 55.0223 38.1481 53.8696 38.1481 52.6848V52.6417V51.214C38.1481 50.509 38.0538 49.8072 37.8679 49.1272L36.6513 44.678C36.4292 43.8655 35.691 43.3021 34.8488 43.3021C34.185 43.3021 33.5718 42.952 33.2387 42.3779C31.6227 39.5929 28.867 34.7568 27.5319 32.0946C26.5382 30.1131 26.5876 28.9344 26.9158 28.3045C27.1769 27.8035 27.7402 27.5284 28.1403 27.1295C29.7658 25.5089 32.4667 25.7765 33.7426 27.6846L33.7771 27.7361L35.7751 31.2222C36.1075 31.8021 36.501 32.3448 36.9489 32.8409L39.106 35.2306C40.882 37.1981 43.4086 38.321 46.0591 38.321H48.7654H56.8841H59.0928C60.1047 38.321 61.1025 38.086 62.008 37.6346C64.2257 36.5291 65.6273 34.2644 65.6273 31.7865V27.7361C65.6273 27.1437 65.4388 26.6336 65.1292 26.1972C64.2415 24.946 63.8506 22.3953 65.2236 21.7109C65.4872 21.5795 65.7079 21.3756 65.8598 21.1232L67.2417 18.8269C67.4128 18.5426 67.6374 18.2943 67.9031 18.0956C69.0536 17.2354 69.2728 15.5979 68.3893 14.4653L67.658 13.5278C66.4987 12.0418 66.6306 9.92443 67.9653 8.59375L69.4656 7.09794C69.8197 6.74482 70.2188 6.43466 70.648 6.17791C72.2112 5.24284 74.1155 5.0287 75.844 5.60315L77.7416 6.23378C78.4043 6.454 79.098 6.56626 79.7963 6.56626H80.2428C81.6813 6.56626 83.0612 7.13659 84.0799 8.15224C84.6766 8.74714 85.4034 9.19516 86.203 9.46089L89.1694 10.4467C90.1221 10.7634 91.1196 10.9248 92.1235 10.9248H94.9794H103.098C104.972 10.9248 107.47 6.56626 108.719 6.56626C109.426 6.56626 111.01 5.31809 112.318 4.14717C113.262 3.30202 114.322 2.58841 115.499 2.11904L118.289 1.00621C119.393 0.565989 120.57 0.339844 121.759 0.339844H124.332H127.682C128.771 0.339844 129.851 0.529644 130.875 0.900721L136.197 2.83041L144.243 6.26829C144.707 6.46661 145.155 6.70212 145.581 6.97252L150.369 10.0103C151.322 10.615 152.155 11.3888 152.849 12.2788C154.32 14.165 156.493 16.8388 158.055 18.3965C160.054 20.3889 162.219 25.4531 163.051 27.7361L166.428 35.0296C166.674 35.5623 166.87 36.117 167.013 36.6864L168.465 42.4774C168.601 43.0205 168.856 43.5266 169.211 43.9594L172.312 47.7379C173.103 48.7019 172.417 50.1518 171.17 50.1518H166.619C165.499 50.1518 164.394 49.9241 163.304 49.6656C161.497 49.237 159.168 49.0425 158.055 50.1518C157.343 50.8619 156.791 51.694 156.385 52.4607C155.703 53.7481 155.065 55.0868 154.101 56.1788C152.658 57.8137 150.733 59.943 149.312 61.3593L146.134 64.5278C145.37 65.2896 144.94 66.3243 144.94 67.4033C144.94 68.3274 145.262 69.2189 145.803 69.9679C147.508 72.3271 149.735 76.0649 149.312 78.1706C148.688 81.2839 148.063 83.7744 143.067 88.1329C141.193 89.3782 138.695 90.0008 136.197 91.8688C135.351 92.5014 135.072 93.3795 135.095 94.2764C135.151 96.4851 136.093 98.683 135.68 100.853C135.35 102.585 134.891 104.437 134.324 105.567L130.154 113.882C129.608 114.97 128.856 115.941 127.939 116.741L126.463 118.028C125.073 119.241 124.064 120.835 123.619 122.624C123.048 124.925 122.458 127.578 122.458 128.605C122.458 130.473 124.332 135.454 124.332 137.322Z" fill="#5C5C5C" fill-opacity="0.9"/>
<path d="M45.466 52.2347V53.2707H42.6465C42.0695 53.2707 41.7547 53.5635 41.7023 54.1493C41.6411 54.8837 41.5843 55.5262 41.5318 56.077C41.4794 56.619 41.4182 57.0999 41.3482 57.5195C41.287 57.9304 41.2127 58.2976 41.1253 58.6211C41.0466 58.9358 40.9329 59.2418 40.7843 59.5391C40.6182 59.9237 40.4171 60.2516 40.1811 60.5226C39.9538 60.7936 39.6871 60.9947 39.3811 61.1258C39.0839 61.2482 38.7473 61.3051 38.3714 61.2963L38.2665 60.2866C38.5462 60.2079 38.791 60.0898 39.0008 59.9325C39.2194 59.7664 39.4074 59.5172 39.5647 59.185C39.6609 58.9577 39.744 58.7347 39.8139 58.5162C39.8838 58.2889 39.945 58.0397 39.9975 57.7687C40.0587 57.4977 40.1111 57.1829 40.1549 56.8245C40.2073 56.4661 40.251 56.0552 40.286 55.5918C40.3297 55.1197 40.3778 54.5689 40.4302 53.9395C40.5352 52.8029 41.1515 52.2347 42.2793 52.2347H45.466ZM45.6496 52.2347V61.2832H44.3382V52.2347H45.6496ZM53.5864 54.8837L51.0816 61.5848C51.003 61.8121 50.9024 62.0438 50.78 62.2799C50.6576 62.5246 50.509 62.7563 50.3342 62.9749C50.1681 63.1935 49.9713 63.3814 49.744 63.5388C49.4118 63.7661 49.0403 63.9016 48.6294 63.9453C48.2272 63.989 47.7988 63.9803 47.3442 63.9191L47.4491 63.0536C47.7464 63.0623 48.0305 63.0492 48.3015 63.0142C48.5725 62.9793 48.813 62.8962 49.0228 62.7651C49.2064 62.6339 49.3725 62.4547 49.5211 62.2274C49.6697 62.0088 49.7965 61.7684 49.9014 61.5061L50.2292 60.7324C50.2992 60.5488 50.3691 60.3477 50.4391 60.1292C50.509 59.9019 50.5746 59.7052 50.6358 59.5391L52.2226 54.8837H53.5864ZM48.354 54.8837L49.967 59.5391C50.0107 59.6702 50.05 59.8057 50.085 59.9456C50.12 60.0767 50.1549 60.2122 50.1899 60.3521H50.5046L50.0719 61.2832H49.7309C49.6173 61.2832 49.5211 61.257 49.4424 61.2045C49.3725 61.1433 49.3157 61.0603 49.2719 60.9554L47.0032 54.8837H48.354ZM60.3408 54.8837C60.1922 55.2771 60.0567 55.6311 59.9343 55.9459C59.8119 56.2606 59.6895 56.536 59.5671 56.772C59.4447 57.0081 59.3048 57.2048 59.1475 57.3622C58.9989 57.5195 58.824 57.6463 58.6229 57.7425C58.4306 57.8386 58.1945 57.8998 57.9148 57.9261V57.9785C58.212 58.0047 58.4612 58.0616 58.6623 58.149C58.8721 58.2364 59.0557 58.3632 59.213 58.5293C59.3792 58.6954 59.5278 58.9052 59.6589 59.1588C59.7901 59.4036 59.9256 59.7052 60.0654 60.0636C60.2053 60.4133 60.3583 60.8198 60.5244 61.2832H59.1999C59.0426 60.8548 58.8983 60.4833 58.7672 60.1685C58.6448 59.8451 58.5224 59.574 58.4 59.3555C58.2776 59.1282 58.1465 58.9489 58.0066 58.8178C57.8667 58.6779 57.7006 58.5818 57.5082 58.5293C57.3247 58.4681 57.1061 58.4375 56.8526 58.4375V57.4802C57.1585 57.4802 57.4165 57.4277 57.6263 57.3228C57.8361 57.2092 58.0153 57.0431 58.1639 56.8245C58.3213 56.6059 58.4656 56.3393 58.5967 56.0246C58.7278 55.7011 58.8721 55.3208 59.0295 54.8837H60.3408ZM56.1051 54.8837V56.7327C56.1051 56.9338 56.0876 57.1392 56.0526 57.3491C56.0264 57.5501 55.9827 57.7425 55.9215 57.9261C55.9739 58.1184 56.0176 58.3107 56.0526 58.5031C56.0876 58.6954 56.1051 58.8746 56.1051 59.0407V61.2832H54.833V54.8837H56.1051ZM57.2853 57.4802V58.4375H55.7379V57.4802H57.2853ZM64.6567 54.7263C65.4086 54.7263 66.0074 54.8356 66.4533 55.0541C66.8992 55.2727 67.2227 55.6311 67.4237 56.1295C67.6248 56.619 67.7254 57.2704 67.7254 58.0834C67.7254 58.9052 67.6248 59.5653 67.4237 60.0636C67.2227 60.5532 66.8992 60.9073 66.4533 61.1258C66.0074 61.3444 65.4086 61.4537 64.6567 61.4537C63.9049 61.4537 63.3016 61.3444 62.847 61.1258C62.4011 60.9073 62.0777 60.5532 61.8766 60.0636C61.6755 59.5653 61.575 58.9052 61.575 58.0834C61.575 57.2704 61.6755 56.619 61.8766 56.1295C62.0777 55.6311 62.4011 55.2727 62.847 55.0541C63.3016 54.8356 63.9049 54.7263 64.6567 54.7263ZM64.6567 55.7492C64.2196 55.7492 63.8699 55.8191 63.6076 55.959C63.3541 56.0989 63.1705 56.3393 63.0568 56.6802C62.9519 57.0125 62.8995 57.4802 62.8995 58.0834C62.8995 58.6867 62.9519 59.1588 63.0568 59.4997C63.1705 59.8407 63.3541 60.0811 63.6076 60.221C63.8699 60.3521 64.2196 60.4177 64.6567 60.4177C65.0938 60.4177 65.4392 60.3521 65.6927 60.221C65.9462 60.0811 66.1255 59.8407 66.2304 59.4997C66.3353 59.1588 66.3877 58.6867 66.3877 58.0834C66.3877 57.4802 66.3353 57.0125 66.2304 56.6802C66.1255 56.3393 65.9462 56.0989 65.6927 55.959C65.4392 55.8191 65.0938 55.7492 64.6567 55.7492ZM72.1079 54.8181C72.7811 54.8181 73.3144 54.8662 73.7078 54.9623C74.1012 55.0585 74.3854 55.229 74.5602 55.4738C74.7438 55.7186 74.8356 56.0683 74.8356 56.5229C74.8356 56.9775 74.7263 57.3228 74.5078 57.5589C74.2892 57.7862 73.9351 57.9217 73.4456 57.9654V58.0047C74.04 58.0485 74.4553 58.2146 74.6914 58.5031C74.9362 58.7916 75.0586 59.1937 75.0586 59.7095C75.0586 60.1467 74.9711 60.4876 74.7963 60.7324C74.6214 60.9685 74.346 61.1346 73.9701 61.2307C73.5942 61.3269 73.0958 61.375 72.4751 61.375C72.0118 61.375 71.6052 61.3706 71.2555 61.3619C70.9146 61.3619 70.5998 61.3531 70.3113 61.3357C70.0316 61.3269 69.7343 61.3138 69.4196 61.2963L69.577 60.3915C69.7518 60.4002 70.0797 60.4089 70.5605 60.4177C71.0501 60.4177 71.6227 60.4177 72.2784 60.4177C72.6543 60.4177 72.9516 60.3915 73.1702 60.339C73.3975 60.2866 73.5548 60.1904 73.6423 60.0505C73.7384 59.9019 73.7865 59.6964 73.7865 59.4342C73.7865 59.0407 73.6729 58.7741 73.4456 58.6342C73.2182 58.4856 72.8117 58.4113 72.226 58.4113H69.5639V57.5589H72.226C72.5669 57.5589 72.8379 57.537 73.039 57.4933C73.2488 57.4408 73.3975 57.3491 73.4849 57.2179C73.5811 57.078 73.6291 56.8857 73.6291 56.6409C73.6291 56.4049 73.5767 56.2256 73.4718 56.1032C73.3756 55.9808 73.2139 55.8934 72.9866 55.841C72.7593 55.7885 72.4533 55.7623 72.0686 55.7623C71.6752 55.7535 71.3255 55.7492 71.0195 55.7492C70.7135 55.7492 70.4425 55.7535 70.2064 55.7623C69.9704 55.7623 69.7606 55.771 69.577 55.7885L69.4196 54.8968C69.6994 54.8705 69.966 54.8531 70.2195 54.8443C70.4731 54.8356 70.7485 54.8312 71.0457 54.8312C71.3517 54.8225 71.7058 54.8181 72.1079 54.8181ZM70.613 54.8968V61.2963H69.4196V54.8968H70.613ZM82.476 54.8837V61.2832H81.3351V57.2048C81.3351 57.0562 81.3394 56.9119 81.3482 56.772C81.3569 56.6322 81.37 56.4792 81.3875 56.3131H81.3482C81.2957 56.4442 81.2258 56.5841 81.1384 56.7327C81.0597 56.8726 80.981 56.995 80.9023 57.0999L77.7943 61.2832H76.7321V54.8837H77.873V58.9752C77.873 59.115 77.8686 59.2549 77.8599 59.3948C77.8599 59.5347 77.8511 59.6877 77.8337 59.8538H77.8599C77.9298 59.7139 78.0041 59.5784 78.0828 59.4473C78.1615 59.3074 78.2402 59.1894 78.3189 59.0932L81.4269 54.8837H82.476ZM85.7258 54.8837V61.2832H84.4931V54.8837H85.7258ZM90.8796 60.3128V61.2832H85.634L85.6209 60.3128H90.8796ZM90.0009 54.8837L89.9878 61.2832H88.742V54.8837H90.0009ZM90.8796 61.2176V63.1585H90.0534L89.9223 61.2176H90.8796ZM97.851 54.8837C97.7024 55.2771 97.5669 55.6311 97.4445 55.9459C97.3221 56.2606 97.1997 56.536 97.0773 56.772C96.9549 57.0081 96.815 57.2048 96.6577 57.3622C96.509 57.5195 96.3342 57.6463 96.1331 57.7425C95.9408 57.8386 95.7047 57.8998 95.425 57.9261V57.9785C95.7222 58.0047 95.9714 58.0616 96.1724 58.149C96.3823 58.2364 96.5659 58.3632 96.7232 58.5293C96.8893 58.6954 97.038 58.9052 97.1691 59.1588C97.3002 59.4036 97.4357 59.7052 97.5756 60.0636C97.7155 60.4133 97.8685 60.8198 98.0346 61.2832H96.7101C96.5527 60.8548 96.4085 60.4833 96.2774 60.1685C96.155 59.8451 96.0326 59.574 95.9102 59.3555C95.7878 59.1282 95.6566 58.9489 95.5167 58.8178C95.3769 58.6779 95.2108 58.5818 95.0184 58.5293C94.8348 58.4681 94.6163 58.4375 94.3627 58.4375V57.4802C94.6687 57.4802 94.9266 57.4277 95.1364 57.3228C95.3463 57.2092 95.5255 57.0431 95.6741 56.8245C95.8315 56.6059 95.9757 56.3393 96.1069 56.0246C96.238 55.7011 96.3823 55.3208 96.5396 54.8837H97.851ZM93.6152 54.8837V56.7327C93.6152 56.9338 93.5978 57.1392 93.5628 57.3491C93.5366 57.5501 93.4928 57.7425 93.4316 57.9261C93.4841 58.1184 93.5278 58.3107 93.5628 58.5031C93.5978 58.6954 93.6152 58.8746 93.6152 59.0407V61.2832H92.3432V54.8837H93.6152ZM94.7955 57.4802V58.4375H93.2481V57.4802H94.7955ZM105.182 54.8837V61.2832H104.041V57.2048C104.041 57.0562 104.045 56.9119 104.054 56.772C104.063 56.6322 104.076 56.4792 104.093 56.3131H104.054C104.002 56.4442 103.932 56.5841 103.844 56.7327C103.766 56.8726 103.687 56.995 103.608 57.0999L100.5 61.2832H99.438V54.8837H100.579V58.9752C100.579 59.115 100.575 59.2549 100.566 59.3948C100.566 59.5347 100.557 59.6877 100.54 59.8538H100.566C100.636 59.7139 100.71 59.5784 100.789 59.4473C100.867 59.3074 100.946 59.1894 101.025 59.0932L104.133 54.8837H105.182ZM112.93 54.8837V61.2832H111.789V57.2048C111.789 57.0562 111.793 56.9119 111.802 56.772C111.811 56.6322 111.824 56.4792 111.841 56.3131H111.802C111.75 56.4442 111.68 56.5841 111.592 56.7327C111.513 56.8726 111.435 56.995 111.356 57.0999L108.248 61.2832H107.186V54.8837H108.327V58.9752C108.327 59.115 108.322 59.2549 108.314 59.3948C108.314 59.5347 108.305 59.6877 108.287 59.8538H108.314C108.384 59.7139 108.458 59.5784 108.537 59.4473C108.615 59.3074 108.694 59.1894 108.773 59.0932L111.881 54.8837H112.93ZM111.107 52.0379H112.025C112.06 52.3877 111.999 52.7024 111.841 52.9821C111.684 53.2532 111.452 53.4761 111.146 53.651C110.84 53.8171 110.473 53.9001 110.045 53.9001C109.608 53.9001 109.232 53.8171 108.917 53.651C108.611 53.4761 108.379 53.2532 108.222 52.9821C108.065 52.7024 107.999 52.3877 108.025 52.0379H108.956C108.948 52.4226 109.039 52.7155 109.232 52.9166C109.424 53.1089 109.695 53.2051 110.045 53.2051C110.386 53.2051 110.648 53.1089 110.832 52.9166C111.015 52.7155 111.107 52.4226 111.107 52.0379Z" fill="white"/>
</svg>
