<svg width="129" height="89" viewBox="0 0 129 89" fill="none" xmlns="http://www.w3.org/2000/svg">
<path d="M102.106 19.0377V26.5094V28.0251C102.106 30.2828 103.937 32.1131 106.194 32.1131C107.182 32.1131 108.137 32.471 108.882 33.1206L109.985 34.0828C111.725 35.6006 112.723 37.7966 112.723 40.1055V40.2634C112.723 41.8533 113.178 43.4101 114.033 44.7503L117.095 49.5471L117.853 51.0585C118.584 52.5162 119.683 53.7578 121.041 54.6604L121.639 55.0585C122.353 55.5329 122.999 56.1031 123.557 56.753L125.546 59.0663C126.153 59.7726 126.649 60.5674 127.017 61.4232L127.046 61.4888C127.879 63.4277 128.003 65.5983 127.394 67.6192C126.792 69.6213 125.509 71.3503 123.768 72.5076L123.701 72.5521C123.047 72.9872 122.45 73.5023 121.935 74.0962C120.015 76.3105 116.523 80.5054 113.182 85.0343C112.876 85.45 112.62 85.9025 112.337 86.3347C111.485 87.6344 110.428 88.1668 109.498 88.3152C108.324 88.5023 107.116 88.1509 105.928 88.1509H105.688C104.968 88.1509 104.25 88.0678 103.549 87.9033L95.4064 85.9931C94.4662 85.7726 93.5658 85.408 92.737 84.9122L89.0427 82.7022C88.2362 82.2198 87.7425 81.3492 87.7425 80.4094V79.8934C87.7425 77.9063 85.358 76.9433 83.3709 76.9433C81.4973 76.9433 79.6238 83.7924 79.6238 85.6603C79.6238 86.4061 79.0016 86.5626 78.2231 86.4548C76.6089 86.2314 75.4003 84.9478 74.4945 83.5932L73.3787 81.9245L71.4148 78.0086C71.0635 77.3081 70.8806 76.5353 70.8806 75.7516C70.8806 72.971 68.5112 70.5174 65.9567 71.6156C65.0856 71.9901 64.3626 72.5062 64.0109 73.2075C63.798 73.6321 63.4868 74.0265 63.1147 74.3884C60.8618 76.5793 57.3706 74.91 55.9618 72.1008L55.802 71.7822C55.4507 71.0817 55.2678 70.3014 55.2678 69.5178C55.2678 66.7585 53.0309 64.4905 50.2716 64.4905H42.153H39.0267C38.3389 64.4905 37.7814 63.933 37.7814 63.2452C37.7814 62.5575 37.2238 61.9999 36.5361 61.9999H31.2643C30.6165 61.9999 29.9724 62.0965 29.353 62.2865L28.9803 62.4008C24.9778 63.6287 20.4455 62.0478 18.9875 58.1232C18.6431 57.1964 18.4214 56.3671 18.4214 55.7735C18.4214 53.2829 15.9234 48.3018 15.2989 46.4339C14.6744 44.566 12.1763 36.4716 10.3028 34.6037C8.30995 32.6169 4.35823 32.2397 3.31041 29.628L3.16215 29.2585C2.92861 28.6764 2.8086 28.056 2.8086 27.4288V19.0377C2.8086 18.0115 2.5259 17.0911 2.13521 16.3199C1.43703 14.9417 1.29152 13.0785 2.38559 11.9877C2.66378 11.7103 3.00266 11.5015 3.37546 11.3776L10.7379 8.93077C11.6907 8.61414 12.6881 8.45274 13.692 8.45274H15.0379C17.2245 8.45274 19.3042 9.28901 21.2067 10.3667C22.3776 11.0301 23.6511 11.5659 24.6666 11.5659H27.2929C29.2407 11.5659 31.1398 10.9588 32.7264 9.82891L34.6588 8.45274C37.1569 6.79236 42.6526 3.47161 44.651 3.47161H55.2678C56.065 3.47161 56.9549 3.14132 57.8029 2.67839C59.9791 1.49029 62.2797 0.358398 64.7592 0.358398H73.3787H79.6238H90.2405C91.1739 0.358398 93.2859 1.16327 95.2494 2.02118C97.2799 2.90837 98.8488 4.58439 99.6731 6.64123C100.85 9.57682 102.106 12.9966 102.106 14.0565V19.0377Z" fill="#5C5C5C" fill-opacity="0.9"/>
<path d="M36.8061 27.5325C36.6225 28.0483 36.452 28.5248 36.2946 28.9619C36.146 29.3903 35.993 29.775 35.8357 30.1159C35.6783 30.4482 35.5078 30.7367 35.3242 30.9814C35.1406 31.2262 34.9308 31.4229 34.6948 31.5716C34.4587 31.7115 34.1789 31.7989 33.8555 31.8338V31.8863C34.1964 31.9213 34.4937 32.0131 34.7472 32.1617C35.0007 32.3016 35.2237 32.5027 35.416 32.7649C35.6171 33.0185 35.8007 33.3288 35.9668 33.696C36.1329 34.0632 36.299 34.4916 36.4651 34.9812C36.64 35.462 36.8323 35.9953 37.0421 36.5811H35.6652C35.4204 35.8817 35.2018 35.2697 35.0095 34.7451C34.8259 34.2206 34.6292 33.7834 34.4194 33.4337C34.2183 33.084 33.9822 32.8218 33.7112 32.6469C33.4402 32.4633 33.0992 32.3715 32.6883 32.3715V31.3617C33.073 31.3617 33.3965 31.27 33.6588 31.0864C33.9298 30.894 34.1658 30.6274 34.3669 30.2864C34.568 29.9455 34.7516 29.5433 34.9177 29.0799C35.0925 28.6166 35.2761 28.1008 35.4685 27.5325H36.8061ZM31.8491 27.5325V30.3126C31.8491 30.5837 31.8359 30.8459 31.8097 31.0995C31.7835 31.353 31.7398 31.6022 31.6786 31.847C31.7223 32.0918 31.7616 32.3409 31.7966 32.5944C31.8316 32.848 31.8491 33.0884 31.8491 33.3157V36.5811H30.5508V27.5325H31.8491ZM33.1867 31.3617V32.3715H31.4687V31.3617H33.1867ZM41.5192 30.0241C42.0088 30.0241 42.4197 30.0897 42.7519 30.2208C43.0841 30.3432 43.3333 30.5574 43.4994 30.8634C43.6742 31.1694 43.7616 31.5891 43.7616 32.1224V36.5811H42.765L42.5683 35.191L42.5027 35.0336V32.1224C42.494 31.7464 42.4022 31.4754 42.2273 31.3093C42.0612 31.1432 41.7334 31.0601 41.2438 31.0601C40.9028 31.0601 40.4788 31.0776 39.9717 31.1126C39.4734 31.1476 38.9795 31.1825 38.4899 31.2175L38.3719 30.3126C38.6691 30.2602 39.0013 30.2121 39.3685 30.1684C39.7357 30.1247 40.1072 30.0897 40.4832 30.0635C40.8591 30.0373 41.2044 30.0241 41.5192 30.0241ZM43.1846 32.6338L43.1715 33.5255L40.1684 33.5386C39.8712 33.5474 39.6614 33.6261 39.539 33.7747C39.4166 33.9146 39.3554 34.1113 39.3554 34.3648V34.7582C39.3554 35.073 39.4341 35.3046 39.5914 35.4533C39.7488 35.5931 39.9892 35.6631 40.3127 35.6631C40.5575 35.6631 40.8285 35.6194 41.1258 35.5319C41.4317 35.4358 41.7377 35.2959 42.0437 35.1123C42.3497 34.92 42.6251 34.6795 42.8699 34.391V35.2172C42.7912 35.3396 42.6644 35.4882 42.4896 35.6631C42.3147 35.8292 42.1006 35.9909 41.847 36.1483C41.6022 36.3057 41.3268 36.4368 41.0208 36.5417C40.7149 36.6466 40.3826 36.6991 40.0242 36.6991C39.6395 36.6991 39.2986 36.6335 39.0013 36.5024C38.7128 36.3625 38.4855 36.1614 38.3194 35.8991C38.162 35.6281 38.0833 35.3003 38.0833 34.9156V34.2206C38.0833 33.7222 38.2407 33.3332 38.5554 33.0534C38.8789 32.7737 39.3248 32.6338 39.8931 32.6338H43.1846ZM46.9439 30.1815V36.5811H45.7112V30.1815H46.9439ZM53.4615 35.6106V36.5811H46.8521V35.6106H53.4615ZM50.6027 30.1815V36.5811H49.4618V30.1815H50.6027ZM54.3532 30.1815V36.5811H53.1336V30.1815H54.3532ZM62.0972 30.1815V36.5811H60.9563V32.5027C60.9563 32.354 60.9607 32.2098 60.9694 32.0699C60.9782 31.93 60.9913 31.777 61.0088 31.6109H60.9694C60.917 31.742 60.8471 31.8819 60.7596 32.0306C60.6809 32.1704 60.6023 32.2928 60.5236 32.3977L57.4156 36.5811H56.3534V30.1815H57.4943V34.273C57.4943 34.4129 57.4899 34.5528 57.4812 34.6927C57.4812 34.8325 57.4724 34.9855 57.4549 35.1516H57.4812C57.5511 35.0118 57.6254 34.8763 57.7041 34.7451C57.7828 34.6052 57.8615 34.4872 57.9402 34.391L61.0481 30.1815H62.0972ZM67.865 30.0241C68.6605 30.0241 69.2288 30.3126 69.5698 30.8897C69.9107 31.4667 70.0812 32.3103 70.0812 33.4206C70.0812 34.2512 69.9938 34.9112 69.8189 35.4008C69.6441 35.8817 69.3774 36.227 69.019 36.4368C68.6605 36.6379 68.2103 36.7384 67.6683 36.7384C67.2399 36.7384 66.8202 36.6816 66.4093 36.5679C65.9984 36.4455 65.6094 36.262 65.2422 36.0172L65.3209 35.309C65.7056 35.4227 66.0465 35.5145 66.3438 35.5844C66.641 35.6543 66.9601 35.6893 67.3011 35.6893C67.6595 35.6893 67.9437 35.6281 68.1535 35.5057C68.372 35.3833 68.5294 35.156 68.6256 34.8238C68.7217 34.4916 68.7698 34.0239 68.7698 33.4206C68.7698 32.8261 68.7261 32.3628 68.6387 32.0306C68.5513 31.6896 68.4114 31.4492 68.219 31.3093C68.0267 31.1607 67.7644 31.0864 67.4322 31.0864C67.1 31.0864 66.7721 31.165 66.4487 31.3224C66.1252 31.471 65.7536 31.7071 65.334 32.0306L65.1897 31.2437C65.4083 30.9989 65.6618 30.7847 65.9503 30.6011C66.2476 30.4176 66.5623 30.2777 66.8945 30.1815C67.2268 30.0766 67.5502 30.0241 67.865 30.0241ZM65.1373 30.1815L65.2815 31.4798L65.3733 31.6503V35.768L65.3078 35.9254C65.334 36.1702 65.3515 36.4106 65.3602 36.6466C65.3777 36.8827 65.3821 37.1318 65.3733 37.3941V39.1907H64.1144V30.1815H65.1373ZM77.3058 30.1815C77.1572 30.5749 77.0217 30.929 76.8993 31.2437C76.7769 31.5585 76.6545 31.8338 76.5321 32.0699C76.4097 32.3059 76.2698 32.5027 76.1124 32.66C75.9638 32.8174 75.789 32.9442 75.5879 33.0403C75.3956 33.1365 75.1595 33.1977 74.8797 33.2239V33.2764C75.177 33.3026 75.4262 33.3594 75.6272 33.4468C75.8371 33.5343 76.0206 33.661 76.178 33.8271C76.3441 33.9933 76.4927 34.2031 76.6239 34.4566C76.755 34.7014 76.8905 35.003 77.0304 35.3615C77.1703 35.7112 77.3233 36.1177 77.4894 36.5811H76.1649C76.0075 36.1527 75.8633 35.7811 75.7321 35.4664C75.6097 35.1429 75.4873 34.8719 75.365 34.6533C75.2426 34.426 75.1114 34.2468 74.9715 34.1157C74.8317 33.9758 74.6655 33.8796 74.4732 33.8271C74.2896 33.766 74.0711 33.7354 73.8175 33.7354V32.778C74.1235 32.778 74.3814 32.7256 74.5912 32.6207C74.8011 32.507 74.9803 32.3409 75.1289 32.1224C75.2863 31.9038 75.4305 31.6371 75.5617 31.3224C75.6928 30.9989 75.8371 30.6186 75.9944 30.1815H77.3058ZM73.07 30.1815V32.0306C73.07 32.2316 73.0525 32.4371 73.0176 32.6469C72.9913 32.848 72.9476 33.0403 72.8864 33.2239C72.9389 33.4162 72.9826 33.6086 73.0176 33.8009C73.0525 33.9933 73.07 34.1725 73.07 34.3386V36.5811H71.798V30.1815H73.07ZM74.2503 32.778V33.7354H72.7028V32.778H74.2503ZM84.6366 30.1815V36.5811H83.4957V32.5027C83.4957 32.354 83.5001 32.2098 83.5089 32.0699C83.5176 31.93 83.5307 31.777 83.5482 31.6109H83.5089C83.4564 31.742 83.3865 31.8819 83.299 32.0306C83.2203 32.1704 83.1417 32.2928 83.063 32.3977L79.955 36.5811H78.8928V30.1815H80.0337V34.273C80.0337 34.4129 80.0293 34.5528 80.0206 34.6927C80.0206 34.8325 80.0118 34.9855 79.9943 35.1516H80.0206C80.0905 35.0118 80.1648 34.8763 80.2435 34.7451C80.3222 34.6052 80.4009 34.4872 80.4796 34.391L83.5875 30.1815H84.6366ZM92.3846 30.1815V36.5811H91.2437V32.5027C91.2437 32.354 91.248 32.2098 91.2568 32.0699C91.2655 31.93 91.2786 31.777 91.2961 31.6109H91.2568C91.2043 31.742 91.1344 31.8819 91.047 32.0306C90.9683 32.1704 90.8896 32.2928 90.8109 32.3977L87.7029 36.5811H86.6407V30.1815H87.7816V34.273C87.7816 34.4129 87.7772 34.5528 87.7685 34.6927C87.7685 34.8325 87.7597 34.9855 87.7423 35.1516H87.7685C87.8384 35.0118 87.9127 34.8763 87.9914 34.7451C88.0701 34.6052 88.1488 34.4872 88.2275 34.391L91.3355 30.1815H92.3846ZM90.5617 27.3358H91.4797C91.5147 27.6855 91.4535 28.0002 91.2961 28.28C91.1387 28.551 90.9071 28.774 90.6011 28.9488C90.2951 29.1149 89.9279 29.198 89.4995 29.198C89.0624 29.198 88.6865 29.1149 88.3717 28.9488C88.0657 28.774 87.8341 28.551 87.6767 28.28C87.5193 28.0002 87.4538 27.6855 87.48 27.3358H88.4111C88.4023 27.7205 88.4941 28.0133 88.6865 28.2144C88.8788 28.4068 89.1498 28.5029 89.4995 28.5029C89.8405 28.5029 90.1028 28.4068 90.2863 28.2144C90.4699 28.0133 90.5617 27.7205 90.5617 27.3358Z" fill="white"/>
</svg>
