<svg width="146" height="165" viewBox="0 0 146 165" fill="none" xmlns="http://www.w3.org/2000/svg">
<path d="M143.58 27.6389L145.011 34.061C145.535 36.4088 145.135 38.8678 143.895 40.9288L142.256 43.6509C140.946 45.8282 138.807 47.3797 136.331 47.9495L132.087 48.9258L123.344 50.1711H121.435C119.844 50.1711 118.303 50.7277 117.079 51.7445C115.88 52.7409 115.058 54.1181 114.752 55.6467L114.048 59.1544C114 59.3914 113.976 59.6325 113.976 59.8742C113.976 61.1893 113.271 62.4033 112.128 63.0543L110.566 63.9442C109.93 64.3069 109.356 64.7708 108.869 65.3178L107.402 66.9622C105.625 68.9556 103.082 70.0957 100.411 70.0957H97.1146C95.5079 70.0957 94.7863 70.8111 94.5266 71.6668C94.1145 73.0251 94.3263 74.5548 93.7978 75.8721C93.5136 76.5806 93.3675 77.3359 93.3675 78.0993V85.6617C93.3675 86.8489 94.9443 89.9489 96.2188 92.2137C96.7855 93.2208 97.7038 93.9763 98.7862 94.381L99.594 94.683C101.108 95.2489 102.111 96.6949 102.111 98.3108C102.111 98.5942 102.08 98.8767 102.018 99.1534L101.668 100.724C101.194 102.849 102.23 105.023 104.178 105.994C104.464 106.137 104.765 106.25 105.074 106.333L113.976 108.699C116.46 109.319 117.637 112.163 116.318 114.356L115.604 115.542C115.353 115.959 115.041 116.336 114.677 116.659L114.593 116.734C113.406 117.79 112.727 119.304 112.727 120.893V122.128C112.727 123.127 112.938 124.114 113.344 125.026L114.325 127.226C114.873 128.455 116.092 129.247 117.438 129.247C119.32 129.247 120.846 130.773 120.846 132.655V136.718V142.932C120.846 143.767 120.734 144.598 120.514 145.403L119.63 148.636C119.199 150.211 118.345 151.628 117.301 152.884C115.211 155.397 112.727 159.169 112.727 162.247C112.727 164.837 111.848 164.761 110.946 163.935C109.898 162.974 108.977 161.856 107.77 161.103L106.091 160.057C105.111 159.447 104.253 158.66 103.559 157.738L100.862 154.152L96.1039 149.013C94.5013 147.283 91.9174 146.884 89.8678 148.052C89.2921 148.38 88.7862 148.817 88.3786 149.34L88.2084 149.558C86.1708 152.17 82.4904 152.823 79.6789 151.071L79.6282 151.039L75.8811 148.549L75.3213 148.102C73.6621 146.779 71.6027 146.058 69.4805 146.058H69.2782C68.2742 146.058 67.2768 146.219 66.324 146.536L60.2683 148.549L54.2125 150.561C53.2598 150.878 52.2625 151.039 51.2585 151.039H48.4025C47.9276 151.039 47.4402 150.872 46.976 150.618C45.1942 149.643 44.6554 147.45 44.6554 145.419V143.005C44.6554 141.733 44.3964 140.474 43.894 139.306L40.9083 132.36L39.9078 130.115C39.1499 128.415 36.9902 127.889 35.5349 129.049C35.3706 129.181 35.2214 129.329 35.0899 129.493L34.8179 129.832C33.5357 131.43 31.5976 132.36 29.5488 132.36H29.0426H28.3566C26.8446 132.36 25.4432 131.568 24.6636 130.272C24.2598 129.601 24.0465 128.833 24.0465 128.05V125.86C24.0465 124.402 24.3868 122.964 25.0404 121.661L25.4321 120.88C25.7563 120.233 26.1542 119.627 26.6181 119.072L27.046 118.56C28.3359 117.017 29.0426 115.069 29.0426 113.058V112.675C29.0426 110.911 28.4227 109.203 27.2913 107.85C26.3949 106.777 25.2198 105.966 23.8774 105.577C21.8343 104.984 19.2374 104.341 17.8013 104.341C16.1954 104.341 14.4819 102.465 13.4387 100.974C12.9907 100.333 12.5248 99.7029 11.9715 99.1512L10.6407 97.8244C8.30095 95.4917 8.03788 91.7915 10.024 89.1513C10.2125 88.9007 10.4186 88.6638 10.6407 88.4424L13.8709 85.2218C14.7879 84.3076 15.3033 83.066 15.3033 81.7712C15.3033 80.6623 14.925 79.5866 14.2311 78.7217L13.4679 77.7705C13.0279 77.2222 12.5203 76.7317 11.9573 76.3107L11.3788 75.8781C10.668 75.3466 10.0363 74.7167 9.50273 74.0074L6.56008 70.0957C5.51922 68.8504 3.43751 65.9862 3.43751 64.4919C3.43751 64.4358 3.43516 64.3783 3.4306 64.3196C3.16835 60.948 1.71852 57.5689 2.97776 54.4302L3.43751 53.2843L6.18093 47.8139C6.43318 47.3109 6.73024 46.8317 7.0685 46.382L9.33219 43.3728C9.94606 42.5568 10.9078 42.0768 11.929 42.0768C12.5029 42.0768 13.0666 41.9248 13.5627 41.6363L19.6115 38.1184C20.062 37.8563 20.574 37.7183 21.0952 37.7183H21.4065C22.8645 37.7183 24.0465 36.5363 24.0465 35.0783C24.0465 34.3767 24.3257 33.704 24.8225 33.2087L25.92 32.1145L27.2788 30.7598C28.408 29.634 29.0426 28.1052 29.0426 26.5107V25.2821C29.0426 23.2507 29.7029 21.2744 30.9241 19.6511L32.7897 17.1711L34.8154 14.1416C35.1295 13.6718 35.4893 13.2343 35.8894 12.8354L36.7331 11.9942C37.8068 10.9237 38.4103 9.46988 38.4103 7.9537C38.4103 5.94685 39.4646 4.08757 41.1868 3.05733L42.6095 2.20626C43.9484 1.40537 45.4793 0.982422 47.0394 0.982422H49.8989C51.7545 0.982422 53.5492 1.64481 54.9599 2.85035C56.3706 4.05589 58.1653 4.71827 60.0209 4.71827H60.321C61.5216 4.71827 62.7088 4.96954 63.8065 5.4559L67.7624 7.20884C70.0523 8.24658 74.8819 10.322 75.8811 10.322C77.1301 10.322 80.2527 7.20884 82.7508 7.20884C84.7492 7.20884 87.7469 5.54846 88.9959 4.71827L90.7393 3.22844C92.4355 1.77888 94.5934 0.982422 96.8247 0.982422H98.216C99.9103 0.982422 101.535 1.65414 102.735 2.85035C103.935 4.04655 105.56 4.71827 107.254 4.71827H107.314C108.797 4.71827 110.236 5.22188 111.396 6.14661L112.727 7.20884L116.13 9.63194C116.773 10.0902 117.472 10.4652 118.21 10.748L125.218 13.4353L131.098 14.7881C132.568 15.1265 133.94 15.8087 135.051 16.8299C136.686 18.3319 138.797 20.3968 140.206 22.1522C141.412 23.6552 142.224 24.7803 142.724 25.5274C143.151 26.1654 143.413 26.8896 143.58 27.6389Z" fill="#5C5C5C" fill-opacity="0.9"/>
<path d="M29.3556 55.0512C30.1075 55.0512 30.6976 55.1343 31.126 55.3004C31.5544 55.4665 31.8603 55.755 32.0439 56.1659C32.2363 56.5768 32.3324 57.1582 32.3324 57.91C32.3324 58.6531 32.2407 59.2345 32.0571 59.6542C31.8822 60.0651 31.585 60.3536 31.1653 60.5197C30.7544 60.677 30.1993 60.7557 29.4999 60.7557C29.1239 60.7557 28.7611 60.747 28.4114 60.7295C28.0705 60.712 27.7557 60.6858 27.4672 60.6508C27.1787 60.6158 26.9295 60.5809 26.7197 60.5459C26.5186 60.5022 26.3788 60.4628 26.3001 60.4279L26.3394 59.6673C26.8115 59.6673 27.3011 59.6673 27.8082 59.6673C28.324 59.6673 28.8311 59.6673 29.3294 59.6673C29.749 59.6585 30.0812 59.6061 30.326 59.5099C30.5708 59.4137 30.7457 59.2389 30.8506 58.9854C30.9555 58.7318 31.0079 58.3734 31.0079 57.91C31.0079 57.4379 30.9555 57.0751 30.8506 56.8216C30.7457 56.568 30.5708 56.3932 30.326 56.297C30.0812 56.1921 29.749 56.1397 29.3294 56.1397C28.595 56.1397 27.9612 56.144 27.4279 56.1528C26.9033 56.1615 26.5449 56.1746 26.3525 56.1921L26.1689 55.1692C26.5099 55.1343 26.8246 55.108 27.1131 55.0905C27.4104 55.0731 27.7339 55.0643 28.0836 55.0643C28.4333 55.0556 28.8573 55.0512 29.3556 55.0512ZM27.4803 55.1692V64.2178H26.1689V55.1692H27.4803ZM36.9709 57.6609C37.4604 57.6609 37.8713 57.7264 38.2036 57.8576C38.5358 57.98 38.7849 58.1942 38.951 58.5001C39.1259 58.8061 39.2133 59.2258 39.2133 59.7591V64.2178H38.2167L38.02 62.8277L37.9544 62.6703V59.7591C37.9456 59.3831 37.8538 59.1121 37.679 58.946C37.5129 58.7799 37.185 58.6968 36.6955 58.6968C36.3545 58.6968 35.9305 58.7143 35.4234 58.7493C34.9251 58.7843 34.4311 58.8192 33.9416 58.8542L33.8235 57.9494C34.1208 57.8969 34.453 57.8488 34.8202 57.8051C35.1874 57.7614 35.5589 57.7264 35.9349 57.7002C36.3108 57.674 36.6561 57.6609 36.9709 57.6609ZM38.6363 60.2705L38.6232 61.1622L35.6201 61.1754C35.3229 61.1841 35.1131 61.2628 34.9907 61.4114C34.8683 61.5513 34.8071 61.748 34.8071 62.0015V62.395C34.8071 62.7097 34.8858 62.9414 35.0431 63.09C35.2005 63.2299 35.4409 63.2998 35.7644 63.2998C36.0092 63.2998 36.2802 63.2561 36.5774 63.1687C36.8834 63.0725 37.1894 62.9326 37.4954 62.749C37.8014 62.5567 38.0768 62.3163 38.3216 62.0278V62.8539C38.2429 62.9763 38.1161 63.125 37.9413 63.2998C37.7664 63.4659 37.5522 63.6277 37.2987 63.785C37.0539 63.9424 36.7785 64.0735 36.4725 64.1784C36.1665 64.2833 35.8343 64.3358 35.4759 64.3358C35.0912 64.3358 34.7502 64.2702 34.453 64.1391C34.1645 63.9992 33.9372 63.7981 33.7711 63.5359C33.6137 63.2648 33.535 62.937 33.535 62.5523V61.8573C33.535 61.359 33.6924 60.9699 34.0071 60.6902C34.3306 60.4104 34.7765 60.2705 35.3447 60.2705H38.6363ZM48.4673 57.8182C48.782 57.8182 48.9394 57.9712 48.9394 58.2772L49.2017 64.2178H48.0214L47.7854 58.7755H47.5755L46.0412 63.09C46.0062 63.2211 45.9494 63.3217 45.8707 63.3916C45.7921 63.4615 45.6828 63.4965 45.5429 63.4965H44.6643C44.5244 63.4965 44.4151 63.4615 44.3364 63.3916C44.2665 63.3217 44.2097 63.2211 44.1659 63.09L42.6316 58.7755H42.4218L42.1989 64.2178H41.0317L41.2809 58.2772C41.2896 57.9712 41.4514 57.8182 41.7661 57.8182H43.025C43.1649 57.8182 43.2698 57.8532 43.3398 57.9231C43.4185 57.9843 43.4753 58.0849 43.5102 58.2248L44.7429 61.7524C44.8041 61.9097 44.8522 62.0627 44.8872 62.2114C44.9309 62.36 44.9703 62.513 45.0052 62.6703H45.2019C45.2456 62.5042 45.285 62.3469 45.32 62.1982C45.3637 62.0496 45.4118 61.901 45.4642 61.7524L46.6969 58.2248C46.7756 57.9537 46.9417 57.8182 47.1952 57.8182H48.4673ZM53.7253 57.6609C54.7132 57.6609 55.4257 57.8401 55.8629 58.1985C56.3087 58.5482 56.536 59.0684 56.5448 59.7591C56.5448 60.3361 56.418 60.7819 56.1645 61.0967C55.911 61.4114 55.4957 61.5688 54.9187 61.5688H51.2075V60.6639H54.5908C54.8706 60.6639 55.0542 60.5721 55.1416 60.3885C55.2378 60.2049 55.2815 59.9951 55.2727 59.7591C55.2727 59.3657 55.1591 59.0859 54.9318 58.9198C54.7132 58.7537 54.3285 58.6706 53.7778 58.6706C53.3319 58.6706 52.9822 58.7362 52.7287 58.8673C52.4751 58.9985 52.2959 59.2258 52.191 59.5492C52.0861 59.8727 52.0336 60.3273 52.0336 60.9131C52.0336 61.5688 52.0992 62.0715 52.2303 62.4212C52.3615 62.7621 52.5669 62.9982 52.8467 63.1293C53.1352 63.2605 53.5155 63.326 53.9876 63.326C54.3285 63.326 54.7045 63.3129 55.1154 63.2867C55.535 63.2517 55.9153 63.2124 56.2563 63.1687L56.3743 63.9948C56.1732 64.0823 55.9197 64.1566 55.6137 64.2178C55.3165 64.2702 55.0105 64.3096 54.6957 64.3358C54.381 64.362 54.0925 64.3751 53.8302 64.3751C53.0871 64.3751 52.4839 64.2615 52.0205 64.0342C51.5659 63.8069 51.2337 63.4484 51.0239 62.9588C50.8228 62.4605 50.7222 61.8092 50.7222 61.0049C50.7222 60.1656 50.8272 59.5012 51.037 59.0116C51.2468 58.522 51.5703 58.1767 52.0074 57.9756C52.4445 57.7658 53.0172 57.6609 53.7253 57.6609ZM59.4157 57.8182V64.2178H58.1699V57.8182H59.4157ZM62.7335 60.3492V61.2934H59.337V60.3492H62.7335ZM63.8613 57.8182V64.2178H62.6155V57.8182H63.8613ZM68.6339 57.6609C68.835 57.6609 69.0579 57.6696 69.3027 57.6871C69.5475 57.7046 69.7967 57.7352 70.0502 57.7789C70.3037 57.8226 70.5398 57.8882 70.7583 57.9756L70.601 58.7886C70.295 58.7624 69.9803 58.7449 69.6568 58.7362C69.342 58.7187 69.071 58.71 68.8437 58.71C68.3629 58.71 67.9782 58.7799 67.6897 58.9198C67.4012 59.0509 67.1914 59.2826 67.0602 59.6148C66.9378 59.947 66.8766 60.4104 66.8766 61.0049C66.8766 61.5994 66.9378 62.0671 67.0602 62.4081C67.1914 62.749 67.4012 62.9851 67.6897 63.1162C67.9782 63.2473 68.3629 63.3129 68.8437 63.3129C68.9749 63.3129 69.1453 63.3085 69.3552 63.2998C69.5737 63.2911 69.8054 63.2779 70.0502 63.2605C70.295 63.243 70.5267 63.2168 70.7452 63.1818L70.8632 64.0211C70.5485 64.1435 70.1944 64.2309 69.801 64.2833C69.4076 64.3445 69.0142 64.3751 68.6208 64.3751C67.8777 64.3751 67.2788 64.2659 66.8242 64.0473C66.3783 63.8287 66.0548 63.4747 65.8538 62.9851C65.6527 62.4955 65.5521 61.8354 65.5521 61.0049C65.5521 60.1831 65.6527 59.5274 65.8538 59.0378C66.0548 58.5482 66.3783 58.1985 66.8242 57.9887C67.2788 57.7701 67.882 57.6609 68.6339 57.6609ZM77.8545 57.8182C77.7058 58.2116 77.5703 58.5657 77.4479 58.8804C77.3255 59.1952 77.2031 59.4706 77.0807 59.7066C76.9583 59.9427 76.8185 60.1394 76.6611 60.2967C76.5125 60.4541 76.3376 60.5809 76.1365 60.677C75.9442 60.7732 75.7082 60.8344 75.4284 60.8606V60.9131C75.7256 60.9393 75.9748 60.9961 76.1759 61.0836C76.3857 61.171 76.5693 61.2978 76.7267 61.4639C76.8928 61.63 77.0414 61.8398 77.1725 62.0933C77.3037 62.3381 77.4392 62.6397 77.5791 62.9982C77.719 63.3479 77.8719 63.7544 78.0381 64.2178H76.7136C76.5562 63.7894 76.4119 63.4178 76.2808 63.1031C76.1584 62.7796 76.036 62.5086 75.9136 62.29C75.7912 62.0627 75.6601 61.8835 75.5202 61.7524C75.3803 61.6125 75.2142 61.5163 75.0219 61.4639C74.8383 61.4027 74.6197 61.3721 74.3662 61.3721V60.4148C74.6722 60.4148 74.9301 60.3623 75.1399 60.2574C75.3497 60.1437 75.5289 59.9776 75.6776 59.7591C75.8349 59.5405 75.9792 59.2739 76.1103 58.9591C76.2415 58.6357 76.3857 58.2553 76.5431 57.8182H77.8545ZM73.6187 57.8182V59.6673C73.6187 59.8684 73.6012 60.0738 73.5662 60.2836C73.54 60.4847 73.4963 60.677 73.4351 60.8606C73.4876 61.053 73.5313 61.2453 73.5662 61.4376C73.6012 61.63 73.6187 61.8092 73.6187 61.9753V64.2178H72.3466V57.8182H73.6187ZM74.7989 60.4148V61.3721H73.2515V60.4148H74.7989ZM85.1853 57.8182V64.2178H84.0444V60.1394C84.0444 59.9907 84.0488 59.8465 84.0575 59.7066C84.0663 59.5667 84.0794 59.4137 84.0968 59.2476H84.0575C84.0051 59.3788 83.9351 59.5186 83.8477 59.6673C83.769 59.8072 83.6903 59.9295 83.6116 60.0345L80.5037 64.2178H79.4414V57.8182H80.5823V61.9097C80.5823 62.0496 80.578 62.1895 80.5692 62.3294C80.5692 62.4693 80.5605 62.6223 80.543 62.7884H80.5692C80.6392 62.6485 80.7135 62.513 80.7922 62.3818C80.8708 62.242 80.9495 62.1239 81.0282 62.0278L84.1362 57.8182H85.1853ZM92.9332 57.8182V64.2178H91.7923V60.1394C91.7923 59.9907 91.7967 59.8465 91.8054 59.7066C91.8142 59.5667 91.8273 59.4137 91.8448 59.2476H91.8054C91.753 59.3788 91.683 59.5186 91.5956 59.6673C91.5169 59.8072 91.4382 59.9295 91.3596 60.0345L88.2516 64.2178H87.1894V57.8182H88.3303V61.9097C88.3303 62.0496 88.3259 62.1895 88.3171 62.3294C88.3171 62.4693 88.3084 62.6223 88.2909 62.7884H88.3171C88.3871 62.6485 88.4614 62.513 88.5401 62.3818C88.6188 62.242 88.6974 62.1239 88.7761 62.0278L91.8841 57.8182H92.9332ZM91.1104 54.9725H92.0284C92.0633 55.3222 92.0021 55.637 91.8448 55.9167C91.6874 56.1877 91.4557 56.4107 91.1497 56.5855C90.8437 56.7516 90.4766 56.8347 90.0482 56.8347C89.611 56.8347 89.2351 56.7516 88.9204 56.5855C88.6144 56.4107 88.3827 56.1877 88.2254 55.9167C88.068 55.637 88.0024 55.3222 88.0286 54.9725H88.9597C88.951 55.3572 89.0428 55.6501 89.2351 55.8511C89.4275 56.0435 89.6985 56.1397 90.0482 56.1397C90.3891 56.1397 90.6514 56.0435 90.835 55.8511C91.0186 55.6501 91.1104 55.3572 91.1104 54.9725Z" fill="white"/>
</svg>
