<svg width="124" height="139" viewBox="0 0 124 139" fill="none" xmlns="http://www.w3.org/2000/svg">
<path d="M33.5748 3.9804L32.5025 3.31222C30.1007 1.81559 27.0567 1.81559 24.6549 3.31222C23.9451 3.75449 23.3153 4.31357 22.7919 4.96582L22.6274 5.17085C21.6176 6.42932 20.2868 7.39187 18.7754 7.95693L16.7921 8.69843C16.3238 8.87355 15.8701 9.08589 15.4356 9.33343L14.3472 9.95353C12.6372 10.9278 11.2774 12.4159 10.461 14.2066L8.59426 18.3012L7.66008 20.7849C7.05078 22.4048 6.99086 24.1801 7.48955 25.8374C8.18705 28.1554 7.7822 30.6653 6.39122 32.6465L5.92351 33.3126C4.81659 34.8892 4.22267 36.7687 4.22267 38.6951V38.8483V41.8532C4.22267 43.9409 4.92009 45.9687 6.20419 47.6148L8.59426 50.6785L10.0847 52.4617C11.1534 53.7403 11.8617 55.2809 12.1364 56.9245L13.2056 63.3204C13.4583 64.8317 13.3272 66.3789 12.8893 67.8472C12.3143 69.7758 11.7168 72.0601 11.7168 73.0936C11.7168 74.0082 10.937 75.125 10.0933 76.0442C9.1762 77.0433 8.27939 78.08 7.6714 79.2923L4.52172 85.5728C4.32261 85.9698 4.15198 86.3805 4.01114 86.8018L2.34913 91.7729L1.07525 95.1597C0.678724 96.2139 0.475586 97.331 0.475586 98.4574V101.735V106.094V110.452V117.744C0.475586 118.531 1.11373 119.169 1.90093 119.169C2.19269 119.169 2.47741 119.259 2.71667 119.426L7.04327 122.445C8.0529 123.15 9.25444 123.528 10.4856 123.528C11.298 123.528 12.102 123.692 12.849 124.011L13.426 124.258C15.1451 124.992 16.5483 126.312 17.3863 127.984C17.7676 128.744 18.269 129.438 18.8713 130.038L21.0845 132.245L23.1114 134.265C23.4251 134.578 23.7607 134.868 24.1155 135.134L27.0783 137.349C28.0523 138.077 29.236 138.471 30.4522 138.471H30.7458C32.5906 138.471 34.3944 137.926 35.9309 136.905L36.8394 136.301C38.3758 135.28 40.1796 134.735 42.0245 134.735H43.9317C44.9266 134.735 45.9105 134.527 46.82 134.124C49.3986 132.981 51.0612 130.426 51.0612 127.606V125.396V119.169V110.452V104.861C51.0612 104.026 51.1728 103.195 51.3931 102.39L52.199 99.4435C52.6791 97.6885 53.6598 96.1114 55.0215 94.9047L57.9116 92.3434C58.3399 91.9639 58.7325 91.5459 59.0844 91.0947L62.3979 86.8473C62.7499 86.3961 63.1424 85.9781 63.5707 85.5986L67.9522 81.7156C68.3484 81.3645 68.7102 80.978 69.0586 80.5794C70.9668 78.3965 74.7339 74.9616 77.9153 74.9616C79.9303 74.9616 81.2128 73.7214 81.9777 72.3129C82.8248 70.7533 84.2538 69.3578 86.0285 69.3578C86.4451 69.3578 86.8583 69.4325 87.2485 69.5784L90.0074 70.6098C91.087 71.0135 92.0432 71.6907 92.7824 72.575L93.9141 73.929C94.4611 74.5834 95.27 74.9616 96.1228 74.9616C98.3194 74.9616 99.7066 72.6005 98.6375 70.6817L98.0635 69.6517C97.9545 69.4562 97.8275 69.2714 97.684 69.0996L96.9571 68.23C95.5487 66.545 94.7772 64.4188 94.7772 62.2228V60.5847C94.7772 59.0119 95.3298 57.4891 96.3384 56.2823L97.3501 55.0719C97.7052 54.6471 97.8997 54.1111 97.8997 53.5574C97.8997 52.0677 99.2738 50.9049 100.763 50.9442C102.063 50.9785 103.662 50.9252 105.394 50.6785C107.532 50.374 109.178 47.3685 110.615 45.7563L112.271 43.8992C112.68 43.4406 113.012 42.9191 113.254 42.3546L113.442 41.9191C114.291 39.9435 115.847 38.3563 117.806 37.4687L118.565 37.1248C120.513 36.2418 121.989 34.5477 122.605 32.4991C123.178 30.5947 122.958 28.5282 121.99 26.7909L118.857 21.1679C118.056 19.7296 116.102 19.4557 114.936 20.6183C114.82 20.7336 114.693 20.8373 114.557 20.9277L111.677 22.8418C111.236 23.1349 110.771 23.3901 110.287 23.6047L105.394 25.7729L102.785 26.8874C101.622 27.3845 100.371 27.6408 99.1057 27.6408H91.6546H84.7849H82.1071C80.987 27.6408 79.8695 27.4533 78.8542 26.9801C77.0385 26.1339 74.6691 24.7783 73.5437 23.2823C73.048 22.6233 72.4474 22.3094 71.8281 22.2145C70.1004 21.9496 67.9166 21.6048 67.3013 19.9688C66.9239 18.9655 65.9642 18.3012 64.8923 18.3012H63.9337C63.273 18.3012 62.6229 18.1358 62.0425 17.8202L57.0576 15.1093C56.3941 14.7485 55.7858 14.2946 55.251 13.7614L54.4868 12.9995C53.4929 12.0086 52.1466 11.4521 50.743 11.4521H47.6198C46.4163 11.4521 45.4406 10.4764 45.4406 9.27285C45.4406 8.06929 44.4649 7.09361 43.2613 7.09361H40.478C39.6368 7.09361 38.8094 6.87976 38.0735 6.47217L33.5748 3.9804Z" fill="#5C5C5C" fill-opacity="0.9"/>
<path d="M18.1932 38.2444V47.293H16.8818V38.2444H18.1932ZM22.3372 38.2444V39.2804H18.0883V38.2444H22.3372ZM23.5043 38.2444V47.293H22.1929V38.2444H23.5043ZM31.4359 40.8934L28.9312 47.5946C28.8525 47.8219 28.752 48.0536 28.6296 48.2896C28.5072 48.5344 28.3586 48.7661 28.1837 48.9847C28.0176 49.2032 27.8209 49.3912 27.5936 49.5485C27.2614 49.7759 26.8898 49.9114 26.4789 49.9551C26.0768 49.9988 25.6484 49.99 25.1938 49.9288L25.2987 49.0633C25.5959 49.0721 25.88 49.059 26.1511 49.024C26.4221 48.989 26.6625 48.906 26.8723 48.7748C27.0559 48.6437 27.222 48.4645 27.3706 48.2372C27.5193 48.0186 27.646 47.7782 27.751 47.5159L28.0788 46.7422C28.1487 46.5586 28.2187 46.3575 28.2886 46.139C28.3586 45.9116 28.4241 45.7149 28.4853 45.5488L30.0721 40.8934H31.4359ZM26.2035 40.8934L27.8165 45.5488C27.8602 45.68 27.8996 45.8155 27.9345 45.9554C27.9695 46.0865 28.0045 46.222 28.0395 46.3619H28.3542L27.9214 47.293H27.5805C27.4668 47.293 27.3706 47.2667 27.292 47.2143C27.222 47.1531 27.1652 47.07 27.1215 46.9651L24.8528 40.8934H26.2035ZM33.9153 40.8934V47.293H32.6826V40.8934H33.9153ZM40.4328 46.3225V47.293H33.8235V46.3225H40.4328ZM37.574 40.8934V47.293H36.4331V40.8934H37.574ZM41.3246 40.8934V47.293H40.105V40.8934H41.3246ZM48.8326 40.8934C48.6839 41.2868 48.5484 41.6409 48.426 41.9556C48.3036 42.2704 48.1812 42.5458 48.0588 42.7818C47.9365 43.0179 47.7966 43.2146 47.6392 43.3719C47.4906 43.5293 47.3157 43.6561 47.1147 43.7522C46.9223 43.8484 46.6863 43.9096 46.4065 43.9358V43.9883C46.7038 44.0145 46.9529 44.0713 47.154 44.1588C47.3638 44.2462 47.5474 44.373 47.7048 44.5391C47.8709 44.7052 48.0195 44.915 48.1506 45.1685C48.2818 45.4133 48.4173 45.7149 48.5572 46.0734C48.6971 46.4231 48.8501 46.8296 49.0162 47.293H47.6917C47.5343 46.8646 47.39 46.493 47.2589 46.1783C47.1365 45.8548 47.0141 45.5838 46.8917 45.3652C46.7693 45.1379 46.6382 44.9587 46.4983 44.8276C46.3584 44.6877 46.1923 44.5915 46 44.5391C45.8164 44.4779 45.5978 44.4473 45.3443 44.4473V43.49C45.6503 43.49 45.9082 43.4375 46.118 43.3326C46.3278 43.2189 46.507 43.0528 46.6557 42.8343C46.813 42.6157 46.9573 42.3491 47.0884 42.0343C47.2196 41.7108 47.3638 41.3305 47.5212 40.8934H48.8326ZM44.5968 40.8934V42.7425C44.5968 42.9435 44.5793 43.149 44.5443 43.3588C44.5181 43.5599 44.4744 43.7522 44.4132 43.9358C44.4657 44.1282 44.5094 44.3205 44.5443 44.5128C44.5793 44.7052 44.5968 44.8844 44.5968 45.0505V47.293H43.3248V40.8934H44.5968ZM45.777 43.49V44.4473H44.2296V43.49H45.777ZM56.1634 40.8934V47.293H55.0225V43.2146C55.0225 43.0659 55.0269 42.9217 55.0356 42.7818C55.0444 42.6419 55.0575 42.4889 55.075 42.3228H55.0356C54.9832 42.454 54.9132 42.5938 54.8258 42.7425C54.7471 42.8823 54.6684 43.0047 54.5897 43.1097L51.4818 47.293H50.4195V40.8934H51.5604V44.9849C51.5604 45.1248 51.5561 45.2647 51.5473 45.4046C51.5473 45.5445 51.5386 45.6975 51.5211 45.8636H51.5473C51.6173 45.7237 51.6916 45.5882 51.7703 45.457C51.849 45.3172 51.9276 45.1991 52.0063 45.103L55.1143 40.8934H56.1634ZM59.4133 40.8934V47.293H58.1675V40.8934H59.4133ZM62.7311 43.4244V44.3686H59.3346V43.4244H62.7311ZM63.8589 40.8934V47.293H62.6131V40.8934H63.8589ZM68.6315 40.7361C68.8326 40.7361 69.0555 40.7448 69.3003 40.7623C69.5451 40.7798 69.7942 40.8104 70.0478 40.8541C70.3013 40.8978 70.5374 40.9634 70.7559 41.0508L70.5986 41.8638C70.2926 41.8376 69.9778 41.8201 69.6544 41.8114C69.3396 41.7939 69.0686 41.7852 68.8413 41.7852C68.3605 41.7852 67.9758 41.8551 67.6873 41.995C67.3988 42.1261 67.189 42.3578 67.0578 42.69C66.9354 43.0222 66.8742 43.4856 66.8742 44.0801C66.8742 44.6746 66.9354 45.1423 67.0578 45.4833C67.189 45.8242 67.3988 46.0603 67.6873 46.1914C67.9758 46.3225 68.3605 46.3881 68.8413 46.3881C68.9724 46.3881 69.1429 46.3837 69.3527 46.375C69.5713 46.3663 69.803 46.3531 70.0478 46.3357C70.2926 46.3182 70.5243 46.2919 70.7428 46.257L70.8608 47.0963C70.5461 47.2187 70.192 47.3061 69.7986 47.3585C69.4052 47.4197 69.0118 47.4503 68.6184 47.4503C67.8753 47.4503 67.2764 47.3411 66.8218 47.1225C66.3759 46.9039 66.0524 46.5499 65.8514 46.0603C65.6503 45.5707 65.5497 44.9106 65.5497 44.0801C65.5497 43.2583 65.6503 42.6026 65.8514 42.113C66.0524 41.6234 66.3759 41.2737 66.8218 41.0639C67.2764 40.8453 67.8796 40.7361 68.6315 40.7361ZM77.852 40.8934C77.7034 41.2868 77.5679 41.6409 77.4455 41.9556C77.3231 42.2704 77.2007 42.5458 77.0783 42.7818C76.9559 43.0179 76.8161 43.2146 76.6587 43.3719C76.5101 43.5293 76.3352 43.6561 76.1341 43.7522C75.9418 43.8484 75.7058 43.9096 75.426 43.9358V43.9883C75.7232 44.0145 75.9724 44.0713 76.1735 44.1588C76.3833 44.2462 76.5669 44.373 76.7243 44.5391C76.8904 44.7052 77.039 44.915 77.1701 45.1685C77.3013 45.4133 77.4368 45.7149 77.5767 46.0734C77.7165 46.4231 77.8695 46.8296 78.0356 47.293H76.7111C76.5538 46.8646 76.4095 46.493 76.2784 46.1783C76.156 45.8548 76.0336 45.5838 75.9112 45.3652C75.7888 45.1379 75.6577 44.9587 75.5178 44.8276C75.3779 44.6877 75.2118 44.5915 75.0195 44.5391C74.8359 44.4779 74.6173 44.4473 74.3638 44.4473V43.49C74.6698 43.49 74.9277 43.4375 75.1375 43.3326C75.3473 43.2189 75.5265 43.0528 75.6752 42.8343C75.8325 42.6157 75.9768 42.3491 76.1079 42.0343C76.239 41.7108 76.3833 41.3305 76.5407 40.8934H77.852ZM73.6163 40.8934V42.7425C73.6163 42.9435 73.5988 43.149 73.5638 43.3588C73.5376 43.5599 73.4939 43.7522 73.4327 43.9358C73.4851 44.1282 73.5289 44.3205 73.5638 44.5128C73.5988 44.7052 73.6163 44.8844 73.6163 45.0505V47.293H72.3442V40.8934H73.6163ZM74.7965 43.49V44.4473H73.2491V43.49H74.7965ZM85.1829 40.8934V47.293H84.042V43.2146C84.042 43.0659 84.0464 42.9217 84.0551 42.7818C84.0638 42.6419 84.077 42.4889 84.0944 42.3228H84.0551C84.0026 42.454 83.9327 42.5938 83.8453 42.7425C83.7666 42.8823 83.6879 43.0047 83.6092 43.1097L80.5012 47.293H79.439V40.8934H80.5799V44.9849C80.5799 45.1248 80.5756 45.2647 80.5668 45.4046C80.5668 45.5445 80.5581 45.6975 80.5406 45.8636H80.5668C80.6368 45.7237 80.7111 45.5882 80.7898 45.457C80.8684 45.3172 80.9471 45.1991 81.0258 45.103L84.1338 40.8934H85.1829ZM92.9308 40.8934V47.293H91.7899V43.2146C91.7899 43.0659 91.7943 42.9217 91.803 42.7818C91.8118 42.6419 91.8249 42.4889 91.8424 42.3228H91.803C91.7506 42.454 91.6806 42.5938 91.5932 42.7425C91.5145 42.8823 91.4358 43.0047 91.3571 43.1097L88.2492 47.293H87.1869V40.8934H88.3278V44.9849C88.3278 45.1248 88.3235 45.2647 88.3147 45.4046C88.3147 45.5445 88.306 45.6975 88.2885 45.8636H88.3147C88.3847 45.7237 88.459 45.5882 88.5377 45.457C88.6164 45.3172 88.695 45.1991 88.7737 45.103L91.8817 40.8934H92.9308ZM91.108 38.0477H92.0259C92.0609 38.3974 91.9997 38.7121 91.8424 38.9919C91.685 39.2629 91.4533 39.4859 91.1473 39.6607C90.8413 39.8268 90.4741 39.9099 90.0458 39.9099C89.6086 39.9099 89.2327 39.8268 88.918 39.6607C88.612 39.4859 88.3803 39.2629 88.2229 38.9919C88.0656 38.7121 88 38.3974 88.0262 38.0477H88.9573C88.9486 38.4324 89.0404 38.7253 89.2327 38.9263C89.425 39.1187 89.6961 39.2148 90.0458 39.2148C90.3867 39.2148 90.649 39.1187 90.8326 38.9263C91.0162 38.7253 91.108 38.4324 91.108 38.0477Z" fill="white"/>
</svg>
