<svg width="167" height="148" viewBox="0 0 167 148" fill="none" xmlns="http://www.w3.org/2000/svg">
<path d="M156.03 6.27003L154.785 5.3393C154.5 5.12617 154.333 4.79109 154.333 4.43518C154.333 3.26636 152.774 2.86794 152.213 3.89334L150.653 6.7443C150.608 6.82705 150.557 6.90643 150.5 6.98181L149.351 8.50943C148.927 9.07365 148.433 9.58193 147.881 10.0222L147.542 10.2921C146.278 11.3005 144.709 11.8497 143.091 11.8497C141.01 11.8497 135.597 10.4799 130.601 5.00066C129.102 3.35676 128.09 2.38168 127.431 1.86691C126.109 0.835447 125.741 3.79828 124.303 4.65885C123.926 4.88432 123.599 5.1849 123.344 5.54193L121.29 8.40847C120.847 9.0267 120.609 9.76813 120.609 10.5287C120.609 11.3821 120.309 12.2085 119.762 12.8633L117.911 15.0775C117.629 15.4151 117.387 15.7842 117.189 16.1775C116.223 18.1047 114.251 19.3214 112.096 19.3214H110.988C109.936 19.3214 108.912 18.9809 108.069 18.3507L107.191 17.6937C105.61 16.5114 103.38 16.7718 102.114 18.2867C101.555 18.9552 101.249 19.7988 101.249 20.67V22.0979C101.249 23.5093 101.811 24.8626 102.81 25.8592L103.032 26.08C103.889 26.9351 104.371 28.0965 104.371 29.3077C104.371 31.1731 103.235 32.8502 101.502 33.5412L99.1687 34.4717C98.48 34.7464 97.7454 34.8875 97.004 34.8875C96.0992 34.8875 95.2067 35.0976 94.3969 35.5013L93.2402 36.0779C92.3401 36.5266 91.518 37.1174 90.8057 37.8276L89.3831 39.246L89.014 39.6139C87.2513 41.3714 86.2605 43.7582 86.2605 46.2474V47.3403V48.067C86.2605 50.0239 86.8734 51.9316 88.013 53.5223L88.6367 54.3929C89.132 55.0842 89.5308 55.8397 89.8222 56.6386L91.3141 60.729C91.6892 61.7575 91.8811 62.8438 91.8811 63.9386V64.2106C91.8811 65.4055 91.6474 66.5872 91.2298 67.7067C90.3903 69.957 89.3831 72.9518 89.3831 74.1139C89.3831 75.1482 88.3857 77.4355 87.4265 79.3651C86.695 80.8367 85.5181 82.0297 84.1078 82.8734L83.138 83.4535C81.6808 84.0762 78.2667 85.695 76.2683 87.1894C74.5054 88.5075 71.6617 87.1894 69.4605 87.1894H69.3987H68.8067C67.5593 87.1894 66.3353 86.8512 65.2648 86.2109L62.1385 84.3407C61.2664 83.819 60.1513 83.9561 59.4317 84.6736C59.0156 85.0885 58.452 85.3214 57.8644 85.3214H56.3593C55.0941 85.3214 53.8628 85.7309 52.8494 86.4886L51.9123 87.1894L49.7195 88.9384C49.1021 89.4308 48.5657 90.0181 47.9834 90.5515C47.1293 91.3339 45.8366 92.1705 44.4181 92.1705C43.3455 92.1705 42.8246 93.1272 42.6043 94.2703C42.3138 95.7783 41.1878 97.1516 39.652 97.1516C38.7372 97.1516 37.8924 97.6412 37.4375 98.4349L36.9239 99.3309C36.1514 100.679 34.7167 101.51 33.1631 101.51H31.9801C30.7242 101.51 29.4964 101.881 28.4505 102.576L28.1807 102.755C26.959 103.567 25.5248 104.001 24.0578 104.001H21.3111C20.8358 104.001 20.3897 104.209 19.9889 104.528C18.3934 105.794 17.1361 107.564 15.2627 108.364C14.3087 108.772 13.2822 108.982 12.2449 108.982H7.5718H6.71113C5.67021 108.982 4.68009 109.43 3.99347 110.213L3.83796 110.39C2.29174 112.152 2.91817 114.91 5.07374 115.831L9.44534 117.699L12.8873 119.17C13.5053 119.434 14.093 119.763 14.6404 120.153L15.7494 120.943C17.3359 122.073 19.2353 122.68 21.183 122.68H23.1846H23.6618C25.3561 122.68 26.9809 123.352 28.1807 124.548C29.3806 125.744 31.0053 126.416 32.6996 126.416H38.173H40.6276C41.8927 126.416 43.1443 126.672 44.3077 127.169L45.2592 127.576C46.3538 128.043 47.3492 128.715 48.1922 129.556L51.1517 132.507C51.6388 132.992 52.2985 133.265 52.9863 133.265C53.8734 133.265 54.6992 132.812 55.1765 132.064L56.4877 130.01C57.4333 128.529 59.6644 128.762 60.2831 130.407C60.5177 131.031 61.0303 131.509 61.6687 131.7L66.322 133.092C66.7057 133.207 67.104 133.265 67.5045 133.265C68.7069 133.265 69.8496 133.789 70.6335 134.701L72.5718 136.956C72.9536 137.4 73.3762 137.807 73.8339 138.172L75.4546 139.465C75.9954 139.896 76.4868 140.386 76.9197 140.926L78.7664 143.227L80.9267 145.381C82.3428 146.793 84.2609 147.586 86.2605 147.586H89.3831H91.2736C92.8996 147.586 94.4976 147.162 95.9104 146.357L97.1976 145.624C97.8147 145.273 98.4698 144.992 99.1503 144.789L103.168 143.587C103.967 143.348 104.73 143.004 105.438 142.563L107.093 141.531C108.58 140.605 110.296 140.114 112.047 140.114H116.336C117.1 140.114 117.861 140.205 118.599 140.4C121.323 141.119 125.551 142.361 126.854 143.227C128.727 144.472 130.601 143.227 133.724 140.114C136.222 137.623 136.846 137.416 136.846 137.623V134.494C136.846 133.686 137.035 132.889 137.397 132.167L138.469 130.028C138.976 129.019 138.686 127.791 137.782 127.115C137.193 126.675 136.846 125.983 136.846 125.248V123.654C136.846 123.01 136.959 122.37 137.18 121.765L138.777 117.386C139.152 116.357 139.344 115.271 139.344 114.177V108.982C139.344 107.487 141.842 105.038 143.091 104.001C143.924 103.171 146.589 100.638 150.585 97.1516C152.459 95.2837 156.831 92.7931 159.329 92.1705C159.408 92.1506 159.485 92.1293 159.559 92.1067C161.536 91.5021 161.915 88.6849 163.119 87.0045C163.903 85.91 164.325 84.5976 164.325 83.2512V78.4724C164.325 75.9818 164.325 71.6233 161.202 68.5101C159.207 66.5213 159.735 65.1942 160.558 64.5288C160.946 64.2154 161.417 64.023 161.845 63.767L161.983 63.6843C163.513 62.7696 164.785 61.4507 165.414 59.7836C166.025 58.1639 166.511 56.3691 166.198 55.4346C165.795 54.2273 165.092 52.6676 164.617 51.6753C164.426 51.2745 164.257 50.8648 164.101 50.4488C163.56 49.003 162.488 46.5596 161.202 44.8497C160.456 43.8582 159.989 42.7228 159.707 41.7043C159.272 40.1291 158.892 38.4846 158.08 37.0667C157.267 35.6489 156.831 34.0278 156.831 32.3936V27.4158C156.831 27.2335 156.855 27.0556 156.9 26.8829C157.49 24.6203 159.786 23.0862 160.609 20.8977L160.631 20.8406C161.009 19.8361 161.202 18.7716 161.202 17.6983C161.202 16.309 160.878 14.9389 160.255 13.697L159.329 11.8497L157.279 7.76204C156.984 7.17449 156.557 6.66366 156.03 6.27003Z" fill="#5C5C5C" fill-opacity="0.9"/>
<path d="M69.7479 95.1575V104.206H68.4365V95.1575H69.7479ZM73.8919 98.8294V99.9178H69.643V98.8294H73.8919ZM75.059 95.1575V104.206H73.7476V95.1575H75.059ZM79.9354 97.6491C80.6873 97.6491 81.2861 97.7584 81.732 97.977C82.1779 98.1955 82.5013 98.554 82.7024 99.0523C82.9035 99.5419 83.004 100.193 83.004 101.006C83.004 101.828 82.9035 102.488 82.7024 102.986C82.5013 103.476 82.1779 103.83 81.732 104.049C81.2861 104.267 80.6873 104.377 79.9354 104.377C79.1835 104.377 78.5803 104.267 78.1257 104.049C77.6798 103.83 77.3564 103.476 77.1553 102.986C76.9542 102.488 76.8537 101.828 76.8537 101.006C76.8537 100.193 76.9542 99.5419 77.1553 99.0523C77.3564 98.554 77.6798 98.1955 78.1257 97.977C78.5803 97.7584 79.1835 97.6491 79.9354 97.6491ZM79.9354 98.672C79.4983 98.672 79.1486 98.742 78.8863 98.8818C78.6328 99.0217 78.4492 99.2621 78.3355 99.6031C78.2306 99.9353 78.1782 100.403 78.1782 101.006C78.1782 101.61 78.2306 102.082 78.3355 102.423C78.4492 102.764 78.6328 103.004 78.8863 103.144C79.1486 103.275 79.4983 103.341 79.9354 103.341C80.3725 103.341 80.7179 103.275 80.9714 103.144C81.2249 103.004 81.4042 102.764 81.5091 102.423C81.614 102.082 81.6664 101.61 81.6664 101.006C81.6664 100.403 81.614 99.9353 81.5091 99.6031C81.4042 99.2621 81.2249 99.0217 80.9714 98.8818C80.7179 98.742 80.3725 98.672 79.9354 98.672ZM86.1277 97.7672C86.696 97.7672 87.2686 97.7715 87.8456 97.7803C88.4314 97.789 88.9865 97.824 89.5111 97.8852L89.4586 98.7769H86.6654C86.4031 98.7769 86.2108 98.8381 86.0884 98.9605C85.9747 99.0742 85.9179 99.2621 85.9179 99.5244V104.206H84.6721V99.1966C84.6721 98.7245 84.7945 98.3704 85.0393 98.1343C85.284 97.8896 85.6469 97.7672 86.1277 97.7672ZM96.5124 97.8065V104.206H95.3715V100.128C95.3715 99.979 95.3759 99.8348 95.3846 99.6949C95.3934 99.555 95.4065 99.402 95.424 99.2359H95.3846C95.3322 99.367 95.2622 99.5069 95.1748 99.6556C95.0961 99.7954 95.0174 99.9178 94.9388 100.023L91.8308 104.206H90.7686V97.8065H91.9095V101.898C91.9095 102.038 91.9051 102.178 91.8964 102.318C91.8964 102.458 91.8876 102.611 91.8701 102.777H91.8964C91.9663 102.637 92.0406 102.501 92.1193 102.37C92.198 102.23 92.2767 102.112 92.3553 102.016L95.4633 97.8065H96.5124ZM99.7623 97.8065V104.206H98.5165V97.8065H99.7623ZM103.08 100.337V101.282H99.6836V100.337H103.08ZM104.208 97.8065V104.206H102.962V97.8065H104.208ZM108.981 97.6491C109.182 97.6491 109.405 97.6579 109.649 97.6754C109.894 97.6928 110.143 97.7234 110.397 97.7672C110.65 97.8109 110.886 97.8764 111.105 97.9639L110.948 98.7769C110.642 98.7507 110.327 98.7332 110.003 98.7245C109.689 98.707 109.418 98.6982 109.19 98.6982C108.709 98.6982 108.325 98.7682 108.036 98.9081C107.748 99.0392 107.538 99.2709 107.407 99.6031C107.284 99.9353 107.223 100.399 107.223 100.993C107.223 101.588 107.284 102.055 107.407 102.396C107.538 102.737 107.748 102.973 108.036 103.104C108.325 103.236 108.709 103.301 109.19 103.301C109.321 103.301 109.492 103.297 109.702 103.288C109.92 103.279 110.152 103.266 110.397 103.249C110.642 103.231 110.873 103.205 111.092 103.17L111.21 104.009C110.895 104.132 110.541 104.219 110.148 104.272C109.754 104.333 109.361 104.363 108.967 104.363C108.224 104.363 107.625 104.254 107.171 104.036C106.725 103.817 106.401 103.463 106.2 102.973C105.999 102.484 105.899 101.824 105.899 100.993C105.899 100.171 105.999 99.5157 106.2 99.0261C106.401 98.5365 106.725 98.1868 107.171 97.977C107.625 97.7584 108.229 97.6491 108.981 97.6491ZM118.201 97.8065C118.052 98.1999 117.917 98.554 117.795 98.8687C117.672 99.1835 117.55 99.4588 117.427 99.6949C117.305 99.9309 117.165 100.128 117.008 100.285C116.859 100.442 116.684 100.569 116.483 100.665C116.291 100.761 116.055 100.823 115.775 100.849V100.901C116.072 100.928 116.321 100.984 116.522 101.072C116.732 101.159 116.916 101.286 117.073 101.452C117.239 101.618 117.388 101.828 117.519 102.082C117.65 102.326 117.786 102.628 117.926 102.986C118.066 103.336 118.219 103.743 118.385 104.206H117.06C116.903 103.778 116.759 103.406 116.627 103.091C116.505 102.768 116.383 102.497 116.26 102.278C116.138 102.051 116.007 101.872 115.867 101.741C115.727 101.601 115.561 101.505 115.368 101.452C115.185 101.391 114.966 101.36 114.713 101.36V100.403C115.019 100.403 115.277 100.351 115.487 100.246C115.696 100.132 115.876 99.9659 116.024 99.7474C116.182 99.5288 116.326 99.2621 116.457 98.9474C116.588 98.6239 116.732 98.2436 116.89 97.8065H118.201ZM113.965 97.8065V99.6556C113.965 99.8566 113.948 100.062 113.913 100.272C113.887 100.473 113.843 100.665 113.782 100.849C113.834 101.041 113.878 101.234 113.913 101.426C113.948 101.618 113.965 101.797 113.965 101.964V104.206H112.693V97.8065H113.965ZM115.146 100.403V101.36H113.598V100.403H115.146ZM125.532 97.8065V104.206H124.391V100.128C124.391 99.979 124.395 99.8348 124.404 99.6949C124.413 99.555 124.426 99.402 124.443 99.2359H124.404C124.352 99.367 124.282 99.5069 124.194 99.6556C124.116 99.7954 124.037 99.9178 123.958 100.023L120.85 104.206H119.788V97.8065H120.929V101.898C120.929 102.038 120.925 102.178 120.916 102.318C120.916 102.458 120.907 102.611 120.89 102.777H120.916C120.986 102.637 121.06 102.501 121.139 102.37C121.217 102.23 121.296 102.112 121.375 102.016L124.483 97.8065H125.532ZM133.28 97.8065V104.206H132.139V100.128C132.139 99.979 132.143 99.8348 132.152 99.6949C132.161 99.555 132.174 99.402 132.191 99.2359H132.152C132.1 99.367 132.03 99.5069 131.942 99.6556C131.864 99.7954 131.785 99.9178 131.706 100.023L128.598 104.206H127.536V97.8065H128.677V101.898C128.677 102.038 128.672 102.178 128.664 102.318C128.664 102.458 128.655 102.611 128.638 102.777H128.664C128.734 102.637 128.808 102.501 128.887 102.37C128.965 102.23 129.044 102.112 129.123 102.016L132.231 97.8065H133.28ZM131.457 94.9608H132.375C132.41 95.3105 132.349 95.6252 132.191 95.905C132.034 96.176 131.802 96.399 131.496 96.5738C131.19 96.7399 130.823 96.823 130.395 96.823C129.958 96.823 129.582 96.7399 129.267 96.5738C128.961 96.399 128.729 96.176 128.572 95.905C128.415 95.6252 128.349 95.3105 128.375 94.9608H129.306C129.298 95.3455 129.389 95.6383 129.582 95.8394C129.774 96.0318 130.045 96.1279 130.395 96.1279C130.736 96.1279 130.998 96.0318 131.182 95.8394C131.365 95.6383 131.457 95.3455 131.457 94.9608Z" fill="white"/>
</svg>
