<svg width="154" height="177" viewBox="0 0 154 177" fill="none" xmlns="http://www.w3.org/2000/svg">
<path d="M10.1963 152.831H9.10859C7.37881 152.831 5.69205 153.37 4.28305 154.373C2.84978 155.394 1.77707 156.843 1.21914 158.512L0.687461 160.102C0.367327 161.06 0.204102 162.063 0.204102 163.072V165.906V167.774V169.417C0.204102 170.699 0.929642 171.872 2.07764 172.444L2.88607 172.847C3.53871 173.172 3.95118 173.839 3.95118 174.568C3.95118 175.63 4.81218 176.491 5.87427 176.491H6.44924H8.3281C9.56144 176.491 10.7826 176.248 11.9216 175.774L16.6108 173.826C17.3278 173.529 18.005 173.143 18.6268 172.678L20.1885 171.51L22.9924 169.114C24.0042 168.249 25.2914 167.774 26.6223 167.774H26.841C28.1799 167.774 29.4642 167.243 30.4123 166.298C30.6735 166.038 30.9624 165.807 31.2738 165.609L36.3465 162.391C37.2142 161.84 38.2206 161.548 39.2481 161.548C40.2607 161.548 41.2531 161.264 42.1125 160.728L44.8888 158.998C45.4901 158.624 46.0469 158.182 46.5486 157.682L47.7102 156.524C48.0964 156.139 48.4338 155.708 48.715 155.241C49.6422 153.7 51.1526 152.599 52.9033 152.188L59.7266 150.588C60.4278 150.423 61.1457 150.34 61.8659 150.34H63.781C65.0739 150.34 66.3285 150.779 67.3393 151.586C68.3501 152.392 69.6047 152.831 70.8977 152.831H71.7444C73.1549 152.831 74.5412 152.464 75.7669 151.765L77.1792 150.961C77.9021 150.549 78.5668 150.043 79.1559 149.455L83.1367 145.486C84.0181 144.608 84.5135 143.414 84.5135 142.17C84.5135 140.655 85.2462 139.234 86.4801 138.355L86.6992 138.199C88.0707 137.222 88.885 135.642 88.885 133.959V133.683C88.885 132.005 88.1503 130.41 86.8743 129.32L86.6992 129.17C85.3121 127.985 84.5135 126.252 84.5135 124.427V121.699V115.472V109.246C84.5135 106.957 85.8082 104.865 87.8569 103.843L91.283 102.135C92.581 101.488 94.0116 101.152 95.462 101.152H98.1319C98.6248 101.152 99.1137 101.063 99.5754 100.891C101.871 100.032 102.915 97.3727 101.775 95.2032C100.78 93.3078 99.6883 91.2917 98.8773 89.944C98.3074 88.9971 97.7195 88.1402 97.1754 87.4076C96.2407 86.1492 96.5823 84.239 97.9852 83.5397C98.5542 83.256 99.2138 83.2249 99.8195 83.4182C101.861 84.0699 105.485 84.9629 108.869 84.9629H113.962C114.721 84.9629 115.468 84.7867 116.147 84.4481C117.811 83.619 118.862 81.9204 118.862 80.0619V77.353C118.862 76.6209 118.994 75.8949 119.251 75.2096L120.224 72.6234C120.532 71.806 121.314 71.2648 122.187 71.2648C122.846 71.2648 123.466 70.955 123.862 70.4285L124.17 70.0195C124.76 69.2354 125.684 68.7742 126.665 68.7742H128.609C129.99 68.7742 131.341 69.1822 132.492 69.9471L134.475 71.2648L138.097 73.3283C138.594 73.6117 139.052 73.9602 139.457 74.3644C140.666 75.5693 142.302 76.2459 144.009 76.2459H144.467H148.221C149.252 76.2459 150.087 75.4101 150.087 74.3791C150.087 73.9743 150.219 73.5804 150.462 73.2569L151.225 72.2429C151.71 71.5982 152.052 70.8575 152.227 70.0701L152.691 67.9877C153.032 66.4609 152.984 64.8732 152.553 63.3694L152.471 63.0814C152.134 61.9068 152.039 60.6789 152.124 59.46C152.267 57.3961 152.331 54.6857 151.961 53.2082C151.92 53.0466 151.869 52.8949 151.807 52.7525C150.854 50.5421 148.214 48.7662 148.214 46.3591V40.7553V38.3982C148.214 37.484 148.08 36.5747 147.817 35.6992L146.738 32.1133C146.474 31.2379 146.34 30.3288 146.34 29.4146V23.3214V18.3402C146.34 16.9647 145.225 15.8497 143.85 15.8497H140.716C139.502 15.8497 138.335 15.4266 137.261 14.8602C136.375 14.3925 135.335 13.9817 134.475 13.9817C132.211 13.9817 130.469 12.1177 128.454 11.087C128.185 10.9493 127.901 10.8685 127.605 10.8685C126.374 10.8685 126.744 8.90766 127.261 7.40217C127.467 6.80539 127.605 6.18457 127.605 5.5535V4.23926C127.605 2.39849 126.113 0.90625 124.272 0.90625C123.596 0.90625 122.935 1.11202 122.379 1.49622L115.115 6.51003L108.869 10.8685C107.829 11.6987 105.372 13.4836 103.873 13.9817C102.375 14.4798 99.9181 17.0949 98.8773 18.3402C97.6282 19.5855 94.7555 22.3251 93.2566 23.3214C92.0204 24.143 92.3986 26.1508 92.9195 27.5278C93.1186 28.0541 93.4268 28.5287 93.7651 28.9784L95.1302 30.7931L99.3601 35.4789C100.255 36.4705 100.751 37.759 100.751 39.0949V43.5544C100.751 44.0718 100.331 44.4912 99.814 44.4912C99.2967 44.4912 98.8773 44.9106 98.8773 45.4279V47.4164C98.8773 48.3205 98.4591 49.1739 97.7446 49.728L93.2566 53.2082L88.885 57.5666L85.6955 61.4533C84.1565 63.3286 81.8582 64.4157 79.4322 64.4157H78.5568C77.1628 64.4157 75.816 64.9206 74.7656 65.837C72.7836 67.566 72.2225 70.417 73.4016 72.7681L73.6058 73.1753C73.7993 73.561 73.9529 73.9654 74.0644 74.3822L75.8095 80.9066C76.1904 82.3309 76.1238 83.838 75.6186 85.2231L75.5204 85.4922C74.5454 88.1654 72.0035 89.944 69.1581 89.944C67.0299 89.944 65.0539 88.9175 63.6389 87.3279C62.5204 86.0715 61.3593 84.9629 60.7819 84.9629H59.6885C57.5662 84.9629 55.5068 85.6836 53.8476 87.0069L50.1652 89.944L45.7936 93.0572L38.2565 98.8376C37.8694 99.1345 37.4599 99.3989 37.0346 99.6378C34.6279 100.989 30.8053 103.355 30.8053 104.265C30.8053 105.118 29.8897 107.249 29.2344 108.625C29.0367 109.041 28.799 109.435 28.5346 109.811L26.261 113.05C25.1541 114.626 24.5601 116.527 24.5601 118.454C24.5601 120.541 25.2576 122.593 26.5417 124.239L27.9432 126.035C28.5974 126.874 29.1041 127.818 29.4413 128.827L30.3219 131.461C30.642 132.418 30.8053 133.421 30.8053 134.431V137.827C30.8053 139.099 30.5462 140.358 30.0439 141.527L29.3144 143.224C29.06 143.816 28.7451 144.38 28.3749 144.907L25.9594 148.347C25.0823 149.597 23.6515 150.34 22.125 150.34H21.9523C20.8228 150.34 19.7394 150.788 18.9395 151.586C18.1396 152.383 17.0562 152.831 15.9267 152.831H10.1963Z" fill="#5C5C5C" fill-opacity="0.9"/>
<path d="M49.1983 109.216L54.5067 116.544L53.4638 117.295L48.1554 109.967L49.1983 109.216ZM61.8698 109.966L62.4775 110.805L54.4216 116.606L53.8032 115.774L61.8698 109.966ZM52.7315 106.672L58.0399 114L57.0076 114.743L51.6992 107.416L52.7315 106.672ZM56.2752 104.121L61.5836 111.448L60.5514 112.192L55.243 104.864L56.2752 104.121ZM62.4237 110.73L63.6392 112.408L62.8943 112.945L61.5723 111.343L62.4237 110.73ZM61.9505 103.104C62.7522 102.527 63.4355 102.256 64.0005 102.291C64.5675 102.313 65.0572 102.602 65.4694 103.156C65.8079 103.623 65.9666 104.058 65.9455 104.461C65.9244 104.864 65.6798 105.235 65.2115 105.572L62.1999 107.74L61.669 107.008L64.4146 105.031C64.6417 104.867 64.7368 104.685 64.7 104.486C64.6704 104.281 64.5827 104.085 64.4372 103.899C64.2064 103.581 63.95 103.42 63.6681 103.419C63.3933 103.412 63.0324 103.57 62.5854 103.891C62.2236 104.152 61.9783 104.409 61.8495 104.664C61.7207 104.918 61.7086 105.207 61.8132 105.53C61.9179 105.853 62.142 106.252 62.4856 106.727C62.8703 107.258 63.2184 107.626 63.53 107.833C63.8364 108.032 64.1416 108.104 64.4456 108.046C64.7567 107.984 65.1037 107.815 65.4868 107.539C65.7635 107.34 66.0609 107.109 66.379 106.848C66.699 106.574 66.9845 106.32 67.2356 106.086L67.816 106.686C67.7041 106.874 67.542 107.082 67.3296 107.311C67.1191 107.527 66.8939 107.738 66.6539 107.943C66.4139 108.148 66.1875 108.327 65.9746 108.48C65.3716 108.915 64.8154 109.175 64.306 109.262C63.8037 109.343 63.3238 109.247 62.8664 108.973C62.4108 108.687 61.9471 108.219 61.4753 107.567C60.9829 106.888 60.6783 106.288 60.5613 105.769C60.4444 105.25 60.5043 104.781 60.741 104.363C60.9727 103.938 61.3758 103.518 61.9505 103.104ZM69.9276 97.554L70.4892 98.3293L68.5524 99.7239C68.3396 99.8772 68.2168 100.036 68.1842 100.199C68.1586 100.358 68.2163 100.564 68.3572 100.818C68.5422 101.148 68.7279 101.494 68.9142 101.855C69.1024 102.204 69.2758 102.548 69.4345 102.886C69.5951 103.212 69.7175 103.523 69.8016 103.818C69.9114 104.148 69.9488 104.461 69.9138 104.755C69.886 105.044 69.7893 105.313 69.6238 105.562C69.4532 105.803 69.2225 106.029 68.9316 106.238L68.2636 105.539C68.4121 105.357 68.5226 105.197 68.5951 105.058C68.6747 104.915 68.7156 104.778 68.7179 104.647C68.7222 104.503 68.703 104.35 68.6604 104.187C68.6114 103.985 68.5312 103.763 68.4199 103.52C68.3157 103.272 68.1958 103.024 68.06 102.777C67.9262 102.518 67.7879 102.267 67.6451 102.026C67.5042 101.772 67.3752 101.541 67.258 101.335C67.0204 100.903 66.9337 100.507 66.9978 100.149C67.0568 99.7829 67.3026 99.4442 67.7354 99.1326L69.9276 97.554ZM70.066 97.4544L73.8203 102.637L72.7881 103.38L69.0337 98.1977L70.066 97.4544ZM76.1676 93.0607C76.2778 93.4661 76.3756 93.8321 76.4609 94.1585C76.5462 94.4849 76.6084 94.7794 76.6476 95.0421C76.6867 95.3048 76.6886 95.5458 76.6532 95.7652C76.625 95.9795 76.5574 96.1843 76.4507 96.3797C76.351 96.57 76.1954 96.7575 75.9837 96.9422L76.0145 96.9847C76.2711 96.8322 76.5066 96.7327 76.7211 96.686C76.9427 96.6341 77.166 96.6295 77.3912 96.6721C77.6234 96.7095 77.8671 96.7926 78.1223 96.9213C78.3723 97.0429 78.6592 97.208 78.983 97.4165C79.3017 97.618 79.6643 97.8578 80.071 98.136L78.9961 98.91C78.6171 98.655 78.2821 98.4384 77.991 98.2601C77.7019 98.0697 77.4436 97.9217 77.216 97.8163C76.9834 97.7037 76.7718 97.6352 76.5814 97.6107C76.3858 97.5792 76.1946 97.5984 76.0077 97.6683C75.8228 97.726 75.6275 97.8289 75.4218 97.9771L74.8602 97.2018C75.1085 97.023 75.287 96.8298 75.3957 96.6223C75.4993 96.4076 75.5473 96.1684 75.5397 95.9045C75.5392 95.6356 75.4998 95.3353 75.4216 95.0038C75.3382 94.6652 75.2322 94.273 75.1034 93.827L76.1676 93.0607ZM72.7303 95.5359L73.815 97.0333C73.933 97.1961 74.0393 97.3727 74.1341 97.5631C74.2307 97.7412 74.3081 97.9226 74.3661 98.107C74.5216 98.2321 74.6699 98.3623 74.8111 98.4976C74.9523 98.633 75.0716 98.7679 75.1691 98.9024L76.4846 100.718L75.4524 101.462L71.698 96.2792L72.7303 95.5359ZM75.2113 96.949L75.7729 97.7242L74.5172 98.6285L73.9556 97.8532L75.2113 96.949ZM79.5777 90.4113C80.1878 89.9719 80.7379 89.7105 81.2279 89.6269C81.718 89.5434 82.1908 89.6447 82.6463 89.9307C83.0967 90.2097 83.5604 90.6784 84.0374 91.3369C84.5195 92.0024 84.8251 92.5957 84.9543 93.1167C85.0783 93.6307 85.0235 94.1065 84.7899 94.544C84.5563 94.9816 84.1345 95.42 83.5243 95.8594C82.9142 96.2987 82.3606 96.5627 81.8634 96.6514C81.3734 96.7349 80.9032 96.6372 80.4528 96.3582C79.9972 96.0721 79.5284 95.5963 79.0463 94.9308C78.5693 94.2724 78.2688 93.6862 78.1448 93.1722C78.0156 92.6511 78.0678 92.1718 78.3014 91.7343C78.5421 91.2916 78.9675 90.8506 79.5777 90.4113ZM80.1777 91.2396C79.823 91.4951 79.5802 91.7561 79.4495 92.0226C79.3258 92.284 79.3179 92.586 79.4256 92.9286C79.5354 93.2589 79.7672 93.6683 80.1211 94.1569C80.475 94.6454 80.7946 94.997 81.0797 95.2119C81.372 95.4216 81.662 95.509 81.9498 95.4741C82.2396 95.4271 82.5618 95.2758 82.9166 95.0204C83.2713 94.7649 83.5131 94.51 83.6419 94.2557C83.7656 93.9943 83.77 93.6948 83.6551 93.3574C83.5402 93.02 83.3058 92.607 82.9519 92.1185C82.598 91.63 82.281 91.2818 82.001 91.0741C81.7158 90.8593 81.4293 90.7693 81.1415 90.8042C80.8537 90.8391 80.5325 90.9842 80.1777 91.2396ZM85.6782 86.1315C86.2245 85.7381 86.6855 85.4654 87.0611 85.3134C87.4368 85.1614 87.7674 85.1335 88.0529 85.2295C88.3455 85.3205 88.6251 85.55 88.8918 85.9182C89.1586 86.2864 89.2725 86.6299 89.2336 86.9488C89.1896 87.2606 88.9817 87.5772 88.6101 87.8987L88.6332 87.9305C89.1412 87.6186 89.5757 87.5104 89.9365 87.6061C90.3044 87.6967 90.6396 87.9509 90.9422 88.3686C91.1987 88.7226 91.3278 89.0498 91.3295 89.3502C91.3261 89.6436 91.2 89.939 90.9514 90.2366C90.7027 90.5341 90.3266 90.8642 89.8228 91.227C89.4468 91.4977 89.1144 91.7317 88.8254 91.929C88.5488 92.1282 88.2882 92.3051 88.0438 92.4595C87.8117 92.6159 87.5628 92.779 87.2971 92.9487L86.894 92.124C87.041 92.0289 87.3122 91.8444 87.7075 91.5705C88.1048 91.2844 88.5695 90.9498 89.1016 90.5666C89.4067 90.347 89.6325 90.152 89.7791 89.9818C89.9328 89.8065 90.0041 89.6367 89.9929 89.4723C89.9838 89.2958 89.9023 89.1013 89.7484 88.8889C89.5176 88.5703 89.269 88.4208 89.0024 88.4403C88.7308 88.4528 88.3573 88.6301 87.8819 88.9724L85.7216 90.528L85.2216 89.8377L87.3819 88.2821C87.6586 88.0829 87.8657 87.9068 88.0032 87.7539C88.1427 87.5888 88.2095 87.4276 88.2035 87.2704C88.1995 87.1009 88.1256 86.917 87.982 86.7188C87.8436 86.5276 87.6958 86.4131 87.5389 86.3753C87.3891 86.3324 87.2065 86.3561 86.9913 86.4464C86.7761 86.5368 86.5124 86.6944 86.2002 86.9191C85.8758 87.142 85.5895 87.3428 85.3411 87.5216C85.0928 87.7004 84.8755 87.8623 84.689 88.0073C84.4975 88.1452 84.3323 88.2749 84.1936 88.3964L83.5428 87.7662C83.7544 87.5814 83.9605 87.4115 84.1611 87.2562C84.3618 87.101 84.5827 86.9365 84.8239 86.7628C85.0671 86.577 85.3518 86.3665 85.6782 86.1315ZM84.5112 87.0688L88.2655 92.2514L87.2971 92.9487L83.5428 87.7662L84.5112 87.0688ZM91.6226 81.738C91.7857 81.6205 91.9718 81.4973 92.1807 81.3684C92.3896 81.2395 92.6097 81.1187 92.8411 81.0059C93.0725 80.8932 93.3025 80.8083 93.5312 80.7514L93.8805 81.5018C93.6168 81.6594 93.3511 81.8291 93.0835 82.0111C92.8178 82.1808 92.5928 82.3321 92.4083 82.465C92.0181 82.7459 91.747 83.0274 91.5949 83.3092C91.4377 83.584 91.4034 83.8942 91.4918 84.2399C91.5874 84.5805 91.8096 84.9915 92.1583 85.4729C92.5071 85.9544 92.8312 86.2974 93.1305 86.502C93.437 86.7015 93.7457 86.77 94.0568 86.7076C94.3678 86.6452 94.7185 86.4736 95.1087 86.1926C95.2151 86.116 95.3509 86.0128 95.516 85.8831C95.6882 85.7483 95.8686 85.6023 96.0569 85.4451C96.2453 85.2879 96.418 85.1313 96.5748 84.9752L97.163 85.586C96.9794 85.869 96.7433 86.1467 96.4548 86.4191C96.1715 86.6985 95.8702 86.9532 95.5509 87.1831C94.9479 87.6173 94.3978 87.8788 93.9006 87.9674C93.4106 88.051 92.9404 87.9532 92.49 87.6743C92.0396 87.3953 91.5708 86.9195 91.0835 86.2469C90.6014 85.5814 90.2983 84.9916 90.1743 84.4776C90.0502 83.9637 90.1076 83.4914 90.3463 83.061C90.587 82.6183 91.0124 82.1773 91.6226 81.738ZM99.1974 76.4774C99.3076 76.8828 99.4053 77.2488 99.4907 77.5752C99.576 77.9016 99.6382 78.1961 99.6774 78.4588C99.7165 78.7215 99.7184 78.9625 99.683 79.1819C99.6547 79.3962 99.5872 79.601 99.4804 79.7964C99.3808 79.9867 99.2251 80.1742 99.0135 80.3589L99.0443 80.4014C99.3009 80.2489 99.5364 80.1493 99.7509 80.1026C99.9724 80.0508 100.196 80.0462 100.421 80.0888C100.653 80.1262 100.897 80.2093 101.152 80.338C101.402 80.4596 101.689 80.6247 102.013 80.8332C102.331 81.0347 102.694 81.2745 103.101 81.5527L102.026 82.3266C101.647 82.0717 101.312 81.8551 101.021 81.6768C100.732 81.4864 100.473 81.3384 100.246 81.2329C100.013 81.1204 99.8016 81.0519 99.6111 81.0274C99.4156 80.9959 99.2243 81.0151 99.0375 81.085C98.8526 81.1427 98.6573 81.2456 98.4515 81.3938L97.8899 80.6185C98.1382 80.4397 98.3168 80.2465 98.4255 80.039C98.5291 79.8243 98.5771 79.5851 98.5694 79.3212C98.5689 79.0523 98.5296 78.752 98.4513 78.4205C98.368 78.0819 98.2619 77.6896 98.1332 77.2437L99.1974 76.4774ZM95.7601 78.9525L96.8448 80.45C96.9628 80.6128 97.0691 80.7894 97.1638 80.9798C97.2605 81.1579 97.3379 81.3392 97.3959 81.5237C97.5513 81.6488 97.6996 81.779 97.8408 81.9143C97.9821 82.0497 98.1014 82.1846 98.1988 82.3191L99.5144 84.1351L98.4821 84.8784L94.7278 79.6959L95.7601 78.9525ZM98.2411 80.3656L98.8027 81.1409L97.547 82.0451L96.9854 81.2699L98.2411 80.3656ZM105.146 72.1936L108.901 77.3762L107.975 78.0429L105.582 74.7401C105.495 74.6197 105.414 74.5003 105.339 74.3819C105.264 74.2635 105.185 74.132 105.102 73.9872L105.07 74.0102C105.104 74.1471 105.129 74.3012 105.146 74.4727C105.164 74.6319 105.172 74.777 105.17 74.908L105.102 80.1119L104.24 80.7326L100.485 75.55L101.411 74.8833L103.811 78.1968C103.893 78.3101 103.972 78.4259 104.047 78.5443C104.129 78.6576 104.212 78.7866 104.295 78.9313L104.316 78.916C104.291 78.7619 104.272 78.6087 104.259 78.4565C104.24 78.2973 104.235 78.1557 104.242 78.0318L104.295 72.8067L105.146 72.1936ZM111.434 67.6661L115.188 72.8487L114.262 73.5154L111.87 70.2126C111.783 70.0922 111.701 69.9728 111.626 69.8544C111.552 69.7361 111.472 69.6045 111.389 69.4598L111.357 69.4827C111.392 69.6196 111.417 69.7737 111.433 69.9452C111.451 70.1044 111.459 70.2495 111.457 70.3805L111.389 75.5844L110.527 76.2051L106.773 71.0225L107.699 70.3559L110.099 73.6693C110.181 73.7826 110.259 73.8984 110.334 74.0168C110.416 74.1301 110.499 74.2591 110.582 74.4038L110.604 74.3885C110.578 74.2344 110.559 74.0812 110.546 73.929C110.528 73.7698 110.522 73.6282 110.53 73.5044L110.582 68.2792L111.434 67.6661ZM108.285 66.4268L109.03 65.8903C109.264 66.1531 109.399 66.4437 109.435 66.7623C109.466 67.0737 109.409 67.3896 109.263 67.71C109.113 68.0234 108.863 68.3052 108.516 68.5555C108.161 68.8109 107.807 68.9634 107.454 69.0127C107.103 69.0499 106.785 69.0048 106.498 68.8773C106.206 68.7427 105.968 68.5261 105.784 68.2276L106.54 67.6835C106.758 68.0001 107.005 68.1837 107.279 68.2341C107.548 68.2775 107.824 68.197 108.108 67.9926C108.385 67.7934 108.541 67.5623 108.577 67.2992C108.608 67.0291 108.511 66.7383 108.285 66.4268Z" fill="white"/>
</svg>
