<svg width="199" height="118" viewBox="0 0 199 118" fill="none" xmlns="http://www.w3.org/2000/svg">
<path d="M54.1023 7.05372L53.1191 9.9945C52.4097 12.1164 50.9642 13.9143 49.0441 15.0629L47.9954 15.6903C46.542 16.5596 44.8802 17.0188 43.1867 17.0188H38.9049H37.8552C36.9074 17.0188 35.9773 17.2757 35.1639 17.7623L32.8363 19.1547C31.4072 20.0095 31.0342 21.9144 32.0353 23.2452L36.8863 29.4008C38.1182 30.9639 38.3351 33.0983 37.443 34.8773C36.7841 36.1911 36.7202 37.7243 37.2674 39.0883L38.6249 42.4719C38.8113 42.9363 39.0346 43.3852 39.2926 43.814L42.652 49.3961L44.022 51.3085C45.1617 52.8992 45.8451 54.8194 45.5281 56.7504C45.1621 58.9802 44.3295 61.2263 42.652 61.2263C41.656 61.2263 40.8916 61.6883 40.3193 62.3359C38.7893 64.0672 39.6153 66.6472 40.8996 68.5679L41.2908 69.1529C42.1783 70.4801 42.652 72.0408 42.652 73.6374C42.652 74.8932 42.3641 76.134 41.7719 77.2414C40.3024 79.9896 38.0265 83.8946 36.4068 85.5093C33.9088 87.9999 32.0353 87.9999 30.1617 87.9999C29.0691 87.9999 25.6976 90.647 22.902 93.0466C21.1188 94.5772 18.8655 95.4716 16.5156 95.4716H11.4263C9.60007 95.4716 7.88509 96.359 6.76939 97.1607C6.09274 97.6469 5.59446 98.3255 5.1911 99.0546C3.43664 102.226 0.80957 107.4 0.80957 109.17C0.80957 111.162 4.14031 111.66 5.80568 111.66H6.34924C9.50824 111.66 12.4451 110.035 14.123 107.359C14.4064 106.907 14.7287 106.48 15.0862 106.084L19.0152 101.731C19.7501 100.917 20.7954 100.453 21.8921 100.453C22.7968 100.453 23.673 100.769 24.3689 101.347L27.0391 103.566L27.8077 104.045C30.4371 105.683 32.0353 108.562 32.0353 111.66V112.12C32.0353 114.421 33.5767 116.438 35.7977 117.042C37.6959 117.558 39.7217 116.937 41.0041 115.445L41.0744 115.363C42.0759 114.198 43.5357 113.528 45.0719 113.528H45.7746H50.504C51.5079 113.528 52.5054 113.367 53.4581 113.05L56.2019 112.138C57.1547 111.822 58.1521 111.66 59.156 111.66H62.9292C64.3795 111.66 65.8101 111.323 67.1082 110.676L70.1306 109.17L74.9993 107.228C75.9113 106.864 76.7603 106.36 77.5155 105.732L80.1228 103.566L82.7252 100.971C83.0714 100.626 83.4442 100.309 83.8401 100.022L90.115 95.4716L97.6092 91.1131L101.881 88.9838C103.179 88.3367 104.609 87.9999 106.06 87.9999H116.969H121.341H127.462C128.755 87.9999 130.01 87.5608 131.021 86.7546C132.031 85.9484 133.286 85.5093 134.579 85.5093H138.718C140.025 85.5093 141.318 85.2358 142.513 84.7062L145.351 83.4489C145.991 83.1653 146.683 83.0188 147.383 83.0188C147.921 83.0188 148.455 82.9323 148.965 82.7628L152.377 81.6289C153.33 81.3123 154.327 81.1509 155.331 81.1509H158.812H162.633C163.822 81.1509 164.999 80.9247 166.103 80.4845L170.064 78.905C170.469 78.7433 170.901 78.6603 171.338 78.6603C172.486 78.6603 173.564 78.0909 174.166 77.1134C175.422 75.0747 176.922 72.3465 176.922 71.1886C176.922 69.6942 180.253 66.8301 181.919 65.5848L185.497 62.4633C186.433 61.6468 187.522 61.0246 188.7 60.6329L193.26 59.1174C194.022 58.8644 194.741 58.4991 195.395 58.0337C197.519 56.5209 198.78 54.0739 198.78 51.466V49.3961V41.3018V33.8301V30.0031C198.78 27.9902 197.149 26.3584 195.136 26.3584C194.656 26.3584 194.181 26.4532 193.738 26.6373L188.64 28.7549C187.501 29.228 186.28 29.4716 185.046 29.4716H180.201C178.078 29.4716 176.019 30.1923 174.36 31.5156L170.117 34.8992C168.458 36.2226 166.399 36.9433 164.277 36.9433H160.61C159.422 36.9433 158.244 36.7172 157.141 36.2769L146.321 31.9622L140.701 29.4716L132.582 26.3584L126.337 23.2452L121.341 20.7546L113.222 17.0188L105.728 13.2829L100.732 10.7923L95.741 7.47511C95.3218 7.19649 94.8808 6.9521 94.4223 6.74434L88.2415 3.94329L81.7422 1.45106C80.6717 1.04056 79.5349 0.830078 78.3884 0.830078H70.1306H62.7454C61.0415 0.830078 59.3718 1.30773 57.9258 2.20881C56.1266 3.32993 54.7745 5.04322 54.1023 7.05372Z" fill="#5C5C5C" fill-opacity="0.9"/>
<path d="M62.3644 53.6333C63.2187 53.6333 63.9437 53.7345 64.5394 53.9368C65.1464 54.1391 65.6297 54.4707 65.9894 54.9316C66.3491 55.3924 66.6077 56.0106 66.765 56.7862C66.9336 57.5618 67.0179 58.5229 67.0179 59.6694C67.0179 60.8047 66.9336 61.7657 66.765 62.5526C66.6077 63.3282 66.3491 63.9464 65.9894 64.4072C65.6297 64.8681 65.1464 65.1997 64.5394 65.402C63.9437 65.6044 63.2187 65.7055 62.3644 65.7055C61.5101 65.7055 60.7795 65.6044 60.1725 65.402C59.5768 65.1997 59.0934 64.8681 58.7225 64.4072C58.3628 63.9464 58.0987 63.3282 57.93 62.5526C57.7614 61.7657 57.6771 60.8047 57.6771 59.6694C57.6771 58.5229 57.7614 57.5618 57.93 56.7862C58.0987 56.0106 58.3628 55.3924 58.7225 54.9316C59.0934 54.4707 59.5768 54.1391 60.1725 53.9368C60.7795 53.7345 61.5101 53.6333 62.3644 53.6333ZM62.3644 55.1002C61.6338 55.1002 61.0549 55.2407 60.6277 55.5217C60.2006 55.8027 59.8971 56.2748 59.7173 56.938C59.5487 57.5899 59.4644 58.5004 59.4644 59.6694C59.4644 60.8272 59.5487 61.7376 59.7173 62.4008C59.8971 63.064 60.2006 63.5361 60.6277 63.8171C61.0549 64.0981 61.6338 64.2386 62.3644 64.2386C63.095 64.2386 63.6683 64.0981 64.0842 63.8171C64.5113 63.5361 64.8148 63.064 64.9947 62.4008C65.1745 61.7376 65.2644 60.8272 65.2644 59.6694C65.2644 58.5004 65.1745 57.5899 64.9947 56.938C64.8148 56.2748 64.5113 55.8027 64.0842 55.5217C63.6683 55.2407 63.095 55.1002 62.3644 55.1002ZM75.9391 57.2583V58.4723H72.9379C72.3309 58.4723 71.9993 58.7927 71.9431 59.4334C71.8756 60.2651 71.7632 61.0351 71.6059 61.7433C71.4597 62.4402 71.2518 63.0977 70.982 63.716C70.7235 64.3229 70.3694 64.9131 69.9198 65.4863H68.5878C69.0262 64.8231 69.369 64.1487 69.6163 63.4631C69.8636 62.7661 70.0547 62.058 70.1896 61.3386C70.3357 60.6192 70.4312 59.8942 70.4762 59.1636C70.5324 58.5229 70.7347 58.0452 71.0832 57.7304C71.4316 57.4157 71.9375 57.2583 72.6007 57.2583H75.9391ZM69.532 65.402L69.3803 67.8974H68.318V65.402H69.532ZM77.3048 64.2386V65.4863H68.318V64.2386H77.3048ZM77.3048 65.402V67.8974H76.2257L76.0739 65.402H77.3048ZM76.1414 57.2583V65.4863H74.5902V57.2583H76.1414ZM86.5567 57.2583V65.4863H85.0898V60.2427C85.0898 60.0516 85.0954 59.8661 85.1066 59.6863C85.1179 59.5064 85.1347 59.3097 85.1572 59.0961H85.1066C85.0392 59.2648 84.9493 59.4446 84.8369 59.6357C84.7357 59.8155 84.6345 59.9729 84.5334 60.1078L80.5374 65.4863H79.1717V57.2583H80.6386V62.5189C80.6386 62.6987 80.6329 62.8785 80.6217 63.0584C80.6217 63.2382 80.6105 63.4349 80.588 63.6485H80.6217C80.7116 63.4687 80.8072 63.2944 80.9083 63.1258C81.0095 62.946 81.1107 62.7942 81.2118 62.6706L85.2078 57.2583H86.5567ZM90.7351 57.2583V65.4863H89.1333V57.2583H90.7351ZM95.0008 60.5124V61.7264H90.6339V60.5124H95.0008ZM96.4508 57.2583V65.4863H94.8491V57.2583H96.4508ZM100.614 57.2583V65.4863H99.0294V57.2583H100.614ZM107.241 64.2386V65.4863H100.496L100.479 64.2386H107.241ZM106.111 57.2583L106.094 65.4863H104.492V57.2583H106.111ZM107.241 65.402V67.8974H106.178L106.01 65.402H107.241ZM112.631 57.056C113.598 57.056 114.368 57.1965 114.941 57.4775C115.514 57.7585 115.93 58.2194 116.189 58.8601C116.447 59.4896 116.576 60.327 116.576 61.3723C116.576 62.4289 116.447 63.2776 116.189 63.9183C115.93 64.5478 115.514 65.003 114.941 65.284C114.368 65.565 113.598 65.7055 112.631 65.7055C111.664 65.7055 110.889 65.565 110.304 65.284C109.731 65.003 109.315 64.5478 109.057 63.9183C108.798 63.2776 108.669 62.4289 108.669 61.3723C108.669 60.327 108.798 59.4896 109.057 58.8601C109.315 58.2194 109.731 57.7585 110.304 57.4775C110.889 57.1965 111.664 57.056 112.631 57.056ZM112.631 58.3711C112.069 58.3711 111.619 58.4611 111.282 58.6409C110.956 58.8208 110.72 59.1299 110.574 59.5682C110.439 59.9954 110.372 60.5967 110.372 61.3723C110.372 62.1479 110.439 62.7549 110.574 63.1933C110.72 63.6317 110.956 63.9408 111.282 64.1206C111.619 64.2892 112.069 64.3735 112.631 64.3735C113.193 64.3735 113.637 64.2892 113.963 64.1206C114.289 63.9408 114.519 63.6317 114.654 63.1933C114.789 62.7549 114.857 62.1479 114.857 61.3723C114.857 60.5967 114.789 59.9954 114.654 59.5682C114.519 59.1299 114.289 58.8208 113.963 58.6409C113.637 58.4611 113.193 58.3711 112.631 58.3711ZM122.211 57.174C123.077 57.174 123.762 57.2359 124.268 57.3595C124.774 57.4831 125.139 57.7023 125.364 58.0171C125.6 58.3318 125.718 58.7814 125.718 59.3659C125.718 59.9504 125.578 60.3944 125.297 60.6979C125.016 60.9902 124.56 61.1644 123.931 61.2206V61.2712C124.695 61.3274 125.229 61.5409 125.533 61.9119C125.847 62.2828 126.005 62.7999 126.005 63.4631C126.005 64.0251 125.892 64.4634 125.668 64.7782C125.443 65.0817 125.089 65.2952 124.605 65.4189C124.122 65.5425 123.481 65.6044 122.683 65.6044C122.087 65.6044 121.565 65.5987 121.115 65.5875C120.677 65.5875 120.272 65.5763 119.901 65.5538C119.542 65.5425 119.159 65.5257 118.755 65.5032L118.957 64.3398C119.182 64.351 119.603 64.3623 120.222 64.3735C120.851 64.3735 121.587 64.3735 122.43 64.3735C122.914 64.3735 123.296 64.3398 123.577 64.2724C123.869 64.2049 124.071 64.0813 124.184 63.9014C124.307 63.7103 124.369 63.4462 124.369 63.109C124.369 62.6032 124.223 62.2603 123.931 62.0805C123.639 61.8894 123.116 61.7938 122.363 61.7938H118.94V60.6979H122.363C122.801 60.6979 123.15 60.6698 123.408 60.6136C123.678 60.5462 123.869 60.4281 123.981 60.2595C124.105 60.0797 124.167 59.8324 124.167 59.5177C124.167 59.2142 124.1 58.9837 123.965 58.8264C123.841 58.669 123.633 58.5566 123.341 58.4892C123.049 58.4217 122.655 58.388 122.161 58.388C121.655 58.3768 121.205 58.3711 120.812 58.3711C120.418 58.3711 120.07 58.3768 119.766 58.388C119.463 58.388 119.193 58.3992 118.957 58.4217L118.755 57.2752C119.114 57.2415 119.457 57.219 119.783 57.2078C120.109 57.1965 120.463 57.1909 120.845 57.1909C121.239 57.1797 121.694 57.174 122.211 57.174ZM120.289 57.2752V65.5032H118.755V57.2752H120.289ZM131.714 57.056C131.973 57.056 132.26 57.0672 132.574 57.0897C132.889 57.1122 133.209 57.1515 133.535 57.2078C133.861 57.264 134.165 57.3483 134.446 57.4607L134.244 58.506C133.85 58.4723 133.445 58.4498 133.03 58.4386C132.625 58.4161 132.276 58.4049 131.984 58.4049C131.366 58.4049 130.871 58.4948 130.5 58.6746C130.13 58.8432 129.86 59.1411 129.691 59.5682C129.534 59.9954 129.455 60.5911 129.455 61.3555C129.455 62.1198 129.534 62.7212 129.691 63.1596C129.86 63.5979 130.13 63.9014 130.5 64.07C130.871 64.2386 131.366 64.3229 131.984 64.3229C132.153 64.3229 132.372 64.3173 132.642 64.3061C132.923 64.2948 133.221 64.278 133.535 64.2555C133.85 64.233 134.148 64.1993 134.429 64.1543L134.581 65.2334C134.176 65.3908 133.721 65.5032 133.215 65.5706C132.709 65.6493 132.203 65.6887 131.698 65.6887C130.742 65.6887 129.972 65.5482 129.388 65.2671C128.814 64.9861 128.399 64.5309 128.14 63.9014C127.881 63.272 127.752 62.4233 127.752 61.3555C127.752 60.2989 127.881 59.4558 128.14 58.8264C128.399 58.1969 128.814 57.7473 129.388 57.4775C129.972 57.1965 130.748 57.056 131.714 57.056ZM143.569 57.2583C143.378 57.7642 143.204 58.2194 143.047 58.624C142.889 59.0287 142.732 59.3828 142.575 59.6863C142.417 59.9898 142.237 60.2427 142.035 60.445C141.844 60.6473 141.619 60.8103 141.361 60.934C141.113 61.0576 140.81 61.1363 140.45 61.17V61.2374C140.832 61.2712 141.153 61.3442 141.411 61.4566C141.681 61.569 141.917 61.732 142.119 61.9456C142.333 62.1592 142.524 62.4289 142.693 62.7549C142.861 63.0696 143.036 63.4574 143.215 63.9183C143.395 64.3679 143.592 64.8906 143.806 65.4863H142.103C141.9 64.9355 141.715 64.4578 141.546 64.0532C141.389 63.6373 141.231 63.2888 141.074 63.0078C140.917 62.7156 140.748 62.4851 140.568 62.3165C140.388 62.1367 140.175 62.013 139.928 61.9456C139.692 61.8669 139.411 61.8276 139.085 61.8276V60.5967C139.478 60.5967 139.81 60.5293 140.079 60.3944C140.349 60.2483 140.58 60.0347 140.771 59.7537C140.973 59.4727 141.158 59.1299 141.327 58.7252C141.496 58.3093 141.681 57.8204 141.883 57.2583H143.569ZM138.123 57.2583V59.6357C138.123 59.8942 138.101 60.1584 138.056 60.4281C138.022 60.6867 137.966 60.934 137.887 61.17C137.955 61.4173 138.011 61.6646 138.056 61.9119C138.101 62.1592 138.123 62.3896 138.123 62.6032V65.4863H136.488V57.2583H138.123ZM139.641 60.5967V61.8276H137.651V60.5967H139.641ZM152.995 57.2583V65.4863H151.528V60.2427C151.528 60.0516 151.534 59.8661 151.545 59.6863C151.556 59.5064 151.573 59.3097 151.595 59.0961H151.545C151.477 59.2648 151.387 59.4446 151.275 59.6357C151.174 59.8155 151.073 59.9729 150.972 60.1078L146.976 65.4863H145.61V57.2583H147.077V62.5189C147.077 62.6987 147.071 62.8785 147.06 63.0584C147.06 63.2382 147.049 63.4349 147.026 63.6485H147.06C147.15 63.4687 147.245 63.2944 147.347 63.1258C147.448 62.946 147.549 62.7942 147.65 62.6706L151.646 57.2583H152.995ZM162.956 57.2583V65.4863H161.49V60.2427C161.49 60.0516 161.495 59.8661 161.506 59.6863C161.518 59.5064 161.535 59.3097 161.557 59.0961H161.506C161.439 59.2648 161.349 59.4446 161.237 59.6357C161.135 59.8155 161.034 59.9729 160.933 60.1078L156.937 65.4863H155.571V57.2583H157.038V62.5189C157.038 62.6987 157.033 62.8785 157.021 63.0584C157.021 63.2382 157.01 63.4349 156.988 63.6485H157.021C157.111 63.4687 157.207 63.2944 157.308 63.1258C157.409 62.946 157.51 62.7942 157.612 62.6706L161.608 57.2583H162.956ZM160.613 53.5996H161.793C161.838 54.0492 161.759 54.4538 161.557 54.8135C161.355 55.162 161.057 55.4486 160.663 55.6734C160.27 55.887 159.798 55.9938 159.247 55.9938C158.685 55.9938 158.202 55.887 157.797 55.6734C157.404 55.4486 157.106 55.162 156.903 54.8135C156.701 54.4538 156.617 54.0492 156.651 53.5996H157.848C157.836 54.0942 157.954 54.4707 158.202 54.7292C158.449 54.9765 158.797 55.1002 159.247 55.1002C159.685 55.1002 160.023 54.9765 160.259 54.7292C160.495 54.4707 160.613 54.0942 160.613 53.5996Z" fill="white"/>
</svg>
