<svg width="113" height="122" viewBox="0 0 113 122" fill="none" xmlns="http://www.w3.org/2000/svg">
<path d="M42.3336 5.16961C42.8459 4.76102 43.3144 4.4851 43.7391 4.31177C45.1948 3.71772 47.8144 3.69515 48.7595 2.43873C49.6069 1.31226 51.2977 1.31225 52.1451 2.43873L53.4467 4.16907C53.9352 4.81845 54.1994 5.60904 54.1994 6.42164V12.6413C54.1994 15.1319 54.5741 20.4866 56.0729 21.9809C57.5718 23.4753 60.4445 23.8489 61.6936 23.8489H67.3142H70.4368H75.0594C75.683 23.8489 76.2655 24.1601 76.6121 24.6785C77.4421 25.9197 76.5524 27.5847 75.0594 27.5847H74.4851C73.284 27.5847 72.3103 28.5584 72.3103 29.7595V30.6979C72.3103 32.4173 73.7041 33.8111 75.4235 33.8111H76.0574H76.7565C77.9449 33.8111 79.1225 34.0373 80.2264 34.4775L84.8006 36.3017L86.4027 36.9007C88.1357 37.5486 88.811 39.6437 87.7826 41.1817C87.467 41.6536 87.2986 42.2085 87.2986 42.7761V47.5093V48.3686C87.2986 50.2406 87.8758 52.0672 88.9515 53.5993C90.6558 56.0266 93.4357 57.4715 96.4015 57.4715H96.6663H97.0299C99.2164 57.4715 101.334 58.2365 103.016 59.6338L103.506 60.0406C103.941 60.4026 104.343 60.8034 104.707 61.2381L106.346 63.1993C106.967 63.9422 107.467 64.7783 107.827 65.6769L107.994 66.0917C108.349 66.9772 108.88 67.7812 109.556 68.4548C110.518 69.414 111.187 70.6296 111.442 71.9639C112 74.8754 112.689 79.0776 112.863 82.2461C112.913 83.1589 112.77 84.0673 112.506 84.9427L111.146 89.4636C111.069 89.7191 111.03 89.9845 111.03 90.2513C111.03 91.1667 110.572 92.0213 109.81 92.5281L107.283 94.2074L106.565 94.6369C105.074 95.5291 104.16 97.1393 104.16 98.8772V99.8598C104.16 100.988 104.753 102.034 105.722 102.613L105.93 102.737C106.769 103.24 107.283 104.146 107.283 105.124C107.283 106.66 106.038 107.906 104.502 107.906H104.16H96.4866C95.3665 107.906 94.2554 108.106 93.2063 108.499L89.7967 109.773L86.7742 111.28C85.4762 111.927 84.0456 112.264 82.5952 112.264H80.429C79.2103 112.264 78.0254 112.647 77.0123 113.324C75.2289 114.516 72.6511 116.141 70.4368 117.245C68.5002 118.211 65.6489 116.681 63.5534 116.142C61.9273 115.723 60.249 115.377 59.1955 115.377H57.9725C56.7556 115.377 55.589 115.86 54.7272 116.719C54.3776 117.067 53.9742 117.357 53.5323 117.578L50.4523 119.113L48.0623 120.304C47.1634 120.753 46.1994 121.064 45.1996 121.159C43.8194 121.29 42.3336 121.337 42.3336 120.981C42.3336 120.358 37.3375 119.113 36.0885 119.113H33.6342C32.3691 119.113 31.1171 118.857 29.9538 118.36L28.9478 117.93C27.8904 117.478 26.7525 117.245 25.6026 117.245H24.1555C23.789 117.245 23.4275 117.16 23.0995 116.997C21.5695 116.234 21.3279 114.15 22.6429 113.058L22.7202 112.993C23.2765 112.531 23.5982 111.846 23.5982 111.123V110.569C23.5982 110.045 23.7123 109.527 23.9324 109.052L27.3453 101.679L28.7355 97.521C29.0556 96.5635 29.2188 95.5605 29.2188 94.5509V89.8489V88.319C29.2188 85.5148 27.4231 83.0257 24.762 82.1413C23.9929 81.8857 23.2783 81.4888 22.6549 80.9708L21.99 80.4184C20.635 79.2926 19.8511 77.6223 19.8511 75.8606C19.8511 74.8268 20.1216 73.8109 20.6357 72.914L21.4453 71.5015C22.0227 70.494 22.9862 69.7656 24.113 69.4847C26.0124 69.0113 27.3453 67.3054 27.3453 65.3479V64.3206V62.1548C27.3453 60.2561 25.8061 58.7168 23.9073 58.7168C23.7017 58.7168 23.498 58.6981 23.2953 58.6635C20.9076 58.2555 16.4366 57.7626 15.4795 58.7168C14.6187 59.5751 13.078 58.6464 12.1354 57.8419C11.8685 57.6141 11.5354 57.4715 11.1845 57.4715C10.4524 57.4715 9.85892 56.878 9.85892 56.1459V53.113V47.5093C9.85892 45.6165 8.74312 43.9016 7.01262 43.1348L6.29842 42.8183C4.9705 42.2299 3.90185 41.1787 3.29168 39.8606L0.963308 34.8309C0.652303 34.1591 0.491211 33.4277 0.491211 32.6874V30.8099C0.491211 29.0287 1.93518 27.5847 3.71641 27.5847C4.06208 27.5847 4.40551 27.5291 4.73355 27.4201L9.09107 25.972C9.59966 25.8029 10.1321 25.7168 10.6681 25.7168C12.4817 25.7168 14.1532 24.7347 15.0361 23.1504L16.2991 20.8838C16.5848 20.3711 16.918 19.8863 17.2944 19.436L18.7956 17.64C19.4776 16.8241 19.8511 15.7946 19.8511 14.7314C19.8511 13.405 20.4213 12.1288 21.5117 11.3737C23.2226 10.1888 25.5521 8.90546 27.3453 8.90546H30.9445C31.4589 8.90546 31.9719 8.86575 32.4771 8.76861C35.2184 8.24147 40.0644 6.97957 42.3336 5.16961Z" fill="#5C5C5C" fill-opacity="0.9"/>
<path d="M42.957 62.4403C43.7089 62.4403 44.3034 62.5102 44.7405 62.6501C45.1864 62.7813 45.5099 63.0173 45.7109 63.3583C45.912 63.6992 46.0126 64.1801 46.0126 64.8008C46.0126 65.4477 45.8902 65.9417 45.6454 66.2826C45.4093 66.6236 45.0159 66.8203 44.4651 66.8728V66.9252C45.147 66.9864 45.6191 67.2225 45.8814 67.6334C46.1524 68.0443 46.2879 68.6125 46.2879 69.3382C46.2879 69.9589 46.1874 70.4397 45.9863 70.7807C45.794 71.1217 45.4836 71.3621 45.0552 71.502C44.6269 71.6331 44.063 71.6987 43.3636 71.6987C42.839 71.6987 42.3844 71.6943 41.9997 71.6855C41.615 71.6855 41.261 71.6768 40.9375 71.6593C40.614 71.6418 40.2774 71.62 39.9277 71.5938L40.1113 70.584C40.3124 70.5927 40.684 70.6015 41.226 70.6102C41.7768 70.619 42.4194 70.6233 43.1537 70.6233C43.6171 70.6233 43.9799 70.584 44.2422 70.5053C44.5045 70.4266 44.6881 70.278 44.793 70.0594C44.9066 69.8409 44.9634 69.5218 44.9634 69.1021C44.9634 68.6475 44.9066 68.3022 44.793 68.0661C44.6793 67.8213 44.4826 67.6509 44.2028 67.5547C43.9318 67.4498 43.5559 67.393 43.0751 67.3842H40.0982V66.4269H43.0619C43.4816 66.4182 43.8138 66.3744 44.0586 66.2958C44.3034 66.2171 44.4782 66.0728 44.5831 65.863C44.6881 65.6444 44.7405 65.3428 44.7405 64.9581C44.7405 64.5647 44.6837 64.2631 44.57 64.0533C44.4564 63.8435 44.264 63.7036 43.993 63.6337C43.7307 63.555 43.3636 63.5156 42.8915 63.5156C42.4543 63.5156 42.0609 63.5156 41.7112 63.5156C41.3703 63.5156 41.0643 63.52 40.7932 63.5287C40.531 63.5287 40.3037 63.5375 40.1113 63.555L39.9277 62.5452C40.2425 62.5102 40.5397 62.4884 40.8195 62.4796C41.108 62.4621 41.4227 62.4534 41.7637 62.4534C42.1046 62.4447 42.5024 62.4403 42.957 62.4403ZM41.2129 62.5452V71.5938H39.9277V62.5452H41.2129ZM50.7863 65.0368C51.5382 65.0368 52.137 65.1461 52.5829 65.3647C53.0288 65.5832 53.3522 65.9417 53.5533 66.44C53.7544 66.9296 53.8549 67.5809 53.8549 68.394C53.8549 69.2158 53.7544 69.8758 53.5533 70.3742C53.3522 70.8637 53.0288 71.2178 52.5829 71.4364C52.137 71.6549 51.5382 71.7642 50.7863 71.7642C50.0344 71.7642 49.4312 71.6549 48.9766 71.4364C48.5307 71.2178 48.2072 70.8637 48.0062 70.3742C47.8051 69.8758 47.7045 69.2158 47.7045 68.394C47.7045 67.5809 47.8051 66.9296 48.0062 66.44C48.2072 65.9417 48.5307 65.5832 48.9766 65.3647C49.4312 65.1461 50.0344 65.0368 50.7863 65.0368ZM50.7863 66.0597C50.3492 66.0597 49.9995 66.1297 49.7372 66.2695C49.4837 66.4094 49.3001 66.6498 49.1864 66.9908C49.0815 67.323 49.029 67.7907 49.029 68.394C49.029 68.9972 49.0815 69.4693 49.1864 69.8103C49.3001 70.1512 49.4837 70.3916 49.7372 70.5315C49.9995 70.6627 50.3492 70.7282 50.7863 70.7282C51.2234 70.7282 51.5688 70.6627 51.8223 70.5315C52.0758 70.3916 52.255 70.1512 52.36 69.8103C52.4649 69.4693 52.5173 68.9972 52.5173 68.394C52.5173 67.7907 52.4649 67.323 52.36 66.9908C52.255 66.6498 52.0758 66.4094 51.8223 66.2695C51.5688 66.1297 51.2234 66.0597 50.7863 66.0597ZM58.3293 65.0368C58.5304 65.0368 58.7533 65.0456 58.9981 65.0631C59.2429 65.0805 59.4921 65.1111 59.7456 65.1549C59.9991 65.1986 60.2352 65.2641 60.4538 65.3516L60.2964 66.1646C59.9904 66.1384 59.6757 66.1209 59.3522 66.1122C59.0375 66.0947 58.7664 66.0859 58.5391 66.0859C58.0583 66.0859 57.6736 66.1559 57.3851 66.2958C57.0966 66.4269 56.8868 66.6586 56.7557 66.9908C56.6333 67.323 56.5721 67.7864 56.5721 68.3809C56.5721 68.9754 56.6333 69.4431 56.7557 69.784C56.8868 70.125 57.0966 70.361 57.3851 70.4922C57.6736 70.6233 58.0583 70.6889 58.5391 70.6889C58.6703 70.6889 58.8408 70.6845 59.0506 70.6758C59.2691 70.667 59.5008 70.6539 59.7456 70.6364C59.9904 70.619 60.2221 70.5927 60.4406 70.5578L60.5587 71.397C60.2439 71.5194 59.8899 71.6069 59.4964 71.6593C59.103 71.7205 58.7096 71.7511 58.3162 71.7511C57.5731 71.7511 56.9742 71.6418 56.5196 71.4233C56.0737 71.2047 55.7503 70.8506 55.5492 70.361C55.3481 69.8715 55.2476 69.2114 55.2476 68.3809C55.2476 67.5591 55.3481 66.9034 55.5492 66.4138C55.7503 65.9242 56.0737 65.5745 56.5196 65.3647C56.9742 65.1461 57.5775 65.0368 58.3293 65.0368ZM67.5499 65.1942C67.4013 65.5876 67.2657 65.9417 67.1433 66.2564C67.0209 66.5712 66.8986 66.8465 66.7762 67.0826C66.6538 67.3186 66.5139 67.5153 66.3565 67.6727C66.2079 67.8301 66.033 67.9568 65.832 68.053C65.6396 68.1492 65.4036 68.2104 65.1238 68.2366V68.2891C65.4211 68.3153 65.6702 68.3721 65.8713 68.4595C66.0811 68.547 66.2647 68.6737 66.4221 68.8398C66.5882 69.006 66.7368 69.2158 66.868 69.4693C66.9991 69.7141 67.1346 70.0157 67.2745 70.3742C67.4144 70.7239 67.5674 71.1304 67.7335 71.5938H66.409C66.2516 71.1654 66.1074 70.7938 65.9762 70.4791C65.8538 70.1556 65.7314 69.8846 65.609 69.666C65.4866 69.4387 65.3555 69.2595 65.2156 69.1283C65.0757 68.9885 64.9096 68.8923 64.7173 68.8398C64.5337 68.7786 64.3151 68.748 64.0616 68.748V67.7907C64.3676 67.7907 64.6255 67.7383 64.8353 67.6334C65.0451 67.5197 65.2244 67.3536 65.373 67.135C65.5303 66.9165 65.6746 66.6498 65.8057 66.3351C65.9369 66.0116 66.0811 65.6313 66.2385 65.1942H67.5499ZM63.3141 65.1942V67.0432C63.3141 67.2443 63.2966 67.4498 63.2617 67.6596C63.2354 67.8607 63.1917 68.053 63.1305 68.2366C63.183 68.4289 63.2267 68.6213 63.2617 68.8136C63.2966 69.006 63.3141 69.1852 63.3141 69.3513V71.5938H62.0421V65.1942H63.3141ZM64.4944 67.7907V68.748H62.9469V67.7907H64.4944ZM72.9005 65.0368C73.6961 65.0368 74.2644 65.3253 74.6053 65.9023C74.9463 66.4794 75.1168 67.323 75.1168 68.4333C75.1168 69.2639 75.0293 69.9239 74.8545 70.4135C74.6796 70.8943 74.413 71.2397 74.0545 71.4495C73.6961 71.6506 73.2459 71.7511 72.7038 71.7511C72.2754 71.7511 71.8558 71.6943 71.4449 71.5806C71.034 71.4582 70.6449 71.2746 70.2778 71.0299L70.3564 70.3217C70.7411 70.4354 71.0821 70.5272 71.3793 70.5971C71.6766 70.667 71.9957 70.702 72.3366 70.702C72.6951 70.702 72.9792 70.6408 73.189 70.5184C73.4076 70.396 73.565 70.1687 73.6611 69.8365C73.7573 69.5043 73.8054 69.0366 73.8054 68.4333C73.8054 67.8388 73.7617 67.3755 73.6742 67.0432C73.5868 66.7023 73.4469 66.4619 73.2546 66.322C73.0623 66.1734 72.8 66.0991 72.4678 66.0991C72.1356 66.0991 71.8077 66.1777 71.4842 66.3351C71.1608 66.4837 70.7892 66.7198 70.3696 67.0432L70.2253 66.2564C70.4439 66.0116 70.6974 65.7974 70.9859 65.6138C71.2832 65.4302 71.5979 65.2904 71.9301 65.1942C72.2623 65.0893 72.5858 65.0368 72.9005 65.0368ZM70.1728 65.1942L70.3171 66.4925L70.4089 66.6629V70.7807L70.3433 70.9381C70.3696 71.1828 70.387 71.4233 70.3958 71.6593C70.4133 71.8954 70.4176 72.1445 70.4089 72.4068V74.2034H69.15V65.1942H70.1728ZM79.535 65.0368C80.5229 65.0368 81.2354 65.2161 81.6726 65.5745C82.1184 65.9242 82.3457 66.4444 82.3545 67.135C82.3545 67.7121 82.2277 68.1579 81.9742 68.4727C81.7206 68.7874 81.3054 68.9448 80.7284 68.9448H77.0171V68.0399H80.4005C80.6803 68.0399 80.8639 67.9481 80.9513 67.7645C81.0475 67.5809 81.0912 67.3711 81.0824 67.135C81.0824 66.7416 80.9688 66.4619 80.7415 66.2958C80.5229 66.1297 80.1382 66.0466 79.5875 66.0466C79.1416 66.0466 78.7919 66.1122 78.5383 66.2433C78.2848 66.3744 78.1056 66.6018 78.0007 66.9252C77.8958 67.2487 77.8433 67.7033 77.8433 68.2891C77.8433 68.9448 77.9089 69.4475 78.04 69.7972C78.1712 70.1381 78.3766 70.3742 78.6564 70.5053C78.9449 70.6364 79.3252 70.702 79.7973 70.702C80.1382 70.702 80.5142 70.6889 80.9251 70.6627C81.3447 70.6277 81.725 70.5884 82.066 70.5446L82.184 71.3708C81.9829 71.4582 81.7294 71.5326 81.4234 71.5938C81.1261 71.6462 80.8202 71.6855 80.5054 71.7118C80.1907 71.738 79.9022 71.7511 79.6399 71.7511C78.8968 71.7511 78.2936 71.6375 77.8302 71.4102C77.3756 71.1828 77.0434 70.8244 76.8335 70.3348C76.6325 69.8365 76.5319 69.1852 76.5319 68.3809C76.5319 67.5416 76.6368 66.8771 76.8467 66.3876C77.0565 65.898 77.38 65.5526 77.8171 65.3516C78.2542 65.1417 78.8268 65.0368 79.535 65.0368ZM86.7597 65.0368C86.9608 65.0368 87.1837 65.0456 87.4285 65.0631C87.6733 65.0805 87.9225 65.1111 88.176 65.1549C88.4295 65.1986 88.6656 65.2641 88.8841 65.3516L88.7268 66.1646C88.4208 66.1384 88.106 66.1209 87.7826 66.1122C87.4678 66.0947 87.1968 66.0859 86.9695 66.0859C86.4887 66.0859 86.104 66.1559 85.8155 66.2958C85.527 66.4269 85.3172 66.6586 85.186 66.9908C85.0636 67.323 85.0024 67.7864 85.0024 68.3809C85.0024 68.9754 85.0636 69.4431 85.186 69.784C85.3172 70.125 85.527 70.361 85.8155 70.4922C86.104 70.6233 86.4887 70.6889 86.9695 70.6889C87.1007 70.6889 87.2711 70.6845 87.481 70.6758C87.6995 70.667 87.9312 70.6539 88.176 70.6364C88.4208 70.619 88.6525 70.5927 88.871 70.5578L88.989 71.397C88.6743 71.5194 88.3202 71.6069 87.9268 71.6593C87.5334 71.7205 87.14 71.7511 86.7466 71.7511C86.0035 71.7511 85.4046 71.6418 84.95 71.4233C84.5041 71.2047 84.1806 70.8506 83.9796 70.361C83.7785 69.8715 83.6779 69.2114 83.6779 68.3809C83.6779 67.5591 83.7785 66.9034 83.9796 66.4138C84.1806 65.9242 84.5041 65.5745 84.95 65.3647C85.4046 65.1461 86.0078 65.0368 86.7597 65.0368ZM93.0714 65.0368C94.0594 65.0368 94.7719 65.2161 95.209 65.5745C95.6549 65.9242 95.8822 66.4444 95.8909 67.135C95.8909 67.7121 95.7642 68.1579 95.5106 68.4727C95.2571 68.7874 94.8418 68.9448 94.2648 68.9448H90.5536V68.0399H93.937C94.2167 68.0399 94.4003 67.9481 94.4877 67.7645C94.5839 67.5809 94.6276 67.3711 94.6189 67.135C94.6189 66.7416 94.5052 66.4619 94.2779 66.2958C94.0594 66.1297 93.6747 66.0466 93.1239 66.0466C92.678 66.0466 92.3283 66.1122 92.0748 66.2433C91.8213 66.3744 91.642 66.6018 91.5371 66.9252C91.4322 67.2487 91.3798 67.7033 91.3798 68.2891C91.3798 68.9448 91.4453 69.4475 91.5765 69.7972C91.7076 70.1381 91.9131 70.3742 92.1928 70.5053C92.4813 70.6364 92.8616 70.702 93.3337 70.702C93.6747 70.702 94.0506 70.6889 94.4615 70.6627C94.8812 70.6277 95.2615 70.5884 95.6024 70.5446L95.7204 71.3708C95.5194 71.4582 95.2658 71.5326 94.9598 71.5938C94.6626 71.6462 94.3566 71.6855 94.0419 71.7118C93.7271 71.738 93.4386 71.7511 93.1764 71.7511C92.4332 71.7511 91.83 71.6375 91.3666 71.4102C90.912 71.1828 90.5798 70.8244 90.37 70.3348C90.1689 69.8365 90.0684 69.1852 90.0684 68.3809C90.0684 67.5416 90.1733 66.8771 90.3831 66.3876C90.5929 65.898 90.9164 65.5526 91.3535 65.3516C91.7907 65.1417 92.3633 65.0368 93.0714 65.0368ZM98.7618 65.1942V71.5938H97.516V65.1942H98.7618ZM102.08 67.7252V68.6694H98.6831V67.7252H102.08ZM103.207 65.1942V71.5938H101.962V65.1942H103.207ZM42.603 81.0368C42.804 81.0368 43.027 81.0456 43.2718 81.0631C43.5166 81.0805 43.7657 81.1111 44.0193 81.1549C44.2728 81.1986 44.5088 81.2641 44.7274 81.3516L44.57 82.1646C44.264 82.1384 43.9493 82.1209 43.6258 82.1122C43.3111 82.0947 43.0401 82.0859 42.8128 82.0859C42.3319 82.0859 41.9473 82.1559 41.6588 82.2958C41.3703 82.4269 41.1604 82.6586 41.0293 82.9908C40.9069 83.323 40.8457 83.7864 40.8457 84.3809C40.8457 84.9754 40.9069 85.4431 41.0293 85.784C41.1604 86.125 41.3703 86.361 41.6588 86.4922C41.9473 86.6233 42.3319 86.6889 42.8128 86.6889C42.9439 86.6889 43.1144 86.6845 43.3242 86.6758C43.5428 86.667 43.7745 86.6539 44.0193 86.6364C44.264 86.619 44.4957 86.5927 44.7143 86.5578L44.8323 87.397C44.5176 87.5194 44.1635 87.6069 43.7701 87.6593C43.3767 87.7205 42.9833 87.7511 42.5898 87.7511C41.8467 87.7511 41.2479 87.6418 40.7932 87.4233C40.3474 87.2047 40.0239 86.8506 39.8228 86.361C39.6217 85.8715 39.5212 85.2114 39.5212 84.3809C39.5212 83.5591 39.6217 82.9034 39.8228 82.4138C40.0239 81.9242 40.3474 81.5745 40.7932 81.3647C41.2479 81.1461 41.8511 81.0368 42.603 81.0368ZM51.8235 81.1942C51.6749 81.5876 51.5394 81.9417 51.417 82.2564C51.2946 82.5712 51.1722 82.8465 51.0498 83.0826C50.9274 83.3186 50.7875 83.5153 50.6302 83.6727C50.4815 83.8301 50.3067 83.9568 50.1056 84.053C49.9133 84.1492 49.6772 84.2104 49.3975 84.2366V84.2891C49.6947 84.3153 49.9439 84.3721 50.1449 84.4595C50.3548 84.547 50.5384 84.6737 50.6957 84.8398C50.8618 85.006 51.0105 85.2158 51.1416 85.4693C51.2727 85.7141 51.4082 86.0157 51.5481 86.3742C51.688 86.7239 51.841 87.1304 52.0071 87.5938H50.6826C50.5252 87.1654 50.381 86.7938 50.2499 86.4791C50.1275 86.1556 50.0051 85.8846 49.8827 85.666C49.7603 85.4387 49.6291 85.2595 49.4893 85.1283C49.3494 84.9885 49.1833 84.8923 48.9909 84.8398C48.8073 84.7786 48.5888 84.748 48.3352 84.748V83.7907C48.6412 83.7907 48.8991 83.7383 49.109 83.6334C49.3188 83.5197 49.498 83.3536 49.6466 83.135C49.804 82.9165 49.9482 82.6498 50.0794 82.3351C50.2105 82.0116 50.3548 81.6313 50.5121 81.1942H51.8235ZM47.5877 81.1942V83.0432C47.5877 83.2443 47.5703 83.4498 47.5353 83.6596C47.5091 83.8607 47.4654 84.053 47.4042 84.2366C47.4566 84.4289 47.5003 84.6213 47.5353 84.8136C47.5703 85.006 47.5877 85.1852 47.5877 85.3513V87.5938H46.3157V81.1942H47.5877ZM48.768 83.7907V84.748H47.2206V83.7907H48.768ZM59.1544 81.1942V87.5938H58.0135V83.5153C58.0135 83.3667 58.0178 83.2225 58.0266 83.0826C58.0353 82.9427 58.0484 82.7897 58.0659 82.6236H58.0266C57.9741 82.7547 57.9042 82.8946 57.8167 83.0432C57.7381 83.1831 57.6594 83.3055 57.5807 83.4104L54.4727 87.5938H53.4105V81.1942H54.5514V85.2857C54.5514 85.4256 54.547 85.5655 54.5383 85.7054C54.5383 85.8452 54.5295 85.9982 54.5121 86.1643H54.5383C54.6082 86.0245 54.6825 85.889 54.7612 85.7578C54.8399 85.6179 54.9186 85.4999 54.9973 85.4037L58.1053 81.1942H59.1544ZM66.9023 81.1942V87.5938H65.7614V83.5153C65.7614 83.3667 65.7657 83.2225 65.7745 83.0826C65.7832 82.9427 65.7963 82.7897 65.8138 82.6236H65.7745C65.722 82.7547 65.6521 82.8946 65.5647 83.0432C65.486 83.1831 65.4073 83.3055 65.3286 83.4104L62.2206 87.5938H61.1584V81.1942H62.2993V85.2857C62.2993 85.4256 62.2949 85.5655 62.2862 85.7054C62.2862 85.8452 62.2775 85.9982 62.26 86.1643H62.2862C62.3561 86.0245 62.4305 85.889 62.5091 85.7578C62.5878 85.6179 62.6665 85.4999 62.7452 85.4037L65.8532 81.1942H66.9023ZM65.0795 78.3485H65.9974C66.0324 78.6982 65.9712 79.0129 65.8138 79.2927C65.6565 79.5637 65.4248 79.7866 65.1188 79.9615C64.8128 80.1276 64.4456 80.2107 64.0172 80.2107C63.5801 80.2107 63.2042 80.1276 62.8894 79.9615C62.5835 79.7866 62.3518 79.5637 62.1944 79.2927C62.037 79.0129 61.9715 78.6982 61.9977 78.3485H62.9288C62.92 78.7332 63.0118 79.026 63.2042 79.2271C63.3965 79.4195 63.6675 79.5156 64.0172 79.5156C64.3582 79.5156 64.6205 79.4195 64.8041 79.2271C64.9877 79.026 65.0795 78.7332 65.0795 78.3485Z" fill="white"/>
</svg>
