<svg width="307" height="159" viewBox="0 0 307 159" fill="none" xmlns="http://www.w3.org/2000/svg">
<path d="M7.37622 93.9065L9.59896 92.6978C10.6911 92.1039 11.9145 91.7927 13.1576 91.7927C14.7658 91.7927 16.3308 92.3131 17.6186 93.2762L23.129 97.3969C25.0025 98.4345 29.1243 100.51 30.6231 100.51C32.4967 100.51 34.9947 98.0196 36.8683 97.3969C37.9862 97.0254 40.3316 95.0143 42.1425 93.327C43.2077 92.3346 43.9783 91.0738 44.44 89.6931L45.128 87.6352C45.4482 86.6776 45.6115 85.6746 45.6115 84.6649V84.321V81.5387C45.6115 79.0932 44.0933 76.9047 41.8028 76.0481C41.0202 75.7554 40.3092 75.2989 39.7175 74.709L38.7928 73.7872C37.5608 72.559 36.8683 70.8908 36.8683 69.1511C36.8683 66.9593 37.9652 64.913 39.7904 63.6996L39.9536 63.5911C40.3933 63.2988 40.8638 63.0559 41.3624 62.8821C43.2418 62.227 46.3698 61.2833 48.1095 61.2833C52.1232 61.2833 56.4582 60.4297 59.6305 62.8885C59.747 62.9789 59.8621 63.0666 59.9753 63.1512C60.1353 63.2709 60.2884 63.3754 60.4348 63.466C62.1175 64.5085 64.1751 62.7484 66.0292 62.0552C67.3689 61.5544 68.8356 61.5051 70.2058 61.9149L71.3887 62.2687C73.3052 62.8419 74.9463 64.0595 76.3897 65.4445C77.8312 66.8275 79.6427 68.1328 81.2087 68.1328H82.3501C83.6572 68.1328 84.9551 67.872 86.1141 67.2676C88.1294 66.2168 90.7073 64.6379 91.8255 63.1512C93.0158 61.5686 95.3351 63.0233 96.9694 64.521C97.7371 65.2245 98.5325 65.9053 99.4372 66.4208L100.861 67.2321C101.897 67.8224 103.085 68.1328 104.277 68.1328C106.613 68.1328 108.816 66.931 110.057 64.9517C110.792 63.7794 111.867 62.8599 113.139 62.3162L114.226 61.8522C115.104 61.4768 116.05 61.2833 117.005 61.2833C118.877 61.2833 120.673 60.5409 121.999 59.219L122.421 58.798C124.024 57.2002 125.07 54.9673 124.302 52.8386C123.918 51.7759 123.323 50.7464 122.427 50.0762C119.929 48.2087 122.427 42.604 119.929 40.1134C118.162 38.3524 118.868 34.8403 119.63 32.7584C119.813 32.2596 120.077 31.7971 120.372 31.3554L121.447 29.7489C122.094 28.7803 122.918 27.9436 123.865 27.2652C126.145 25.6324 129.335 23.2632 130.545 22.0573C131.31 21.2953 132.973 21.4725 134.724 21.9943C137.655 22.8684 139.289 25.8293 139.289 28.8886C139.289 29.3149 139.319 29.7392 139.393 30.1591C139.9 33.0559 141.181 38.2648 143.036 40.1134C144.172 41.2458 145.227 41.359 146.041 41.0934C147.113 40.7433 147.895 39.8037 148.848 39.1993L154.277 35.755L158.301 33.3476C159.754 32.4782 161.416 32.0191 163.11 32.0191H168.016H176.135H179.55C181.001 32.0191 182.431 31.6823 183.729 31.0352L187.168 29.3207C188.535 28.6394 189.715 27.6343 190.604 26.3929L191.67 24.9044C192.136 24.254 192.684 23.666 193.299 23.1547L199.866 17.6988L207.985 11.4719C209.65 10.2268 213.606 7.73652 216.104 7.73652H221.1H232.966H237.182C239.304 7.73652 241.363 7.01572 243.023 5.69221L244.142 4.79924C245.801 3.47573 247.861 2.75494 249.983 2.75494H251.701H266.065C267.938 2.75494 271.061 2.75494 276.057 0.887017C278.562 -0.0495603 281.198 0.432445 283.227 1.22933C285.167 1.99169 286.402 3.84037 286.69 5.90565C286.995 8.10207 287.018 10.5063 286.049 11.4719C284.699 12.818 286.288 16.6228 287.53 18.8815C287.783 19.3425 288.095 19.7668 288.438 20.1656L290.438 22.4914C291.251 23.4375 292.245 24.2115 293.362 24.7681L300.413 28.2833L300.886 28.5975C303.939 30.6266 305.292 34.4229 304.211 37.9255C303.769 39.3572 302.947 40.642 301.831 41.6427L297.796 45.2638C297.459 45.5657 297.102 45.8428 296.725 46.093L288.842 51.3326C288.231 51.7386 287.575 52.0714 286.887 52.3242L276.932 55.9809C276.35 56.1945 275.792 56.466 275.261 56.7847C272.349 58.5307 267.429 61.2833 266.065 61.2833C264.89 61.2833 261.337 60.0083 258.652 58.9574C257.36 58.4513 256.22 57.631 255.264 56.625C253.26 54.5174 250.614 51.9436 249.827 51.9436C249.044 51.9436 246.931 48.1183 245.352 44.9652C244.583 43.4302 243.451 42.1014 242.021 41.1511L241.39 40.7315C240.772 40.3209 240.205 39.8384 239.701 39.2942L235.746 35.0224C233.973 33.1076 231.482 32.0191 228.873 32.0191H219.671C218.551 32.0191 217.44 32.22 216.391 32.6123L209.094 35.3402C208.358 35.6156 207.659 35.9827 207.014 36.4327L203.602 38.8136C202.378 39.6678 201.376 40.8021 200.68 42.122L196.578 49.8914C195.867 51.2392 195.495 52.7402 195.495 54.2643V63.1512V72.6441C195.495 74.5704 196.107 76.4382 197.115 78.08C198.462 80.2741 199.866 82.9378 199.866 84.321C199.866 86.0916 202.825 91.271 204.799 94.4417C205.251 95.1675 205.615 95.9427 205.867 96.7596L207.298 101.397C207.749 102.859 208.536 104.206 209.708 105.189C211.632 106.802 214.263 108.604 216.104 108.604C219.226 108.604 222.349 114.208 224.847 116.698C225.896 117.744 226.073 119.178 225.884 120.515C225.593 122.583 225.061 124.67 225.115 126.758C225.145 127.908 225.089 129.05 224.847 129.774C224.602 130.507 223.445 131.27 222.085 131.93C219.667 133.104 216.834 132.228 215.046 130.222C213.732 128.749 211.852 127.906 209.878 127.906H209.562C207.016 127.906 204.637 129.177 203.222 131.294L202.87 131.82C202.126 132.932 201.646 134.199 201.464 135.524L200.069 145.724C199.94 146.671 199.425 147.522 198.647 148.076C196.965 149.274 194.616 148.744 193.611 146.941L192.372 144.717L189.25 136.623L188.499 133.482C187.224 128.14 181.553 125.067 176.341 126.8C174.214 127.507 171.872 127.438 169.798 126.586L165.037 124.632C163.315 123.925 161.843 122.721 160.808 121.173L157.244 115.844C156.523 114.765 156.034 113.548 155.807 112.27L154.391 104.266C154.315 103.838 154.277 103.404 154.277 102.969V100.325C154.277 97.6758 152.13 95.5286 149.481 95.5286C148.158 95.5286 146.893 96.0752 145.987 97.0392L140.658 102.706C139.104 104.359 136.649 104.798 134.619 103.786C134.401 103.677 134.177 103.584 133.946 103.508L131.301 102.629C128.163 101.586 124.925 103.985 124.925 107.292C124.925 108.142 124.688 108.987 124.242 109.71C122.358 112.763 117.853 112.562 116.059 109.456C115.887 109.158 115.719 108.873 115.557 108.604C114.843 107.418 113.534 107.126 112.156 107.258C109.418 107.521 107.82 110.184 106.935 112.788C106.389 114.395 105.703 115.938 104.94 116.698C104.719 116.919 104.549 117.188 104.423 117.491C102.997 120.914 102.231 124.591 100.569 127.906C100.069 128.902 97.0298 132.057 95.5726 133.51C94.7399 134.547 92.8247 137.121 91.8255 139.113C91.1649 140.431 90.6499 142.727 90.3165 144.673C90.0333 146.326 89.42 147.915 88.4118 149.255L85.1041 153.652C84.5937 154.331 83.9567 154.904 83.2282 155.339C80.3156 157.082 76.5552 156.317 74.5551 153.575L70.075 147.433C68.995 145.952 66.8987 145.671 65.466 146.813C65.1394 147.074 64.7652 147.268 64.3643 147.386L56.6336 149.653C55.4948 149.987 54.3547 149.133 54.3547 147.946C54.3547 147.473 54.1665 147.02 53.8318 146.687L45.2276 138.108C44.2467 137.13 43.0611 136.382 41.7562 135.917L36.5189 134.052C35.5103 133.693 34.4475 133.51 33.3768 133.51H27.184C24.6141 133.51 22.1765 132.37 20.5284 130.398C20.1812 129.983 19.7958 129.601 19.3773 129.257L10.7261 122.154C9.86198 121.445 8.77857 121.057 7.66055 121.057C5.68703 121.057 3.91194 119.856 3.1771 118.025L2.07243 115.271C1.15962 112.996 1.14149 110.421 2.37425 108.302C3.00248 107.222 3.71097 106.171 4.39357 105.491C5.38285 104.505 5.33828 103.102 5.01405 101.964C4.72969 100.966 4.39357 99.9614 4.39357 98.9237C4.39357 96.8312 5.53794 94.9062 7.37622 93.9065Z" fill="#5C5C5C" fill-opacity="0.9"/>
<path d="M73.0047 75.8206V84.8691H71.6934V75.8206H73.0047ZM77.1487 79.4925V80.5809H72.8998V79.4925H77.1487ZM78.3158 75.8206V84.8691H77.0045V75.8206H78.3158ZM83.507 78.3122C83.9966 78.3122 84.4075 78.3778 84.7397 78.5089C85.0719 78.6313 85.3211 78.8455 85.4872 79.1515C85.662 79.4575 85.7494 79.8771 85.7494 80.4104V84.8691H84.7528L84.5561 83.4791L84.4905 83.3217V80.4104C84.4818 80.0345 84.39 79.7635 84.2151 79.5974C84.049 79.4313 83.7212 79.3482 83.2316 79.3482C82.8906 79.3482 82.4666 79.3657 81.9595 79.4007C81.4612 79.4356 80.9673 79.4706 80.4777 79.5056L80.3597 78.6007C80.6569 78.5483 80.9891 78.5002 81.3563 78.4565C81.7235 78.4128 82.0951 78.3778 82.471 78.3516C82.8469 78.3253 83.1922 78.3122 83.507 78.3122ZM85.1724 80.9219L85.1593 81.8136L82.1563 81.8267C81.859 81.8355 81.6492 81.9142 81.5268 82.0628C81.4044 82.2027 81.3432 82.3994 81.3432 82.6529V83.0463C81.3432 83.361 81.4219 83.5927 81.5792 83.7414C81.7366 83.8812 81.977 83.9512 82.3005 83.9512C82.5453 83.9512 82.8163 83.9075 83.1136 83.82C83.4196 83.7239 83.7255 83.584 84.0315 83.4004C84.3375 83.2081 84.6129 82.9676 84.8577 82.6791V83.5053C84.779 83.6277 84.6523 83.7763 84.4774 83.9512C84.3025 84.1173 84.0884 84.279 83.8348 84.4364C83.59 84.5938 83.3146 84.7249 83.0087 84.8298C82.7027 84.9347 82.3704 84.9872 82.012 84.9872C81.6273 84.9872 81.2864 84.9216 80.9891 84.7905C80.7006 84.6506 80.4733 84.4495 80.3072 84.1872C80.1498 83.9162 80.0712 83.5884 80.0712 83.2037V82.5087C80.0712 82.0103 80.2285 81.6213 80.5433 81.3415C80.8667 81.0618 81.3126 80.9219 81.8809 80.9219H85.1724ZM91.4627 78.3122C92.2582 78.3122 92.8265 78.6007 93.1675 79.1777C93.5084 79.7547 93.6789 80.5984 93.6789 81.7087C93.6789 82.5392 93.5915 83.1993 93.4166 83.6889C93.2418 84.1697 92.9751 84.5151 92.6167 84.7249C92.2582 84.926 91.808 85.0265 91.266 85.0265C90.8376 85.0265 90.4179 84.9697 90.007 84.856C89.5961 84.7336 89.2071 84.55 88.8399 84.3052L88.9186 83.5971C89.3033 83.7108 89.6442 83.8025 89.9415 83.8725C90.2387 83.9424 90.5578 83.9774 90.8988 83.9774C91.2572 83.9774 91.5414 83.9162 91.7512 83.7938C91.9697 83.6714 92.1271 83.4441 92.2233 83.1119C92.3194 82.7797 92.3675 82.3119 92.3675 81.7087C92.3675 81.1142 92.3238 80.6509 92.2364 80.3186C92.149 79.9777 92.0091 79.7373 91.8167 79.5974C91.6244 79.4488 91.3621 79.3744 91.0299 79.3744C90.6977 79.3744 90.3698 79.4531 90.0464 79.6105C89.7229 79.7591 89.3513 79.9952 88.9317 80.3186L88.7874 79.5318C89.006 79.287 89.2595 79.0728 89.548 78.8892C89.8453 78.7056 90.16 78.5658 90.4922 78.4696C90.8245 78.3647 91.1479 78.3122 91.4627 78.3122ZM88.735 78.4696L88.8792 79.7679L88.971 79.9383V84.0561L88.9055 84.2134C88.9317 84.4582 88.9492 84.6987 88.9579 84.9347C88.9754 85.1708 88.9798 85.4199 88.971 85.6822V87.4788H87.7121V78.4696H88.735ZM98.1758 78.3122C98.9277 78.3122 99.5265 78.4215 99.9724 78.6401C100.418 78.8586 100.742 79.2171 100.943 79.7154C101.144 80.205 101.244 80.8563 101.244 81.6694C101.244 82.4912 101.144 83.1512 100.943 83.6496C100.742 84.1391 100.418 84.4932 99.9724 84.7118C99.5265 84.9303 98.9277 85.0396 98.1758 85.0396C97.424 85.0396 96.8207 84.9303 96.3661 84.7118C95.9202 84.4932 95.5968 84.1391 95.3957 83.6496C95.1946 83.1512 95.0941 82.4912 95.0941 81.6694C95.0941 80.8563 95.1946 80.205 95.3957 79.7154C95.5968 79.2171 95.9202 78.8586 96.3661 78.6401C96.8207 78.4215 97.424 78.3122 98.1758 78.3122ZM98.1758 79.3351C97.7387 79.3351 97.389 79.405 97.1267 79.5449C96.8732 79.6848 96.6896 79.9252 96.5759 80.2662C96.471 80.5984 96.4186 81.0661 96.4186 81.6694C96.4186 82.2726 96.471 82.7447 96.5759 83.0857C96.6896 83.4266 96.8732 83.667 97.1267 83.8069C97.389 83.9381 97.7387 84.0036 98.1758 84.0036C98.613 84.0036 98.9583 83.9381 99.2118 83.8069C99.4654 83.667 99.6446 83.4266 99.7495 83.0857C99.8544 82.7447 99.9069 82.2726 99.9069 81.6694C99.9069 81.0661 99.8544 80.5984 99.7495 80.2662C99.6446 79.9252 99.4654 79.6848 99.2118 79.5449C98.9583 79.405 98.613 79.3351 98.1758 79.3351ZM106.834 81.0924V82.0103H102.847V81.0924H106.834ZM75.3521 94.3122C76.34 94.3122 77.1269 94.4259 77.7126 94.6532C78.3071 94.8717 78.7355 95.2258 78.9978 95.7154C79.2688 96.205 79.4043 96.8563 79.4043 97.6694C79.4043 98.4824 79.2688 99.1381 78.9978 99.6364C78.7355 100.126 78.3071 100.48 77.7126 100.699C77.1269 100.917 76.34 101.027 75.3521 101.027C74.3642 101.027 73.5686 100.917 72.9654 100.699C72.3709 100.48 71.9382 100.126 71.6671 99.6364C71.4049 99.1381 71.2737 98.4824 71.2737 97.6694C71.2737 96.8563 71.4049 96.205 71.6671 95.7154C71.9382 95.2258 72.3709 94.8717 72.9654 94.6532C73.5686 94.4259 74.3642 94.3122 75.3521 94.3122ZM75.339 95.322C74.6309 95.322 74.067 95.3919 73.6473 95.5318C73.2364 95.6717 72.9392 95.9121 72.7556 96.2531C72.5807 96.594 72.4933 97.0661 72.4933 97.6694C72.4933 98.2726 72.5807 98.7447 72.7556 99.0857C72.9392 99.4266 73.2364 99.667 73.6473 99.8069C74.067 99.9381 74.6309 100.004 75.339 100.004C76.0559 100.004 76.6198 99.9381 77.0307 99.8069C77.4416 99.667 77.7345 99.4266 77.9093 99.0857C78.0929 98.7447 78.1847 98.2726 78.1847 97.6694C78.1847 97.0661 78.0929 96.594 77.9093 96.2531C77.7345 95.9121 77.4416 95.6717 77.0307 95.5318C76.6198 95.3919 76.0559 95.322 75.339 95.322ZM75.9291 91.6895V94.5089L75.8767 94.7843V100.41L75.9291 100.738V103.479H74.762V100.738L74.8013 100.41V94.7974L74.762 94.5089V91.6895H75.9291ZM83.871 94.3122C84.6228 94.3122 85.2217 94.4215 85.6676 94.6401C86.1135 94.8586 86.4369 95.2171 86.638 95.7154C86.8391 96.205 86.9396 96.8563 86.9396 97.6694C86.9396 98.4912 86.8391 99.1512 86.638 99.6496C86.4369 100.139 86.1135 100.493 85.6676 100.712C85.2217 100.93 84.6228 101.04 83.871 101.04C83.1191 101.04 82.5159 100.93 82.0613 100.712C81.6154 100.493 81.2919 100.139 81.0909 99.6496C80.8898 99.1512 80.7892 98.4912 80.7892 97.6694C80.7892 96.8563 80.8898 96.205 81.0909 95.7154C81.2919 95.2171 81.6154 94.8586 82.0613 94.6401C82.5159 94.4215 83.1191 94.3122 83.871 94.3122ZM83.871 95.3351C83.4339 95.3351 83.0842 95.405 82.8219 95.5449C82.5683 95.6848 82.3848 95.9252 82.2711 96.2662C82.1662 96.5984 82.1137 97.0661 82.1137 97.6694C82.1137 98.2726 82.1662 98.7447 82.2711 99.0857C82.3848 99.4266 82.5683 99.667 82.8219 99.8069C83.0842 99.9381 83.4339 100.004 83.871 100.004C84.3081 100.004 84.6534 99.9381 84.907 99.8069C85.1605 99.667 85.3397 99.4266 85.4446 99.0857C85.5496 98.7447 85.602 98.2726 85.602 97.6694C85.602 97.0661 85.5496 96.5984 85.4446 96.2662C85.3397 95.9252 85.1605 95.6848 84.907 95.5449C84.6534 95.405 84.3081 95.3351 83.871 95.3351ZM95.9383 94.4696C96.253 94.4696 96.4104 94.6226 96.4104 94.9286L96.6727 100.869H95.4924L95.2564 95.4269H95.0465L93.5122 99.7414C93.4772 99.8725 93.4204 99.973 93.3417 100.043C93.2631 100.113 93.1538 100.148 93.0139 100.148H92.1353C91.9954 100.148 91.8861 100.113 91.8074 100.043C91.7375 99.973 91.6807 99.8725 91.6369 99.7414L90.1026 95.4269H89.8928L89.6699 100.869H88.5027L88.7519 94.9286C88.7606 94.6226 88.9224 94.4696 89.2371 94.4696H90.496C90.6359 94.4696 90.7408 94.5046 90.8108 94.5745C90.8895 94.6357 90.9463 94.7362 90.9812 94.8761L92.2139 98.4037C92.2751 98.5611 92.3232 98.7141 92.3582 98.8627C92.4019 99.0113 92.4413 99.1643 92.4762 99.3217H92.6729C92.7166 99.1556 92.756 98.9982 92.791 98.8496C92.8347 98.701 92.8828 98.5524 92.9352 98.4037L94.1679 94.8761C94.2466 94.6051 94.4127 94.4696 94.6662 94.4696H95.9383ZM104.277 94.4696V100.869H103.136V96.7907C103.136 96.6421 103.141 96.4979 103.149 96.358C103.158 96.2181 103.171 96.0651 103.189 95.899H103.149C103.097 96.0301 103.027 96.17 102.94 96.3186C102.861 96.4585 102.782 96.5809 102.703 96.6858L99.5955 100.869H98.5333V94.4696H99.6742V98.5611C99.6742 98.701 99.6698 98.8409 99.6611 98.9807C99.6611 99.1206 99.6523 99.2736 99.6348 99.4397H99.6611C99.731 99.2999 99.8053 99.1643 99.884 99.0332C99.9627 98.8933 100.041 98.7753 100.12 98.6791L103.228 94.4696H104.277ZM107.527 94.4696V100.869H106.281V94.4696H107.527ZM110.845 97.0006V97.9448H107.448V97.0006H110.845ZM111.973 94.4696V100.869H110.727V94.4696H111.973ZM116.745 94.3122C116.946 94.3122 117.169 94.321 117.414 94.3385C117.659 94.3559 117.908 94.3865 118.162 94.4302C118.415 94.474 118.651 94.5395 118.87 94.627L118.712 95.44C118.406 95.4138 118.092 95.3963 117.768 95.3876C117.453 95.3701 117.182 95.3613 116.955 95.3613C116.474 95.3613 116.09 95.4313 115.801 95.5712C115.513 95.7023 115.303 95.934 115.172 96.2662C115.049 96.5984 114.988 97.0618 114.988 97.6563C114.988 98.2507 115.049 98.7185 115.172 99.0594C115.303 99.4004 115.513 99.6364 115.801 99.7676C116.09 99.8987 116.474 99.9643 116.955 99.9643C117.086 99.9643 117.257 99.9599 117.466 99.9512C117.685 99.9424 117.917 99.9293 118.162 99.9118C118.406 99.8943 118.638 99.8681 118.857 99.8331L118.975 100.672C118.66 100.795 118.306 100.882 117.912 100.935C117.519 100.996 117.126 101.027 116.732 101.027C115.989 101.027 115.39 100.917 114.936 100.699C114.49 100.48 114.166 100.126 113.965 99.6364C113.764 99.1469 113.663 98.4868 113.663 97.6563C113.663 96.8345 113.764 96.1788 113.965 95.6892C114.166 95.1996 114.49 94.8499 114.936 94.6401C115.39 94.4215 115.993 94.3122 116.745 94.3122ZM125.966 94.4696C125.817 94.863 125.682 95.2171 125.559 95.5318C125.437 95.8465 125.314 96.1219 125.192 96.358C125.07 96.594 124.93 96.7907 124.772 96.9481C124.624 97.1055 124.449 97.2322 124.248 97.3284C124.056 97.4246 123.819 97.4858 123.54 97.512V97.5645C123.837 97.5907 124.086 97.6475 124.287 97.7349C124.497 97.8224 124.681 97.9491 124.838 98.1152C125.004 98.2813 125.153 98.4912 125.284 98.7447C125.415 98.9895 125.551 99.2911 125.69 99.6496C125.83 99.9993 125.983 100.406 126.149 100.869H124.825C124.668 100.441 124.523 100.069 124.392 99.7545C124.27 99.431 124.147 99.16 124.025 98.9414C123.903 98.7141 123.771 98.5349 123.632 98.4037C123.492 98.2639 123.326 98.1677 123.133 98.1152C122.95 98.054 122.731 98.0234 122.478 98.0234V97.0661C122.783 97.0661 123.041 97.0137 123.251 96.9088C123.461 96.7951 123.64 96.629 123.789 96.4104C123.946 96.1919 124.091 95.9252 124.222 95.6105C124.353 95.287 124.497 94.9067 124.654 94.4696H125.966ZM121.73 94.4696V96.3186C121.73 96.5197 121.713 96.7252 121.678 96.935C121.651 97.1361 121.608 97.3284 121.546 97.512C121.599 97.7043 121.643 97.8967 121.678 98.089C121.713 98.2813 121.73 98.4606 121.73 98.6267V100.869H120.458V94.4696H121.73ZM122.91 97.0661V98.0234H121.363V97.0661H122.91ZM133.297 94.4696V100.869H132.156V96.7907C132.156 96.6421 132.16 96.4979 132.169 96.358C132.178 96.2181 132.191 96.0651 132.208 95.899H132.169C132.116 96.0301 132.046 96.17 131.959 96.3186C131.88 96.4585 131.802 96.5809 131.723 96.6858L128.615 100.869H127.553V94.4696H128.694V98.5611C128.694 98.701 128.689 98.8409 128.681 98.9807C128.681 99.1206 128.672 99.2736 128.654 99.4397H128.681C128.75 99.2999 128.825 99.1643 128.903 99.0332C128.982 98.8933 129.061 98.7753 129.14 98.6791L132.248 94.4696H133.297ZM141.045 94.4696V100.869H139.904V96.7907C139.904 96.6421 139.908 96.4979 139.917 96.358C139.925 96.2181 139.939 96.0651 139.956 95.899H139.917C139.864 96.0301 139.794 96.17 139.707 96.3186C139.628 96.4585 139.55 96.5809 139.471 96.6858L136.363 100.869H135.301V94.4696H136.442V98.5611C136.442 98.701 136.437 98.8409 136.428 98.9807C136.428 99.1206 136.42 99.2736 136.402 99.4397H136.428C136.498 99.2999 136.573 99.1643 136.651 99.0332C136.73 98.8933 136.809 98.7753 136.887 98.6791L139.995 94.4696H141.045ZM139.222 91.6239H140.14C140.175 91.9736 140.113 92.2883 139.956 92.5681C139.799 92.8391 139.567 93.062 139.261 93.2369C138.955 93.403 138.588 93.4861 138.159 93.4861C137.722 93.4861 137.346 93.403 137.032 93.2369C136.726 93.062 136.494 92.8391 136.337 92.5681C136.179 92.2883 136.114 91.9736 136.14 91.6239H137.071C137.062 92.0086 137.154 92.3014 137.346 92.5025C137.539 92.6948 137.81 92.791 138.159 92.791C138.5 92.791 138.763 92.6948 138.946 92.5025C139.13 92.3014 139.222 92.0086 139.222 91.6239Z" fill="white"/>
</svg>
