<svg width="148" height="175" viewBox="0 0 148 175" fill="none" xmlns="http://www.w3.org/2000/svg">
<path d="M146.084 159.741L146.569 161.352C147.208 163.477 146.422 165.773 144.615 167.06C143.738 167.684 142.689 168.02 141.612 168.02H135.773H133.899H126.672C125.668 168.02 124.663 168.164 123.744 168.568C121.845 169.404 119.536 170.814 119.536 172.378C119.536 173.61 117.628 174.27 115.581 174.595C113.32 174.954 111.095 174.031 109.382 172.512L109.08 172.245C107.367 170.726 105.157 169.888 102.867 169.888H102.674C99.9939 169.888 97.5436 168.376 96.3423 165.98L96.1078 165.512C95.9057 165.109 95.7387 164.69 95.6087 164.258L95.1738 162.812C94.4357 160.359 92.177 158.68 89.6155 158.68C88.3625 158.68 87.1431 158.275 86.1395 157.524L84.4611 156.269C83.2959 155.398 82.3496 154.267 81.6974 152.967L79.7685 149.12C79.2228 148.032 78.4703 147.061 77.5531 146.261L73.946 143.114L72.1005 141.479C69.7438 139.39 68.7504 136.246 68.5721 133.102C68.5346 132.438 68.4577 131.812 68.3254 131.284C68.0447 130.164 67.3563 129.255 66.6594 128.598C65.7967 127.786 64.5861 127.548 63.4013 127.548C60.9967 127.548 58.7319 126.418 57.2864 124.496L54.5508 120.86C54.1591 120.339 53.7141 119.861 53.223 119.432L50.9372 117.438C49.6659 116.329 48.036 115.718 46.3489 115.718C45.1968 115.718 44.0627 115.433 43.0476 114.888L37.1655 111.73C36.7061 111.483 36.2681 111.199 35.8561 110.879L32.5346 108.304C31.4287 107.446 30.5289 106.352 29.9016 105.101L28.3306 101.968C27.5318 100.375 26.2953 99.0434 24.7662 98.1287L21.4468 96.1431C21.0577 95.9103 20.6866 95.6514 20.3382 95.3612C17.9057 93.3353 13.6719 89.55 12.7437 87.6991C11.4947 85.2086 10.2456 85.2086 7.12307 85.2086C5.92326 85.2086 4.67544 84.1553 3.58717 82.8075C1.63594 80.391 2.45139 76.9476 4.76311 74.8733C6.26503 73.5257 7.12307 71.6029 7.12307 69.585V62.1708V51.3591C7.12307 50.1089 8.13661 49.0953 9.38687 49.0953C9.94014 49.0953 10.4717 48.8917 10.8947 48.5351C12.9698 46.7864 16.5716 44.1142 18.3643 44.1142H20.8624C22.8223 44.1142 24.662 43.1691 25.8035 41.5759L26.6329 40.4182C26.9415 39.9874 27.1075 39.4707 27.1075 38.9408C27.1075 38.2667 27.3758 37.6203 27.8532 37.1443L29.8007 35.2027C30.4987 34.5067 31.0799 33.7028 31.5217 32.8217L32.4298 31.011C33.0378 29.7987 33.9018 28.7328 34.962 27.8872L35.6615 27.3292C36.2023 26.8979 36.6937 26.408 37.1266 25.8685L38.3514 24.342C38.7648 23.8268 39.1226 23.2693 39.4187 22.6789L42.0958 17.3406L44.5939 12.9821C45.5704 11.035 48.0698 10.4572 49.973 11.5167C51.4247 12.3248 52.9349 12.9821 53.9616 12.9821C54.8673 12.9821 55.6362 13.2379 56.245 13.5756C57.3146 14.1688 58.4429 14.8501 59.666 14.8501H61.4614C62.493 14.8501 63.3293 14.0138 63.3293 12.9821V11.3359C63.3293 9.96182 63.0085 8.60667 62.3925 7.37836L61.8831 6.36265C61.6021 5.80224 61.4558 5.18398 61.4558 4.55705V3.56231C61.4558 1.88722 62.8137 0.529297 64.4888 0.529297C64.9584 0.529297 65.4216 0.638354 65.8419 0.847875L69.6956 2.76895C70.8514 3.34509 71.8779 4.15152 72.6909 5.15485C73.791 6.51243 75.1261 8.20922 75.8196 9.24628C76.4872 10.2448 77.3779 11.2988 78.0819 12.0742C78.639 12.6879 79.3203 13.1706 80.0621 13.5404C81.7544 14.384 83.0782 15.8195 83.7822 17.5744L84.5137 19.3976C84.9586 20.5066 85.1873 21.6905 85.1873 22.8854V26.9536C85.1873 28.4116 85.5276 29.8495 86.1812 31.1527L88.1918 35.1618C89.0745 36.922 90.5524 38.3123 92.3632 39.086C93.3973 39.5279 94.5103 39.7557 95.6349 39.7557H101.036C103.3 39.7557 105.487 40.5758 107.193 42.0642L108.154 42.9025C109.072 43.7026 109.824 44.6739 110.37 45.7619L111.636 48.2871C111.904 48.8205 112.275 49.2951 112.729 49.6828C114.714 51.3795 114.831 54.4089 112.981 56.2528L112.041 57.1897L111.604 57.7341C110.27 59.3968 109.543 61.4646 109.543 63.5963V66.5293V72.7557C109.543 74.3795 110.055 75.9517 110.814 77.3868C111.461 78.6088 112.041 79.968 112.041 80.8501V83.1362C112.041 84.472 112.527 85.7622 113.408 86.7662C115.152 88.7525 115.237 91.6974 113.611 93.7811L113.325 94.1485C112.493 95.2145 112.041 96.5294 112.041 97.8814C112.041 98.9597 112.328 100.02 112.873 100.951L115.199 104.927C115.995 106.288 117.122 107.425 118.475 108.235L119.536 108.869L121.171 109.594C123.594 110.667 125.156 113.068 125.156 115.718V122.11C125.156 123.05 125.918 123.812 126.858 123.812C127.363 123.812 127.841 124.036 128.165 124.423L130.153 126.802C130.556 127.284 130.777 127.892 130.777 128.521C130.777 129.102 130.966 129.667 131.311 130.134C132.047 131.129 133.124 132.614 133.899 133.775C134.899 135.269 137.23 135.643 138.271 135.643H141.407C143.814 135.643 145.765 137.594 145.765 140.001V147.473V154.944V157.573C145.765 158.308 145.873 159.038 146.084 159.741Z" fill="#5C5C5C" fill-opacity="0.9"/>
<path d="M25.8542 56.0031C26.2476 56.0031 26.5842 56.0118 26.864 56.0293C27.1437 56.0468 27.4016 56.0774 27.6377 56.1211C27.8737 56.1561 28.1185 56.2085 28.3721 56.2785L28.2409 57.262C27.9787 57.2358 27.7339 57.2183 27.5066 57.2095C27.2792 57.1921 27.0345 57.1789 26.7722 57.1702C26.5186 57.1615 26.2127 57.1571 25.8542 57.1571C25.2947 57.1571 24.8532 57.2664 24.5297 57.4849C24.2062 57.7035 23.9746 58.0707 23.8347 58.5865C23.7035 59.0936 23.638 59.793 23.638 60.6847C23.638 61.5765 23.7035 62.2802 23.8347 62.796C23.9746 63.3031 24.2062 63.6659 24.5297 63.8845C24.8532 64.1031 25.2947 64.2123 25.8542 64.2123C26.4225 64.2123 26.8989 64.2036 27.2836 64.1861C27.677 64.1599 28.0573 64.1205 28.4245 64.0681L28.5557 65.0516C28.171 65.1653 27.7732 65.244 27.3623 65.2877C26.9601 65.3401 26.4574 65.3664 25.8542 65.3664C24.98 65.3664 24.2762 65.2177 23.7429 64.9205C23.2183 64.6145 22.838 64.1205 22.602 63.4386C22.3659 62.7567 22.2479 61.8387 22.2479 60.6847C22.2479 59.5307 22.3659 58.6127 22.602 57.9308C22.838 57.2489 23.2183 56.7593 23.7429 56.4621C24.2762 56.1561 24.98 56.0031 25.8542 56.0031ZM32.6918 58.6521C33.4437 58.6521 34.0426 58.7613 34.4884 58.9799C34.9343 59.1985 35.2578 59.5569 35.4589 60.0552C35.6599 60.5448 35.7605 61.1962 35.7605 62.0092C35.7605 62.831 35.6599 63.4911 35.4589 63.9894C35.2578 64.479 34.9343 64.8331 34.4884 65.0516C34.0426 65.2702 33.4437 65.3795 32.6918 65.3795C31.94 65.3795 31.3368 65.2702 30.8821 65.0516C30.4363 64.8331 30.1128 64.479 29.9117 63.9894C29.7106 63.4911 29.6101 62.831 29.6101 62.0092C29.6101 61.1962 29.7106 60.5448 29.9117 60.0552C30.1128 59.5569 30.4363 59.1985 30.8821 58.9799C31.3368 58.7613 31.94 58.6521 32.6918 58.6521ZM32.6918 59.6749C32.2547 59.6749 31.905 59.7449 31.6427 59.8848C31.3892 60.0246 31.2056 60.2651 31.092 60.606C30.987 60.9382 30.9346 61.406 30.9346 62.0092C30.9346 62.6124 30.987 63.0845 31.092 63.4255C31.2056 63.7665 31.3892 64.0069 31.6427 64.1468C31.905 64.2779 32.2547 64.3435 32.6918 64.3435C33.129 64.3435 33.4743 64.2779 33.7278 64.1468C33.9814 64.0069 34.1606 63.7665 34.2655 63.4255C34.3704 63.0845 34.4229 62.6124 34.4229 62.0092C34.4229 61.406 34.3704 60.9382 34.2655 60.606C34.1606 60.2651 33.9814 60.0246 33.7278 59.8848C33.4743 59.7449 33.129 59.6749 32.6918 59.6749ZM42.624 58.8094V59.7667H40.2373C39.975 59.7667 39.7827 59.8236 39.6603 59.9372C39.5467 60.0509 39.4723 60.252 39.4374 60.5405C39.3937 60.9164 39.3412 61.3054 39.28 61.7076C39.2276 62.101 39.1664 62.4813 39.0964 62.8485C39.0352 63.2069 38.9522 63.5304 38.8473 63.8189C38.7423 64.1511 38.5894 64.4265 38.3883 64.6451C38.1959 64.8637 37.9599 65.0254 37.6801 65.1303C37.4004 65.2265 37.0813 65.2746 36.7228 65.2746L36.5917 64.3172C36.819 64.256 37.0026 64.1905 37.1425 64.1205C37.2911 64.0506 37.4047 63.9632 37.4834 63.8583C37.5708 63.7446 37.6452 63.6091 37.7064 63.4517C37.785 63.2594 37.8506 63.0321 37.9031 62.7698C37.9643 62.5075 38.0123 62.2365 38.0473 61.9568C38.091 61.6682 38.126 61.3841 38.1522 61.1044C38.1872 60.8158 38.2178 60.5536 38.244 60.3175C38.3052 59.8279 38.467 59.4564 38.7292 59.2028C38.9915 58.9406 39.3893 58.8094 39.9226 58.8094H42.624ZM42.7945 58.8094V65.209H41.5225V58.8094H42.7945ZM46.0515 58.8094V65.209H44.8056V58.8094H46.0515ZM49.3693 61.3404V62.2846H45.9728V61.3404H49.3693ZM50.4971 58.8094V65.209H49.2512V58.8094H50.4971ZM55.191 58.6521C56.1789 58.6521 56.8914 58.8313 57.3285 59.1897C57.7744 59.5394 58.0017 60.0596 58.0105 60.7503C58.0105 61.3273 57.8837 61.7732 57.6302 62.0879C57.3766 62.4026 56.9614 62.56 56.3843 62.56H52.6731V61.6551H56.0565C56.3363 61.6551 56.5199 61.5633 56.6073 61.3797C56.7034 61.1962 56.7472 60.9863 56.7384 60.7503C56.7384 60.3569 56.6248 60.0771 56.3975 59.911C56.1789 59.7449 55.7942 59.6618 55.2434 59.6618C54.7976 59.6618 54.4479 59.7274 54.1943 59.8585C53.9408 59.9897 53.7616 60.217 53.6567 60.5405C53.5518 60.8639 53.4993 61.3185 53.4993 61.9043C53.4993 62.56 53.5649 63.0627 53.696 63.4124C53.8271 63.7533 54.0326 63.9894 54.3124 64.1205C54.6009 64.2517 54.9812 64.3172 55.4533 64.3172C55.7942 64.3172 56.1702 64.3041 56.5811 64.2779C57.0007 64.2429 57.381 64.2036 57.722 64.1599L57.84 64.986C57.6389 65.0735 57.3854 65.1478 57.0794 65.209C56.7821 65.2614 56.4761 65.3008 56.1614 65.327C55.8467 65.3532 55.5582 65.3664 55.2959 65.3664C54.5528 65.3664 53.9495 65.2527 53.4862 65.0254C53.0316 64.7981 52.6994 64.4396 52.4895 63.9501C52.2885 63.4517 52.1879 62.8004 52.1879 61.9961C52.1879 61.1568 52.2928 60.4924 52.5027 60.0028C52.7125 59.5132 53.0359 59.1679 53.4731 58.9668C53.9102 58.757 54.4828 58.6521 55.191 58.6521ZM60.5797 58.8094V61.1962C60.5797 61.4934 60.6453 61.7032 60.7765 61.8256C60.9076 61.948 61.1218 62.0092 61.419 62.0092C61.7687 62.0092 62.1097 61.9786 62.4419 61.9174C62.7741 61.8475 63.1501 61.7207 63.5697 61.5371L63.6877 62.4682C63.2331 62.6605 62.761 62.8048 62.2714 62.9009C61.7818 62.9884 61.3535 63.0321 60.9863 63.0321C60.4355 63.0321 60.0202 62.9141 59.7405 62.678C59.4694 62.442 59.3339 62.0835 59.3339 61.6027V58.8094H60.5797ZM64.6975 58.8094V65.209H63.4255V58.8094H64.6975ZM67.9505 58.8094V65.209H66.7047V58.8094H67.9505ZM71.2683 61.3404V62.2846H67.8719V61.3404H71.2683ZM72.3961 58.8094V65.209H71.1503V58.8094H72.3961ZM77.1687 58.6521C77.9206 58.6521 78.5195 58.7613 78.9653 58.9799C79.4112 59.1985 79.7347 59.5569 79.9358 60.0552C80.1368 60.5448 80.2374 61.1962 80.2374 62.0092C80.2374 62.831 80.1368 63.4911 79.9358 63.9894C79.7347 64.479 79.4112 64.8331 78.9653 65.0516C78.5195 65.2702 77.9206 65.3795 77.1687 65.3795C76.4169 65.3795 75.8137 65.2702 75.359 65.0516C74.9132 64.8331 74.5897 64.479 74.3886 63.9894C74.1875 63.4911 74.087 62.831 74.087 62.0092C74.087 61.1962 74.1875 60.5448 74.3886 60.0552C74.5897 59.5569 74.9132 59.1985 75.359 58.9799C75.8137 58.7613 76.4169 58.6521 77.1687 58.6521ZM77.1687 59.6749C76.7316 59.6749 76.3819 59.7449 76.1196 59.8848C75.8661 60.0246 75.6825 60.2651 75.5689 60.606C75.4639 60.9382 75.4115 61.406 75.4115 62.0092C75.4115 62.6124 75.4639 63.0845 75.5689 63.4255C75.6825 63.7665 75.8661 64.0069 76.1196 64.1468C76.3819 64.2779 76.7316 64.3435 77.1687 64.3435C77.6059 64.3435 77.9512 64.2779 78.2047 64.1468C78.4583 64.0069 78.6375 63.7665 78.7424 63.4255C78.8473 63.0845 78.8998 62.6124 78.8998 62.0092C78.8998 61.406 78.8473 60.9382 78.7424 60.606C78.6375 60.2651 78.4583 60.0246 78.2047 59.8848C77.9512 59.7449 77.6059 59.6749 77.1687 59.6749ZM85.8264 61.4322V62.3502H81.8398V61.4322H85.8264ZM23.9134 74.7701C24.4816 74.7701 25.0543 74.7745 25.6313 74.7832C26.217 74.7919 26.7722 74.8269 27.2967 74.8881L27.2443 75.7799H24.451C24.1888 75.7799 23.9964 75.8411 23.874 75.9635C23.7604 76.0771 23.7035 76.2651 23.7035 76.5273V81.209H22.4577V76.1995C22.4577 75.7274 22.5801 75.3733 22.8249 75.1373C23.0697 74.8925 23.4325 74.7701 23.9134 74.7701ZM31.2319 74.6521C31.9838 74.6521 32.5826 74.7613 33.0285 74.9799C33.4744 75.1985 33.7978 75.5569 33.9989 76.0552C34.2 76.5448 34.3005 77.1962 34.3005 78.0092C34.3005 78.831 34.2 79.4911 33.9989 79.9894C33.7978 80.479 33.4744 80.8331 33.0285 81.0516C32.5826 81.2702 31.9838 81.3795 31.2319 81.3795C30.48 81.3795 29.8768 81.2702 29.4222 81.0516C28.9763 80.8331 28.6529 80.479 28.4518 79.9894C28.2507 79.4911 28.1502 78.831 28.1502 78.0092C28.1502 77.1962 28.2507 76.5448 28.4518 76.0552C28.6529 75.5569 28.9763 75.1985 29.4222 74.9799C29.8768 74.7613 30.48 74.6521 31.2319 74.6521ZM31.2319 75.6749C30.7948 75.6749 30.4451 75.7449 30.1828 75.8848C29.9293 76.0246 29.7457 76.2651 29.632 76.606C29.5271 76.9382 29.4747 77.406 29.4747 78.0092C29.4747 78.6124 29.5271 79.0845 29.632 79.4255C29.7457 79.7665 29.9293 80.0069 30.1828 80.1468C30.4451 80.2779 30.7948 80.3435 31.2319 80.3435C31.669 80.3435 32.0144 80.2779 32.2679 80.1468C32.5214 80.0069 32.7007 79.7665 32.8056 79.4255C32.9105 79.0845 32.9629 78.6124 32.9629 78.0092C32.9629 77.406 32.9105 76.9382 32.8056 76.606C32.7007 76.2651 32.5214 76.0246 32.2679 75.8848C32.0144 75.7449 31.669 75.6749 31.2319 75.6749ZM39.7585 74.6521C40.554 74.6521 41.1223 74.9406 41.4633 75.5176C41.8042 76.0946 41.9747 76.9382 41.9747 78.0486C41.9747 78.8791 41.8873 79.5392 41.7124 80.0287C41.5376 80.5096 41.2709 80.8549 40.9125 81.0647C40.554 81.2658 40.1038 81.3664 39.5618 81.3664C39.1334 81.3664 38.7137 81.3095 38.3028 81.1959C37.8919 81.0735 37.5029 80.8899 37.1357 80.6451L37.2144 79.9369C37.5991 80.0506 37.94 80.1424 38.2373 80.2123C38.5345 80.2823 38.8536 80.3172 39.1946 80.3172C39.553 80.3172 39.8371 80.256 40.047 80.1336C40.2655 80.0113 40.4229 79.7839 40.5191 79.4517C40.6152 79.1195 40.6633 78.6518 40.6633 78.0486C40.6633 77.4541 40.6196 76.9907 40.5322 76.6585C40.4448 76.3175 40.3049 76.0771 40.1125 75.9372C39.9202 75.7886 39.6579 75.7143 39.3257 75.7143C38.9935 75.7143 38.6656 75.793 38.3422 75.9503C38.0187 76.099 37.6471 76.335 37.2275 76.6585L37.0832 75.8717C37.3018 75.6269 37.5553 75.4127 37.8438 75.2291C38.1411 75.0455 38.4558 74.9056 38.788 74.8094C39.1203 74.7045 39.4437 74.6521 39.7585 74.6521ZM37.0308 74.8094L37.175 76.1077L37.2668 76.2782V80.3959L37.2013 80.5533C37.2275 80.7981 37.245 81.0385 37.2537 81.2746C37.2712 81.5106 37.2756 81.7598 37.2668 82.022V83.8186H36.0079V74.8094H37.0308ZM46.4716 74.6521C46.6727 74.6521 46.8956 74.6608 47.1404 74.6783C47.3852 74.6958 47.6344 74.7264 47.8879 74.7701C48.1414 74.8138 48.3775 74.8794 48.5961 74.9668L48.4387 75.7799C48.1327 75.7536 47.818 75.7361 47.4945 75.7274C47.1798 75.7099 46.9087 75.7012 46.6814 75.7012C46.2006 75.7012 45.8159 75.7711 45.5274 75.911C45.2389 76.0421 45.0291 76.2738 44.898 76.606C44.7756 76.9382 44.7144 77.4016 44.7144 77.9961C44.7144 78.5906 44.7756 79.0583 44.898 79.3993C45.0291 79.7402 45.2389 79.9763 45.5274 80.1074C45.8159 80.2386 46.2006 80.3041 46.6814 80.3041C46.8126 80.3041 46.9831 80.2998 47.1929 80.291C47.4114 80.2823 47.6431 80.2692 47.8879 80.2517C48.1327 80.2342 48.3644 80.208 48.5829 80.173L48.701 81.0123C48.3862 81.1347 48.0322 81.2221 47.6387 81.2746C47.2453 81.3358 46.8519 81.3664 46.4585 81.3664C45.7154 81.3664 45.1165 81.2571 44.6619 81.0385C44.216 80.8199 43.8926 80.4659 43.6915 79.9763C43.4904 79.4867 43.3899 78.8266 43.3899 77.9961C43.3899 77.1743 43.4904 76.5186 43.6915 76.029C43.8926 75.5394 44.216 75.1897 44.6619 74.9799C45.1165 74.7613 45.7198 74.6521 46.4716 74.6521ZM55.6922 74.8094C55.5436 75.2028 55.408 75.5569 55.2857 75.8717C55.1633 76.1864 55.0409 76.4618 54.9185 76.6978C54.7961 76.9339 54.6562 77.1306 54.4988 77.2879C54.3502 77.4453 54.1753 77.5721 53.9743 77.6682C53.7819 77.7644 53.5459 77.8256 53.2661 77.8518V77.9043C53.5634 77.9305 53.8125 77.9874 54.0136 78.0748C54.2234 78.1622 54.407 78.289 54.5644 78.4551C54.7305 78.6212 54.8791 78.831 55.0103 79.0845C55.1414 79.3293 55.2769 79.631 55.4168 79.9894C55.5567 80.3391 55.7097 80.7456 55.8758 81.209H54.5513C54.3939 80.7806 54.2497 80.409 54.1185 80.0943C53.9961 79.7708 53.8737 79.4998 53.7513 79.2813C53.6289 79.0539 53.4978 78.8747 53.3579 78.7436C53.218 78.6037 53.0519 78.5075 52.8596 78.4551C52.676 78.3939 52.4574 78.3633 52.2039 78.3633V77.406C52.5099 77.406 52.7678 77.3535 52.9776 77.2486C53.1874 77.135 53.3667 76.9688 53.5153 76.7503C53.6726 76.5317 53.8169 76.2651 53.948 75.9503C54.0792 75.6269 54.2234 75.2466 54.3808 74.8094H55.6922ZM51.4564 74.8094V76.6585C51.4564 76.8596 51.4389 77.065 51.404 77.2748C51.3777 77.4759 51.334 77.6682 51.2728 77.8518C51.3253 78.0442 51.369 78.2365 51.404 78.4289C51.4389 78.6212 51.4564 78.8004 51.4564 78.9665V81.209H50.1844V74.8094H51.4564ZM52.6367 77.406V78.3633H51.0892V77.406H52.6367ZM63.023 74.8094V81.209H61.8821V77.1306C61.8821 76.982 61.8865 76.8377 61.8952 76.6978C61.904 76.5579 61.9171 76.4049 61.9346 76.2388H61.8952C61.8428 76.37 61.7728 76.5099 61.6854 76.6585C61.6067 76.7984 61.528 76.9208 61.4494 77.0257L58.3414 81.209H57.2792V74.8094H58.4201V78.9009C58.4201 79.0408 58.4157 79.1807 58.407 79.3206C58.407 79.4605 58.3982 79.6135 58.3807 79.7796H58.407C58.4769 79.6397 58.5512 79.5042 58.6299 79.373C58.7086 79.2332 58.7873 79.1151 58.8659 79.019L61.9739 74.8094H63.023ZM70.7709 74.8094V81.209H69.63V77.1306C69.63 76.982 69.6344 76.8377 69.6431 76.6978C69.6519 76.5579 69.665 76.4049 69.6825 76.2388H69.6431C69.5907 76.37 69.5208 76.5099 69.4333 76.6585C69.3546 76.7984 69.276 76.9208 69.1973 77.0257L66.0893 81.209H65.0271V74.8094H66.168V78.9009C66.168 79.0408 66.1636 79.1807 66.1549 79.3206C66.1549 79.4605 66.1461 79.6135 66.1286 79.7796H66.1549C66.2248 79.6397 66.2991 79.5042 66.3778 79.373C66.4565 79.2332 66.5352 79.1151 66.6139 79.019L69.7218 74.8094H70.7709ZM68.9481 71.9637H69.8661C69.9011 72.3134 69.8399 72.6282 69.6825 72.9079C69.5251 73.1789 69.2934 73.4019 68.9875 73.5767C68.6815 73.7428 68.3143 73.8259 67.8859 73.8259C67.4488 73.8259 67.0728 73.7428 66.7581 73.5767C66.4521 73.4019 66.2204 73.1789 66.0631 72.9079C65.9057 72.6282 65.8401 72.3134 65.8664 71.9637H66.7974C66.7887 72.3484 66.8805 72.6413 67.0728 72.8424C67.2652 73.0347 67.5362 73.1309 67.8859 73.1309C68.2269 73.1309 68.4891 73.0347 68.6727 72.8424C68.8563 72.6413 68.9481 72.3484 68.9481 71.9637Z" fill="white"/>
</svg>
