<svg width="58" height="46" viewBox="0 0 58 46" fill="none" xmlns="http://www.w3.org/2000/svg">
<path d="M0.357422 30.6798V24.9231C0.357422 24.2048 0.502317 23.4773 0.95266 22.9177C1.33273 22.4454 1.79798 22.0094 2.30173 21.621C4.33428 20.0541 9.92633 18.7493 12.2232 17.6043L17.8438 15.1137L21.8899 13.5001C23.3333 12.9245 24.6107 11.9989 25.6072 10.8067L26.6822 9.5206C27.0344 9.09922 27.3488 8.64769 27.6219 8.17122L29.1103 5.57435C29.5056 4.88464 30.038 4.28322 30.6747 3.80716L30.975 3.58259C33.1172 1.98076 36.1103 2.19338 38.0045 4.08195C38.3023 4.37884 38.5643 4.70958 38.7852 5.0674L42.6434 11.3183C43.1768 12.1824 43.8481 12.9507 44.6193 13.6115C47.2432 15.8596 50.943 19.2376 50.943 20.0949C50.943 20.3304 51.1758 20.617 51.5588 20.9283C54.5336 23.3466 57.1882 26.3458 57.1882 30.1796V30.6798V35.9309C57.1882 37.7846 56.6415 39.5987 55.5586 41.1032C55.1152 41.7191 54.6096 42.4094 54.0656 43.1326C53.2238 44.2516 53.0995 44.082 52.3557 42.8955L51.2352 41.108C51.0421 40.8 50.7937 40.5304 50.5026 40.3127L50.3072 40.1666C49.1466 39.2988 47.6243 39.0809 46.267 39.5884L44.5442 40.2325C43.8199 40.5033 43.0528 40.642 42.2795 40.642C41.0058 40.642 39.7604 41.0182 38.6997 41.7232L37.5151 42.5105C36.8934 42.9238 36.2245 43.2612 35.5227 43.5156L31.2566 45.0623C30.2331 45.4334 29.1527 45.6232 28.064 45.6232H20.3419H14.4285C12.9781 45.6232 11.5475 45.2864 10.2495 44.6393L8.91873 43.9759C7.80221 43.4193 6.80812 42.6453 5.99482 41.6993L3.47999 38.7741L3.11091 38.4061C1.34817 36.6487 0.357422 34.2619 0.357422 31.7727V30.6798Z" fill="#5C5C5C" fill-opacity="0.9"/>
<path d="M18.9025 14.7864V15.8224H16.083C15.506 15.8224 15.1913 16.1153 15.1388 16.701C15.0776 17.4354 15.0208 18.078 14.9683 18.6288C14.9159 19.1708 14.8547 19.6516 14.7847 20.0713C14.7235 20.4822 14.6492 20.8494 14.5618 21.1729C14.4831 21.4876 14.3695 21.7936 14.2208 22.0908C14.0547 22.4755 13.8537 22.8033 13.6176 23.0744C13.3903 23.3454 13.1237 23.5465 12.8177 23.6776C12.5204 23.8 12.1838 23.8568 11.8079 23.8481L11.703 22.8383C11.9827 22.7596 12.2275 22.6416 12.4374 22.4842C12.6559 22.3181 12.8439 22.069 13.0013 21.7367C13.0974 21.5094 13.1805 21.2865 13.2504 21.0679C13.3204 20.8406 13.3816 20.5915 13.434 20.3205C13.4952 20.0494 13.5477 19.7347 13.5914 19.3763C13.6438 19.0178 13.6875 18.6069 13.7225 18.1436C13.7662 17.6715 13.8143 17.1207 13.8668 16.4912C13.9717 15.3547 14.588 14.7864 15.7158 14.7864H18.9025ZM19.0861 14.7864V23.835H17.7747V14.7864H19.0861ZM23.9018 17.278C24.8897 17.278 25.6022 17.4573 26.0394 17.8157C26.4852 18.1654 26.7126 18.6856 26.7213 19.3763C26.7213 19.9533 26.5945 20.3991 26.341 20.7139C26.0875 21.0286 25.6722 21.186 25.0952 21.186H21.384V20.2811H24.7673C25.0471 20.2811 25.2307 20.1893 25.3181 20.0057C25.4143 19.8221 25.458 19.6123 25.4493 19.3763C25.4493 18.9828 25.3356 18.7031 25.1083 18.537C24.8897 18.3709 24.5051 18.2878 23.9543 18.2878C23.5084 18.2878 23.1587 18.3534 22.9052 18.4845C22.6516 18.6157 22.4724 18.843 22.3675 19.1664C22.2626 19.4899 22.2101 19.9445 22.2101 20.5303C22.2101 21.186 22.2757 21.6887 22.4068 22.0384C22.538 22.3793 22.7434 22.6154 23.0232 22.7465C23.3117 22.8777 23.692 22.9432 24.1641 22.9432C24.5051 22.9432 24.881 22.9301 25.2919 22.9039C25.7115 22.8689 26.0918 22.8296 26.4328 22.7859L26.5508 23.612C26.3497 23.6995 26.0962 23.7738 25.7902 23.835C25.493 23.8874 25.187 23.9268 24.8722 23.953C24.5575 23.9792 24.269 23.9923 24.0067 23.9923C23.2636 23.9923 22.6604 23.8787 22.197 23.6514C21.7424 23.4241 21.4102 23.0656 21.2004 22.576C20.9993 22.0777 20.8988 21.4264 20.8988 20.6221C20.8988 19.7828 21.0037 19.1184 21.2135 18.6288C21.4233 18.1392 21.7468 17.7939 22.1839 17.5928C22.621 17.383 23.1937 17.278 23.9018 17.278ZM29.5922 17.4354V23.835H28.3464V17.4354H29.5922ZM32.91 19.9664V20.9106H29.5135V19.9664H32.91ZM34.0378 17.4354V23.835H32.792V17.4354H34.0378ZM41.7741 17.4354V23.835H40.6332V19.7566C40.6332 19.6079 40.6376 19.4637 40.6463 19.3238C40.6551 19.1839 40.6682 19.0309 40.6857 18.8648H40.6463C40.5939 18.996 40.5239 19.1358 40.4365 19.2845C40.3578 19.4243 40.2792 19.5467 40.2005 19.6516L37.0925 23.835H36.0303V17.4354H37.1712V21.5269C37.1712 21.6668 37.1668 21.8067 37.1581 21.9466C37.1581 22.0864 37.1493 22.2394 37.1318 22.4056H37.1581C37.228 22.2657 37.3023 22.1302 37.381 21.999C37.4597 21.8591 37.5384 21.7411 37.617 21.645L40.725 17.4354H41.7741ZM45.024 17.4354V23.835H43.7782V17.4354H45.024ZM48.3418 19.9664V20.9106H44.9453V19.9664H48.3418ZM49.4696 17.4354V23.835H48.2238V17.4354H49.4696ZM15.3617 33.278C15.5628 33.278 15.7858 33.2868 16.0306 33.3043C16.2753 33.3218 16.5245 33.3524 16.778 33.3961C17.0316 33.4398 17.2676 33.5053 17.4862 33.5928L17.3288 34.4058C17.0228 34.3796 16.7081 34.3621 16.3846 34.3534C16.0699 34.3359 15.7989 34.3272 15.5716 34.3272C15.0907 34.3272 14.7061 34.3971 14.4175 34.537C14.129 34.6681 13.9192 34.8998 13.7881 35.232C13.6657 35.5642 13.6045 36.0276 13.6045 36.6221C13.6045 37.2166 13.6657 37.6843 13.7881 38.0253C13.9192 38.3662 14.129 38.6023 14.4175 38.7334C14.7061 38.8645 15.0907 38.9301 15.5716 38.9301C15.7027 38.9301 15.8732 38.9257 16.083 38.917C16.3016 38.9082 16.5332 38.8951 16.778 38.8777C17.0228 38.8602 17.2545 38.8339 17.4731 38.799L17.5911 39.6383C17.2764 39.7606 16.9223 39.8481 16.5289 39.9005C16.1355 39.9617 15.742 39.9923 15.3486 39.9923C14.6055 39.9923 14.0066 39.883 13.552 39.6645C13.1062 39.4459 12.7827 39.0918 12.5816 38.6023C12.3805 38.1127 12.28 37.4526 12.28 36.6221C12.28 35.8003 12.3805 35.1446 12.5816 34.655C12.7827 34.1654 13.1062 33.8157 13.552 33.6059C14.0066 33.3873 14.6099 33.278 15.3617 33.278ZM24.5823 33.4354C24.4337 33.8288 24.2982 34.1829 24.1758 34.4976C24.0534 34.8124 23.931 35.0878 23.8086 35.3238C23.6862 35.5599 23.5463 35.7566 23.3889 35.9139C23.2403 36.0713 23.0655 36.1981 22.8644 36.2942C22.6721 36.3904 22.436 36.4516 22.1562 36.4778V36.5303C22.4535 36.5565 22.7027 36.6133 22.9037 36.7008C23.1136 36.7882 23.2972 36.9149 23.4545 37.0811C23.6206 37.2472 23.7693 37.457 23.9004 37.7105C24.0315 37.9553 24.167 38.2569 24.3069 38.6154C24.4468 38.9651 24.5998 39.3716 24.7659 39.835H23.4414C23.284 39.4066 23.1398 39.035 23.0086 38.7203C22.8863 38.3968 22.7639 38.1258 22.6415 37.9072C22.5191 37.6799 22.3879 37.5007 22.248 37.3696C22.1082 37.2297 21.9421 37.1335 21.7497 37.0811C21.5661 37.0199 21.3476 36.9893 21.094 36.9893V36.0319C21.4 36.0319 21.6579 35.9795 21.8677 35.8746C22.0776 35.7609 22.2568 35.5948 22.4054 35.3763C22.5628 35.1577 22.707 34.891 22.8382 34.5763C22.9693 34.2528 23.1136 33.8725 23.2709 33.4354H24.5823ZM20.3465 33.4354V35.2845C20.3465 35.4855 20.3291 35.691 20.2941 35.9008C20.2679 36.1019 20.2241 36.2942 20.1629 36.4778C20.2154 36.6702 20.2591 36.8625 20.2941 37.0548C20.3291 37.2472 20.3465 37.4264 20.3465 37.5925V39.835H19.0745V33.4354H20.3465ZM21.5268 36.0319V36.9893H19.9794V36.0319H21.5268ZM31.9131 33.4354V39.835H30.7722V35.7566C30.7722 35.6079 30.7766 35.4637 30.7854 35.3238C30.7941 35.1839 30.8072 35.0309 30.8247 34.8648H30.7854C30.7329 34.996 30.663 35.1358 30.5755 35.2845C30.4969 35.4243 30.4182 35.5467 30.3395 35.6516L27.2315 39.835H26.1693V33.4354H27.3102V37.5269C27.3102 37.6668 27.3058 37.8067 27.2971 37.9466C27.2971 38.0864 27.2883 38.2394 27.2708 38.4056H27.2971C27.367 38.2657 27.4413 38.1302 27.52 37.999C27.5987 37.8591 27.6774 37.7411 27.7561 37.645L30.864 33.4354H31.9131ZM39.6611 33.4354V39.835H38.5202V35.7566C38.5202 35.6079 38.5245 35.4637 38.5333 35.3238C38.542 35.1839 38.5551 35.0309 38.5726 34.8648H38.5333C38.4808 34.996 38.4109 35.1358 38.3235 35.2845C38.2448 35.4243 38.1661 35.5467 38.0874 35.6516L34.9794 39.835H33.9172V33.4354H35.0581V37.5269C35.0581 37.6668 35.0537 37.8067 35.045 37.9466C35.045 38.0864 35.0363 38.2394 35.0188 38.4056H35.045C35.1149 38.2657 35.1892 38.1302 35.2679 37.999C35.3466 37.8591 35.4253 37.7411 35.504 37.645L38.612 33.4354H39.6611ZM37.8382 30.5897H38.7562C38.7912 30.9394 38.73 31.2541 38.5726 31.5339C38.4153 31.8049 38.1836 32.0279 37.8776 32.2027C37.5716 32.3688 37.2044 32.4519 36.776 32.4519C36.3389 32.4519 35.963 32.3688 35.6482 32.2027C35.3422 32.0279 35.1106 31.8049 34.9532 31.5339C34.7958 31.2541 34.7303 30.9394 34.7565 30.5897H35.6876C35.6788 30.9744 35.7706 31.2673 35.963 31.4683C36.1553 31.6607 36.4263 31.7568 36.776 31.7568C37.117 31.7568 37.3793 31.6607 37.5629 31.4683C37.7464 31.2673 37.8382 30.9744 37.8382 30.5897Z" fill="white"/>
</svg>
