<svg width="182" height="110" viewBox="0 0 182 110" fill="none" xmlns="http://www.w3.org/2000/svg">
<path d="M171.477 46.9628H175.719C177.691 46.9628 178.597 49.4175 177.098 50.6986L175.744 52.0481C174.611 53.1776 173.077 53.8118 171.477 53.8118H168.355H166.481C164.856 53.8118 163.272 53.3053 161.948 52.3628L161.797 52.2552C160.375 51.2427 158.673 50.6986 156.928 50.6986H156.489H155.176C153.633 50.6986 152.17 50.0145 151.18 48.8307L150.789 48.3628C150.048 47.4755 148.951 46.9628 147.795 46.9628C146.952 46.9628 146.132 47.2354 145.457 47.74L142.97 49.5995C142 50.3253 141.179 51.2327 140.554 52.2712L140.001 53.1907C139.752 53.6042 139.471 53.9978 139.162 54.368L138.684 54.9396C137.276 56.6246 136.504 58.7508 136.504 60.9468V61.2835V62.6849C136.504 63.4063 136.388 64.1229 136.159 64.8071L134.924 68.5023C134.749 69.0253 134.259 69.3779 133.708 69.3779C132.725 69.3779 132.108 70.437 132.592 71.2917L134.215 74.1585C134.488 74.6397 134.631 75.1834 134.631 75.7365V77.1308C134.631 78.5452 134.068 79.9014 133.066 80.9C132.068 81.8948 130.717 82.4534 129.308 82.4534H127.761H124.014H123.512C122.25 82.4534 121.057 81.8808 120.267 80.8967L119.8 80.3143C119.305 79.6985 118.559 79.3401 117.769 79.3401C116.979 79.3401 116.232 78.9818 115.738 78.366L114.371 76.6625C114.139 76.3726 113.929 76.0649 113.744 75.7424L113.231 74.8467C112.129 72.9237 110.38 71.4539 108.297 70.6984L106.201 69.9388C105.178 69.5677 104.097 69.3779 103.009 69.3779H101.532C98.9965 69.3779 96.8206 71.1827 96.352 73.6742L95.759 76.8273C95.4499 78.4709 95.5978 80.168 96.1866 81.7334L96.4448 82.4198C96.9161 83.6729 97.6506 84.8104 98.5986 85.7556L100.716 87.8662C101.258 88.4065 101.864 88.8784 102.52 89.2713L102.553 89.291C103.931 90.1149 105.073 91.2791 105.871 92.6716L106.305 93.4285C106.86 94.3968 107.152 95.4934 107.152 96.6094V97.4972C107.152 98.6287 106.702 99.7137 105.901 100.513C105.102 101.308 104.021 101.755 102.894 101.755H102.751C101.952 101.755 101.166 101.547 100.472 101.152L97.16 99.2647L94.1376 97.758C92.8395 97.1109 91.3446 96.8869 90.0355 96.2624C89.4328 95.9748 88.8419 95.5419 88.4168 94.9062C87.9705 94.2388 87.2584 93.7121 86.5143 93.3151C85.0759 92.5477 83.7262 91.4615 83.2093 89.9154L82.9637 89.181C82.4906 87.7659 81.1657 86.8118 79.6736 86.8118H75.3106C73.5813 86.8118 72.1794 88.2137 72.1794 89.943C72.1794 90.3424 72.103 90.7382 71.9543 91.1089L70.3549 95.0952C69.91 96.2042 69.6814 97.3881 69.6814 98.5831V100.303C69.6814 101.265 69.5259 102.22 69.2209 103.133L68.7675 104.489C67.8213 107.319 65.1714 109.227 62.1872 109.227H58.4401H55.4394C54.5303 109.227 53.6261 109.095 52.7552 108.834L50.0827 108.035C48.5996 107.591 47.2496 106.787 46.1534 105.694L46.0803 105.621C45.5786 105.121 45.0218 104.679 44.4206 104.305L41.7976 102.67C40.8314 102.068 40.015 101.254 39.4103 100.289L38.8652 99.4198C37.8332 97.7736 36.027 96.7741 34.0841 96.7741H31.586H27.2144H23.3681C22.6045 96.7741 21.8437 96.6807 21.1027 96.496L15.8398 95.1843C15.0988 94.9996 14.338 94.9062 13.5744 94.9062H12.2236C10.5962 94.9062 9.00504 94.4256 7.6497 93.5248C6.55311 92.7959 5.64658 91.8155 5.00565 90.6653L2.85841 86.8118L2.61606 86.389C1.19139 83.9033 0.982635 80.9023 2.04944 78.2433L2.85841 76.2269L5.98098 69.3779L6.36801 68.7348C7.19955 67.353 6.79666 65.5615 5.4536 64.6689C4.61275 64.11 4.10743 63.1676 4.10743 62.158V57.5477V54.6588C4.10743 54.0952 4.05657 53.5329 3.95546 52.9785L3.01039 47.7962C2.90927 47.2417 2.85841 46.6792 2.85841 46.1157V44.5947C2.85841 44.1025 2.95258 43.6148 3.13585 43.158C3.72277 41.6951 5.2695 40.8992 6.58383 40.0291C7.30051 39.5547 7.85452 38.796 7.85452 37.6231V35.9098C7.85452 34.2161 7.18039 32.5926 5.98098 31.3967C4.78156 30.2009 4.10743 28.5769 4.10743 26.8832V23.925V19.5665V19.0847C4.10743 16.2743 5.51401 13.6505 7.85452 12.0948L10.5897 10.5365C11.6622 9.92556 12.8752 9.60427 14.1094 9.60427H14.6006C15.8936 9.60427 17.1482 10.0433 18.159 10.8496C19.1698 11.6558 20.4244 12.0948 21.7174 12.0948H22.2183H29.7125H37.2067H40.3292H43.4147C44.4699 12.0948 45.3253 11.2394 45.3253 10.1842C45.3253 9.8061 45.4375 9.4365 45.6477 9.12218L46.4533 7.91736C47.3094 6.63705 48.748 5.86842 50.2882 5.86842H50.3896C51.5458 5.86842 52.6548 6.32681 53.4735 7.14311C53.8666 7.53501 54.3308 7.8484 54.8412 8.06649L55.8889 8.51418C57.5074 9.20573 59.3479 9.15175 60.923 8.36654C61.7545 7.95208 62.6708 7.73635 63.5997 7.73635H66.5665C68.5887 7.73635 70.56 7.07937 72.1794 5.86842L77.8001 2.75522L82.3743 0.931016C83.4781 0.490793 84.6554 0.264648 85.8438 0.264648H92.1639H94.0434C96.0057 0.264648 97.8539 1.18707 99.0335 2.75522L101.532 5.86842C102.364 7.11371 104.155 10.1024 104.654 12.0948C105.225 14.3715 107.855 15.8579 109.424 17.6037C110.058 18.3091 110.773 19.0052 111.524 19.5665C112.767 20.4965 112.786 22.1177 112.421 23.5599C112.059 24.9934 112.044 26.5703 112.865 27.7994C113.588 28.8801 114.802 29.5288 116.102 29.5288H119.018H120.142C122.622 29.5288 125 28.5458 126.756 26.7952L126.807 26.7446C127.44 26.1134 128.16 25.5761 128.945 25.1491L132.729 23.0915C133.977 22.4127 135.375 22.0571 136.796 22.0571C138.634 22.0571 140.422 22.6518 141.894 23.7524L148.743 28.8737C149.325 29.309 149.855 29.8105 150.321 30.3682L152.044 32.4295C152.507 32.9844 152.905 33.5912 153.23 34.2376L154.559 36.8878C155.784 39.3307 158.015 41.1167 160.666 41.7776L162.068 42.127C163.331 42.4417 164.508 43.0239 165.567 43.7799C167.608 45.2366 170.322 46.9628 171.477 46.9628Z" fill="#5C5C5C" fill-opacity="0.9"/>
<path d="M20.8324 39.7063C20.6489 40.2221 20.4784 40.6986 20.321 41.1357C20.1724 41.5641 20.0194 41.9488 19.862 42.2898C19.7047 42.622 19.5342 42.9105 19.3506 43.1553C19.167 43.4001 18.9572 43.5968 18.7211 43.7454C18.4851 43.8853 18.2053 43.9727 17.8818 44.0077V44.0601C18.2228 44.0951 18.52 44.1869 18.7736 44.3355C19.0271 44.4754 19.25 44.6765 19.4424 44.9388C19.6435 45.1923 19.8271 45.5027 19.9932 45.8698C20.1593 46.237 20.3254 46.6654 20.4915 47.155C20.6663 47.6358 20.8587 48.1691 21.0685 48.7549H19.6915C19.4468 48.0555 19.2282 47.4435 19.0359 46.9189C18.8523 46.3944 18.6556 45.9573 18.4457 45.6076C18.2447 45.2579 18.0086 44.9956 17.7376 44.8207C17.4666 44.6371 17.1256 44.5453 16.7147 44.5453V43.5356C17.0994 43.5356 17.4229 43.4438 17.6851 43.2602C17.9561 43.0678 18.1922 42.8012 18.3933 42.4602C18.5944 42.1193 18.7779 41.7171 18.9441 41.2538C19.1189 40.7904 19.3025 40.2746 19.4948 39.7063H20.8324ZM15.8754 39.7063V42.4865C15.8754 42.7575 15.8623 43.0198 15.8361 43.2733C15.8098 43.5268 15.7661 43.776 15.7049 44.0208C15.7487 44.2656 15.788 44.5147 15.823 44.7683C15.8579 45.0218 15.8754 45.2622 15.8754 45.4895V48.7549H14.5771V39.7063H15.8754ZM17.213 43.5356V44.5453H15.4951V43.5356H17.213ZM25.1412 42.198C25.893 42.198 26.4919 42.3072 26.9378 42.5258C27.3836 42.7444 27.7071 43.1028 27.9082 43.6011C28.1093 44.0907 28.2098 44.742 28.2098 45.5551C28.2098 46.3769 28.1093 47.037 27.9082 47.5353C27.7071 48.0249 27.3836 48.379 26.9378 48.5975C26.4919 48.8161 25.893 48.9254 25.1412 48.9254C24.3893 48.9254 23.7861 48.8161 23.3315 48.5975C22.8856 48.379 22.5621 48.0249 22.361 47.5353C22.1599 47.037 22.0594 46.3769 22.0594 45.5551C22.0594 44.742 22.1599 44.0907 22.361 43.6011C22.5621 43.1028 22.8856 42.7444 23.3315 42.5258C23.7861 42.3072 24.3893 42.198 25.1412 42.198ZM25.1412 43.2208C24.704 43.2208 24.3543 43.2908 24.0921 43.4307C23.8385 43.5705 23.6549 43.811 23.5413 44.1519C23.4364 44.4841 23.3839 44.9519 23.3839 45.5551C23.3839 46.1583 23.4364 46.6304 23.5413 46.9714C23.6549 47.3124 23.8385 47.5528 24.0921 47.6927C24.3543 47.8238 24.704 47.8894 25.1412 47.8894C25.5783 47.8894 25.9236 47.8238 26.1772 47.6927C26.4307 47.5528 26.6099 47.3124 26.7148 46.9714C26.8197 46.6304 26.8722 46.1583 26.8722 45.5551C26.8722 44.9519 26.8197 44.4841 26.7148 44.1519C26.6099 43.811 26.4307 43.5705 26.1772 43.4307C25.9236 43.2908 25.5783 43.2208 25.1412 43.2208ZM35.0734 42.3553V43.3126H32.6866C32.4244 43.3126 32.232 43.3695 32.1096 43.4831C31.996 43.5968 31.9217 43.7979 31.8867 44.0864C31.843 44.4623 31.7905 44.8513 31.7293 45.2535C31.6769 45.6469 31.6157 46.0272 31.5457 46.3944C31.4845 46.7528 31.4015 47.0763 31.2966 47.3648C31.1917 47.697 31.0387 47.9724 30.8376 48.191C30.6452 48.4096 30.4092 48.5713 30.1294 48.6762C29.8497 48.7724 29.5306 48.8205 29.1721 48.8205L29.041 47.8631C29.2683 47.8019 29.4519 47.7364 29.5918 47.6664C29.7404 47.5965 29.854 47.5091 29.9327 47.4042C30.0202 47.2905 30.0945 47.155 30.1557 46.9976C30.2343 46.8053 30.2999 46.578 30.3524 46.3157C30.4136 46.0534 30.4617 45.7824 30.4966 45.5027C30.5403 45.2141 30.5753 44.93 30.6015 44.6503C30.6365 44.3617 30.6671 44.0995 30.6933 43.8634C30.7545 43.3738 30.9163 43.0023 31.1785 42.7487C31.4408 42.4865 31.8386 42.3553 32.3719 42.3553H35.0734ZM35.2438 42.3553V48.7549H33.9718V42.3553H35.2438ZM40.0351 42.198C40.787 42.198 41.3858 42.3072 41.8317 42.5258C42.2776 42.7444 42.601 43.1028 42.8021 43.6011C43.0032 44.0907 43.1037 44.742 43.1037 45.5551C43.1037 46.3769 43.0032 47.037 42.8021 47.5353C42.601 48.0249 42.2776 48.379 41.8317 48.5975C41.3858 48.8161 40.787 48.9254 40.0351 48.9254C39.2832 48.9254 38.68 48.8161 38.2254 48.5975C37.7795 48.379 37.456 48.0249 37.255 47.5353C37.0539 47.037 36.9533 46.3769 36.9533 45.5551C36.9533 44.742 37.0539 44.0907 37.255 43.6011C37.456 43.1028 37.7795 42.7444 38.2254 42.5258C38.68 42.3072 39.2832 42.198 40.0351 42.198ZM40.0351 43.2208C39.598 43.2208 39.2483 43.2908 38.986 43.4307C38.7325 43.5705 38.5489 43.811 38.4352 44.1519C38.3303 44.4841 38.2778 44.9519 38.2778 45.5551C38.2778 46.1583 38.3303 46.6304 38.4352 46.9714C38.5489 47.3124 38.7325 47.5528 38.986 47.6927C39.2483 47.8238 39.598 47.8894 40.0351 47.8894C40.4722 47.8894 40.8176 47.8238 41.0711 47.6927C41.3246 47.5528 41.5038 47.3124 41.6088 46.9714C41.7137 46.6304 41.7661 46.1583 41.7661 45.5551C41.7661 44.9519 41.7137 44.4841 41.6088 44.1519C41.5038 43.811 41.3246 43.5705 41.0711 43.4307C40.8176 43.2908 40.4722 43.2208 40.0351 43.2208ZM52.1024 42.3553C52.4171 42.3553 52.5745 42.5083 52.5745 42.8143L52.8368 48.7549H51.6565L51.4205 43.3126H51.2106L49.6763 47.6271C49.6414 47.7582 49.5845 47.8588 49.5058 47.9287C49.4272 47.9987 49.3179 48.0336 49.178 48.0336H48.2994C48.1595 48.0336 48.0502 47.9987 47.9715 47.9287C47.9016 47.8588 47.8448 47.7582 47.801 47.6271L46.2667 43.3126H46.0569L45.834 48.7549H44.6668L44.916 42.8143C44.9247 42.5083 45.0865 42.3553 45.4012 42.3553H46.6601C46.8 42.3553 46.9049 42.3903 46.9749 42.4602C47.0536 42.5214 47.1104 42.622 47.1454 42.7619L48.3781 46.2895C48.4393 46.4468 48.4873 46.5998 48.5223 46.7485C48.566 46.8971 48.6054 47.0501 48.6403 47.2075H48.837C48.8808 47.0413 48.9201 46.884 48.9551 46.7354C48.9988 46.5867 49.0469 46.4381 49.0993 46.2895L50.332 42.7619C50.4107 42.4908 50.5768 42.3553 50.8303 42.3553H52.1024ZM57.3604 42.198C58.3483 42.198 59.0608 42.3772 59.498 42.7356C59.9438 43.0853 60.1711 43.6055 60.1799 44.2962C60.1799 44.8732 60.0531 45.3191 59.7996 45.6338C59.5461 45.9485 59.1308 46.1059 58.5538 46.1059H54.8426V45.201H58.2259C58.5057 45.201 58.6893 45.1092 58.7767 44.9256C58.8729 44.742 58.9166 44.5322 58.9078 44.2962C58.9078 43.9028 58.7942 43.623 58.5669 43.4569C58.3483 43.2908 57.9637 43.2077 57.4129 43.2077C56.967 43.2077 56.6173 43.2733 56.3638 43.4044C56.1102 43.5356 55.931 43.7629 55.8261 44.0864C55.7212 44.4098 55.6687 44.8644 55.6687 45.4502C55.6687 46.1059 55.7343 46.6086 55.8654 46.9583C55.9966 47.2992 56.202 47.5353 56.4818 47.6664C56.7703 47.7976 57.1506 47.8631 57.6227 47.8631C57.9637 47.8631 58.3396 47.85 58.7505 47.8238C59.1701 47.7888 59.5504 47.7495 59.8914 47.7058L60.0094 48.5319C59.8083 48.6194 59.5548 48.6937 59.2488 48.7549C58.9516 48.8073 58.6456 48.8467 58.3308 48.8729C58.0161 48.8991 57.7276 48.9122 57.4653 48.9122C56.7222 48.9122 56.119 48.7986 55.6556 48.5713C55.201 48.344 54.8688 47.9855 54.659 47.496C54.4579 46.9976 54.3573 46.3463 54.3573 45.542C54.3573 44.7027 54.4623 44.0383 54.6721 43.5487C54.8819 43.0591 55.2054 42.7138 55.6425 42.5127C56.0796 42.3029 56.6523 42.198 57.3604 42.198ZM63.0508 42.3553V48.7549H61.805V42.3553H63.0508ZM66.3686 44.8863V45.8305H62.9721V44.8863H66.3686ZM67.4964 42.3553V48.7549H66.2506V42.3553H67.4964ZM72.269 42.198C72.4701 42.198 72.693 42.2067 72.9378 42.2242C73.1826 42.2417 73.4318 42.2723 73.6853 42.316C73.9388 42.3597 74.1749 42.4253 74.3934 42.5127L74.2361 43.3258C73.9301 43.2995 73.6154 43.282 73.2919 43.2733C72.9771 43.2558 72.7061 43.2471 72.4788 43.2471C71.998 43.2471 71.6133 43.317 71.3248 43.4569C71.0363 43.588 70.8265 43.8197 70.6953 44.1519C70.5729 44.4841 70.5117 44.9475 70.5117 45.542C70.5117 46.1365 70.5729 46.6042 70.6953 46.9452C70.8265 47.2861 71.0363 47.5222 71.3248 47.6533C71.6133 47.7845 71.998 47.85 72.4788 47.85C72.61 47.85 72.7804 47.8457 72.9903 47.8369C73.2088 47.8282 73.4405 47.8151 73.6853 47.7976C73.9301 47.7801 74.1618 47.7539 74.3803 47.7189L74.4984 48.5582C74.1836 48.6806 73.8295 48.768 73.4361 48.8205C73.0427 48.8816 72.6493 48.9122 72.2559 48.9122C71.5128 48.9122 70.9139 48.803 70.4593 48.5844C70.0134 48.3658 69.6899 48.0118 69.4889 47.5222C69.2878 47.0326 69.1873 46.3725 69.1873 45.542C69.1873 44.7202 69.2878 44.0645 69.4889 43.5749C69.6899 43.0853 70.0134 42.7356 70.4593 42.5258C70.9139 42.3072 71.5171 42.198 72.269 42.198ZM81.4896 42.3553C81.3409 42.7487 81.2054 43.1028 81.083 43.4176C80.9606 43.7323 80.8382 44.0077 80.7158 44.2437C80.5935 44.4798 80.4536 44.6765 80.2962 44.8338C80.1476 44.9912 79.9727 45.118 79.7717 45.2141C79.5793 45.3103 79.3433 45.3715 79.0635 45.3977V45.4502C79.3608 45.4764 79.6099 45.5333 79.811 45.6207C80.0208 45.7081 80.2044 45.8349 80.3618 46.001C80.5279 46.1671 80.6765 46.3769 80.8076 46.6304C80.9388 46.8752 81.0743 47.1769 81.2142 47.5353C81.3541 47.885 81.5071 48.2915 81.6732 48.7549H80.3487C80.1913 48.3265 80.047 47.9549 79.9159 47.6402C79.7935 47.3167 79.6711 47.0457 79.5487 46.8271C79.4263 46.5998 79.2952 46.4206 79.1553 46.2895C79.0154 46.1496 78.8493 46.0534 78.657 46.001C78.4734 45.9398 78.2548 45.9092 78.0013 45.9092V44.9519C78.3073 44.9519 78.5652 44.8994 78.775 44.7945C78.9848 44.6809 79.164 44.5147 79.3127 44.2962C79.47 44.0776 79.6143 43.811 79.7454 43.4962C79.8766 43.1728 80.0208 42.7925 80.1782 42.3553H81.4896ZM77.2538 42.3553V44.2044C77.2538 44.4055 77.2363 44.6109 77.2013 44.8207C77.1751 45.0218 77.1314 45.2141 77.0702 45.3977C77.1227 45.5901 77.1664 45.7824 77.2013 45.9747C77.2363 46.1671 77.2538 46.3463 77.2538 46.5124V48.7549H75.9818V42.3553H77.2538ZM78.434 44.9519V45.9092H76.8866V44.9519H78.434ZM88.8204 42.3553V48.7549H87.6795V44.6765C87.6795 44.5279 87.6839 44.3836 87.6926 44.2437C87.7014 44.1038 87.7145 43.9508 87.732 43.7847H87.6926C87.6402 43.9159 87.5702 44.0558 87.4828 44.2044C87.4041 44.3443 87.3254 44.4667 87.2467 44.5716L84.1388 48.7549H83.0765V42.3553H84.2175V46.4468C84.2175 46.5867 84.2131 46.7266 84.2043 46.8665C84.2043 47.0064 84.1956 47.1594 84.1781 47.3255H84.2043C84.2743 47.1856 84.3486 47.0501 84.4273 46.9189C84.506 46.7791 84.5846 46.661 84.6633 46.5649L87.7713 42.3553H88.8204ZM96.5683 42.3553V48.7549H95.4274V44.6765C95.4274 44.5279 95.4318 44.3836 95.4405 44.2437C95.4493 44.1038 95.4624 43.9508 95.4799 43.7847H95.4405C95.3881 43.9159 95.3181 44.0558 95.2307 44.2044C95.152 44.3443 95.0733 44.4667 94.9947 44.5716L91.8867 48.7549H90.8245V42.3553H91.9654V46.4468C91.9654 46.5867 91.961 46.7266 91.9523 46.8665C91.9523 47.0064 91.9435 47.1594 91.926 47.3255H91.9523C92.0222 47.1856 92.0965 47.0501 92.1752 46.9189C92.2539 46.7791 92.3326 46.661 92.4112 46.5649L95.5192 42.3553H96.5683ZM94.7455 39.5096H95.6635C95.6984 39.8593 95.6372 40.1741 95.4799 40.4538C95.3225 40.7248 95.0908 40.9478 94.7848 41.1226C94.4789 41.2887 94.1117 41.3718 93.6833 41.3718C93.2462 41.3718 92.8702 41.2887 92.5555 41.1226C92.2495 40.9478 92.0178 40.7248 91.8605 40.4538C91.7031 40.1741 91.6375 39.8593 91.6637 39.5096H92.5948C92.5861 39.8943 92.6779 40.1872 92.8702 40.3883C93.0626 40.5806 93.3336 40.6768 93.6833 40.6768C94.0242 40.6768 94.2865 40.5806 94.4701 40.3883C94.6537 40.1872 94.7455 39.8943 94.7455 39.5096Z" fill="white"/>
</svg>
