<svg width="185" height="185" viewBox="0 0 185 185" fill="none" xmlns="http://www.w3.org/2000/svg">
<path d="M90.9217 20.4157V22.754V30.2627C90.9217 31.8551 91.4393 33.4044 92.3966 34.677C92.6618 35.0295 92.8947 35.4052 93.0924 35.7995L94.3402 38.2876C94.9676 39.5386 95.8673 40.6331 96.9733 41.4907L100.012 43.8471C100.611 44.3116 101.264 44.7017 101.957 45.0088L106.535 47.037L108.966 48.3838C111.017 49.5199 112.898 51.4 112.687 53.7351C112.635 54.3092 112.477 54.8106 112.155 55.1313C110.906 56.3766 106.535 64.471 104.036 68.2068C102.543 70.4407 100.491 71.4223 99.0279 71.7757C98.2209 71.9706 97.3854 72.053 96.5844 72.2709L90.9217 73.8106L86.0811 75.1268C84.745 75.4901 83.5061 76.1451 82.4534 77.0446L79.6804 79.4144L77.1653 81.2055C75.9454 82.0742 74.5351 82.6378 73.0525 82.8489L66.5656 83.7729H63.7433C63.1283 83.7729 62.5148 83.7123 61.9116 83.592L58.541 82.9199C57.244 82.6613 56.0164 82.1309 54.9391 81.3637L53.1829 80.113C52.5315 79.6492 51.9422 79.1038 51.4294 78.4903L45.9567 71.9427L43.8803 68.8375C43.5997 68.4177 43.3534 67.976 43.1439 67.5165L41.3303 63.5385C40.678 62.1077 39.676 60.8642 38.4167 59.9225L38.3709 59.8883C38.0161 59.623 37.6805 59.3328 37.3668 59.02L35.5707 57.2293C33.4622 55.1271 30.4799 54.1526 27.537 54.604L25.578 54.9044C24.598 55.0548 23.6004 55.0485 22.6224 54.886L20.548 54.5413C18.0289 54.1227 15.4482 54.7507 13.4031 56.2799L12.3211 57.089C11.847 57.4435 11.4077 57.8421 11.0089 58.2794L5.98878 63.785C5.57281 64.2412 5.20128 64.734 4.8972 65.2713C3.01509 68.5968 0.367188 74.3024 0.367188 75.6785V87.5695C0.367188 88.7644 0.595821 89.9465 1.04076 91.0555L2.86524 95.6031L7.86135 104.32L11.6084 110.546L16.6045 117.396L23.4769 125.96C23.8903 126.475 24.248 127.033 24.5441 127.623L26.2979 131.12C26.4969 131.517 26.7238 131.899 26.977 132.264L31.6127 138.94C32.0145 139.518 32.3498 140.141 32.6122 140.795L33.2097 142.284C34.1707 144.679 34.1008 147.365 33.0166 149.707L31.3968 153.206C31.1145 153.816 30.7039 154.357 30.1931 154.794C28.2146 156.485 28.0005 159.467 29.7172 161.423L30.9684 162.848L33.7204 166.964C34.3778 167.947 34.8403 169.045 35.1019 170.198C35.834 173.427 37.0082 178.214 37.838 180.282C37.8998 180.436 37.9618 180.581 38.024 180.718C38.9134 182.676 41.4816 183.154 43.5218 183.832C45.1065 184.358 46.815 184.384 48.4149 183.906L52.2018 182.773L58.447 180.282C59.696 179.66 62.5688 178.165 64.0676 177.169C65.3083 176.344 66.064 174.325 66.4056 172.948C66.5301 172.446 66.5656 171.928 66.5656 171.41V168.452V162.959C66.5656 161.257 67.0293 159.587 67.9069 158.129L70.3127 154.131L70.5992 153.774C71.9973 152.032 74.1106 151.018 76.3445 151.018H77.8969C79.0305 151.018 80.1091 150.53 80.8569 149.678L81.1273 149.37C82.6357 147.651 85.3428 147.753 86.7175 149.58C87.3985 150.486 88.4655 151.018 89.5983 151.018H91.6204C93.9423 151.018 96.1388 152.072 97.5919 153.883L97.7913 154.131L99.9794 156.749C100.572 157.458 101.448 157.867 102.371 157.867C103.412 157.867 104.384 157.348 104.962 156.483L105.909 155.067C106.317 154.457 106.535 153.74 106.535 153.006C106.535 151.764 107.156 150.605 108.19 149.918L109.438 149.088C109.997 148.717 110.61 148.434 111.256 148.25L115.998 146.899C117.962 146.34 119.689 145.154 120.917 143.522L121.443 142.822C122.317 141.661 123.449 140.718 124.75 140.07L126.298 139.298C128.753 138.075 131.674 138.256 133.959 139.775L134.297 139.999C135.334 140.688 136.551 141.056 137.795 141.056C138.597 141.056 139.392 140.903 140.137 140.606L146.706 137.986C147.81 137.546 148.987 137.32 150.176 137.32H150.875C152.54 137.528 156.745 137.818 160.243 137.32C162.92 136.939 165.773 133.521 168.375 132.78L170.863 132.071C171.685 131.837 172.452 131.442 173.121 130.909L177.037 127.785C177.908 127.091 178.648 126.247 179.222 125.292L180.759 122.737C181.637 121.279 182.101 119.609 182.101 117.908V117.126C182.101 115.272 181.551 113.46 180.52 111.919L179.334 110.144C178.686 109.176 177.863 108.336 176.908 107.67L172.674 104.714C172.297 104.452 171.902 104.217 171.492 104.013L164.763 100.658C163.845 100.201 163.053 99.5256 162.456 98.6917C161.095 96.7923 160.899 94.2953 161.946 92.2067L163.035 90.0345C163.255 89.5966 163.509 89.1766 163.794 88.7784L166.488 85.0181C167.112 83.9804 169.111 81.4068 172.108 79.4144L172.174 79.3707C174.913 77.5392 177.586 74.6431 180.414 72.9517L182.101 71.9427C183.673 70.767 184.599 68.9187 184.599 66.9555V66.4667C184.599 65.175 184.158 63.9219 183.35 62.9144L182.524 61.8856C182.25 61.544 182.101 61.119 182.101 60.681C182.101 59.9511 181.688 59.284 181.035 58.9584L178.975 57.9315C178.562 57.7259 178.176 57.4705 177.826 57.171L175.421 55.1158C174.471 54.3042 173.693 53.3107 173.133 52.194L172.108 50.1502L169.942 46.9099C168.911 45.369 168.361 43.5569 168.361 41.7032V38.32C168.361 36.6006 166.968 35.2068 165.248 35.2068H163.365H155.871H152.521C151.432 35.2068 150.351 35.017 149.328 34.6459L144.931 33.0518C144.316 32.8287 143.725 32.5417 143.17 32.1956L140.177 30.3309C139.403 29.8482 138.562 29.4814 137.681 29.2419L133.793 28.1847C132.7 27.8874 131.67 27.3943 130.752 26.7292L126.627 23.7376C125.729 23.087 124.955 22.2823 124.338 21.361L122.772 19.0181L119.541 14.1858C119.198 13.6728 118.805 13.1949 118.368 12.7591L117.965 12.3576C116.245 10.6425 115.278 8.31315 115.278 5.88392V3.79925C115.278 3.16981 115.073 2.55743 114.695 2.05442C113.928 1.03499 112.585 0.635769 111.386 1.07057L107.754 2.38719C106.946 2.68016 106.19 3.09951 105.513 3.62958L97.7913 9.67849L93.6752 13.7823C91.9124 15.5398 90.9217 17.9266 90.9217 20.4157Z" fill="#5C5C5C" fill-opacity="0.9"/>
<path d="M87.5594 91.3206V100.369H86.248V91.3206H87.5594ZM91.7034 94.9925V96.0809H87.4545V94.9925H91.7034ZM92.8705 91.3206V100.369H91.5591V91.3206H92.8705ZM97.7469 93.8122C98.4988 93.8122 99.0977 93.9215 99.5435 94.1401C99.9894 94.3586 100.313 94.7171 100.514 95.2154C100.715 95.705 100.816 96.3563 100.816 97.1694C100.816 97.9912 100.715 98.6512 100.514 99.1496C100.313 99.6391 99.9894 99.9932 99.5435 100.212C99.0977 100.43 98.4988 100.54 97.7469 100.54C96.9951 100.54 96.3918 100.43 95.9372 100.212C95.4914 99.9932 95.1679 99.6391 94.9668 99.1496C94.7657 98.6512 94.6652 97.9912 94.6652 97.1694C94.6652 96.3563 94.7657 95.705 94.9668 95.2154C95.1679 94.7171 95.4914 94.3586 95.9372 94.1401C96.3918 93.9215 96.9951 93.8122 97.7469 93.8122ZM97.7469 94.8351C97.3098 94.8351 96.9601 94.905 96.6978 95.0449C96.4443 95.1848 96.2607 95.4252 96.147 95.7662C96.0421 96.0984 95.9897 96.5661 95.9897 97.1694C95.9897 97.7726 96.0421 98.2447 96.147 98.5857C96.2607 98.9266 96.4443 99.167 96.6978 99.3069C96.9601 99.4381 97.3098 99.5036 97.7469 99.5036C98.1841 99.5036 98.5294 99.4381 98.7829 99.3069C99.0365 99.167 99.2157 98.9266 99.3206 98.5857C99.4255 98.2447 99.478 97.7726 99.478 97.1694C99.478 96.5661 99.4255 96.0984 99.3206 95.7662C99.2157 95.4252 99.0365 95.1848 98.7829 95.0449C98.5294 94.905 98.1841 94.8351 97.7469 94.8351ZM105.198 93.904C105.871 93.904 106.405 93.9521 106.798 94.0483C107.191 94.1444 107.476 94.3149 107.65 94.5597C107.834 94.8045 107.926 95.1542 107.926 95.6088C107.926 96.0634 107.817 96.4088 107.598 96.6448C107.379 96.8721 107.025 97.0076 106.536 97.0513V97.0907C107.13 97.1344 107.546 97.3005 107.782 97.589C108.026 97.8775 108.149 98.2797 108.149 98.7955C108.149 99.2326 108.061 99.5736 107.886 99.8184C107.712 100.054 107.436 100.221 107.06 100.317C106.684 100.413 106.186 100.461 105.565 100.461C105.102 100.461 104.695 100.457 104.346 100.448C104.005 100.448 103.69 100.439 103.402 100.422C103.122 100.413 102.825 100.4 102.51 100.382L102.667 99.4774C102.842 99.4861 103.17 99.4949 103.651 99.5036C104.14 99.5036 104.713 99.5036 105.369 99.5036C105.745 99.5036 106.042 99.4774 106.26 99.4249C106.488 99.3725 106.645 99.2763 106.732 99.1364C106.829 98.9878 106.877 98.7824 106.877 98.5201C106.877 98.1267 106.763 97.86 106.536 97.7201C106.308 97.5715 105.902 97.4972 105.316 97.4972H102.654V96.6448H105.316C105.657 96.6448 105.928 96.623 106.129 96.5792C106.339 96.5268 106.488 96.435 106.575 96.3039C106.671 96.164 106.719 95.9716 106.719 95.7268C106.719 95.4908 106.667 95.3116 106.562 95.1892C106.466 95.0668 106.304 94.9794 106.077 94.9269C105.849 94.8744 105.543 94.8482 105.159 94.8482C104.765 94.8395 104.416 94.8351 104.11 94.8351C103.804 94.8351 103.533 94.8395 103.297 94.8482C103.061 94.8482 102.851 94.857 102.667 94.8744L102.51 93.9827C102.79 93.9565 103.056 93.939 103.31 93.9302C103.563 93.9215 103.839 93.9171 104.136 93.9171C104.442 93.9084 104.796 93.904 105.198 93.904ZM103.703 93.9827V100.382H102.51V93.9827H103.703ZM112.917 93.8122C113.407 93.8122 113.818 93.8778 114.15 94.0089C114.482 94.1313 114.731 94.3455 114.897 94.6515C115.072 94.9575 115.16 95.3771 115.16 95.9104V100.369H114.163L113.966 98.9791L113.901 98.8217V95.9104C113.892 95.5345 113.8 95.2635 113.625 95.0974C113.459 94.9313 113.131 94.8482 112.642 94.8482C112.301 94.8482 111.877 94.8657 111.37 94.9007C110.871 94.9356 110.377 94.9706 109.888 95.0056L109.77 94.1007C110.067 94.0483 110.399 94.0002 110.767 93.9565C111.134 93.9128 111.505 93.8778 111.881 93.8516C112.257 93.8253 112.602 93.8122 112.917 93.8122ZM114.583 96.4219L114.57 97.3136L111.566 97.3267C111.269 97.3355 111.059 97.4142 110.937 97.5628C110.815 97.7027 110.753 97.8994 110.753 98.1529V98.5463C110.753 98.861 110.832 99.0927 110.989 99.2414C111.147 99.3812 111.387 99.4512 111.711 99.4512C111.955 99.4512 112.227 99.4075 112.524 99.32C112.83 99.2239 113.136 99.084 113.442 98.9004C113.748 98.7081 114.023 98.4676 114.268 98.1791V99.0053C114.189 99.1277 114.062 99.2763 113.888 99.4512C113.713 99.6173 113.499 99.779 113.245 99.9364C113 100.094 112.725 100.225 112.419 100.33C112.113 100.435 111.781 100.487 111.422 100.487C111.038 100.487 110.697 100.422 110.399 100.29C110.111 100.151 109.884 99.9495 109.717 99.6872C109.56 99.4162 109.481 99.0884 109.481 98.7037V98.0087C109.481 97.5103 109.639 97.1213 109.953 96.8415C110.277 96.5618 110.723 96.4219 111.291 96.4219H114.583ZM119.417 93.8909C119.907 93.8909 120.313 93.8953 120.637 93.904C120.96 93.904 121.249 93.9128 121.502 93.9302C121.756 93.939 122.018 93.9565 122.289 93.9827L122.132 94.9269C122.044 94.9094 121.756 94.8963 121.266 94.8876C120.785 94.8788 120.178 94.8744 119.443 94.8744C118.936 94.8744 118.6 94.9619 118.434 95.1367C118.276 95.3028 118.198 95.5782 118.198 95.9629C118.198 96.3825 118.281 96.6842 118.447 96.8677C118.622 97.0426 118.967 97.13 119.483 97.13H122.145L122.171 98.0218C122.066 98.0218 121.9 98.0261 121.673 98.0349C121.446 98.0349 121.148 98.0349 120.781 98.0349C120.414 98.0349 119.968 98.0349 119.443 98.0349C119.146 98.0349 118.91 98.0873 118.735 98.1922C118.56 98.2972 118.442 98.4545 118.381 98.6643L117.909 100.369H116.598L117.175 98.4414C117.236 98.2578 117.332 98.1092 117.463 97.9955C117.603 97.8819 117.756 97.7988 117.922 97.7464C118.097 97.6939 118.263 97.6589 118.421 97.6415V97.589C118.071 97.5278 117.787 97.4229 117.568 97.2743C117.358 97.1169 117.205 96.9158 117.109 96.671C117.013 96.4262 116.965 96.1377 116.965 95.8055C116.965 95.4908 117 95.2154 117.07 94.9794C117.149 94.7346 117.28 94.5335 117.463 94.3761C117.656 94.21 117.909 94.0876 118.224 94.0089C118.547 93.9302 118.945 93.8909 119.417 93.8909ZM122.289 93.9827V100.369H121.056V93.9827H122.289ZM93.4475 109.97C93.7623 109.97 93.9196 110.123 93.9196 110.429L94.1819 116.369H93.0017L92.7656 110.927H92.5558L91.0215 115.241C90.9865 115.372 90.9297 115.473 90.851 115.543C90.7723 115.613 90.663 115.648 90.5232 115.648H89.6445C89.5046 115.648 89.3954 115.613 89.3167 115.543C89.2467 115.473 89.1899 115.372 89.1462 115.241L87.6119 110.927H87.4021L87.1791 116.369H86.012L86.2612 110.429C86.2699 110.123 86.4316 109.97 86.7464 109.97H88.0053C88.1452 109.97 88.2501 110.005 88.32 110.074C88.3987 110.136 88.4555 110.236 88.4905 110.376L89.7232 113.904C89.7844 114.061 89.8325 114.214 89.8675 114.363C89.9112 114.511 89.9505 114.664 89.9855 114.822H90.1822C90.2259 114.656 90.2653 114.498 90.3002 114.35C90.3439 114.201 90.392 114.052 90.4445 113.904L91.6772 110.376C91.7559 110.105 91.922 109.97 92.1755 109.97H93.4475ZM98.7843 109.812C99.5361 109.812 100.135 109.922 100.581 110.14C101.027 110.359 101.35 110.717 101.551 111.215C101.752 111.705 101.853 112.356 101.853 113.169C101.853 113.991 101.752 114.651 101.551 115.15C101.35 115.639 101.027 115.993 100.581 116.212C100.135 116.43 99.5361 116.54 98.7843 116.54C98.0324 116.54 97.4292 116.43 96.9745 116.212C96.5287 115.993 96.2052 115.639 96.0041 115.15C95.803 114.651 95.7025 113.991 95.7025 113.169C95.7025 112.356 95.803 111.705 96.0041 111.215C96.2052 110.717 96.5287 110.359 96.9745 110.14C97.4292 109.922 98.0324 109.812 98.7843 109.812ZM98.7843 110.835C98.3471 110.835 97.9974 110.905 97.7352 111.045C97.4816 111.185 97.298 111.425 97.1844 111.766C97.0795 112.098 97.027 112.566 97.027 113.169C97.027 113.773 97.0795 114.245 97.1844 114.586C97.298 114.927 97.4816 115.167 97.7352 115.307C97.9974 115.438 98.3471 115.504 98.7843 115.504C99.2214 115.504 99.5667 115.438 99.8203 115.307C100.074 115.167 100.253 114.927 100.358 114.586C100.463 114.245 100.515 113.773 100.515 113.169C100.515 112.566 100.463 112.098 100.358 111.766C100.253 111.425 100.074 111.185 99.8203 111.045C99.5667 110.905 99.2214 110.835 98.7843 110.835ZM106.327 109.812C106.528 109.812 106.751 109.821 106.996 109.838C107.241 109.856 107.49 109.887 107.744 109.93C107.997 109.974 108.233 110.04 108.452 110.127L108.294 110.94C107.988 110.914 107.674 110.896 107.35 110.888C107.035 110.87 106.764 110.861 106.537 110.861C106.056 110.861 105.672 110.931 105.383 111.071C105.095 111.202 104.885 111.434 104.754 111.766C104.631 112.098 104.57 112.562 104.57 113.156C104.57 113.751 104.631 114.218 104.754 114.559C104.885 114.9 105.095 115.136 105.383 115.268C105.672 115.399 106.056 115.464 106.537 115.464C106.668 115.464 106.839 115.46 107.049 115.451C107.267 115.442 107.499 115.429 107.744 115.412C107.988 115.394 108.22 115.368 108.439 115.333L108.557 116.172C108.242 116.295 107.888 116.382 107.494 116.435C107.101 116.496 106.708 116.527 106.314 116.527C105.571 116.527 104.972 116.417 104.518 116.199C104.072 115.98 103.748 115.626 103.547 115.136C103.346 114.647 103.246 113.987 103.246 113.156C103.246 112.334 103.346 111.679 103.547 111.189C103.748 110.7 104.072 110.35 104.518 110.14C104.972 109.922 105.575 109.812 106.327 109.812ZM115.548 109.97C115.399 110.363 115.264 110.717 115.141 111.032C115.019 111.347 114.897 111.622 114.774 111.858C114.652 112.094 114.512 112.291 114.354 112.448C114.206 112.605 114.031 112.732 113.83 112.828C113.638 112.925 113.402 112.986 113.122 113.012V113.064C113.419 113.091 113.668 113.148 113.869 113.235C114.079 113.322 114.263 113.449 114.42 113.615C114.586 113.781 114.735 113.991 114.866 114.245C114.997 114.489 115.133 114.791 115.272 115.15C115.412 115.499 115.565 115.906 115.731 116.369H114.407C114.25 115.941 114.105 115.569 113.974 115.254C113.852 114.931 113.729 114.66 113.607 114.441C113.485 114.214 113.353 114.035 113.214 113.904C113.074 113.764 112.908 113.668 112.715 113.615C112.532 113.554 112.313 113.523 112.06 113.523V112.566C112.366 112.566 112.623 112.514 112.833 112.409C113.043 112.295 113.222 112.129 113.371 111.91C113.528 111.692 113.673 111.425 113.804 111.11C113.935 110.787 114.079 110.407 114.236 109.97H115.548ZM111.312 109.97V111.819C111.312 112.02 111.295 112.225 111.26 112.435C111.233 112.636 111.19 112.828 111.128 113.012C111.181 113.204 111.225 113.397 111.26 113.589C111.295 113.781 111.312 113.961 111.312 114.127V116.369H110.04V109.97H111.312ZM112.492 112.566V113.523H110.945V112.566H112.492ZM119.823 109.904C120.496 109.904 121.03 109.952 121.423 110.048C121.816 110.144 122.101 110.315 122.275 110.56C122.459 110.805 122.551 111.154 122.551 111.609C122.551 112.063 122.442 112.409 122.223 112.645C122.004 112.872 121.65 113.008 121.161 113.051V113.091C121.755 113.134 122.171 113.301 122.407 113.589C122.651 113.878 122.774 114.28 122.774 114.795C122.774 115.233 122.686 115.574 122.511 115.818C122.337 116.054 122.061 116.221 121.685 116.317C121.309 116.413 120.811 116.461 120.19 116.461C119.727 116.461 119.32 116.457 118.971 116.448C118.63 116.448 118.315 116.439 118.027 116.422C117.747 116.413 117.45 116.4 117.135 116.382L117.292 115.477C117.467 115.486 117.795 115.495 118.276 115.504C118.765 115.504 119.338 115.504 119.994 115.504C120.37 115.504 120.667 115.477 120.885 115.425C121.113 115.372 121.27 115.276 121.357 115.136C121.454 114.988 121.502 114.782 121.502 114.52C121.502 114.127 121.388 113.86 121.161 113.72C120.933 113.572 120.527 113.497 119.941 113.497H117.279V112.645H119.941C120.282 112.645 120.553 112.623 120.754 112.579C120.964 112.527 121.113 112.435 121.2 112.304C121.296 112.164 121.344 111.972 121.344 111.727C121.344 111.491 121.292 111.312 121.187 111.189C121.091 111.067 120.929 110.979 120.702 110.927C120.474 110.874 120.168 110.848 119.784 110.848C119.39 110.839 119.041 110.835 118.735 110.835C118.429 110.835 118.158 110.839 117.922 110.848C117.686 110.848 117.476 110.857 117.292 110.874L117.135 109.983C117.415 109.956 117.681 109.939 117.935 109.93C118.188 109.922 118.464 109.917 118.761 109.917C119.067 109.908 119.421 109.904 119.823 109.904ZM118.328 109.983V116.382H117.135V109.983H118.328ZM127.542 109.812C128.032 109.812 128.443 109.878 128.775 110.009C129.107 110.131 129.356 110.346 129.522 110.652C129.697 110.957 129.785 111.377 129.785 111.91V116.369H128.788L128.591 114.979L128.526 114.822V111.91C128.517 111.535 128.425 111.263 128.25 111.097C128.084 110.931 127.756 110.848 127.267 110.848C126.926 110.848 126.502 110.866 125.995 110.901C125.496 110.936 125.002 110.971 124.513 111.006L124.395 110.101C124.692 110.048 125.024 110 125.392 109.956C125.759 109.913 126.13 109.878 126.506 109.852C126.882 109.825 127.227 109.812 127.542 109.812ZM129.208 112.422L129.195 113.314L126.191 113.327C125.894 113.335 125.684 113.414 125.562 113.563C125.44 113.703 125.378 113.899 125.378 114.153V114.546C125.378 114.861 125.457 115.093 125.614 115.241C125.772 115.381 126.012 115.451 126.336 115.451C126.58 115.451 126.852 115.407 127.149 115.32C127.455 115.224 127.761 115.084 128.067 114.9C128.373 114.708 128.648 114.468 128.893 114.179V115.005C128.814 115.128 128.687 115.276 128.513 115.451C128.338 115.617 128.124 115.779 127.87 115.936C127.625 116.094 127.35 116.225 127.044 116.33C126.738 116.435 126.406 116.487 126.047 116.487C125.663 116.487 125.322 116.422 125.024 116.29C124.736 116.151 124.509 115.949 124.342 115.687C124.185 115.416 124.106 115.088 124.106 114.704V114.009C124.106 113.51 124.264 113.121 124.578 112.842C124.902 112.562 125.348 112.422 125.916 112.422H129.208Z" fill="white"/>
</svg>
