<svg width="81" height="141" viewBox="0 0 81 141" fill="none" xmlns="http://www.w3.org/2000/svg">
<path d="M33.8075 3.50503L33.7562 3.57085C32.5853 5.07179 31.9493 6.92088 31.9493 8.82452V9.64948C31.9493 11.6255 32.7358 13.5202 34.1351 14.9153C35.5344 16.3104 36.3209 18.2051 36.3209 20.1811V21.453V28.9247V32.0379V32.6526C36.3209 33.8124 35.6987 34.883 34.691 35.4571C33.1669 36.3254 32.6152 38.252 33.4488 39.7954L35.4228 43.4504C36.0123 44.5419 36.3209 45.7629 36.3209 47.0035V47.604V52.5851V54.0684C36.3209 55.893 35.5222 57.6261 34.1351 58.8115L33.1439 59.6586C32.3858 60.3064 31.9493 61.2536 31.9493 62.2508V63.7996C31.9493 64.8274 31.1161 65.6606 30.0883 65.6606C29.6754 65.6606 29.2742 65.7979 28.9479 66.0509L26.3644 68.0543C24.722 69.3279 22.7026 70.0191 20.6243 70.0191H18.21C17.2005 70.0191 15.5678 71.1488 14.2277 72.267C13.1097 73.1998 12.349 74.4739 11.8873 75.8549L10.5747 79.7809C10.2546 80.7384 10.0913 81.7414 10.0913 82.751V88.0757V93.6795V99.9059V101.304C10.0913 103.231 9.49741 105.11 8.39049 106.687L6.34514 109.6C5.93083 110.19 5.42554 110.711 4.8481 111.143L4.78954 111.186C3.76652 111.951 2.98858 112.998 2.55088 114.198L2.21493 115.119C1.34578 117.502 2.26465 120.168 4.41743 121.509L4.51901 121.573C5.30376 122.062 6.20988 122.321 7.13452 122.321C7.84824 122.321 8.55351 122.475 9.20189 122.774L14.4726 125.199C15.7006 125.764 17.0364 126.057 18.3882 126.057H18.6368C19.5951 126.057 20.5471 126.211 21.4565 126.513C25.1114 127.728 27.5777 131.146 27.5777 134.998V136.019C27.5777 137.53 28.4788 138.895 29.868 139.488L30.9147 139.936C31.5974 140.227 32.3321 140.378 33.0745 140.378H36.3209H43.1906H46.6709C47.6749 140.378 48.6723 140.216 49.6251 139.9L52.3689 138.988C53.3216 138.671 54.3191 138.51 55.323 138.51H60.0524H62.8139C64.2606 138.51 65.6645 138.018 66.7955 137.116C67.6958 136.398 68.3851 135.45 68.7906 134.372L69.7338 131.864C69.94 131.316 70.2234 130.8 70.5755 130.332L71.0055 129.761C72.6031 127.637 72.3915 124.661 70.5095 122.784C70.2008 122.477 69.931 122.132 69.7062 121.759L68.7665 120.197C68.377 119.55 68.1711 118.809 68.1711 118.053C68.1711 117.184 67.8991 116.337 67.3931 115.631L65.9192 113.574C65.353 112.784 65.0485 111.836 65.0485 110.864C65.0485 109.448 65.6933 108.109 66.8004 107.226L68.1711 106.132L70.0447 104.264L71.5276 102.539C72.9884 100.84 73.7917 98.6737 73.7917 96.4329V95.5474C73.7917 94.364 73.2652 93.242 72.355 92.4858L71.9182 92.1229C70.7313 91.1367 70.0447 89.6736 70.0447 88.1304V84.9625V80.4394C70.0447 79.3131 69.8415 78.196 69.445 77.1418L68.7312 75.2439C68.3605 74.2583 67.8262 73.3423 67.1509 72.5343L65.0485 70.0191L64.024 68.9976C63.0535 68.03 62.3071 66.8612 61.8375 65.5738L60.6195 62.2342C60.2444 61.2057 60.0524 60.1193 60.0524 59.0246V56.9436C60.0524 55.4458 60.9823 54.1054 62.3853 53.5808L64.0155 52.9713C64.6987 52.7159 65.4221 52.5851 66.1514 52.5851H73.7917H73.9486C76.4843 52.5851 78.7544 51.0135 79.6471 48.6402C79.9048 47.955 80.0369 47.2289 80.0369 46.4969V42.6228V38.7224C80.0369 37.5961 79.8337 36.479 79.4372 35.4248L78.6663 33.3753C78.3329 32.4888 77.867 31.6581 77.2845 30.9114L74.4136 27.2313C74.0002 26.7014 73.531 26.2175 73.0141 25.7881L70.0447 23.3209C69.0038 22.2832 66.5474 19.9587 65.0485 18.9625C63.175 17.7172 61.3015 15.2266 60.0524 14.604C58.8034 13.9813 55.6808 9.62283 53.8073 7.7549C52.5586 6.50993 50.3562 5.17852 48.9337 4.40878C48.4401 4.14171 47.9606 3.85 47.5112 3.51393L45.4197 1.95004C43.9726 0.867945 42.2141 0.283203 40.4072 0.283203C37.8284 0.283203 35.3937 1.47182 33.8075 3.50503Z" fill="#5C5C5C" fill-opacity="0.9"/>
<path d="M17.5786 115.035L26.3206 117.371L25.9802 118.637L17.2382 116.302L17.5786 115.035ZM18.6542 111.033L19.655 111.301L18.5523 115.404L17.5514 115.137L18.6542 111.033ZM18.9571 109.906L27.6991 112.242L27.3587 113.508L18.6167 111.173L18.9571 109.906ZM22.7149 105.524C22.842 105.051 23.012 104.671 23.2249 104.384C23.4294 104.095 23.701 103.909 24.0397 103.828C24.3807 103.738 24.8089 103.762 25.3241 103.9L29.6317 105.05L29.3731 106.013L27.979 105.844L27.81 105.867L24.9973 105.115C24.6319 105.027 24.3462 105.045 24.1404 105.171C23.9368 105.289 23.7714 105.584 23.6444 106.057C23.5559 106.386 23.4627 106.8 23.3649 107.299C23.2693 107.789 23.1749 108.275 23.0816 108.757L22.1768 108.638C22.2033 108.337 22.243 108.004 22.2961 107.638C22.3492 107.272 22.4118 106.904 22.4841 106.534C22.5563 106.165 22.6333 105.828 22.7149 105.524ZM25.6684 104.589L26.5266 104.832L25.7598 107.735C25.6911 108.025 25.7127 108.247 25.8245 108.404C25.9279 108.558 26.102 108.668 26.347 108.734L26.727 108.835C27.0311 108.916 27.2754 108.9 27.4598 108.787C27.6358 108.671 27.7658 108.457 27.8497 108.144C27.9132 107.908 27.9414 107.635 27.934 107.325C27.9205 107.005 27.8648 106.673 27.7669 106.33C27.6605 105.985 27.4997 105.657 27.2845 105.346L28.0827 105.56C28.1805 105.667 28.2912 105.828 28.4147 106.042C28.5298 106.254 28.6305 106.502 28.7167 106.788C28.8052 107.065 28.8604 107.364 28.8824 107.687C28.9043 108.01 28.8688 108.344 28.7757 108.69C28.6759 109.062 28.524 109.374 28.3202 109.627C28.1102 109.87 27.8569 110.037 27.5604 110.13C27.2577 110.212 26.9206 110.203 26.5489 110.104L25.8774 109.925C25.396 109.796 25.061 109.544 24.8724 109.168C24.6861 108.783 24.6666 108.316 24.8141 107.768L25.6684 104.589ZM24.5894 98.9028C24.7641 98.2527 24.949 97.7501 25.144 97.395C25.339 97.0398 25.5775 96.8095 25.8593 96.7038C26.1435 96.5896 26.5052 96.5913 26.9444 96.7086C27.3836 96.8259 27.6889 97.0206 27.8602 97.2926C28.0231 97.5623 28.0621 97.9392 27.9773 98.4233L28.0153 98.4335C28.2118 97.8706 28.4801 97.5125 28.82 97.359C29.1623 97.197 29.5826 97.1826 30.0809 97.3158C30.5033 97.4286 30.81 97.601 31.0011 97.833C31.1838 98.0628 31.2728 98.3716 31.2681 98.7595C31.2634 99.1474 31.1806 99.641 31.0195 100.24C30.8992 100.688 30.7895 101.079 30.6903 101.415C30.6018 101.744 30.5116 102.046 30.4199 102.32C30.3388 102.588 30.249 102.872 30.1504 103.171L29.317 102.785C29.3709 102.619 29.4644 102.305 29.5977 101.842C29.7247 101.37 29.8734 100.817 30.0435 100.183C30.1411 99.8203 30.1929 99.5265 30.199 99.3019C30.2073 99.0688 30.1552 98.892 30.0428 98.7715C29.9241 98.6403 29.7381 98.5408 29.4847 98.4731C29.1046 98.3716 28.8175 98.4125 28.6234 98.5959C28.4208 98.7771 28.2435 99.1505 28.0915 99.7162L27.4005 102.287L26.577 102.067L27.268 99.4962C27.3565 99.1669 27.4057 98.8995 27.4156 98.6941C27.4194 98.4779 27.3693 98.3107 27.2653 98.1924C27.1551 98.0634 26.9818 97.9674 26.7453 97.9042C26.5172 97.8433 26.3305 97.8477 26.185 97.9174C26.0418 97.9787 25.9153 98.1123 25.8057 98.3183C25.696 98.5243 25.5912 98.813 25.4914 99.1845C25.3808 99.5622 25.2858 99.8987 25.2064 100.194C25.127 100.49 25.0609 100.753 25.0081 100.983C24.9468 101.211 24.9008 101.416 24.87 101.597L23.9677 101.519C24.0149 101.242 24.0673 100.98 24.1246 100.733C24.182 100.486 24.2492 100.219 24.3264 99.932C24.3973 99.6342 24.485 99.2912 24.5894 98.9028ZM24.2774 100.367L30.4601 102.019L30.1504 103.171L23.9677 101.519L24.2774 100.367ZM27.2212 89.3629L28.1461 89.61L27.5266 91.9149C27.4585 92.1682 27.4635 92.3686 27.5415 92.5162C27.6218 92.6552 27.7968 92.7789 28.0665 92.8871C28.4183 93.0264 28.7806 93.1774 29.1532 93.3403C29.5197 93.4925 29.8712 93.6498 30.2078 93.8121C30.5382 93.9637 30.8292 94.1274 31.0807 94.3032C31.3744 94.4903 31.6008 94.7091 31.7597 94.9597C31.921 95.2018 32.016 95.4715 32.0447 95.7688C32.065 96.0638 32.0287 96.3844 31.9356 96.7305L30.9767 96.6101C30.9766 96.3748 30.9609 96.1806 30.9296 96.0274C30.9006 95.8658 30.8457 95.7335 30.7647 95.6304C30.6776 95.5167 30.566 95.4099 30.4298 95.3102C30.2644 95.1846 30.0618 95.0626 29.8221 94.9443C29.5846 94.8175 29.3352 94.7011 29.074 94.5951C28.8066 94.4784 28.5412 94.3713 28.2777 94.2738C28.0081 94.1656 27.7626 94.0683 27.5414 93.9821C27.0842 93.7966 26.7673 93.5445 26.5904 93.2258C26.4051 92.9048 26.3816 92.4868 26.52 91.9718L27.2212 89.3629ZM27.2654 89.1983L33.4482 90.85L33.118 92.0784L26.9353 90.4267L27.2654 89.1983ZM28.3569 84.5306C28.5521 83.8045 28.8131 83.2544 29.14 82.8802C29.4669 82.506 29.8971 82.2861 30.4307 82.2205C30.9559 82.1527 31.6113 82.2237 32.3968 82.4336C33.1907 82.6457 33.8024 82.9131 34.2316 83.2359C34.6524 83.5565 34.9105 83.9603 35.006 84.4473C35.1014 84.9343 35.0515 85.5408 34.8564 86.2669C34.6613 86.993 34.3991 87.5473 34.07 87.93C33.7431 88.3042 33.3171 88.5252 32.7919 88.593C32.2582 88.6586 31.5944 88.5853 30.8005 88.3732C30.015 88.1633 29.4118 87.8981 28.991 87.5776C28.5618 87.2548 28.2994 86.8499 28.204 86.3629C28.1108 85.8675 28.1618 85.2567 28.3569 84.5306ZM29.3452 84.7946C29.2317 85.2167 29.2085 85.5725 29.2756 85.8619C29.3449 86.1428 29.5295 86.3822 29.8295 86.58C30.1232 86.767 30.5615 86.9384 31.1443 87.0941C31.7271 87.2498 32.1968 87.321 32.5534 87.3076C32.9123 87.2859 33.1922 87.1706 33.3932 86.9619C33.5879 86.7425 33.7421 86.4217 33.8555 85.9995C33.969 85.5774 33.9953 85.2269 33.9344 84.9483C33.865 84.6673 33.6793 84.4322 33.3771 84.2429C33.0749 84.0535 32.6324 83.881 32.0496 83.7253C31.4668 83.5697 31.0013 83.4996 30.6531 83.5152C30.2965 83.5285 30.0177 83.6395 29.8168 83.8483C29.6158 84.057 29.4586 84.3724 29.3452 84.7946ZM30.3796 77.3584C30.5543 76.7083 30.7391 76.2057 30.9342 75.8506C31.1292 75.4955 31.3676 75.2651 31.6495 75.1594C31.9337 75.0453 32.2953 75.0469 32.7345 75.1642C33.1738 75.2815 33.479 75.4762 33.6503 75.7482C33.8132 76.0179 33.8522 76.3949 33.7674 76.8789L33.8054 76.8891C34.0019 76.3263 34.2702 75.9681 34.6102 75.8146C34.9525 75.6526 35.3728 75.6382 35.8711 75.7714C36.2934 75.8842 36.6001 76.0566 36.7913 76.2887C36.9739 76.5184 37.0629 76.8273 37.0583 77.2151C37.0536 77.603 36.9707 78.0967 36.8096 78.6961C36.6894 79.1436 36.5796 79.5351 36.4804 79.8705C36.3919 80.1998 36.3018 80.5015 36.21 80.7756C36.129 81.0435 36.0391 81.3272 35.9406 81.6266L35.1072 81.2411C35.161 81.0745 35.2546 80.7601 35.3878 80.298C35.5149 79.8252 35.6635 79.2722 35.8337 78.639C35.9313 78.276 35.9831 77.9821 35.9891 77.7575C35.9974 77.5245 35.9454 77.3477 35.8329 77.2271C35.7143 77.0959 35.5283 76.9964 35.2749 76.9287C34.8948 76.8272 34.6077 76.8681 34.4136 77.0516C34.211 77.2327 34.0337 77.6061 33.8816 78.1718L33.1907 80.7427L32.3672 80.5227L33.0581 77.9518C33.1466 77.6225 33.1958 77.3552 33.2058 77.1497C33.2096 76.9335 33.1595 76.7663 33.0555 76.648C32.9453 76.5191 32.7719 76.423 32.5354 76.3598C32.3074 76.2989 32.1206 76.3033 31.9751 76.373C31.8319 76.4343 31.7055 76.5679 31.5958 76.7739C31.4861 76.9799 31.3814 77.2686 31.2815 77.6401C31.171 78.0178 31.076 78.3544 30.9966 78.6499C30.9172 78.9454 30.851 79.2082 30.7982 79.4384C30.737 79.6664 30.691 79.8713 30.6602 80.0531L29.7578 79.9749C29.8051 79.698 29.8574 79.436 29.9148 79.1889C29.9721 78.9418 30.0394 78.6747 30.1165 78.3876C30.1875 78.0899 30.2752 77.7468 30.3796 77.3584ZM30.0676 78.8225L36.2503 80.4742L35.9406 81.6266L29.7578 79.9749L30.0676 78.8225ZM32.2093 70.1965C32.4044 69.4704 32.6654 68.9203 32.9923 68.5461C33.3192 68.1719 33.7495 67.9521 34.2831 67.8865C34.8083 67.8187 35.4636 67.8897 36.2491 68.0995C37.0431 68.3116 37.6547 68.5791 38.084 68.9019C38.5048 69.2224 38.7629 69.6262 38.8583 70.1132C38.9538 70.6002 38.9039 71.2067 38.7088 71.9328C38.5136 72.6589 38.2515 73.2133 37.9223 73.5959C37.5954 73.9701 37.1694 74.1911 36.6442 74.2589C36.1106 74.3245 35.4468 74.2512 34.6528 74.0391C33.8673 73.8293 33.2642 73.5641 32.8434 73.2435C32.4141 72.9207 32.1518 72.5158 32.0563 72.0288C31.9632 71.5334 32.0141 70.9226 32.2093 70.1965ZM33.1975 70.4605C33.0841 70.8827 33.0609 71.2384 33.1279 71.5278C33.1973 71.8088 33.3819 72.0481 33.6818 72.2459C33.9755 72.433 34.4138 72.6043 34.9966 72.76C35.5794 72.9157 36.0491 72.9869 36.4058 72.9736C36.7647 72.9518 37.0446 72.8366 37.2455 72.6278C37.4403 72.4084 37.5944 72.0876 37.7079 71.6654C37.8213 71.2433 37.8476 70.8929 37.7867 70.6142C37.7174 70.3332 37.5316 70.0981 37.2294 69.9088C36.9273 69.7195 36.4848 69.547 35.902 69.3913C35.3192 69.2356 34.8537 69.1655 34.5055 69.1811C34.1488 69.1944 33.8701 69.3054 33.6691 69.5142C33.4682 69.7229 33.311 70.0384 33.1975 70.4605ZM38.773 118.132L39.6598 118.369L38.6251 122.219L37.7383 121.982L38.773 118.132ZM38.9417 107.399L45.1245 109.05L44.8011 110.253L38.6184 108.602L38.9417 107.399ZM37.8083 111.616L43.9911 113.268L43.6711 114.458L37.4884 112.806L37.8083 111.616ZM38.649 108.488L39.5958 108.754L38.7415 111.933L37.7913 111.679L38.649 108.488ZM40.029 102.747C40.2241 102.021 40.4851 101.471 40.812 101.096C41.1389 100.722 41.5692 100.502 42.1028 100.437C42.628 100.369 43.2833 100.44 44.0688 100.65C44.8628 100.862 45.4744 101.129 45.9036 101.452C46.3245 101.773 46.5826 102.176 46.678 102.663C46.7734 103.15 46.7236 103.757 46.5284 104.483C46.3333 105.209 46.0712 105.764 45.742 106.146C45.4151 106.52 44.9891 106.741 44.4639 106.809C43.9303 106.875 43.2665 106.802 42.4725 106.589C41.687 106.38 41.0839 106.114 40.663 105.794C40.2338 105.471 39.9715 105.066 39.876 104.579C39.7829 104.084 39.8338 103.473 40.029 102.747ZM41.0172 103.011C40.9037 103.433 40.8806 103.789 40.9476 104.078C41.017 104.359 41.2016 104.598 41.5015 104.796C41.7952 104.983 42.2335 105.155 42.8163 105.31C43.3991 105.466 43.8688 105.537 44.2254 105.524C44.5844 105.502 44.8643 105.387 45.0652 105.178C45.26 104.959 45.4141 104.638 45.5276 104.216C45.641 103.794 45.6673 103.443 45.6064 103.164C45.5371 102.884 45.3513 102.648 45.0491 102.459C44.7469 102.27 44.3045 102.097 43.7217 101.942C43.1389 101.786 42.6734 101.716 42.3252 101.731C41.9685 101.745 41.6897 101.856 41.4888 102.064C41.2879 102.273 41.1307 102.589 41.0172 103.011ZM41.9867 95.4623C42.0389 95.2681 42.1052 95.0551 42.1857 94.8232C42.2661 94.5913 42.3603 94.3586 42.4683 94.125C42.5764 93.8914 42.701 93.6804 42.8422 93.4919L43.5869 93.8537C43.4821 94.1424 43.3835 94.4419 43.2911 94.752C43.1925 95.0514 43.1137 95.3109 43.0548 95.5304C42.93 95.9948 42.8977 96.3843 42.9579 96.6991C43.0098 97.0115 43.1791 97.2739 43.4661 97.4863C43.7552 97.6903 44.187 97.869 44.7614 98.0224C45.3357 98.1758 45.8035 98.2375 46.1647 98.2073C46.5281 98.1686 46.8106 98.0269 47.0122 97.7821C47.2138 97.5374 47.377 97.1828 47.5018 96.7184C47.5358 96.5918 47.5758 96.426 47.6218 96.2211C47.6701 96.0078 47.7176 95.7807 47.7642 95.5398C47.8109 95.2989 47.8456 95.0683 47.8686 94.8482L48.7101 94.9509C48.7466 95.2864 48.7392 95.6509 48.6878 96.0444C48.6448 96.4401 48.5722 96.828 48.4701 97.2079C48.2773 97.9255 48.0162 98.4757 47.6871 98.8583C47.3602 99.2325 46.9342 99.4535 46.409 99.5213C45.8838 99.5891 45.22 99.5159 44.4176 99.3015C43.6237 99.0894 43.0163 98.8231 42.5955 98.5025C42.1747 98.182 41.9208 97.7793 41.8338 97.2946C41.7406 96.7992 41.7916 96.1884 41.9867 95.4623ZM43.7536 88.888C43.8807 88.4152 44.0507 88.0353 44.2636 87.7483C44.4681 87.459 44.7397 87.2737 45.0784 87.1923C45.4194 87.1024 45.8475 87.1262 46.3628 87.2639L50.6704 88.4147L50.4117 89.3772L49.0177 89.2084L48.8486 89.2311L46.036 88.4797C45.6705 88.3911 45.3849 88.4098 45.179 88.5358C44.9754 88.6533 44.8101 88.9485 44.683 89.4213C44.5945 89.7506 44.5014 90.1646 44.4036 90.6633C44.308 91.1536 44.2136 91.6396 44.1203 92.1215L43.2155 92.0019C43.2419 91.7013 43.2817 91.3681 43.3348 91.0022C43.3879 90.6363 43.4505 90.2684 43.5227 89.8986C43.595 89.5288 43.6719 89.1919 43.7536 88.888ZM46.7071 87.9531L47.5652 88.1959L46.7985 91.0995C46.7298 91.3888 46.7513 91.6117 46.8632 91.7683C46.9665 91.9226 47.1407 92.0325 47.3856 92.0979L47.7657 92.1994C48.0698 92.2807 48.314 92.2645 48.4985 92.1509C48.6745 92.035 48.8044 91.8209 48.8884 91.5085C48.9519 91.2721 48.98 90.9991 48.9727 90.6894C48.9592 90.3691 48.9035 90.0375 48.8055 89.6946C48.6991 89.3495 48.5383 89.0215 48.3231 88.7106L49.1213 88.9238C49.2191 89.0314 49.3298 89.1922 49.4534 89.4062C49.5685 89.6179 49.6691 89.8665 49.7554 90.152C49.8439 90.429 49.8991 90.7288 49.921 91.0514C49.943 91.374 49.9074 91.7083 49.8144 92.0545C49.7146 92.426 49.5627 92.7383 49.3589 92.9915C49.1488 93.2341 48.8956 93.4017 48.5991 93.4944C48.2964 93.5764 47.9592 93.5678 47.5876 93.4685L46.9161 93.2891C46.4347 93.1605 46.0997 92.9081 45.9111 92.532C45.7247 92.1474 45.7053 91.6807 45.8528 91.1319L46.7071 87.9531ZM46.3653 79.7765L47.2775 80.0201L46.6717 82.2744C46.5492 82.7303 46.7229 83.0437 47.193 83.2145C47.8045 83.4322 48.3603 83.6712 48.8607 83.9315C49.3549 84.1812 49.807 84.4694 50.2171 84.7961C50.621 85.1121 50.993 85.4966 51.333 85.9493L51.0641 86.9498C50.6542 86.4874 50.2167 86.0945 49.7514 85.7712C49.2776 85.4455 48.7841 85.1598 48.2707 84.9141C47.7596 84.6599 47.2341 84.4426 46.6942 84.2622C46.2241 84.0914 45.906 83.8435 45.7398 83.5186C45.5737 83.1937 45.5575 82.7821 45.6914 82.284L46.3653 79.7765ZM51.1913 86.2237L53.0358 86.8386L52.8214 87.6365L50.9463 87.1355L51.1913 86.2237ZM51.8862 80.1519L52.8238 80.4023L51.0096 87.1525L50.0721 86.902L51.8862 80.1519ZM52.7604 80.3854L54.6355 80.8863L54.4177 81.6968L52.5119 81.3099L52.7604 80.3854ZM46.4062 79.6245L52.5889 81.2762L52.2758 82.4413L46.093 80.7896L46.4062 79.6245ZM47.5741 74.6723C47.6263 74.4781 47.6926 74.2651 47.7731 74.0332C47.8535 73.8013 47.9477 73.5686 48.0557 73.335C48.1638 73.1015 48.2884 72.8904 48.4296 72.7019L49.1743 73.0637C49.0695 73.3525 48.9709 73.6519 48.8785 73.962C48.7799 74.2615 48.7011 74.521 48.6422 74.7405C48.5174 75.2048 48.4851 75.5944 48.5453 75.9091C48.5972 76.2216 48.7665 76.484 49.0535 76.6964C49.3427 76.9003 49.7744 77.079 50.3488 77.2324C50.9231 77.3859 51.3909 77.4475 51.7521 77.4173C52.1155 77.3787 52.398 77.2369 52.5996 76.9922C52.8012 76.7474 52.9644 76.3928 53.0892 75.9285C53.1232 75.8018 53.1632 75.6361 53.2092 75.4312C53.2575 75.2178 53.305 74.9907 53.3516 74.7498C53.3983 74.5089 53.433 74.2784 53.456 74.0583L54.2975 74.1609C54.334 74.4965 54.3266 74.861 54.2752 75.2544C54.2322 75.6502 54.1596 76.038 54.0575 76.4179C53.8647 77.1356 53.6036 77.6857 53.2745 78.0683C52.9476 78.4425 52.5216 78.6635 51.9964 78.7314C51.4712 78.7992 50.8074 78.7259 50.005 78.5116C49.2111 78.2995 48.6037 78.0331 48.1829 77.7126C47.7621 77.392 47.5082 76.9894 47.4212 76.5046C47.328 76.0092 47.379 75.3984 47.5741 74.6723ZM50.1193 65.8084C50.4608 66.0534 50.7677 66.2757 51.04 66.4751C51.3123 66.6746 51.5466 66.8638 51.7429 67.043C51.9392 67.2221 52.0929 67.4079 52.2041 67.6005C52.3176 67.7847 52.3947 67.9862 52.4354 68.2053C52.4784 68.4158 52.4762 68.6596 52.429 68.9365L52.4797 68.9501C52.5821 68.6698 52.7017 68.4438 52.8384 68.2722C52.9773 68.0921 53.1474 67.9475 53.3487 67.8384C53.5523 67.7209 53.7936 67.6315 54.0726 67.5703C54.3431 67.5068 54.6697 67.4538 55.0523 67.4112C55.4265 67.3664 55.8589 67.3236 56.3497 67.2828L56.0059 68.5619C55.5512 68.6033 55.1548 68.6467 54.8167 68.6921C54.4724 68.7268 54.1788 68.7751 53.9359 68.8369C53.6845 68.8964 53.4773 68.9768 53.3143 69.078C53.1429 69.177 53.0069 69.3126 52.9063 69.4848C52.7995 69.6463 52.7132 69.8495 52.6474 70.0943L51.7225 69.8473C51.8019 69.5518 51.8182 69.2892 51.7713 69.0594C51.716 68.8275 51.602 68.6115 51.4294 68.4116C51.2591 68.2032 51.0389 67.9951 50.7689 67.7872C50.4904 67.5771 50.1604 67.3396 49.779 67.0748L50.1193 65.8084ZM49.0199 69.899L50.8063 70.3762C51.0006 70.4281 51.1946 70.498 51.3882 70.5859C51.5757 70.6632 51.7501 70.755 51.9116 70.8615C52.1111 70.8605 52.3082 70.8679 52.5031 70.8838C52.698 70.8997 52.8757 70.929 53.0362 70.9719L55.2027 71.5507L54.8725 72.7791L48.6898 71.1274L49.0199 69.899ZM51.8348 69.4293L52.7597 69.6764L52.3581 71.1708L51.4332 70.9237L51.8348 69.4293ZM52.022 58.7288L58.2047 60.3804L57.9086 61.4822L53.9684 60.4296C53.8248 60.3913 53.6866 60.3498 53.5537 60.3053C53.4208 60.2607 53.2764 60.2086 53.1205 60.1488L53.1103 60.1868C53.2233 60.2713 53.3403 60.375 53.4612 60.4978C53.576 60.6098 53.6738 60.7174 53.7547 60.8205L56.9896 64.9016L56.7139 65.9275L50.5312 64.2758L50.8273 63.174L54.7802 64.23C54.9154 64.2661 55.0494 64.3064 55.1822 64.3509C55.3174 64.387 55.4629 64.435 55.6189 64.4947L55.6257 64.4694C55.5087 64.3658 55.3971 64.259 55.2908 64.1492C55.1761 64.0371 55.0825 63.9306 55.01 63.8298L51.7497 59.7419L52.022 58.7288ZM54.0329 51.2463L60.2157 52.898L59.9195 53.9998L55.9793 52.9472C55.8357 52.9089 55.6975 52.8674 55.5646 52.8229C55.4318 52.7783 55.2873 52.7262 55.1314 52.6664L55.1212 52.7044C55.2343 52.7889 55.3513 52.8926 55.4722 53.0154C55.5869 53.1274 55.6847 53.235 55.7656 53.3381L59.0006 57.4192L58.7249 58.4451L52.5421 56.7934L52.8383 55.6916L56.7911 56.7476C56.9263 56.7837 57.0603 56.824 57.1932 56.8685C57.3283 56.9046 57.4739 56.9526 57.6298 57.0123L57.6366 56.987C57.5196 56.8834 57.408 56.7766 57.3017 56.6668C57.187 56.5547 57.0934 56.4482 57.0209 56.3474L53.7606 52.2595L54.0329 51.2463ZM50.8105 52.2722L51.0488 51.3857C51.3957 51.4422 51.6839 51.5825 51.9133 51.8067C52.1343 52.0286 52.2896 52.3099 52.3791 52.6506C52.4602 52.9889 52.4451 53.365 52.3339 53.7787C52.2205 54.2008 52.0427 54.5424 51.8005 54.8035C51.5521 55.0539 51.2766 55.2201 50.9739 55.3021C50.6628 55.3819 50.3417 55.364 50.0107 55.2484L50.2523 54.3492C50.6217 54.4569 50.9285 54.4439 51.1727 54.31C51.4084 54.1739 51.5717 53.937 51.6624 53.5993C51.7509 53.27 51.7261 52.9919 51.5879 52.765C51.4413 52.5358 51.1822 52.3715 50.8105 52.2722Z" fill="white"/>
</svg>
