<svg width="103" height="136" viewBox="0 0 103 136" fill="none" xmlns="http://www.w3.org/2000/svg">
<path d="M31.5885 5.60378H27.3394C24.5312 5.60378 21.9082 7.00521 20.3472 9.33963L15.9756 17.434L12.4847 23.4005C11.9026 24.3954 11.1418 25.2743 10.2407 25.9931L6.00942 29.3679C5.57659 29.7132 5.17522 30.0961 4.81003 30.5122L2.35178 33.3132C1.47228 34.3153 0.987305 35.6032 0.987305 36.9365C0.987305 38.0235 1.30984 39.0861 1.91407 39.9898L2.28177 40.5397C3.06879 41.7167 4.16616 42.6529 5.4524 43.2448L9.53504 45.1234C10.8946 45.749 12.0844 46.6913 13.0049 47.8712L13.9941 49.1392C15.2782 50.7853 15.9756 52.8131 15.9756 54.9008V59.7736V65.9966C15.9756 67.6308 15.5481 69.2366 14.7354 70.6544L14.2417 71.5159C13.7357 72.3988 13.0891 73.1933 12.3275 73.8683L11.0113 75.0348C9.00527 76.8126 7.85696 79.3646 7.85696 82.045V82.3533C7.85696 83.4796 8.06009 84.5967 8.45662 85.6509L9.7305 89.0378L13.1456 101.522C13.3659 102.328 13.4776 103.159 13.4776 103.994V112.698V116.157C13.4776 117.342 12.5172 118.302 11.3325 118.302C9.73672 118.302 8.6889 119.993 9.20304 121.504C9.50759 122.399 9.7305 123.274 9.7305 123.906C9.7305 125.774 5.3589 129.509 3.48536 132C2.39611 133.448 3.61404 135.175 5.38598 134.796L9.30837 133.958C9.58901 133.898 9.87518 133.868 10.1622 133.868H13.4776H18.3931C19.6445 133.868 20.8449 133.372 21.7311 132.488L22.1437 132.077C23.6108 130.614 25.942 130.485 27.5616 131.777C27.7478 131.925 27.9447 132.057 28.1548 132.169C30.5663 133.457 35.2974 135.736 37.2091 135.736C40.0666 135.736 38.1719 130.44 39.6728 128.009L39.8835 127.667C41.3266 125.329 43.8779 123.906 46.6255 123.906H49.6994H50.3412C53.436 123.906 55.9445 121.397 55.9445 118.302V110.985C55.9445 110.468 55.9016 109.951 55.8163 109.441L54.9838 104.461C54.7936 103.323 54.8403 102.158 55.1208 101.04L55.5911 99.1643C55.8178 98.2601 56.3867 97.4792 57.1779 96.9862C59.1171 95.7778 61.6768 96.6601 62.4598 98.8066L62.7892 99.7099C63.2036 100.846 64.0695 101.76 65.1816 102.235L70.4187 104.473C71.5821 104.97 72.8341 105.226 74.0992 105.226H76.8433C79.0746 105.226 81.2325 104.43 82.9288 102.98L84.6721 101.491C87.1702 99.4151 92.1663 95.1397 92.1663 94.6415C92.1663 94.336 93.4197 93.7024 94.7732 93.1145C96.3198 92.4426 97.7195 91.4568 98.7748 90.1416L99.2681 89.5267C99.529 89.2017 99.7547 88.8499 99.9415 88.4774L100.409 87.545C101.422 85.5262 100.842 83.0721 99.0332 81.7197L98.6424 81.4274C97.7109 80.7309 97.1624 79.6359 97.1624 78.4728V76.0231C97.1624 73.8121 94.5599 72.6289 92.8939 74.0823C92.4248 74.4915 91.8233 74.717 91.2008 74.717H89.2739C86.439 74.717 83.8325 73.1624 82.4854 70.668L81.4258 68.7061C80.6872 67.3386 80.3005 65.8089 80.3005 64.2548V62.7336C80.3005 60.8072 80.8945 58.9277 82.0014 57.3511L83.7204 54.9028C84.3398 54.0206 84.6721 52.9688 84.6721 51.8908C84.6721 50.1954 83.8521 48.6047 82.4711 47.6212L80.3005 46.0755L75.395 42.8149C74.9193 42.4987 74.4156 42.2267 73.8904 42.0023L67.4957 39.2699C66.4783 38.8352 65.6093 38.1142 64.9944 37.1945C64.0131 35.727 63.7663 33.8879 64.3261 32.2136L65.4221 28.9354C65.7605 27.9232 66.3302 27.0039 67.086 26.2504C67.9685 25.3705 68.5949 24.267 68.898 23.0583L69.2443 21.6775C69.886 19.1181 68.8941 16.4268 66.7447 14.8962C66.2092 14.5148 65.7388 14.0521 65.3308 13.5367C63.9503 11.7931 61.7995 9.33963 60.9406 9.33963C60.2779 9.33963 58.8461 6.60096 57.5925 3.8481C56.5443 1.54649 54.287 0 51.7579 0C50.4215 0 49.121 0.432469 48.0507 1.23277L44.6998 3.73846C43.0803 4.9494 41.1125 5.60378 39.0904 5.60378H31.5885Z" fill="#5C5C5C" fill-opacity="0.9"/>
<path d="M28.9489 61.4446V70.4932H27.6376V62.4806H25.9065C25.5918 62.4806 25.3645 62.5506 25.2246 62.6904C25.0847 62.8216 25.006 63.0445 24.9886 63.3592C24.9536 63.9712 24.9055 64.5482 24.8443 65.0903C24.7831 65.6236 24.7088 66.1306 24.6214 66.6115C24.5339 67.0836 24.4203 67.5426 24.2804 67.9884C24.1405 68.4255 23.9744 68.8496 23.7821 69.2605C23.5985 69.6714 23.3756 70.0823 23.1133 70.4932H21.9199C22.357 69.7588 22.698 68.9894 22.9428 68.1851C23.1876 67.3808 23.3712 66.5546 23.4936 65.7066C23.616 64.8586 23.699 64.0106 23.7427 63.1625C23.769 62.6292 23.9438 62.2096 24.2673 61.9036C24.5995 61.5976 25.0498 61.4446 25.618 61.4446H28.9489ZM22.6018 70.4014L22.4707 72.4734H21.5527V70.4014H22.6018ZM30.0767 69.4572V70.4932H21.5527V69.4572H30.0767ZM30.0767 70.4014V72.4734H29.1588L29.0538 70.4014H30.0767ZM34.2492 63.9362C35.001 63.9362 35.5999 64.0455 36.0458 64.2641C36.4916 64.4827 36.8151 64.8411 37.0162 65.3394C37.2173 65.829 37.3178 66.4803 37.3178 67.2934C37.3178 68.1152 37.2173 68.7753 37.0162 69.2736C36.8151 69.7632 36.4916 70.1172 36.0458 70.3358C35.5999 70.5544 35.001 70.6636 34.2492 70.6636C33.4973 70.6636 32.8941 70.5544 32.4395 70.3358C31.9936 70.1172 31.6701 69.7632 31.469 69.2736C31.268 68.7753 31.1674 68.1152 31.1674 67.2934C31.1674 66.4803 31.268 65.829 31.469 65.3394C31.6701 64.8411 31.9936 64.4827 32.4395 64.2641C32.8941 64.0455 33.4973 63.9362 34.2492 63.9362ZM34.2492 64.9591C33.8121 64.9591 33.4624 65.0291 33.2001 65.1689C32.9465 65.3088 32.7629 65.5492 32.6493 65.8902C32.5444 66.2224 32.4919 66.6902 32.4919 67.2934C32.4919 67.8966 32.5444 68.3687 32.6493 68.7097C32.7629 69.0506 32.9465 69.2911 33.2001 69.4309C33.4624 69.5621 33.8121 69.6277 34.2492 69.6277C34.6863 69.6277 35.0316 69.5621 35.2852 69.4309C35.5387 69.2911 35.7179 69.0506 35.8228 68.7097C35.9278 68.3687 35.9802 67.8966 35.9802 67.2934C35.9802 66.6902 35.9278 66.2224 35.8228 65.8902C35.7179 65.5492 35.5387 65.3088 35.2852 65.1689C35.0316 65.0291 34.6863 64.9591 34.2492 64.9591ZM46.3165 64.0936C46.6312 64.0936 46.7886 64.2466 46.7886 64.5526L47.0508 70.4932H45.8706L45.6345 65.0509H45.4247L43.8904 69.3654C43.8554 69.4965 43.7986 69.5971 43.7199 69.667C43.6412 69.7369 43.532 69.7719 43.3921 69.7719H42.5135C42.3736 69.7719 42.2643 69.7369 42.1856 69.667C42.1157 69.5971 42.0588 69.4965 42.0151 69.3654L40.4808 65.0509H40.271L40.0481 70.4932H38.8809L39.1301 64.5526C39.1388 64.2466 39.3006 64.0936 39.6153 64.0936H40.8742C41.0141 64.0936 41.119 64.1286 41.189 64.1985C41.2676 64.2597 41.3245 64.3603 41.3594 64.5001L42.5921 68.0278C42.6533 68.1851 42.7014 68.3381 42.7364 68.4867C42.7801 68.6354 42.8194 68.7884 42.8544 68.9457H43.0511C43.0948 68.7796 43.1342 68.6223 43.1691 68.4736C43.2129 68.325 43.2609 68.1764 43.3134 68.0278L44.5461 64.5001C44.6248 64.2291 44.7909 64.0936 45.0444 64.0936H46.3165ZM51.6532 63.9362C52.405 63.9362 53.0039 64.0455 53.4498 64.2641C53.8957 64.4827 54.2191 64.8411 54.4202 65.3394C54.6213 65.829 54.7218 66.4803 54.7218 67.2934C54.7218 68.1152 54.6213 68.7753 54.4202 69.2736C54.2191 69.7632 53.8957 70.1172 53.4498 70.3358C53.0039 70.5544 52.405 70.6636 51.6532 70.6636C50.9013 70.6636 50.2981 70.5544 49.8435 70.3358C49.3976 70.1172 49.0741 69.7632 48.8731 69.2736C48.672 68.7753 48.5714 68.1152 48.5714 67.2934C48.5714 66.4803 48.672 65.829 48.8731 65.3394C49.0741 64.8411 49.3976 64.4827 49.8435 64.2641C50.2981 64.0455 50.9013 63.9362 51.6532 63.9362ZM51.6532 64.9591C51.2161 64.9591 50.8664 65.0291 50.6041 65.1689C50.3505 65.3088 50.1669 65.5492 50.0533 65.8902C49.9484 66.2224 49.8959 66.6902 49.8959 67.2934C49.8959 67.8966 49.9484 68.3687 50.0533 68.7097C50.1669 69.0506 50.3505 69.2911 50.6041 69.4309C50.8664 69.5621 51.2161 69.6277 51.6532 69.6277C52.0903 69.6277 52.4356 69.5621 52.6892 69.4309C52.9427 69.2911 53.1219 69.0506 53.2268 68.7097C53.3318 68.3687 53.3842 67.8966 53.3842 67.2934C53.3842 66.6902 53.3318 66.2224 53.2268 65.8902C53.1219 65.5492 52.9427 65.3088 52.6892 65.1689C52.4356 65.0291 52.0903 64.9591 51.6532 64.9591ZM60.3109 66.7164V67.6343H56.3243V66.7164H60.3109ZM27.5589 80.0936V81.0378H25.2246C24.7525 81.0378 24.4946 81.287 24.4509 81.7853C24.3984 82.4322 24.311 83.0311 24.1886 83.5819C24.075 84.1239 23.9132 84.6354 23.7034 85.1162C23.5023 85.5883 23.2269 86.0473 22.8772 86.4932H21.8412C22.1822 85.9774 22.4488 85.4528 22.6412 84.9195C22.8335 84.3775 22.9821 83.8267 23.0871 83.2672C23.2007 82.7076 23.275 82.1437 23.31 81.5755C23.3537 81.0772 23.5111 80.7056 23.7821 80.4608C24.0531 80.216 24.4465 80.0936 24.9623 80.0936H27.5589ZM22.5756 86.4276L22.4576 88.3684H21.6314V86.4276H22.5756ZM28.6211 85.5227V86.4932H21.6314V85.5227H28.6211ZM28.6211 86.4276V88.3684H27.7818L27.6638 86.4276H28.6211ZM27.7162 80.0936V86.4932H26.5098V80.0936H27.7162ZM32.7234 79.9362C33.7113 79.9362 34.4238 80.1155 34.8609 80.4739C35.3068 80.8236 35.5341 81.3438 35.5428 82.0345C35.5428 82.6115 35.4161 83.0573 35.1625 83.3721C34.909 83.6868 34.4937 83.8442 33.9167 83.8442H30.2055V82.9393H33.5889C33.8686 82.9393 34.0522 82.8475 34.1397 82.6639C34.2358 82.4803 34.2795 82.2705 34.2708 82.0345C34.2708 81.641 34.1571 81.3613 33.9298 81.1952C33.7113 81.0291 33.3266 80.946 32.7758 80.946C32.3299 80.946 31.9802 81.0116 31.7267 81.1427C31.4732 81.2739 31.294 81.5012 31.189 81.8246C31.0841 82.1481 31.0317 82.6027 31.0317 83.1885C31.0317 83.8442 31.0972 84.3469 31.2284 84.6966C31.3595 85.0375 31.565 85.2736 31.8447 85.4047C32.1332 85.5359 32.5135 85.6014 32.9856 85.6014C33.3266 85.6014 33.7025 85.5883 34.1134 85.5621C34.5331 85.5271 34.9134 85.4878 35.2543 85.4441L35.3724 86.2702C35.1713 86.3577 34.9177 86.432 34.6118 86.4932C34.3145 86.5456 34.0085 86.585 33.6938 86.6112C33.3791 86.6374 33.0906 86.6505 32.8283 86.6505C32.0852 86.6505 31.4819 86.5369 31.0186 86.3096C30.564 86.0823 30.2317 85.7238 30.0219 85.2342C29.8208 84.7359 29.7203 84.0846 29.7203 83.2803C29.7203 82.441 29.8252 81.7766 30.035 81.287C30.2448 80.7974 30.5683 80.4521 31.0055 80.251C31.4426 80.0412 32.0152 79.9362 32.7234 79.9362ZM42.3504 80.0936V81.0378H40.0161C39.544 81.0378 39.2861 81.287 39.2424 81.7853C39.1899 82.4322 39.1025 83.0311 38.9801 83.5819C38.8664 84.1239 38.7047 84.6354 38.4949 85.1162C38.2938 85.5883 38.0184 86.0473 37.6687 86.4932H36.6327C36.9737 85.9774 37.2403 85.4528 37.4327 84.9195C37.625 84.3775 37.7736 83.8267 37.8785 83.2672C37.9922 82.7076 38.0665 82.1437 38.1015 81.5755C38.1452 81.0772 38.3025 80.7056 38.5736 80.4608C38.8446 80.216 39.238 80.0936 39.7538 80.0936H42.3504ZM37.3671 86.4276L37.2491 88.3684H36.4229V86.4276H37.3671ZM43.4126 85.5227V86.4932H36.4229V85.5227H43.4126ZM43.4126 86.4276V88.3684H42.5733L42.4553 86.4276H43.4126ZM42.5077 80.0936V86.4932H41.3012V80.0936H42.5077ZM47.5935 79.9362C48.3454 79.9362 48.9443 80.0455 49.3901 80.2641C49.836 80.4827 50.1595 80.8411 50.3605 81.3394C50.5616 81.829 50.6622 82.4803 50.6622 83.2934C50.6622 84.1152 50.5616 84.7753 50.3605 85.2736C50.1595 85.7632 49.836 86.1172 49.3901 86.3358C48.9443 86.5544 48.3454 86.6636 47.5935 86.6636C46.8417 86.6636 46.2384 86.5544 45.7838 86.3358C45.338 86.1172 45.0145 85.7632 44.8134 85.2736C44.6123 84.7753 44.5118 84.1152 44.5118 83.2934C44.5118 82.4803 44.6123 81.829 44.8134 81.3394C45.0145 80.8411 45.338 80.4827 45.7838 80.2641C46.2384 80.0455 46.8417 79.9362 47.5935 79.9362ZM47.5935 80.9591C47.1564 80.9591 46.8067 81.0291 46.5444 81.1689C46.2909 81.3088 46.1073 81.5492 45.9936 81.8902C45.8887 82.2224 45.8363 82.6902 45.8363 83.2934C45.8363 83.8966 45.8887 84.3687 45.9936 84.7097C46.1073 85.0506 46.2909 85.2911 46.5444 85.4309C46.8067 85.5621 47.1564 85.6277 47.5935 85.6277C48.0307 85.6277 48.376 85.5621 48.6295 85.4309C48.8831 85.2911 49.0623 85.0506 49.1672 84.7097C49.2721 84.3687 49.3246 83.8966 49.3246 83.2934C49.3246 82.6902 49.2721 82.2224 49.1672 81.8902C49.0623 81.5492 48.8831 81.3088 48.6295 81.1689C48.376 81.0291 48.0307 80.9591 47.5935 80.9591ZM55.0447 80.028C55.7179 80.028 56.2512 80.0761 56.6446 80.1723C57.0381 80.2685 57.3222 80.4389 57.497 80.6837C57.6806 80.9285 57.7724 81.2782 57.7724 81.7328C57.7724 82.1875 57.6631 82.5328 57.4446 82.7688C57.226 82.9961 56.8719 83.1317 56.3824 83.1754V83.2147C56.9769 83.2584 57.3921 83.4245 57.6282 83.713C57.873 84.0015 57.9954 84.4037 57.9954 84.9195C57.9954 85.3566 57.9079 85.6976 57.7331 85.9424C57.5582 86.1784 57.2828 86.3445 56.9069 86.4407C56.531 86.5369 56.0327 86.585 55.4119 86.585C54.9486 86.585 54.5421 86.5806 54.1924 86.5718C53.8514 86.5718 53.5367 86.5631 53.2482 86.5456C52.9684 86.5369 52.6711 86.5238 52.3564 86.5063L52.5138 85.6014C52.6886 85.6102 53.0165 85.6189 53.4973 85.6277C53.9869 85.6277 54.5595 85.6277 55.2152 85.6277C55.5912 85.6277 55.8884 85.6014 56.107 85.549C56.3343 85.4965 56.4916 85.4003 56.5791 85.2605C56.6752 85.1118 56.7233 84.9064 56.7233 84.6441C56.7233 84.2507 56.6097 83.9841 56.3824 83.8442C56.1551 83.6955 55.7485 83.6212 55.1628 83.6212H52.5007V82.7688H55.1628C55.5037 82.7688 55.7748 82.747 55.9758 82.7033C56.1857 82.6508 56.3343 82.559 56.4217 82.4279C56.5179 82.288 56.566 82.0957 56.566 81.8509C56.566 81.6148 56.5135 81.4356 56.4086 81.3132C56.3124 81.1908 56.1507 81.1034 55.9234 81.0509C55.6961 80.9985 55.3901 80.9722 55.0054 80.9722C54.612 80.9635 54.2623 80.9591 53.9563 80.9591C53.6503 80.9591 53.3793 80.9635 53.1432 80.9722C52.9072 80.9722 52.6974 80.981 52.5138 80.9985L52.3564 80.1067C52.6362 80.0805 52.9028 80.063 53.1564 80.0543C53.4099 80.0455 53.6853 80.0412 53.9825 80.0412C54.2885 80.0324 54.6426 80.028 55.0447 80.028ZM53.5498 80.1067V86.5063H52.3564V80.1067H53.5498ZM65.1767 80.0936C65.0281 80.487 64.8926 80.8411 64.7702 81.1558C64.6478 81.4706 64.5254 81.746 64.403 81.982C64.2806 82.2181 64.1407 82.4148 63.9834 82.5721C63.8347 82.7295 63.6599 82.8563 63.4588 82.9524C63.2665 83.0486 63.0304 83.1098 62.7507 83.136V83.1885C63.0479 83.2147 63.2971 83.2715 63.4982 83.359C63.708 83.4464 63.8916 83.5732 64.0489 83.7393C64.215 83.9054 64.3637 84.1152 64.4948 84.3687C64.6259 84.6135 64.7615 84.9151 64.9013 85.2736C65.0412 85.6233 65.1942 86.0298 65.3603 86.4932H64.0358C63.8785 86.0648 63.7342 85.6932 63.6031 85.3785C63.4807 85.055 63.3583 84.784 63.2359 84.5654C63.1135 84.3381 62.9823 84.1589 62.8425 84.0278C62.7026 83.8879 62.5365 83.7917 62.3441 83.7393C62.1605 83.6781 61.942 83.6475 61.6884 83.6475V82.6902C61.9944 82.6902 62.2523 82.6377 62.4622 82.5328C62.672 82.4191 62.8512 82.253 62.9998 82.0345C63.1572 81.8159 63.3014 81.5492 63.4326 81.2345C63.5637 80.911 63.708 80.5307 63.8653 80.0936H65.1767ZM60.941 80.0936V81.9427C60.941 82.1437 60.9235 82.3492 60.8885 82.559C60.8623 82.7601 60.8186 82.9524 60.7574 83.136C60.8098 83.3284 60.8535 83.5207 60.8885 83.713C60.9235 83.9054 60.941 84.0846 60.941 84.2507V86.4932H59.6689V80.0936H60.941ZM62.1212 82.6902V83.6475H60.5738V82.6902H62.1212ZM72.5076 80.0936V86.4932H71.3667V82.4148C71.3667 82.2661 71.371 82.1219 71.3798 81.982C71.3885 81.8421 71.4016 81.6891 71.4191 81.523H71.3798C71.3273 81.6542 71.2574 81.794 71.17 81.9427C71.0913 82.0825 71.0126 82.2049 70.9339 82.3099L67.8259 86.4932H66.7637V80.0936H67.9046V84.1851C67.9046 84.325 67.9002 84.4649 67.8915 84.6048C67.8915 84.7447 67.8828 84.8976 67.8653 85.0638H67.8915C67.9614 84.9239 68.0357 84.7884 68.1144 84.6572C68.1931 84.5173 68.2718 84.3993 68.3505 84.3032L71.4585 80.0936H72.5076ZM80.2555 80.0936V86.4932H79.1146V82.4148C79.1146 82.2661 79.1189 82.1219 79.1277 81.982C79.1364 81.8421 79.1495 81.6891 79.167 81.523H79.1277C79.0752 81.6542 79.0053 81.794 78.9179 81.9427C78.8392 82.0825 78.7605 82.2049 78.6818 82.3099L75.5738 86.4932H74.5116V80.0936H75.6525V84.1851C75.6525 84.325 75.6482 84.4649 75.6394 84.6048C75.6394 84.7447 75.6307 84.8976 75.6132 85.0638H75.6394C75.7094 84.9239 75.7837 84.7884 75.8623 84.6572C75.941 84.5173 76.0197 84.3993 76.0984 84.3032L79.2064 80.0936H80.2555ZM78.4327 77.2479H79.3506C79.3856 77.5976 79.3244 77.9123 79.167 78.1921C79.0097 78.4631 78.778 78.6861 78.472 78.8609C78.166 79.027 77.7988 79.1101 77.3704 79.1101C76.9333 79.1101 76.5574 79.027 76.2426 78.8609C75.9367 78.6861 75.705 78.4631 75.5476 78.1921C75.3902 77.9123 75.3247 77.5976 75.3509 77.2479H76.282C76.2732 77.6326 76.365 77.9255 76.5574 78.1265C76.7497 78.3189 77.0207 78.415 77.3704 78.415C77.7114 78.415 77.9737 78.3189 78.1573 78.1265C78.3409 77.9255 78.4327 77.6326 78.4327 77.2479Z" fill="white"/>
</svg>
