<svg width="180" height="126" viewBox="0 0 180 126" fill="none" xmlns="http://www.w3.org/2000/svg">
<path d="M15.1885 12.7931C14.173 12.7931 12.8996 12.2572 11.7286 11.5939C9.82611 10.5161 7.67982 9.55325 5.65065 10.3678C3.92488 11.0605 2.09224 12.3574 0.938323 14.6103C0.320062 15.8173 0.295607 17.2295 0.714162 18.5195C1.6776 21.4888 3.5682 25.2794 4.57179 27.1138L7.72155 31.6C8.46438 32.658 8.51355 34.0545 7.84697 35.1621C7.35386 35.9815 7.2261 36.9854 7.65005 37.8426C8.58826 39.7397 10.3294 42.0572 12.6905 42.0572H15.1885H26.4298C28.4294 42.0572 30.3475 42.8501 31.7636 44.2619L35.7975 48.2837C38.9149 50.701 38.9738 54.9751 37.8082 58.7438C37.7202 59.0285 37.671 59.2815 37.671 59.4912C37.671 60.7609 40.6767 66.6156 42.8574 70.6388C43.5472 71.9114 44.5375 72.9926 45.7315 73.811L53.3816 79.0547C53.7321 79.2949 54.0598 79.5667 54.3606 79.8666C55.6703 81.1724 56.4295 82.9477 56.2949 84.7922C56.0587 88.0262 55.4024 91.9967 53.9084 93.1139C51.4103 94.9818 51.4103 94.9818 47.6632 93.1139C43.9162 91.2459 41.4181 94.9818 37.671 94.9818C35.1702 94.9818 35.9727 98.7374 37.0326 101.549C37.4064 102.54 37.461 103.635 37.0879 104.626C36.36 106.562 37.2444 108.735 39.1457 109.548C42.3707 110.927 46.2328 112.416 47.6632 112.416C48.9045 112.416 50.5311 112.896 51.8849 113.409C53.2411 113.923 54.6637 114.298 56.112 114.22C59.0513 114.062 62.9712 113.578 64.5251 112.416C65.6798 111.552 66.751 110.509 67.5703 109.621C68.4738 108.643 68.8967 107.337 68.8967 106.005C68.8967 104.152 69.733 102.399 71.1726 101.233L75.4727 97.7492C77.6369 95.996 80.4667 95.3008 83.2032 95.8195C88.694 96.8604 95.6977 98.095 97.6243 98.095H101.791C103.557 98.095 105.287 98.5944 106.782 99.5355L114.434 104.354C115.692 105.146 117.149 105.567 118.635 105.567C120.398 105.567 122.11 106.157 123.497 107.244L130.099 112.416L136.442 116.105C137.206 116.549 138.028 116.883 138.886 117.096L143.971 118.364C144.712 118.549 145.429 118.824 146.103 119.182L154.455 123.623C155.496 124.246 157.952 125.491 159.451 125.491C160.318 125.491 162.063 125.074 163.743 124.603C165.668 124.062 166.945 122.274 166.945 120.274C166.945 119.218 167.306 118.193 167.967 117.369L171.941 112.416L176.082 106.74C176.649 105.962 177.093 105.102 177.398 104.19L178.952 99.5407C179.272 98.5832 179.436 97.5802 179.436 96.5706V96.3943C179.436 95.4579 179.295 94.5268 179.019 93.6321L177.354 88.2372C177.078 87.3424 176.938 86.4113 176.938 85.4749V84.1235C176.938 82.6655 176.597 81.2277 175.944 79.9244L175.122 78.2852C174.67 77.3844 174.076 76.5624 173.362 75.8509L171.941 74.4346L167.725 70.2305C167.207 69.7143 166.751 69.1392 166.367 68.517L162.772 62.6913C162.26 61.8633 161.357 61.3591 160.384 61.3591C158.834 61.3591 157.578 60.1028 157.578 58.5531V55.7554V52.6422V51.4062C157.578 49.6817 156.18 48.2837 154.455 48.2837H153.262C151.201 48.2837 149.197 47.6038 147.561 46.3494L142.914 42.7853C142.284 42.3019 141.718 41.7403 141.229 41.114L138.083 37.0816C137.766 36.6746 137.593 36.1731 137.593 35.6568C137.593 34.3774 136.556 33.3403 135.277 33.3403H134.863C134.603 33.3403 134.344 33.3031 134.094 33.2299L126.68 31.0559C124.841 30.5164 123.21 29.4251 122.01 27.9296L121.356 27.1138L117.277 22.5394C116.669 21.8569 115.964 21.2671 115.184 20.7889L110.118 17.6805C108.952 16.965 108.241 15.6951 108.241 14.3269C108.241 13.3405 107.871 12.3901 107.203 11.664L102.783 6.85625C101.883 5.87806 100.615 5.32138 99.2864 5.32138C98.2104 5.32138 97.1662 4.95597 96.325 4.28499L95.0289 3.25124C94.6802 2.97314 94.2852 2.75883 93.8619 2.61818L89.9109 1.3051C89.4041 1.13668 88.8811 1.51395 88.8811 2.04798C88.8811 2.48033 88.5307 2.83082 88.0983 2.83082H83.0369C81.958 2.83082 80.9002 3.12946 79.9806 3.69366L74.6381 6.97149C73.7315 7.52773 72.7368 7.9255 71.6966 8.14772L65.4927 9.47315C64.8494 9.61059 64.1935 9.67988 63.5357 9.67988H51.4103H41.4181H33.9186C32.6853 9.67988 31.4641 9.92344 30.3251 10.3966L26.2815 12.0764C25.1425 12.5495 23.9217 12.7931 22.6883 12.7931H15.1885Z" fill="#5C5C5C" fill-opacity="0.9"/>
<path d="M66.5204 53.7163V63.4111H65.1716V56.5826C65.1716 56.3952 65.1763 56.2079 65.1856 56.0206C65.195 55.8238 65.2137 55.6318 65.2418 55.4445H65.1716C65.106 55.6318 65.0264 55.8192 64.9327 56.0065C64.839 56.1938 64.7454 56.3718 64.6517 56.5404L60.5349 63.4111H59.1158V53.7163H60.4787V60.4605C60.4787 60.6572 60.4693 60.8586 60.4506 61.0647C60.4319 61.2614 60.4131 61.4581 60.3944 61.6548H60.4506C60.5255 61.4675 60.6098 61.2801 60.7035 61.0928C60.8065 60.9055 60.9096 60.7275 61.0126 60.5589L65.0873 53.7163H66.5204ZM71.7516 56.3859C71.9671 56.3859 72.2059 56.3952 72.4682 56.414C72.7305 56.4327 72.9974 56.4655 73.2691 56.5123C73.5407 56.5592 73.7936 56.6294 74.0278 56.7231L73.8592 57.5942C73.5313 57.5661 73.1941 57.5474 72.8476 57.538C72.5103 57.5193 72.22 57.5099 71.9764 57.5099C71.4612 57.5099 71.0491 57.5848 70.74 57.7347C70.4309 57.8752 70.2061 58.1234 70.0656 58.4794C69.9344 58.8353 69.8688 59.3318 69.8688 59.9688C69.8688 60.6057 69.9344 61.1068 70.0656 61.4722C70.2061 61.8375 70.4309 62.0904 70.74 62.2309C71.0491 62.3714 71.4612 62.4416 71.9764 62.4416C72.1169 62.4416 72.2996 62.437 72.5244 62.4276C72.7586 62.4182 73.0068 62.4042 73.2691 62.3854C73.5313 62.3667 73.7796 62.3386 74.0138 62.3011L74.1402 63.2004C73.803 63.3315 73.4236 63.4252 73.0021 63.4814C72.5806 63.547 72.1591 63.5797 71.7376 63.5797C70.9414 63.5797 70.2997 63.4627 69.8126 63.2285C69.3349 62.9943 68.9883 62.6149 68.7729 62.0904C68.5575 61.5658 68.4497 60.8586 68.4497 59.9688C68.4497 59.0883 68.5575 58.3857 68.7729 57.8612C68.9883 57.3366 69.3349 56.9619 69.8126 56.7371C70.2997 56.503 70.9461 56.3859 71.7516 56.3859ZM78.8207 56.5545V63.4111H77.4578V56.5545H78.8207ZM81.2655 56.5545V57.6504H75.013V56.5545H81.2655ZM86.705 56.3859C87.5574 56.3859 88.1663 56.695 88.5316 57.3132C88.8969 57.9314 89.0795 58.8353 89.0795 60.025C89.0795 60.9148 88.9859 61.622 88.7985 62.1466C88.6112 62.6618 88.3255 63.0318 87.9415 63.2566C87.5574 63.472 87.075 63.5797 86.4943 63.5797C86.0353 63.5797 85.5856 63.5189 85.1454 63.3971C84.7051 63.2659 84.2883 63.0692 83.8949 62.807L83.9792 62.0482C84.3914 62.17 84.7567 62.2684 85.0751 62.3433C85.3936 62.4182 85.7355 62.4557 86.1008 62.4557C86.4849 62.4557 86.7893 62.3901 87.0141 62.259C87.2483 62.1279 87.4169 61.8843 87.5199 61.5284C87.623 61.1724 87.6745 60.6713 87.6745 60.025C87.6745 59.388 87.6277 58.8915 87.534 58.5356C87.4403 58.1703 87.2904 57.9127 87.0844 57.7628C86.8783 57.6036 86.5973 57.524 86.2413 57.524C85.8854 57.524 85.5341 57.6083 85.1876 57.7769C84.841 57.9361 84.4429 58.189 83.9933 58.5356L83.8387 57.6926C84.0729 57.4303 84.3445 57.2008 84.6536 57.0041C84.9721 56.8074 85.3093 56.6575 85.6653 56.5545C86.0212 56.4421 86.3678 56.3859 86.705 56.3859ZM83.7825 56.5545L83.9371 57.9455L84.0354 58.1281V62.54L83.9652 62.7086C83.9933 62.9709 84.012 63.2285 84.0214 63.4814C84.0401 63.7343 84.0448 64.0013 84.0354 64.2823V66.2072H82.6866V56.5545H83.7825ZM97.0731 56.5545V63.4111H95.8507V59.0414C95.8507 58.8822 95.8554 58.7276 95.8647 58.5777C95.8741 58.4279 95.8882 58.264 95.9069 58.086H95.8647C95.8085 58.2265 95.7336 58.3764 95.6399 58.5356C95.5556 58.6855 95.4713 58.8166 95.387 58.929L92.0571 63.4111H90.919V56.5545H92.1414V60.9382C92.1414 61.0881 92.1367 61.238 92.1273 61.3879C92.1273 61.5377 92.1179 61.7017 92.0992 61.8796H92.1273C92.2022 61.7298 92.2819 61.5846 92.3662 61.4441C92.4505 61.2942 92.5348 61.1677 92.6191 61.0647L95.9491 56.5545H97.0731ZM100.555 56.5545V63.4111H99.2203V56.5545H100.555ZM104.11 59.2662V60.2779H100.471V59.2662H104.11ZM105.318 56.5545V63.4111H103.983V56.5545H105.318ZM110.432 56.3859C110.647 56.3859 110.886 56.3952 111.148 56.414C111.411 56.4327 111.678 56.4655 111.949 56.5123C112.221 56.5592 112.474 56.6294 112.708 56.7231L112.539 57.5942C112.211 57.5661 111.874 57.5474 111.528 57.538C111.19 57.5193 110.9 57.5099 110.657 57.5099C110.141 57.5099 109.729 57.5848 109.42 57.7347C109.111 57.8752 108.886 58.1234 108.746 58.4794C108.615 58.8353 108.549 59.3318 108.549 59.9688C108.549 60.6057 108.615 61.1068 108.746 61.4722C108.886 61.8375 109.111 62.0904 109.42 62.2309C109.729 62.3714 110.141 62.4416 110.657 62.4416C110.797 62.4416 110.98 62.437 111.205 62.4276C111.439 62.4182 111.687 62.4042 111.949 62.3854C112.211 62.3667 112.46 62.3386 112.694 62.3011L112.82 63.2004C112.483 63.3315 112.104 63.4252 111.682 63.4814C111.261 63.547 110.839 63.5797 110.418 63.5797C109.622 63.5797 108.98 63.4627 108.493 63.2285C108.015 62.9943 107.668 62.6149 107.453 62.0904C107.238 61.5658 107.13 60.8586 107.13 59.9688C107.13 59.0883 107.238 58.3857 107.453 57.8612C107.668 57.3366 108.015 56.9619 108.493 56.7371C108.98 56.503 109.626 56.3859 110.432 56.3859ZM120.311 56.5545C120.152 56.976 120.006 57.3554 119.875 57.6926C119.744 58.0298 119.613 58.3248 119.482 58.5777C119.351 58.8307 119.201 59.0414 119.032 59.21C118.873 59.3786 118.686 59.5145 118.47 59.6175C118.264 59.7205 118.011 59.7861 117.712 59.8142V59.8704C118.03 59.8985 118.297 59.9594 118.512 60.0531C118.737 60.1467 118.934 60.2825 119.103 60.4605C119.281 60.6385 119.44 60.8633 119.58 61.1349C119.721 61.3972 119.866 61.7204 120.016 62.1044C120.166 62.4791 120.33 62.9147 120.508 63.4111H119.089C118.92 62.9521 118.765 62.5541 118.625 62.2168C118.494 61.8703 118.363 61.5799 118.231 61.3457C118.1 61.1022 117.96 60.9101 117.81 60.7696C117.66 60.6198 117.482 60.5167 117.276 60.4605C117.079 60.395 116.845 60.3622 116.573 60.3622V59.3365C116.901 59.3365 117.178 59.2803 117.402 59.1679C117.627 59.0461 117.819 58.8681 117.979 58.634C118.147 58.3998 118.302 58.1141 118.442 57.7769C118.583 57.4303 118.737 57.0228 118.906 56.5545H120.311ZM115.773 56.5545V58.5356C115.773 58.751 115.754 58.9712 115.716 59.196C115.688 59.4114 115.641 59.6175 115.576 59.8142C115.632 60.0203 115.679 60.2263 115.716 60.4324C115.754 60.6385 115.773 60.8305 115.773 61.0085V63.4111H114.41V56.5545H115.773ZM117.037 59.3365V60.3622H115.379V59.3365H117.037ZM128.165 56.5545V63.4111H126.943V59.0414C126.943 58.8822 126.948 58.7276 126.957 58.5777C126.966 58.4279 126.98 58.264 126.999 58.086H126.957C126.901 58.2265 126.826 58.3764 126.732 58.5356C126.648 58.6855 126.564 58.8166 126.479 58.929L123.149 63.4111H122.011V56.5545H123.234V60.9382C123.234 61.0881 123.229 61.238 123.22 61.3879C123.22 61.5377 123.21 61.7017 123.192 61.8796H123.22C123.295 61.7298 123.374 61.5846 123.458 61.4441C123.543 61.2942 123.627 61.1677 123.711 61.0647L127.041 56.5545H128.165ZM136.467 56.5545V63.4111H135.244V59.0414C135.244 58.8822 135.249 58.7276 135.258 58.5777C135.268 58.4279 135.282 58.264 135.301 58.086H135.258C135.202 58.2265 135.127 58.3764 135.034 58.5356C134.949 58.6855 134.865 58.8166 134.781 58.929L131.451 63.4111H130.313V56.5545H131.535V60.9382C131.535 61.0881 131.53 61.238 131.521 61.3879C131.521 61.5377 131.512 61.7017 131.493 61.8796H131.521C131.596 61.7298 131.676 61.5846 131.76 61.4441C131.844 61.2942 131.928 61.1677 132.013 61.0647L135.343 56.5545H136.467ZM134.514 53.5055H135.497C135.535 53.8802 135.469 54.2174 135.301 54.5171C135.132 54.8075 134.884 55.0464 134.556 55.2337C134.228 55.4117 133.835 55.5007 133.376 55.5007C132.907 55.5007 132.504 55.4117 132.167 55.2337C131.839 55.0464 131.591 54.8075 131.423 54.5171C131.254 54.2174 131.184 53.8802 131.212 53.5055H132.209C132.2 53.9177 132.298 54.2314 132.504 54.4469C132.711 54.653 133.001 54.756 133.376 54.756C133.741 54.756 134.022 54.653 134.219 54.4469C134.415 54.2314 134.514 53.9177 134.514 53.5055Z" fill="white"/>
</svg>
