<svg width="150" height="111" viewBox="0 0 150 111" fill="none" xmlns="http://www.w3.org/2000/svg">
<path d="M10.7075 71.0007C12.9098 72.2554 12.9163 73.576 12.2553 74.5892C11.5035 75.7415 10.3417 76.6071 9.64689 77.7947C7.73055 81.07 8.45633 85.2329 11.6182 87.3311C12.7842 88.1048 14.09 88.9278 15.5022 89.7539C16.8516 90.5433 18.4022 91.0121 19.9597 90.8772C21.2817 90.7627 21.6205 90.3743 23.8223 89.0572C26.9449 87.1892 26.3203 87.1892 28.1939 87.1892H30.6919C31.8804 87.1892 34.1078 87.3795 35.8308 88.0315C37.0798 88.5042 38.2088 89.2991 39.4597 89.7668L40.9712 90.3319C42.0203 90.7242 43.1314 90.9251 44.2515 90.9251H47.0428C48.1699 90.9251 49.251 91.3719 50.0492 92.1677C50.8505 92.9666 51.3009 94.0515 51.3009 95.183V97.7741V98.8391C51.3009 100.971 52.1243 102.998 53.0334 104.926C53.471 105.854 53.7989 106.852 53.7989 107.736C53.7989 109.103 54.3861 109.766 54.9566 110.048C55.3963 110.266 55.9042 110.124 56.3528 109.926L59.9136 108.348C60.5628 108.06 61.2931 108.535 61.2931 109.245C61.2931 109.787 61.7327 110.227 62.2749 110.227H64.7309C65.7121 110.227 66.6362 109.766 67.226 108.982L67.5007 108.617C67.9176 108.062 68.5707 107.736 69.2641 107.736C69.764 107.736 70.2492 107.567 70.64 107.255L73.1589 105.246L75.625 102.787C76.0616 102.352 76.54 101.961 77.0534 101.62L78.6739 100.542C79.5573 99.9553 80.5944 99.6421 81.6551 99.6421C82.2323 99.6421 82.8058 99.7349 83.3536 99.9169L88.5824 101.655C89.5351 101.971 90.5325 102.133 91.5365 102.133H93.7678H95.9341C97.3845 102.133 98.8181 101.802 100.091 101.106C102.129 99.9931 105 98.3143 107.507 96.5289C111.004 94.0383 111.046 93.4156 110.63 93.4156H114.377H115.028C116.59 93.4156 118.068 94.1247 119.046 95.3434C119.667 96.1172 120.498 96.6953 121.44 97.0082L121.672 97.0853C123.01 97.5302 124.475 97.483 125.785 96.9604C126.496 96.6769 127.26 96.5289 128.026 96.5289H128.741H133.737H136.235H136.737C139.578 96.5289 142.029 94.7812 144.634 93.6478C144.969 93.5018 145.297 93.4156 145.602 93.4156C147.118 93.4156 148.488 92.5132 149.087 91.1206L149.528 90.0949C149.822 89.4102 149.974 88.6735 149.974 87.9283V83.4536V80.9115C149.974 79.7229 149.65 78.5568 149.037 77.5384C148.424 76.52 148.101 75.3538 148.101 74.1652V73.7565C148.101 71.9707 147.504 70.236 146.405 68.8279L145.71 67.9368C144.426 66.2907 143.729 64.263 143.729 62.1753V59.7932V57.0592C143.729 55.5941 143.294 54.1619 142.48 52.944L142.397 52.8208C141.637 51.6832 141.231 50.3456 141.231 48.9772V47.636C141.231 47.4416 141.276 47.2499 141.363 47.0761C141.954 45.8987 146.123 42.8894 146.875 41.8081C147.21 41.3259 147.579 40.7498 147.984 40.067C148.06 39.9385 148.156 39.8152 148.258 39.7066C149.3 38.6036 149.344 37.8486 149.039 37.3721C148.627 36.7295 147.716 36.7554 146.952 36.7554H133.737C132.012 36.7554 130.614 35.3574 130.614 33.6329V33.0196V30.3728C130.614 29.6514 130.497 28.9347 130.269 28.2505C129.356 25.5205 126.799 23.68 123.92 23.68H122.495C121.246 23.68 119.997 26.1703 117.499 28.0385C117.19 28.2699 116.926 28.4645 116.703 28.6273C116.025 29.1205 115.144 28.8032 114.551 28.2117C114.435 28.097 114.303 28.0015 114.157 27.929L111.964 26.8354C111.146 26.4279 110.63 25.5931 110.63 24.6798C110.63 24.0397 110.375 23.426 109.922 22.9741L106.336 19.399C105.486 18.5519 104.335 18.0762 103.136 18.0762H98.1394H90.0207H82.5266C78.7795 18.0762 83.1511 12.4724 82.5266 12.4724C81.9407 12.4724 78.6072 12.4724 74.0724 14.0141C73.4672 14.2199 72.939 14.5959 72.4085 14.9524C72.2005 15.0922 71.984 15.2176 71.763 15.3298C69.9236 16.2642 68.1628 14.5355 68.1628 12.4724V10.8263C68.1628 9.45213 67.842 8.09692 67.226 6.86854L66.7267 5.87293C66.439 5.29925 66.2892 4.66633 66.2892 4.02455C66.2892 2.05813 64.8886 0.287288 62.9243 0.378845C62.3349 0.406317 61.7663 0.484967 61.2931 0.642222C59.4196 1.26486 56.9215 5.62336 55.6725 8.73656C55.0676 10.2442 52.2971 9.8596 50.9961 10.8324L50.0036 11.5745C49.2479 12.1397 48.8028 13.0277 48.8028 13.9713V18.0762V23.68C48.8028 26.4146 47.4639 28.9604 45.3173 30.6547C44.2554 31.4929 43.2277 32.3516 42.5577 33.0196C41.3407 34.2329 39.4924 35.5284 38.2832 36.306C37.8152 36.6069 37.2678 36.7554 36.7114 36.7554C36.047 36.7554 35.4005 36.5405 34.8685 36.1426L33.9816 35.4795C31.9768 33.9804 29.2825 33.7861 27.0833 34.982L24.9651 36.1339C24.2152 36.5418 23.3751 36.7554 22.5214 36.7554C21.3432 36.7554 20.2011 37.1622 19.2881 37.9069L13.8301 42.3592C12.7892 43.397 10.7075 45.846 10.7075 47.3404C10.7075 49.2083 6.33594 52.3215 3.21338 54.8121C1.71004 56.0111 1.03602 57.2703 0.78298 58.264C0.530434 59.2556 0.992736 60.2343 1.57337 61.077C3.76736 64.2611 7.66332 69.2664 10.7075 71.0007Z" fill="#5C5C5C" fill-opacity="0.9"/>
<path d="M33.9315 49.3182C34.6746 49.3182 35.2647 49.3882 35.7019 49.528C36.139 49.6592 36.4537 49.8952 36.6461 50.2362C36.8384 50.5772 36.9346 51.058 36.9346 51.6787C36.9346 52.3257 36.8165 52.8196 36.5805 53.1606C36.3444 53.5015 35.9554 53.6982 35.4134 53.7507V53.8032C36.0865 53.8644 36.5499 54.1004 36.8034 54.5113C37.0657 54.9222 37.1968 55.4905 37.1968 56.2161C37.1968 56.8368 37.1007 57.3177 36.9083 57.6586C36.716 57.9996 36.41 58.24 35.9904 58.3799C35.5707 58.511 35.0156 58.5766 34.3249 58.5766C33.8965 58.5766 33.4987 58.5678 33.1316 58.5504C32.7644 58.5329 32.419 58.5023 32.0956 58.4586C31.7721 58.4061 31.4574 58.3405 31.1514 58.2619L31.2563 57.3308C31.6322 57.3745 32.0606 57.4182 32.5414 57.4619C33.031 57.4969 33.5512 57.5144 34.102 57.5144C34.5479 57.5144 34.8932 57.475 35.138 57.3963C35.3915 57.3177 35.5751 57.169 35.6888 56.9505C35.8024 56.7232 35.8592 56.3997 35.8592 55.9801C35.8592 55.5429 35.8024 55.202 35.6888 54.9572C35.5751 54.7036 35.3828 54.5288 35.1117 54.4326C34.8407 54.3277 34.4779 54.2753 34.0233 54.2753H32.4496V53.2917H34.0233C34.4255 53.2917 34.7402 53.2524 34.9675 53.1737C35.2035 53.0863 35.3697 52.9376 35.4658 52.7278C35.5707 52.518 35.6232 52.2208 35.6232 51.8361C35.6232 51.4339 35.5664 51.1279 35.4527 50.9181C35.3478 50.7083 35.1642 50.564 34.9019 50.4854C34.6484 50.4067 34.2987 50.3673 33.8528 50.3673C33.3545 50.3673 32.9086 50.3848 32.5152 50.4198C32.1218 50.4548 31.7721 50.4854 31.4661 50.5116L31.3612 49.5412C31.7721 49.4625 32.1742 49.4056 32.5677 49.3707C32.9611 49.3357 33.4157 49.3182 33.9315 49.3182ZM42.0324 51.9148C42.5219 51.9148 42.9328 51.9803 43.2651 52.1115C43.5973 52.2339 43.8464 52.4481 44.0126 52.754C44.1874 53.06 44.2748 53.4797 44.2748 54.013V58.4717H43.2782L43.0815 57.0816L43.0159 56.9242V54.013C43.0072 53.637 42.9154 53.366 42.7405 53.1999C42.5744 53.0338 42.2466 52.9508 41.757 52.9508C41.416 52.9508 40.992 52.9682 40.4849 53.0032C39.9866 53.0382 39.4927 53.0732 39.0031 53.1081L38.885 52.2033C39.1823 52.1508 39.5145 52.1027 39.8817 52.059C40.2489 52.0153 40.6204 51.9803 40.9964 51.9541C41.3723 51.9279 41.7176 51.9148 42.0324 51.9148ZM43.6978 54.5244L43.6847 55.4162L40.6816 55.4293C40.3844 55.438 40.1746 55.5167 40.0522 55.6653C39.9298 55.8052 39.8686 56.0019 39.8686 56.2554V56.6489C39.8686 56.9636 39.9473 57.1953 40.1046 57.3439C40.262 57.4838 40.5024 57.5537 40.8259 57.5537C41.0707 57.5537 41.3417 57.51 41.639 57.4226C41.9449 57.3264 42.2509 57.1865 42.5569 57.0029C42.8629 56.8106 43.1383 56.5702 43.3831 56.2817V57.1078C43.3044 57.2302 43.1776 57.3789 43.0028 57.5537C42.8279 57.7198 42.6137 57.8816 42.3602 58.0389C42.1154 58.1963 41.84 58.3274 41.534 58.4323C41.2281 58.5372 40.8958 58.5897 40.5374 58.5897C40.1527 58.5897 39.8118 58.5241 39.5145 58.393C39.226 58.2531 38.9987 58.052 38.8326 57.7898C38.6752 57.5187 38.5965 57.1909 38.5965 56.8062V56.1112C38.5965 55.6129 38.7539 55.2238 39.0686 54.9441C39.3921 54.6643 39.838 54.5244 40.4063 54.5244H43.6978ZM49.9881 51.9148C50.7836 51.9148 51.3519 52.2033 51.6929 52.7803C52.0338 53.3573 52.2043 54.2009 52.2043 55.3112C52.2043 56.1418 52.1169 56.8019 51.942 57.2914C51.7672 57.7723 51.5005 58.1176 51.1421 58.3274C50.7836 58.5285 50.3334 58.629 49.7914 58.629C49.363 58.629 48.9433 58.5722 48.5324 58.4586C48.1215 58.3362 47.7325 58.1526 47.3653 57.9078L47.444 57.1996C47.8286 57.3133 48.1696 57.4051 48.4669 57.475C48.7641 57.545 49.0832 57.5799 49.4242 57.5799C49.7826 57.5799 50.0667 57.5187 50.2766 57.3963C50.4951 57.2739 50.6525 57.0466 50.7487 56.7144C50.8448 56.3822 50.8929 55.9145 50.8929 55.3112C50.8929 54.7168 50.8492 54.2534 50.7618 53.9212C50.6743 53.5802 50.5345 53.3398 50.3421 53.1999C50.1498 53.0513 49.8875 52.977 49.5553 52.977C49.2231 52.977 48.8952 53.0557 48.5718 53.213C48.2483 53.3617 47.8767 53.5977 47.4571 53.9212L47.3128 53.1343C47.5314 52.8896 47.7849 52.6754 48.0734 52.4918C48.3707 52.3082 48.6854 52.1683 49.0176 52.0721C49.3499 51.9672 49.6733 51.9148 49.9881 51.9148ZM47.2604 52.0721L47.4046 53.3704L47.4964 53.5409V57.6586L47.4309 57.816C47.4571 58.0608 47.4746 58.3012 47.4833 58.5372C47.5008 58.7733 47.5052 59.0225 47.4964 59.2847V61.0813H46.2375V52.0721H47.2604ZM57.0159 51.9148C57.5055 51.9148 57.9164 51.9803 58.2486 52.1115C58.5809 52.2339 58.83 52.4481 58.9961 52.754C59.171 53.06 59.2584 53.4797 59.2584 54.013V58.4717H58.2618L58.0651 57.0816L57.9995 56.9242V54.013C57.9907 53.637 57.8989 53.366 57.7241 53.1999C57.558 53.0338 57.2301 52.9508 56.7406 52.9508C56.3996 52.9508 55.9756 52.9682 55.4685 53.0032C54.9702 53.0382 54.4762 53.0732 53.9867 53.1081L53.8686 52.2033C54.1659 52.1508 54.4981 52.1027 54.8653 52.059C55.2325 52.0153 55.604 51.9803 55.98 51.9541C56.3559 51.9279 56.7012 51.9148 57.0159 51.9148ZM58.6814 54.5244L58.6683 55.4162L55.6652 55.4293C55.368 55.438 55.1582 55.5167 55.0358 55.6653C54.9134 55.8052 54.8522 56.0019 54.8522 56.2554V56.6489C54.8522 56.9636 54.9308 57.1953 55.0882 57.3439C55.2456 57.4838 55.486 57.5537 55.8095 57.5537C56.0543 57.5537 56.3253 57.51 56.6225 57.4226C56.9285 57.3264 57.2345 57.1865 57.5405 57.0029C57.8465 56.8106 58.1219 56.5702 58.3667 56.2817V57.1078C58.288 57.2302 58.1612 57.3789 57.9864 57.5537C57.8115 57.7198 57.5973 57.8816 57.3438 58.0389C57.099 58.1963 56.8236 58.3274 56.5176 58.4323C56.2116 58.5372 55.8794 58.5897 55.521 58.5897C55.1363 58.5897 54.7953 58.5241 54.4981 58.393C54.2096 58.2531 53.9823 58.052 53.8162 57.7898C53.6588 57.5187 53.5801 57.1909 53.5801 56.8062V56.1112C53.5801 55.6129 53.7375 55.2238 54.0522 54.9441C54.3757 54.6643 54.8216 54.5244 55.3898 54.5244H58.6814ZM66.9518 52.0721V58.4717H65.8109V54.3933C65.8109 54.2447 65.8153 54.1004 65.824 53.9605C65.8328 53.8206 65.8459 53.6676 65.8634 53.5015H65.824C65.7716 53.6327 65.7016 53.7726 65.6142 53.9212C65.5355 54.0611 65.4569 54.1835 65.3782 54.2884L62.2702 58.4717H61.208V52.0721H62.3489V56.1636C62.3489 56.3035 62.3445 56.4434 62.3358 56.5833C62.3358 56.7232 62.327 56.8762 62.3095 57.0423H62.3358C62.4057 56.9024 62.48 56.7669 62.5587 56.6357C62.6374 56.4959 62.7161 56.3778 62.7947 56.2817L65.9027 52.0721H66.9518ZM65.129 49.2264H66.047C66.0819 49.5761 66.0207 49.8909 65.8634 50.1706C65.706 50.4416 65.4743 50.6646 65.1683 50.8394C64.8624 51.0055 64.4952 51.0886 64.0668 51.0886C63.6297 51.0886 63.2537 51.0055 62.939 50.8394C62.633 50.6646 62.4013 50.4416 62.244 50.1706C62.0866 49.8909 62.021 49.5761 62.0473 49.2264H62.9783C62.9696 49.6111 63.0614 49.904 63.2537 50.1051C63.4461 50.2974 63.7171 50.3936 64.0668 50.3936C64.4077 50.3936 64.67 50.2974 64.8536 50.1051C65.0372 49.904 65.129 49.6111 65.129 49.2264ZM71.736 51.9148C71.9371 51.9148 72.16 51.9235 72.4048 51.941C72.6496 51.9585 72.8988 51.9891 73.1523 52.0328C73.4058 52.0765 73.6419 52.1421 73.8605 52.2295L73.7031 53.0426C73.3971 53.0163 73.0824 52.9988 72.7589 52.9901C72.4442 52.9726 72.1731 52.9639 71.9458 52.9639C71.465 52.9639 71.0803 53.0338 70.7918 53.1737C70.5033 53.3048 70.2935 53.5365 70.1624 53.8687C70.04 54.2009 69.9788 54.6643 69.9788 55.2588C69.9788 55.8533 70.04 56.321 70.1624 56.662C70.2935 57.0029 70.5033 57.239 70.7918 57.3701C71.0803 57.5013 71.465 57.5668 71.9458 57.5668C72.077 57.5668 72.2475 57.5625 72.4573 57.5537C72.6758 57.545 72.9075 57.5319 73.1523 57.5144C73.3971 57.4969 73.6288 57.4707 73.8473 57.4357L73.9654 58.275C73.6506 58.3974 73.2966 58.4848 72.9032 58.5372C72.5097 58.5984 72.1163 58.629 71.7229 58.629C70.9798 58.629 70.3809 58.5198 69.9263 58.3012C69.4804 58.0826 69.157 57.7286 68.9559 57.239C68.7548 56.7494 68.6543 56.0893 68.6543 55.2588C68.6543 54.437 68.7548 53.7813 68.9559 53.2917C69.157 52.8021 69.4804 52.4524 69.9263 52.2426C70.3809 52.024 70.9842 51.9148 71.736 51.9148ZM80.9566 52.0721C80.808 52.4655 80.6725 52.8196 80.5501 53.1343C80.4277 53.4491 80.3053 53.7245 80.1829 53.9605C80.0605 54.1966 79.9206 54.3933 79.7632 54.5506C79.6146 54.708 79.4398 54.8348 79.2387 54.9309C79.0463 55.0271 78.8103 55.0883 78.5305 55.1145V55.167C78.8278 55.1932 79.0769 55.25 79.278 55.3375C79.4878 55.4249 79.6714 55.5517 79.8288 55.7178C79.9949 55.8839 80.1435 56.0937 80.2747 56.3472C80.4058 56.592 80.5413 56.8936 80.6812 57.2521C80.8211 57.6018 80.9741 58.0083 81.1402 58.4717H79.8157C79.6583 58.0433 79.5141 57.6717 79.3829 57.357C79.2605 57.0335 79.1381 56.7625 79.0157 56.5439C78.8933 56.3166 78.7622 56.1374 78.6223 56.0063C78.4824 55.8664 78.3163 55.7702 78.124 55.7178C77.9404 55.6566 77.7218 55.626 77.4683 55.626V54.6687C77.7743 54.6687 78.0322 54.6162 78.242 54.5113C78.4518 54.3976 78.6311 54.2315 78.7797 54.013C78.9371 53.7944 79.0813 53.5278 79.2124 53.213C79.3436 52.8896 79.4878 52.5093 79.6452 52.0721H80.9566ZM76.7208 52.0721V53.9212C76.7208 54.1223 76.7033 54.3277 76.6684 54.5375C76.6421 54.7386 76.5984 54.9309 76.5372 55.1145C76.5897 55.3069 76.6334 55.4992 76.6684 55.6915C76.7033 55.8839 76.7208 56.0631 76.7208 56.2292V58.4717H75.4488V52.0721H76.7208ZM77.9011 54.6687V55.626H76.3536V54.6687H77.9011ZM88.2874 52.0721V58.4717H87.1465V54.3933C87.1465 54.2447 87.1509 54.1004 87.1596 53.9605C87.1684 53.8206 87.1815 53.6676 87.199 53.5015H87.1596C87.1072 53.6327 87.0372 53.7726 86.9498 53.9212C86.8711 54.0611 86.7924 54.1835 86.7138 54.2884L83.6058 58.4717H82.5436V52.0721H83.6845V56.1636C83.6845 56.3035 83.6801 56.4434 83.6714 56.5833C83.6714 56.7232 83.6626 56.8762 83.6451 57.0423H83.6714C83.7413 56.9024 83.8156 56.7669 83.8943 56.6357C83.973 56.4959 84.0517 56.3778 84.1303 56.2817L87.2383 52.0721H88.2874ZM96.0353 52.0721V58.4717H94.8944V54.3933C94.8944 54.2447 94.8988 54.1004 94.9076 53.9605C94.9163 53.8206 94.9294 53.6676 94.9469 53.5015H94.9076C94.8551 53.6327 94.7852 53.7726 94.6977 53.9212C94.619 54.0611 94.5404 54.1835 94.4617 54.2884L91.3537 58.4717H90.2915V52.0721H91.4324V56.1636C91.4324 56.3035 91.428 56.4434 91.4193 56.5833C91.4193 56.7232 91.4105 56.8762 91.393 57.0423H91.4193C91.4892 56.9024 91.5635 56.7669 91.6422 56.6357C91.7209 56.4959 91.7996 56.3778 91.8783 56.2817L94.9862 52.0721H96.0353ZM94.2125 49.2264H95.1305C95.1655 49.5761 95.1043 49.8909 94.9469 50.1706C94.7895 50.4416 94.5578 50.6646 94.2519 50.8394C93.9459 51.0055 93.5787 51.0886 93.1503 51.0886C92.7132 51.0886 92.3372 51.0055 92.0225 50.8394C91.7165 50.6646 91.4848 50.4416 91.3275 50.1706C91.1701 49.8909 91.1045 49.5761 91.1308 49.2264H92.0618C92.0531 49.6111 92.1449 49.904 92.3372 50.1051C92.5296 50.2974 92.8006 50.3936 93.1503 50.3936C93.4913 50.3936 93.7535 50.2974 93.9371 50.1051C94.1207 49.904 94.2125 49.6111 94.2125 49.2264Z" fill="white"/>
</svg>
