<svg width="88" height="68" viewBox="0 0 88 68" fill="none" xmlns="http://www.w3.org/2000/svg">
<path d="M7.70123 9.54666V3.99844C7.70123 3.5547 7.82213 3.11935 8.05093 2.73915C8.84157 1.42537 10.6332 1.15664 11.7744 2.18064L15.2692 5.31626C15.6354 5.64483 16.0387 5.92954 16.471 6.1646L21.4664 8.88122C22.2694 9.31789 23.1689 9.54666 24.0829 9.54666H28.0031C28.8628 9.54666 29.5597 10.2436 29.5597 11.1033C29.5597 11.9629 30.2566 12.6599 31.1163 12.6599H38.9274H42.6822C44.7043 12.6599 46.6722 13.3142 48.2916 14.5252L49.8953 15.7243C50.4917 16.1703 51.1424 16.5361 51.8108 16.8646C53.3024 17.5979 55.1648 18.7126 55.1648 19.5089C55.1648 19.921 55.7346 20.2762 56.5206 20.5658C58.5231 21.3036 60.1609 22.9787 60.1609 25.1127V27.5866C60.1609 29.618 59.4981 31.5925 58.29 33.2255C57.0934 34.8429 55.7885 36.6328 55.1648 37.5655C54.3836 38.7337 52.7882 40.7391 51.6318 42.1537C51.0796 42.8293 50.4158 43.4044 49.6753 43.8659C47.2632 45.3689 45.7971 48.01 45.7971 50.8521V53.7542C45.7971 57.4987 43.241 60.6784 40.5979 63.3308C39.9313 63.9997 39.3441 64.7535 38.9274 65.5844C37.0539 69.3203 32.6823 65.5844 29.5597 65.5844C27.185 65.5844 24.9325 64.5314 23.4096 62.7094L22.6901 61.8486L18.8996 58.0694C18.5129 57.6839 18.1607 57.2654 17.8469 56.8185L13.9469 51.2637L9.57477 46.2825C8.32574 45.0372 5.20318 42.1731 2.70512 40.6787C0.207066 39.1844 0.415237 37.9806 0.83158 37.5655L3.0742 35.3296C4.83695 33.5722 5.82769 31.1854 5.82769 28.6962V26.3708C5.82769 25.5358 5.94102 24.7055 6.15212 23.8977C6.80574 21.3964 7.70123 17.661 7.70123 16.3957V9.54666Z" fill="#5C5C5C" fill-opacity="0.9"/>
<path d="M18.799 23.18V24.216H15.9795C15.4025 24.216 15.0877 24.5088 15.0353 25.0946C14.9741 25.829 14.9173 26.4715 14.8648 27.0223C14.8124 27.5644 14.7512 28.0452 14.6812 28.4648C14.62 28.8757 14.5457 29.2429 14.4583 29.5664C14.3796 29.8811 14.2659 30.1871 14.1173 30.4844C13.9512 30.869 13.7501 31.1969 13.5141 31.4679C13.2868 31.7389 13.0201 31.94 12.7141 32.0711C12.4169 32.1935 12.0803 32.2504 11.7044 32.2416L11.5995 31.2319C11.8792 31.1532 12.124 31.0352 12.3338 30.8778C12.5524 30.7117 12.7404 30.4625 12.8977 30.1303C12.9939 29.903 13.077 29.6801 13.1469 29.4615C13.2168 29.2342 13.278 28.985 13.3305 28.714C13.3917 28.443 13.4441 28.1283 13.4879 27.7698C13.5403 27.4114 13.584 27.0005 13.619 26.5371C13.6627 26.065 13.7108 25.5142 13.7633 24.8848C13.8682 23.7482 14.4845 23.18 15.6123 23.18H18.799ZM18.9826 23.18V32.2285H17.6712V23.18H18.9826ZM26.8407 25.6716C27.409 25.6716 27.8855 25.7241 28.2701 25.829C28.6635 25.9339 28.9783 26.1131 29.2143 26.3666C29.4591 26.6202 29.6383 26.9655 29.752 27.4026C29.8656 27.831 29.9225 28.373 29.9225 29.0287C29.9225 29.8768 29.8219 30.5456 29.6208 31.0352C29.4198 31.516 29.0963 31.857 28.6504 32.058C28.2046 32.2504 27.6013 32.3465 26.8407 32.3465C26.1238 32.3465 25.5512 32.2504 25.1228 32.058C24.6944 31.857 24.3841 31.516 24.1917 31.0352C24.0081 30.5456 23.9163 29.8768 23.9163 29.0287C23.9163 28.373 23.9688 27.831 24.0737 27.4026C24.1786 26.9655 24.3447 26.6202 24.572 26.3666C24.7993 26.1131 25.1009 25.9339 25.4769 25.829C25.8528 25.7241 26.3074 25.6716 26.8407 25.6716ZM22.3689 25.829V32.2285H21.11V25.829H22.3689ZM24.4802 28.4517V29.409H22.2771V28.4517H24.4802ZM26.8276 26.7076C26.3992 26.7076 26.0583 26.7775 25.8047 26.9174C25.5599 27.0573 25.3851 27.2933 25.2802 27.6256C25.184 27.9578 25.1359 28.4168 25.1359 29.0025C25.1359 29.5883 25.184 30.0516 25.2802 30.3926C25.3851 30.7248 25.5599 30.9608 25.8047 31.1007C26.0583 31.2319 26.3992 31.2974 26.8276 31.2974C27.2735 31.2974 27.6275 31.2319 27.8898 31.1007C28.1521 30.9608 28.3357 30.7248 28.4406 30.3926C28.5543 30.0516 28.6111 29.5883 28.6111 29.0025C28.6111 28.4168 28.5543 27.9578 28.4406 27.6256C28.3357 27.2933 28.1521 27.0573 27.8898 26.9174C27.6275 26.7775 27.2735 26.7076 26.8276 26.7076ZM36.8827 22.5636L37.1581 23.534C36.8959 23.7002 36.6467 23.8269 36.4106 23.9143C36.1746 24.0018 35.9429 24.0673 35.7156 24.1111C35.497 24.146 35.2741 24.181 35.0468 24.216C34.8195 24.2509 34.5834 24.3034 34.3387 24.3733C33.919 24.487 33.5868 24.6487 33.342 24.8585C33.106 25.0684 32.9311 25.3044 32.8174 25.5667C32.7125 25.829 32.6339 26.1 32.5814 26.3797C32.5464 26.5808 32.5158 26.7644 32.4896 26.9305C32.4721 27.0879 32.459 27.219 32.4503 27.3239H32.4765C32.5552 27.1666 32.6513 27.0092 32.765 26.8518C32.8786 26.6945 33.0229 26.5546 33.1978 26.4322C33.3813 26.3098 33.6087 26.2136 33.8797 26.1437C34.1594 26.065 34.5004 26.0257 34.9025 26.0257C35.5408 26.0257 36.0478 26.1306 36.4238 26.3404C36.7997 26.5502 37.0707 26.8824 37.2368 27.3371C37.4029 27.7829 37.486 28.373 37.486 29.1074C37.486 29.7893 37.4029 30.3751 37.2368 30.8647C37.0707 31.3543 36.7691 31.7302 36.332 31.9925C35.9036 32.2547 35.296 32.3859 34.5091 32.3859C33.9409 32.3859 33.4688 32.3203 33.0928 32.1892C32.7257 32.058 32.4328 31.8744 32.2142 31.6384C32.0044 31.3936 31.847 31.1051 31.7421 30.7729C31.6459 30.4407 31.5804 30.0691 31.5454 29.6582C31.5192 29.2473 31.5061 28.8102 31.5061 28.3468C31.5061 27.6649 31.5323 27.0529 31.5847 26.5109C31.6459 25.9688 31.7552 25.4967 31.9126 25.0946C32.0787 24.6924 32.3235 24.3515 32.647 24.0717C32.9704 23.7919 33.3945 23.5734 33.919 23.416C34.1813 23.3373 34.4305 23.2761 34.6665 23.2324C34.9113 23.1887 35.1517 23.145 35.3878 23.1013C35.6326 23.0576 35.8773 22.9964 36.1221 22.9177C36.3669 22.839 36.6205 22.721 36.8827 22.5636ZM34.5747 27.0354C34.0764 27.0354 33.7004 27.1141 33.4469 27.2715C33.1934 27.4289 33.0229 27.6605 32.9355 27.9665C32.8568 28.2638 32.8174 28.6441 32.8174 29.1074C32.8174 29.6757 32.8699 30.1259 32.9748 30.4581C33.0797 30.7904 33.2546 31.022 33.4994 31.1532C33.7529 31.2843 34.0851 31.3499 34.496 31.3499C34.9069 31.3499 35.2304 31.2843 35.4664 31.1532C35.7112 31.022 35.8861 30.7947 35.991 30.4713C36.0959 30.139 36.1484 29.6844 36.1484 29.1074C36.1484 28.5654 36.1003 28.1457 36.0041 27.8485C35.9167 27.5425 35.7593 27.3327 35.532 27.219C35.3047 27.0966 34.9856 27.0354 34.5747 27.0354ZM41.8939 25.6716C42.8818 25.6716 43.5943 25.8508 44.0314 26.2093C44.4773 26.559 44.7046 27.0791 44.7133 27.7698C44.7133 28.3468 44.5866 28.7927 44.333 29.1074C44.0795 29.4222 43.6642 29.5795 43.0872 29.5795H39.376V28.6747H42.7594C43.0391 28.6747 43.2227 28.5829 43.3102 28.3993C43.4063 28.2157 43.45 28.0059 43.4413 27.7698C43.4413 27.3764 43.3276 27.0966 43.1003 26.9305C42.8818 26.7644 42.4971 26.6814 41.9463 26.6814C41.5004 26.6814 41.1507 26.7469 40.8972 26.8781C40.6437 27.0092 40.4645 27.2365 40.3595 27.56C40.2546 27.8835 40.2022 28.3381 40.2022 28.9238C40.2022 29.5795 40.2677 30.0822 40.3989 30.4319C40.53 30.7729 40.7355 31.0089 41.0152 31.1401C41.3037 31.2712 41.684 31.3368 42.1561 31.3368C42.4971 31.3368 42.873 31.3237 43.2839 31.2974C43.7036 31.2625 44.0839 31.2231 44.4248 31.1794L44.5429 32.0056C44.3418 32.093 44.0882 32.1673 43.7823 32.2285C43.485 32.281 43.179 32.3203 42.8643 32.3465C42.5496 32.3728 42.261 32.3859 41.9988 32.3859C41.2557 32.3859 40.6524 32.2722 40.1891 32.0449C39.7345 31.8176 39.4022 31.4592 39.1924 30.9696C38.9913 30.4713 38.8908 29.8199 38.8908 29.0156C38.8908 28.1763 38.9957 27.5119 39.2055 27.0223C39.4153 26.5327 39.7388 26.1874 40.1759 25.9863C40.6131 25.7765 41.1857 25.6716 41.8939 25.6716ZM50.1021 25.6716C50.8977 25.6716 51.4659 25.9601 51.8069 26.5371C52.1479 27.1141 52.3183 27.9578 52.3183 29.0681C52.3183 29.8986 52.2309 30.5587 52.0561 31.0483C51.8812 31.5291 51.6146 31.8744 51.2561 32.0843C50.8977 32.2853 50.4474 32.3859 49.9054 32.3859C49.477 32.3859 49.0574 32.3291 48.6465 32.2154C48.2356 32.093 47.8465 31.9094 47.4793 31.6646L47.558 30.9565C47.9427 31.0701 48.2836 31.1619 48.5809 31.2319C48.8781 31.3018 49.1972 31.3368 49.5382 31.3368C49.8966 31.3368 50.1808 31.2756 50.3906 31.1532C50.6092 31.0308 50.7665 30.8035 50.8627 30.4713C50.9589 30.139 51.007 29.6713 51.007 29.0681C51.007 28.4736 50.9632 28.0102 50.8758 27.678C50.7884 27.3371 50.6485 27.0966 50.4562 26.9568C50.2638 26.8081 50.0016 26.7338 49.6693 26.7338C49.3371 26.7338 49.0093 26.8125 48.6858 26.9699C48.3623 27.1185 47.9908 27.3545 47.5711 27.678L47.4269 26.8912C47.6454 26.6464 47.899 26.4322 48.1875 26.2486C48.4847 26.065 48.7995 25.9251 49.1317 25.829C49.4639 25.7241 49.7874 25.6716 50.1021 25.6716ZM47.3744 25.829L47.5187 27.1272L47.6105 27.2977V31.4155L47.5449 31.5728C47.5711 31.8176 47.5886 32.058 47.5974 32.2941C47.6148 32.5301 47.6192 32.7793 47.6105 33.0416V34.8382H46.3515V25.829H47.3744ZM15.1795 41.6716C16.1675 41.6716 16.88 41.8508 17.3171 42.2093C17.763 42.559 17.9903 43.0791 17.999 43.7698C17.999 44.3468 17.8723 44.7927 17.6187 45.1074C17.3652 45.4222 16.9499 45.5795 16.3729 45.5795H12.6617V44.6747H16.0451C16.3248 44.6747 16.5084 44.5829 16.5958 44.3993C16.692 44.2157 16.7357 44.0059 16.727 43.7698C16.727 43.3764 16.6133 43.0966 16.386 42.9305C16.1675 42.7644 15.7828 42.6814 15.232 42.6814C14.7861 42.6814 14.4364 42.7469 14.1829 42.8781C13.9294 43.0092 13.7501 43.2365 13.6452 43.56C13.5403 43.8835 13.4879 44.3381 13.4879 44.9238C13.4879 45.5795 13.5534 46.0822 13.6846 46.4319C13.8157 46.7729 14.0212 47.0089 14.3009 47.1401C14.5894 47.2712 14.9697 47.3368 15.4418 47.3368C15.7828 47.3368 16.1587 47.3237 16.5696 47.2974C16.9893 47.2625 17.3696 47.2231 17.7105 47.1794L17.8285 48.0056C17.6275 48.093 17.3739 48.1673 17.0679 48.2285C16.7707 48.281 16.4647 48.3203 16.15 48.3465C15.8352 48.3728 15.5467 48.3859 15.2845 48.3859C14.5413 48.3859 13.9381 48.2722 13.4747 48.0449C13.0201 47.8176 12.6879 47.4592 12.4781 46.9696C12.277 46.4713 12.1765 45.8199 12.1765 45.0156C12.1765 44.1763 12.2814 43.5119 12.4912 43.0223C12.701 42.5327 13.0245 42.1874 13.4616 41.9863C13.8988 41.7765 14.4714 41.6716 15.1795 41.6716ZM20.8699 41.829V48.2285H19.6372V41.829H20.8699ZM26.0237 47.2581V48.2285H20.7781L20.765 47.2581H26.0237ZM25.145 41.829L25.1319 48.2285H23.8861V41.829H25.145ZM26.0237 48.1629V50.1038H25.1975L25.0664 48.1629H26.0237ZM32.9951 41.829C32.8465 42.2224 32.711 42.5765 32.5886 42.8912C32.4662 43.2059 32.3438 43.4813 32.2214 43.7174C32.099 43.9534 31.9591 44.1501 31.8017 44.3075C31.6531 44.4648 31.4783 44.5916 31.2772 44.6878C31.0849 44.7839 30.8488 44.8451 30.569 44.8714V44.9238C30.8663 44.9501 31.1155 45.0069 31.3165 45.0943C31.5264 45.1817 31.7099 45.3085 31.8673 45.4746C32.0334 45.6407 32.182 45.8505 32.3132 46.1041C32.4443 46.3489 32.5798 46.6505 32.7197 47.0089C32.8596 47.3586 33.0126 47.7652 33.1787 48.2285H31.8542C31.6968 47.8001 31.5526 47.4286 31.4214 47.1138C31.299 46.7904 31.1766 46.5193 31.0543 46.3008C30.9319 46.0735 30.8007 45.8943 30.6608 45.7631C30.521 45.6232 30.3548 45.5271 30.1625 45.4746C29.9789 45.4134 29.7604 45.3828 29.5068 45.3828V44.4255C29.8128 44.4255 30.0707 44.373 30.2805 44.2681C30.4904 44.1545 30.6696 43.9884 30.8182 43.7698C30.9756 43.5512 31.1198 43.2846 31.251 42.9699C31.3821 42.6464 31.5264 42.2661 31.6837 41.829H32.9951ZM28.7593 41.829V43.678C28.7593 43.8791 28.7418 44.0845 28.7069 44.2944C28.6806 44.4954 28.6369 44.6878 28.5757 44.8714C28.6282 45.0637 28.6719 45.256 28.7069 45.4484C28.7418 45.6407 28.7593 45.8199 28.7593 45.986V48.2285H27.4873V41.829H28.7593ZM29.9396 44.4255V45.3828H28.3921V44.4255H29.9396ZM40.3259 41.829V48.2285H39.185V44.1501C39.185 44.0015 39.1894 43.8572 39.1981 43.7174C39.2069 43.5775 39.22 43.4245 39.2375 43.2584H39.1981C39.1457 43.3895 39.0758 43.5294 38.9883 43.678C38.9096 43.8179 38.831 43.9403 38.7523 44.0452L35.6443 48.2285H34.5821V41.829H35.723V45.9205C35.723 46.0604 35.7186 46.2002 35.7099 46.3401C35.7099 46.48 35.7011 46.633 35.6836 46.7991H35.7099C35.7798 46.6592 35.8541 46.5237 35.9328 46.3926C36.0115 46.2527 36.0902 46.1347 36.1689 46.0385L39.2768 41.829H40.3259ZM48.0739 41.829V48.2285H46.933V44.1501C46.933 44.0015 46.9373 43.8572 46.9461 43.7174C46.9548 43.5775 46.9679 43.4245 46.9854 43.2584H46.9461C46.8936 43.3895 46.8237 43.5294 46.7362 43.678C46.6576 43.8179 46.5789 43.9403 46.5002 44.0452L43.3922 48.2285H42.33V41.829H43.4709V45.9205C43.4709 46.0604 43.4665 46.2002 43.4578 46.3401C43.4578 46.48 43.449 46.633 43.4316 46.7991H43.4578C43.5277 46.6592 43.602 46.5237 43.6807 46.3926C43.7594 46.2527 43.8381 46.1347 43.9168 46.0385L47.0248 41.829H48.0739ZM46.251 38.9833H47.169C47.204 39.333 47.1428 39.6477 46.9854 39.9275C46.828 40.1985 46.5964 40.4214 46.2904 40.5963C45.9844 40.7624 45.6172 40.8454 45.1888 40.8454C44.7517 40.8454 44.3758 40.7624 44.061 40.5963C43.755 40.4214 43.5234 40.1985 43.366 39.9275C43.2086 39.6477 43.1431 39.333 43.1693 38.9833H44.1004C44.0916 39.3679 44.1834 39.6608 44.3758 39.8619C44.5681 40.0542 44.8391 40.1504 45.1888 40.1504C45.5298 40.1504 45.7921 40.0542 45.9756 39.8619C46.1592 39.6608 46.251 39.3679 46.251 38.9833Z" fill="white"/>
</svg>
