<svg width="176" height="134" viewBox="0 0 176 134" fill="none" xmlns="http://www.w3.org/2000/svg">
<path d="M16.9419 7.86721H22.3691C24.069 7.86721 25.6747 8.6464 26.7269 9.98155L27.2206 10.608C28.7628 12.565 31.5635 12.9798 33.6068 11.5538C34.1484 11.1758 34.6044 10.6879 34.9449 10.122L36.3019 7.86721C36.9264 7.03702 38.5501 5.37664 40.049 5.37664C41.168 5.37664 42.161 6.09204 42.5244 7.15043C43.2568 9.28324 44.2926 12.2181 45.0451 14.0936C46.0443 16.5842 49.6248 15.1314 51.2902 14.0936L53.6606 12.1242C54.5328 11.3996 55.0373 10.3245 55.0373 9.19061C55.0373 7.08422 56.7449 5.37664 58.8513 5.37664H59.4089H63.156H66.903H70.3018C71.7064 5.37664 73.0351 4.73922 73.9142 3.64367C74.6274 2.75485 75.6433 2.16015 76.7674 1.97335L81.3492 1.21201C83.9219 0.78452 86.263 2.7687 86.263 5.37664V8.58558C86.263 10.1569 86.6582 11.7029 87.4124 13.0814L89.6453 17.1629C89.8881 17.6065 90.1664 18.0298 90.4774 18.4286L93.6956 22.5538C94.1402 23.1237 94.3816 23.8258 94.3816 24.5486C94.3816 26.3398 95.8336 27.7917 97.6248 27.7917H98.2176C98.573 27.7917 98.9266 27.7424 99.2684 27.645L104.146 26.2557C106.307 25.64 108.175 24.2676 109.409 22.3889L110.579 20.6075C111.718 18.8736 113.653 17.8295 115.727 17.8295C116.878 17.8295 118.007 18.1523 118.984 18.7612L122.485 20.9427L131.852 27.7917L137.186 31.1754C138.2 31.8193 139.082 32.6525 139.782 33.6295L144.249 39.8643C144.726 40.53 145.113 41.2554 145.402 42.022L148.714 50.8295L150.881 60.5502C151.1 61.5349 151.478 62.4778 151.998 63.3423L154.527 67.545C154.815 68.023 155.145 68.4744 155.513 68.8937L156.838 70.4034C158.422 72.2093 160.709 73.2446 163.111 73.2446C165.831 73.2446 168.325 74.6237 170.179 76.6129C171.605 78.1425 173.189 79.471 174.319 79.471C175.593 79.471 174.905 81.831 173.808 84.2951C172.708 86.765 170.154 88.188 167.45 88.188H159.331H152.972C151.845 88.188 150.764 88.6349 149.966 89.4306C149.165 90.2295 148.714 91.3145 148.714 92.4461V97.5276V104.306C148.714 105.179 148.836 106.048 149.077 106.887L150.412 111.545C150.933 113.365 150.891 115.3 150.291 117.095L149.359 119.884C148.934 121.154 148.243 122.317 147.33 123.295C144.384 126.449 139.998 131.123 138.722 132.396C137.527 133.587 134.929 133.274 133.081 132.783C132.254 132.563 131.502 132.14 130.812 131.635L123.668 126.412C122.884 125.838 122.015 125.391 121.094 125.084L114.049 122.743C112.223 122.136 110.254 122.106 108.411 122.658L104.998 123.679L104.383 123.863C101.576 124.702 98.7532 122.6 98.7532 119.671C98.7532 119.03 98.6124 118.396 98.3406 117.816L94.9849 110.647C94.585 109.792 94.0584 109.003 93.4228 108.306L89.7266 104.253C88.6829 103.108 87.9393 101.722 87.5625 100.22L86.6752 96.681C86.4026 95.5939 85.9371 94.5645 85.3008 93.6418L82.4508 89.5087C80.5578 86.7635 77.3483 85.2733 74.0143 85.3381C72.0151 85.3769 70.1593 85.3268 69.4011 85.0748C67.5276 84.4521 61.2824 85.0748 59.4089 83.2069C57.5353 81.3389 50.6657 83.2069 47.5431 83.2069H36.3019H33.8935C32.2 83.2069 30.5383 82.7477 29.0849 81.8784L26.0495 80.0625C25.3927 79.6697 24.7839 79.2004 24.2586 78.6438C23.3225 77.6518 22.0614 76.231 21.3135 75.1125C20.0645 73.2446 16.9419 67.6408 16.9419 65.1502C16.9419 62.6597 19.44 56.4333 19.44 53.3201V43.9804V33.8035C19.44 32.7088 19.2481 31.624 18.873 30.5955L17.7225 27.4413C17.2096 26.0351 16.3631 24.7782 15.2866 23.7381C12.4815 21.0278 8.82327 17.1901 8.82327 15.9616C8.82327 14.9822 7.39261 14.4842 5.93774 14.2573C4.58481 14.0463 3.2506 13.6146 2.1974 12.7396L0.844886 11.6158C0.360363 11.2133 0.0800781 10.616 0.0800781 9.98608C0.0800781 8.81586 1.02827 7.86721 2.19849 7.86721H8.82327H16.9419Z" fill="#5C5C5C" fill-opacity="0.9"/>
<path d="M49.8952 55.6749C50.2886 55.6749 50.6252 55.6837 50.905 55.7012C51.1848 55.7187 51.4427 55.7493 51.6787 55.793C51.9148 55.8279 52.1595 55.8804 52.4131 55.9503L52.2819 56.9339C52.0197 56.9076 51.7749 56.8902 51.5476 56.8814C51.3203 56.8639 51.0755 56.8508 50.8132 56.8421C50.5597 56.8333 50.2537 56.829 49.8952 56.829C49.3357 56.829 48.8942 56.9382 48.5707 57.1568C48.2473 57.3754 48.0156 57.7426 47.8757 58.2584C47.7446 58.7654 47.679 59.4648 47.679 60.3566C47.679 61.2483 47.7446 61.9521 47.8757 62.4679C48.0156 62.975 48.2473 63.3378 48.5707 63.5564C48.8942 63.7749 49.3357 63.8842 49.8952 63.8842C50.4635 63.8842 50.94 63.8755 51.3246 63.858C51.7181 63.8318 52.0984 63.7924 52.4655 63.74L52.5967 64.7235C52.212 64.8371 51.8142 64.9158 51.4033 64.9595C51.0012 65.012 50.4985 65.0382 49.8952 65.0382C49.021 65.0382 48.3172 64.8896 47.7839 64.5924C47.2593 64.2864 46.879 63.7924 46.643 63.1105C46.4069 62.4286 46.2889 61.5106 46.2889 60.3566C46.2889 59.2026 46.4069 58.2846 46.643 57.6027C46.879 56.9208 47.2593 56.4312 47.7839 56.1339C48.3172 55.8279 49.021 55.6749 49.8952 55.6749ZM56.6542 58.3239C57.6421 58.3239 58.3546 58.5032 58.7917 58.8616C59.2376 59.2113 59.4649 59.7315 59.4737 60.4222C59.4737 60.9992 59.3469 61.445 59.0934 61.7598C58.8398 62.0745 58.4245 62.2319 57.8475 62.2319H54.1363V61.327H57.5197C57.7995 61.327 57.983 61.2352 58.0705 61.0516C58.1666 60.868 58.2104 60.6582 58.2016 60.4222C58.2016 60.0287 58.088 59.749 57.8607 59.5829C57.6421 59.4168 57.2574 59.3337 56.7066 59.3337C56.2608 59.3337 55.9111 59.3993 55.6575 59.5304C55.404 59.6616 55.2248 59.8889 55.1199 60.2123C55.015 60.5358 54.9625 60.9904 54.9625 61.5762C54.9625 62.2319 55.0281 62.7346 55.1592 63.0843C55.2903 63.4252 55.4958 63.6613 55.7756 63.7924C56.0641 63.9235 56.4444 63.9891 56.9165 63.9891C57.2574 63.9891 57.6333 63.976 58.0442 63.9498C58.4639 63.9148 58.8442 63.8755 59.1851 63.8318L59.3032 64.6579C59.1021 64.7453 58.8486 64.8197 58.5426 64.8809C58.2453 64.9333 57.9393 64.9727 57.6246 64.9989C57.3099 65.0251 57.0214 65.0382 56.7591 65.0382C56.016 65.0382 55.4127 64.9246 54.9494 64.6973C54.4948 64.47 54.1626 64.1115 53.9527 63.6219C53.7517 63.1236 53.6511 62.4723 53.6511 61.668C53.6511 60.8287 53.756 60.1643 53.9658 59.6747C54.1757 59.1851 54.4991 58.8398 54.9363 58.6387C55.3734 58.4289 55.946 58.3239 56.6542 58.3239ZM64.8624 58.3239C65.658 58.3239 66.2263 58.6124 66.5672 59.1895C66.9082 59.7665 67.0787 60.6101 67.0787 61.7204C67.0787 62.551 66.9912 63.211 66.8164 63.7006C66.6415 64.1815 66.3749 64.5268 66.0164 64.7366C65.658 64.9377 65.2077 65.0382 64.6657 65.0382C64.2373 65.0382 63.8177 64.9814 63.4068 64.8677C62.9959 64.7453 62.6068 64.5618 62.2396 64.317L62.3183 63.6088C62.703 63.7225 63.044 63.8143 63.3412 63.8842C63.6385 63.9541 63.9576 63.9891 64.2985 63.9891C64.657 63.9891 64.9411 63.9279 65.1509 63.8055C65.3695 63.6831 65.5268 63.4558 65.623 63.1236C65.7192 62.7914 65.7673 62.3237 65.7673 61.7204C65.7673 61.1259 65.7236 60.6626 65.6361 60.3304C65.5487 59.9894 65.4088 59.749 65.2165 59.6091C65.0242 59.4605 64.7619 59.3862 64.4297 59.3862C64.0974 59.3862 63.7696 59.4648 63.4461 59.6222C63.1226 59.7708 62.7511 60.0069 62.3314 60.3304L62.1872 59.5435C62.4058 59.2987 62.6593 59.0845 62.9478 58.901C63.245 58.7174 63.5598 58.5775 63.892 58.4813C64.2242 58.3764 64.5477 58.3239 64.8624 58.3239ZM62.1347 58.4813L62.279 59.7796L62.3708 59.9501V64.0678L62.3052 64.2252C62.3314 64.47 62.3489 64.7104 62.3577 64.9464C62.3752 65.1825 62.3795 65.4316 62.3708 65.6939V67.4905H61.1119V58.4813H62.1347ZM74.395 58.4813V64.8809H73.1492V58.4813H74.395ZM70.0281 58.4813V64.8809H68.7954V58.4813H70.0281ZM73.2673 58.4813L73.2541 59.4648H69.9626V58.4813H73.2673ZM82.2122 58.4813L79.7075 65.1825C79.6288 65.4098 79.5283 65.6415 79.4059 65.8775C79.2835 66.1223 79.1348 66.354 78.96 66.5725C78.7939 66.7911 78.5972 66.9791 78.3699 67.1364C78.0377 67.3637 77.6661 67.4993 77.2552 67.543C76.853 67.5867 76.4246 67.5779 75.97 67.5167L76.0749 66.6512C76.3722 66.66 76.6563 66.6469 76.9273 66.6119C77.1984 66.5769 77.4388 66.4939 77.6486 66.3627C77.8322 66.2316 77.9983 66.0524 78.1469 65.8251C78.2956 65.6065 78.4223 65.3661 78.5272 65.1038L78.8551 64.3301C78.925 64.1465 78.995 63.9454 79.0649 63.7268C79.1348 63.4995 79.2004 63.3028 79.2616 63.1367L80.8484 58.4813H82.2122ZM76.9798 58.4813L78.5928 63.1367C78.6365 63.2679 78.6759 63.4034 78.7108 63.5432C78.7458 63.6744 78.7808 63.8099 78.8157 63.9498H79.1305L78.6977 64.8809H78.3568C78.2431 64.8809 78.1469 64.8546 78.0683 64.8022C77.9983 64.741 77.9415 64.6579 77.8978 64.553L75.6291 58.4813H76.9798ZM89.0847 58.4813L87.1176 61.5893L89.2421 64.8809H87.8782L85.8325 61.5893L87.734 58.4813H89.0847ZM84.2588 58.4813L86.1603 61.5893L84.1014 64.8809H82.7376L84.862 61.5893L82.9081 58.4813H84.2588ZM86.7373 61.091V62.022H85.2555V61.091H86.7373ZM93.1545 58.3239C93.9063 58.3239 94.5052 58.4332 94.9511 58.6518C95.397 58.8704 95.7204 59.2288 95.9215 59.7271C96.1226 60.2167 96.2231 60.868 96.2231 61.6811C96.2231 62.5029 96.1226 63.1629 95.9215 63.6613C95.7204 64.1509 95.397 64.5049 94.9511 64.7235C94.5052 64.9421 93.9063 65.0513 93.1545 65.0513C92.4026 65.0513 91.7994 64.9421 91.3448 64.7235C90.8989 64.5049 90.5754 64.1509 90.3744 63.6613C90.1733 63.1629 90.0727 62.5029 90.0727 61.6811C90.0727 60.868 90.1733 60.2167 90.3744 59.7271C90.5754 59.2288 90.8989 58.8704 91.3448 58.6518C91.7994 58.4332 92.4026 58.3239 93.1545 58.3239ZM93.1545 59.3468C92.7174 59.3468 92.3677 59.4168 92.1054 59.5566C91.8518 59.6965 91.6683 59.9369 91.5546 60.2779C91.4497 60.6101 91.3972 61.0778 91.3972 61.6811C91.3972 62.2843 91.4497 62.7564 91.5546 63.0974C91.6683 63.4383 91.8518 63.6788 92.1054 63.8186C92.3677 63.9498 92.7174 64.0153 93.1545 64.0153C93.5916 64.0153 93.9369 63.9498 94.1905 63.8186C94.444 63.6788 94.6232 63.4383 94.7281 63.0974C94.8331 62.7564 94.8855 62.2843 94.8855 61.6811C94.8855 61.0778 94.8331 60.6101 94.7281 60.2779C94.6232 59.9369 94.444 59.6965 94.1905 59.5566C93.9369 59.4168 93.5916 59.3468 93.1545 59.3468ZM100.606 58.4157C101.279 58.4157 101.812 58.4638 102.206 58.56C102.599 58.6562 102.883 58.8266 103.058 59.0714C103.242 59.3162 103.333 59.6659 103.333 60.1205C103.333 60.5752 103.224 60.9205 103.006 61.1565C102.787 61.3838 102.433 61.5193 101.943 61.5631V61.6024C102.538 61.6461 102.953 61.8122 103.189 62.1007C103.434 62.3892 103.556 62.7914 103.556 63.3072C103.556 63.7443 103.469 64.0853 103.294 64.3301C103.119 64.5661 102.844 64.7322 102.468 64.8284C102.092 64.9246 101.594 64.9727 100.973 64.9727C100.51 64.9727 100.103 64.9683 99.7533 64.9595C99.4123 64.9595 99.0976 64.9508 98.8091 64.9333C98.5293 64.9246 98.2321 64.9115 97.9174 64.894L98.0747 63.9891C98.2496 63.9979 98.5774 64.0066 99.0583 64.0153C99.5479 64.0153 100.12 64.0153 100.776 64.0153C101.152 64.0153 101.449 63.9891 101.668 63.9367C101.895 63.8842 102.053 63.788 102.14 63.6482C102.236 63.4995 102.284 63.2941 102.284 63.0318C102.284 62.6384 102.171 62.3717 101.943 62.2319C101.716 62.0832 101.309 62.0089 100.724 62.0089H98.0616V61.1565H100.724C101.065 61.1565 101.336 61.1347 101.537 61.091C101.747 61.0385 101.895 60.9467 101.983 60.8156C102.079 60.6757 102.127 60.4834 102.127 60.2386C102.127 60.0025 102.074 59.8233 101.97 59.7009C101.873 59.5785 101.712 59.4911 101.484 59.4386C101.257 59.3862 100.951 59.3599 100.566 59.3599C100.173 59.3512 99.8232 59.3468 99.5173 59.3468C99.2113 59.3468 98.9402 59.3512 98.7042 59.3599C98.4682 59.3599 98.2583 59.3687 98.0747 59.3862L97.9174 58.4944C98.1971 58.4682 98.4638 58.4507 98.7173 58.442C98.9708 58.4332 99.2462 58.4289 99.5435 58.4289C99.8495 58.4201 100.204 58.4157 100.606 58.4157ZM99.1107 58.4944V64.894H97.9174V58.4944H99.1107ZM110.738 58.4813C110.589 58.8747 110.454 59.2288 110.331 59.5435C110.209 59.8583 110.086 60.1337 109.964 60.3697C109.842 60.6057 109.702 60.8025 109.544 60.9598C109.396 61.1172 109.221 61.244 109.02 61.3401C108.827 61.4363 108.591 61.4975 108.312 61.5237V61.5762C108.609 61.6024 108.858 61.6592 109.059 61.7467C109.269 61.8341 109.453 61.9608 109.61 62.127C109.776 62.2931 109.925 62.5029 110.056 62.7564C110.187 63.0012 110.322 63.3028 110.462 63.6613C110.602 64.011 110.755 64.4175 110.921 64.8809H109.597C109.439 64.4525 109.295 64.0809 109.164 63.7662C109.042 63.4427 108.919 63.1717 108.797 62.9531C108.674 62.7258 108.543 62.5466 108.403 62.4155C108.264 62.2756 108.097 62.1794 107.905 62.127C107.721 62.0658 107.503 62.0352 107.249 62.0352V61.0778C107.555 61.0778 107.813 61.0254 108.023 60.9205C108.233 60.8068 108.412 60.6407 108.561 60.4222C108.718 60.2036 108.862 59.9369 108.994 59.6222C109.125 59.2987 109.269 58.9184 109.426 58.4813H110.738ZM106.502 58.4813V60.3304C106.502 60.5314 106.484 60.7369 106.449 60.9467C106.423 61.1478 106.38 61.3401 106.318 61.5237C106.371 61.7161 106.414 61.9084 106.449 62.1007C106.484 62.2931 106.502 62.4723 106.502 62.6384V64.8809H105.23V58.4813H106.502ZM107.682 61.0778V62.0352H106.135V61.0778H107.682ZM118.069 58.4813V64.8809H116.928V60.8025C116.928 60.6538 116.932 60.5096 116.941 60.3697C116.949 60.2298 116.963 60.0768 116.98 59.9107H116.941C116.888 60.0419 116.818 60.1817 116.731 60.3304C116.652 60.4702 116.574 60.5926 116.495 60.6975L113.387 64.8809H112.325V58.4813H113.466V62.5728C113.466 62.7127 113.461 62.8526 113.452 62.9925C113.452 63.1323 113.444 63.2853 113.426 63.4515H113.452C113.522 63.3116 113.597 63.1761 113.675 63.0449C113.754 62.905 113.833 62.787 113.911 62.6908L117.019 58.4813H118.069ZM125.816 58.4813V64.8809H124.676V60.8025C124.676 60.6538 124.68 60.5096 124.689 60.3697C124.697 60.2298 124.711 60.0768 124.728 59.9107H124.689C124.636 60.0419 124.566 60.1817 124.479 60.3304C124.4 60.4702 124.321 60.5926 124.243 60.6975L121.135 64.8809H120.073V58.4813H121.213V62.5728C121.213 62.7127 121.209 62.8526 121.2 62.9925C121.2 63.1323 121.192 63.2853 121.174 63.4515H121.2C121.27 63.3116 121.345 63.1761 121.423 63.0449C121.502 62.905 121.581 62.787 121.659 62.6908L124.767 58.4813H125.816ZM123.994 55.6356H124.912C124.947 55.9853 124.885 56.3 124.728 56.5798C124.571 56.8508 124.339 57.0738 124.033 57.2486C123.727 57.4147 123.36 57.4978 122.931 57.4978C122.494 57.4978 122.118 57.4147 121.804 57.2486C121.498 57.0738 121.266 56.8508 121.109 56.5798C120.951 56.3 120.886 55.9853 120.912 55.6356H121.843C121.834 56.0203 121.926 56.3132 122.118 56.5142C122.311 56.7066 122.582 56.8027 122.931 56.8027C123.272 56.8027 123.535 56.7066 123.718 56.5142C123.902 56.3132 123.994 56.0203 123.994 55.6356Z" fill="white"/>
</svg>
