<svg width="95" height="120" viewBox="0 0 95 120" fill="none" xmlns="http://www.w3.org/2000/svg">
<path d="M39.954 1.41602H50.2389H60.2311H63.9782C65.5574 1.41602 67.0513 2.13267 68.0397 3.36438L68.5398 3.98775C68.8288 4.34782 69.1532 4.67786 69.5083 4.97288L71.1714 6.35459C72.1731 7.18684 73.4343 7.64243 74.7367 7.64243C76.5993 7.64243 78.3391 8.57199 79.3745 10.1204L80.2156 11.3783L81.4251 13.1871C82.2303 14.3912 83.5833 15.1141 85.0318 15.1141C86.6734 15.1141 88.1743 16.0405 88.9102 17.5079L89.0298 17.7463C89.3913 18.4671 89.9509 19.0699 90.6429 19.4838C91.9225 20.2493 92.7059 21.6307 92.7059 23.1218V26.0972C92.7059 26.6608 92.7567 27.2232 92.8578 27.7777L93.8029 32.96C93.904 33.5145 93.9549 34.0769 93.9549 34.6405V37.5292V42.5104V48.1141V52.4726V57.4538V61.1896V66.1708V68.5655C93.9549 69.0438 93.9183 69.5213 93.8453 69.994L92.8154 76.6683C92.7425 77.1409 92.7059 77.6185 92.7059 78.0968V83.6047V84.6834C92.7059 86.0241 92.418 87.3492 91.8619 88.5691L89.938 92.7889C89.702 93.3066 89.5137 93.8446 89.3753 94.3964L88.0707 99.5992C87.8316 100.553 87.4437 101.463 86.9215 102.296L85.8914 103.939C85.0364 105.303 83.8442 106.424 82.43 107.193L78.3109 109.433C77.9158 109.648 77.5367 109.891 77.1766 110.16L73.712 112.751C73.0545 113.242 72.3351 113.646 71.5725 113.95L66.4763 115.982L62.2048 118.111C60.9068 118.758 59.4762 119.095 58.0258 119.095H52.1125H43.9938H40.4321C38.6866 119.095 36.9846 118.551 35.5629 117.539C34.1411 116.526 32.4391 115.982 30.6936 115.982H29.9618C28.5114 115.982 27.0808 115.645 25.7827 114.998L22.7603 113.492L16.5152 109.756L13.2909 107.345C12.1257 106.473 11.1795 105.343 10.5273 104.042L9.02102 101.039L4.77365 94.6867C4.27705 93.9441 3.88925 93.1341 3.62203 92.2816L1.33113 84.9727C1.04693 84.066 0.902344 83.1213 0.902344 82.1711V77.3783V68.0387V63.6802V52.4726V40.0198V35.8279C0.902344 34.4872 1.19016 33.1621 1.74634 31.9422L4.02491 26.9443L6.73115 21.5481C7.00802 20.996 7.33883 20.4726 7.71872 19.9857L10.5843 16.3124C11.2034 15.5187 11.9482 14.8336 12.7745 14.2589C14.1077 13.3317 15.7821 12.1092 16.5152 11.3783C17.5144 10.3821 21.095 8.47262 22.7603 7.64243L31.5035 4.52922L35.775 2.3999C37.073 1.75282 38.5036 1.41602 39.954 1.41602Z" fill="#905539" fill-opacity="0.9" stroke="black" stroke-width="0.936702"/>
<path d="M27.8578 49.6352C28.3111 49.6352 28.5378 49.8676 28.5378 50.3322L29.0308 61.3652H27.3478L26.9398 51.0122H26.5828L24.1008 59.4272C24.0101 59.8012 23.7721 59.9882 23.3868 59.9882H21.9928C21.6074 59.9882 21.3581 59.8012 21.2448 59.4272L18.7628 51.0122H18.4398L18.0318 61.3652H16.3658L16.8248 50.3322C16.8474 49.8676 17.0798 49.6352 17.5218 49.6352H19.3578C19.7204 49.6352 19.9528 49.8222 20.0548 50.1962L22.1288 57.1322C22.2081 57.3929 22.2761 57.6536 22.3328 57.9142C22.4008 58.1749 22.4688 58.4469 22.5368 58.7302H22.8258C22.9051 58.4469 22.9731 58.1749 23.0298 57.9142C23.0978 57.6536 23.1714 57.3816 23.2508 57.0982L25.3078 50.1962C25.4098 49.8222 25.6534 49.6352 26.0388 49.6352H27.8578ZM35.1128 52.8652C36.0875 52.8652 36.8638 53.0069 37.4418 53.2902C38.0198 53.5736 38.4391 54.0382 38.6998 54.6842C38.9605 55.3189 39.0908 56.1632 39.0908 57.2172C39.0908 58.2826 38.9605 59.1382 38.6998 59.7842C38.4391 60.4189 38.0198 60.8779 37.4418 61.1612C36.8638 61.4446 36.0875 61.5862 35.1128 61.5862C34.1381 61.5862 33.3561 61.4446 32.7668 61.1612C32.1888 60.8779 31.7695 60.4189 31.5088 59.7842C31.2481 59.1382 31.1178 58.2826 31.1178 57.2172C31.1178 56.1632 31.2481 55.3189 31.5088 54.6842C31.7695 54.0382 32.1888 53.5736 32.7668 53.2902C33.3561 53.0069 34.1381 52.8652 35.1128 52.8652ZM35.1128 54.1912C34.5461 54.1912 34.0928 54.2819 33.7528 54.4632C33.4241 54.6446 33.1861 54.9562 33.0388 55.3982C32.9028 55.8289 32.8348 56.4352 32.8348 57.2172C32.8348 57.9992 32.9028 58.6112 33.0388 59.0532C33.1861 59.4952 33.4241 59.8069 33.7528 59.9882C34.0928 60.1582 34.5461 60.2432 35.1128 60.2432C35.6795 60.2432 36.1271 60.1582 36.4558 59.9882C36.7845 59.8069 37.0168 59.4952 37.1528 59.0532C37.2888 58.6112 37.3568 57.9992 37.3568 57.2172C37.3568 56.4352 37.2888 55.8289 37.1528 55.3982C37.0168 54.9562 36.7845 54.6446 36.4558 54.4632C36.1271 54.2819 35.6795 54.1912 35.1128 54.1912ZM44.8911 52.8652C45.1518 52.8652 45.4408 52.8766 45.7581 52.8992C46.0755 52.9219 46.3985 52.9616 46.7271 53.0182C47.0558 53.0749 47.3618 53.1599 47.6451 53.2732L47.4411 54.3272C47.0445 54.2932 46.6365 54.2706 46.2171 54.2592C45.8091 54.2366 45.4578 54.2252 45.1631 54.2252C44.5398 54.2252 44.0411 54.3159 43.6671 54.4972C43.2931 54.6672 43.0211 54.9676 42.8511 55.3982C42.6925 55.8289 42.6131 56.4296 42.6131 57.2002C42.6131 57.9709 42.6925 58.5772 42.8511 59.0192C43.0211 59.4612 43.2931 59.7672 43.6671 59.9372C44.0411 60.1072 44.5398 60.1922 45.1631 60.1922C45.3331 60.1922 45.5541 60.1866 45.8261 60.1752C46.1095 60.1639 46.4098 60.1469 46.7271 60.1242C47.0445 60.1016 47.3448 60.0676 47.6281 60.0222L47.7811 61.1102C47.3731 61.2689 46.9141 61.3822 46.4041 61.4502C45.8941 61.5296 45.3841 61.5692 44.8741 61.5692C43.9108 61.5692 43.1345 61.4276 42.5451 61.1442C41.9671 60.8609 41.5478 60.4019 41.2871 59.7672C41.0265 59.1326 40.8961 58.2769 40.8961 57.2002C40.8961 56.1349 41.0265 55.2849 41.2871 54.6502C41.5478 54.0156 41.9671 53.5622 42.5451 53.2902C43.1345 53.0069 43.9165 52.8652 44.8911 52.8652ZM56.8441 53.0692C56.6514 53.5792 56.4758 54.0382 56.3171 54.4462C56.1584 54.8542 55.9998 55.2112 55.8411 55.5172C55.6824 55.8232 55.5011 56.0782 55.2971 56.2822C55.1044 56.4862 54.8778 56.6506 54.6171 56.7752C54.3678 56.8999 54.0618 56.9792 53.6991 57.0132V57.0812C54.0844 57.1152 54.4074 57.1889 54.6681 57.3022C54.9401 57.4156 55.1781 57.5799 55.3821 57.7952C55.5974 58.0106 55.7901 58.2826 55.9601 58.6112C56.1301 58.9286 56.3058 59.3196 56.4871 59.7842C56.6684 60.2376 56.8668 60.7646 57.0821 61.3652H55.3651C55.1611 60.8099 54.9741 60.3282 54.8041 59.9202C54.6454 59.5009 54.4868 59.1496 54.3281 58.8662C54.1694 58.5716 53.9994 58.3392 53.8181 58.1692C53.6368 57.9879 53.4214 57.8632 53.1721 57.7952C52.9341 57.7159 52.6508 57.6762 52.3221 57.6762V56.4352C52.7188 56.4352 53.0531 56.3672 53.3251 56.2312C53.5971 56.0839 53.8294 55.8686 54.0221 55.5852C54.2261 55.3019 54.4131 54.9562 54.5831 54.5482C54.7531 54.1289 54.9401 53.6359 55.1441 53.0692H56.8441ZM51.3531 53.0692V55.4662C51.3531 55.7269 51.3304 55.9932 51.2851 56.2652C51.2511 56.5259 51.1944 56.7752 51.1151 57.0132C51.1831 57.2626 51.2398 57.5119 51.2851 57.7612C51.3304 58.0106 51.3531 58.2429 51.3531 58.4582V61.3652H49.7041V53.0692H51.3531ZM52.8831 56.4352V57.6762H50.8771V56.4352H52.8831ZM62.3864 52.9842C63.259 52.9842 63.9504 53.0466 64.4604 53.1712C64.9704 53.2959 65.3387 53.5169 65.5654 53.8342C65.8034 54.1516 65.9224 54.6049 65.9224 55.1942C65.9224 55.7836 65.7807 56.2312 65.4974 56.5372C65.214 56.8319 64.755 57.0076 64.1204 57.0642V57.1152C64.891 57.1719 65.4294 57.3872 65.7354 57.7612C66.0527 58.1352 66.2114 58.6566 66.2114 59.3252C66.2114 59.8919 66.098 60.3339 65.8714 60.6512C65.6447 60.9572 65.2877 61.1726 64.8004 61.2972C64.313 61.4219 63.667 61.4842 62.8624 61.4842C62.2617 61.4842 61.7347 61.4786 61.2814 61.4672C60.8394 61.4672 60.4314 61.4559 60.0574 61.4332C59.6947 61.4219 59.3094 61.4049 58.9014 61.3822L59.1054 60.2092C59.332 60.2206 59.757 60.2319 60.3804 60.2432C61.015 60.2432 61.7574 60.2432 62.6074 60.2432C63.0947 60.2432 63.48 60.2092 63.7634 60.1412C64.058 60.0732 64.262 59.9486 64.3754 59.7672C64.5 59.5746 64.5624 59.3082 64.5624 58.9682C64.5624 58.4582 64.415 58.1126 64.1204 57.9312C63.8257 57.7386 63.2987 57.6422 62.5394 57.6422H59.0884V56.5372H62.5394C62.9814 56.5372 63.3327 56.5089 63.5934 56.4522C63.8654 56.3842 64.058 56.2652 64.1714 56.0952C64.296 55.9139 64.3584 55.6646 64.3584 55.3472C64.3584 55.0412 64.2904 54.8089 64.1544 54.6502C64.0297 54.4916 63.82 54.3782 63.5254 54.3102C63.2307 54.2422 62.834 54.2082 62.3354 54.2082C61.8254 54.1969 61.372 54.1912 60.9754 54.1912C60.5787 54.1912 60.2274 54.1969 59.9214 54.2082C59.6154 54.2082 59.3434 54.2196 59.1054 54.2422L58.9014 53.0862C59.264 53.0522 59.6097 53.0296 59.9384 53.0182C60.267 53.0069 60.624 53.0012 61.0094 53.0012C61.406 52.9899 61.865 52.9842 62.3864 52.9842ZM60.4484 53.0862V61.3822H58.9014V53.0862H60.4484ZM72.3929 52.8652C73.0275 52.8652 73.5602 52.9502 73.9909 53.1202C74.4215 53.2789 74.7445 53.5566 74.9599 53.9532C75.1865 54.3499 75.2999 54.8939 75.2999 55.5852V61.3652H74.0079L73.7529 59.5632L73.6679 59.3592V55.5852C73.6565 55.0979 73.5375 54.7466 73.3109 54.5312C73.0955 54.3159 72.6705 54.2082 72.0359 54.2082C71.5939 54.2082 71.0442 54.2309 70.3869 54.2762C69.7409 54.3216 69.1005 54.3669 68.4659 54.4122L68.3129 53.2392C68.6982 53.1712 69.1289 53.1089 69.6049 53.0522C70.0809 52.9956 70.5625 52.9502 71.0499 52.9162C71.5372 52.8822 71.9849 52.8652 72.3929 52.8652ZM74.5519 56.2482L74.5349 57.4042L70.6419 57.4212C70.2565 57.4326 69.9845 57.5346 69.8259 57.7272C69.6672 57.9086 69.5879 58.1636 69.5879 58.4922V59.0022C69.5879 59.4102 69.6899 59.7106 69.8939 59.9032C70.0979 60.0846 70.4095 60.1752 70.8289 60.1752C71.1462 60.1752 71.4975 60.1186 71.8829 60.0052C72.2795 59.8806 72.6762 59.6992 73.0729 59.4612C73.4695 59.2119 73.8265 58.9002 74.1439 58.5262V59.5972C74.0419 59.7559 73.8775 59.9486 73.6509 60.1752C73.4242 60.3906 73.1465 60.6002 72.8179 60.8042C72.5005 61.0082 72.1435 61.1782 71.7469 61.3142C71.3502 61.4502 70.9195 61.5182 70.4549 61.5182C69.9562 61.5182 69.5142 61.4332 69.1289 61.2632C68.7549 61.0819 68.4602 60.8212 68.2449 60.4812C68.0409 60.1299 67.9389 59.7049 67.9389 59.2062V58.3052C67.9389 57.6592 68.1429 57.1549 68.5509 56.7922C68.9702 56.4296 69.5482 56.2482 70.2849 56.2482H74.5519Z" fill="black"/>
</svg>
