<svg width="148" height="211" viewBox="0 0 148 211" fill="none" xmlns="http://www.w3.org/2000/svg">
<path d="M99.9749 6.58266V11.2275V18.1217C99.9749 18.5046 99.9189 18.8855 99.8085 19.2522C98.9988 21.9431 95.6456 22.8575 92.9451 22.0808C92.3615 21.9129 91.7815 21.8124 91.2317 21.8124C88.4901 21.8124 86.1374 23.7652 85.6324 26.46L85.1392 29.0921C85.0377 29.634 84.9866 30.1842 84.9866 30.7355V34.8879C84.9866 37.6389 82.7565 39.869 80.0055 39.869H78.7415H76.8679H72.9149C71.8927 39.869 70.958 40.4459 70.4997 41.3596C70.1786 41.9999 69.6116 42.4762 68.9616 42.777C67.5986 43.4077 65.776 44.5524 65.0022 46.0954C64.6008 46.8958 64.0515 47.5221 63.484 47.9984C62.2206 49.0588 60.4441 48.8044 58.9679 48.0685C58.0078 47.5898 56.9451 47.368 55.8852 47.2024C53.791 46.8754 50.9257 45.9026 49.3893 43.6049C48.2242 41.8624 47.2855 41.7284 46.6227 42.1665C45.6468 42.8114 45.2572 44.0656 44.507 44.9631L44.3924 45.1001C43.1729 46.5592 41.5419 47.6241 39.6931 48.0697C35.7332 49.024 30.5872 49.9945 29.4049 49.2086C29.2243 49.0886 29.0299 48.9734 28.8257 48.8633C26.516 47.6173 23.9073 49.3406 23.269 51.8861C23.1963 52.176 23.0974 52.4587 22.9734 52.7306L21.5253 55.9067C20.5672 58.0084 20.4193 60.39 21.1101 62.5941L22.731 67.7652C23.0152 68.6719 23.1597 69.6166 23.1597 70.5668V71.7278C23.1597 73.6846 22.538 75.6048 21.3984 77.1955C20.509 78.4369 19.3227 79.4516 17.956 80.1329L16.5864 80.8157C14.7725 81.7199 13.3009 83.188 12.3923 84.9997L11.3968 86.9847C10.9185 87.9384 10.6695 88.9906 10.6695 90.0576C10.6695 92.1763 11.6493 94.176 13.3236 95.4743L13.4798 95.5954C15.2526 96.9702 16.2901 99.0875 16.2901 101.331V101.82C16.2901 104.013 17.1632 106.117 18.7168 107.666L19.2812 108.229C19.7836 108.729 20.2274 109.286 20.6042 109.887L21.7292 111.681C22.664 113.173 23.1597 114.897 23.1597 116.657V120.812V127.039V128.558C23.1597 130.015 22.8194 131.453 22.1658 132.757L20.9495 135.182C20.3496 136.378 20.0372 137.698 20.0372 139.036C20.0372 141.321 19.0966 143.486 17.623 145.232C17.1224 145.825 16.6476 146.429 16.2901 146.963C14.2861 149.96 10.7436 152.145 10.3195 155.726C10.0415 158.072 9.56777 160.148 8.79593 160.661C6.92238 161.907 6.92238 166.888 5.04884 166.888C3.84697 166.888 4.17104 170.625 4.66863 173.603C4.84142 174.638 4.05946 175.605 3.01075 175.605C2.35272 175.605 1.75787 175.997 1.498 176.601L0.498827 178.926C0.204517 179.61 0.0527344 180.348 0.0527344 181.093V182.254C0.0527344 182.801 0.100708 183.348 0.196106 183.887L1.38522 190.605C1.73653 192.59 1.38949 194.622 0.779378 196.543C0.377906 197.807 0.0527344 199.24 0.0527344 200.511V203.122C0.0527344 205.806 2.2289 207.982 4.91333 207.982C6.19991 207.982 7.44299 207.463 8.35411 206.555C9.75057 205.163 11.8557 204.719 13.6873 205.45L16.73 206.663C18.8604 207.513 20.5529 209.454 22.7224 210.198C23.2188 210.368 23.7809 210.473 24.4088 210.473H31.2784C32.933 210.473 35.2727 209.335 36.7376 208.472C37.2688 208.159 37.7486 207.768 38.1593 207.308C39.0019 206.365 40.0216 205.026 40.0216 204.246C40.0216 203.623 38.7185 201.831 37.3348 200.119C35.8899 198.33 35.0255 196.127 35.0255 193.828V193.662V193.459C35.0255 190.975 37.8602 189.555 39.8499 191.043C39.9642 191.128 40.0723 191.222 40.1734 191.322L40.388 191.536C41.7531 192.897 43.6021 193.662 45.5298 193.662H46.5432C48.3658 193.662 50.1141 192.939 51.4048 191.652C51.7257 191.332 52.0775 191.045 52.4549 190.794L56.4322 188.15C57.146 187.676 57.7913 187.106 58.3501 186.456L60.6812 183.744C61.0629 183.3 61.4831 182.89 61.9523 182.54C63.161 181.638 65.026 180.371 66.2512 179.963C67.2387 179.635 68.6419 178.388 69.782 177.219C70.7838 176.192 71.9294 175.303 73.2411 174.721L75.0555 173.917C76.2505 173.388 77.5432 173.114 78.8503 173.114H81.2395H88.1185C89.8379 173.114 91.2317 171.721 91.2317 170.001V169.182C91.2317 167.915 92.2588 166.888 93.5257 166.888C94.0612 166.888 94.5798 167.075 94.9916 167.417L95.551 167.882C97.0544 169.131 99.2102 169.211 100.802 168.078L100.988 167.945C101.942 167.266 102.601 166.249 102.831 165.101L103.064 163.944C103.468 161.928 104.965 160.308 106.942 159.744C107.701 159.528 108.404 159.151 109.004 158.638L109.498 158.216C111.381 156.607 112.465 154.254 112.465 151.778V149.454V145.039C112.465 143.443 112.873 141.873 113.65 140.479L115.236 137.633C115.47 137.212 115.738 136.812 116.028 136.427C117.561 134.393 119.959 130.885 119.959 129.529C119.959 128.344 121.008 126.034 121.857 124.405C122.242 123.666 122.756 123.005 123.346 122.417L124.712 121.055C126.468 119.305 128.846 118.322 131.325 118.322H132.545C133.304 118.322 134.052 118.146 134.731 117.807C136.395 116.978 137.446 115.279 137.446 113.421V112.082C137.446 110.106 136.619 108.221 135.165 106.883L132.351 104.293C130.424 102.52 129.327 100.02 129.327 97.401V93.4162V92.8067C129.327 90.3923 131.284 88.4351 133.699 88.4351H136.66C140.204 88.4351 143.593 86.4819 144.679 83.1086C144.781 82.7938 144.869 82.4912 144.94 82.2086C145.564 79.7181 147.438 72.869 147.438 70.3785V62.2841V60.9392C147.438 58.2332 146.268 55.6595 144.229 53.8806L143.148 52.9381C142.678 52.5283 142.169 52.1664 141.627 51.8578L133.699 47.3407L127.454 43.6049L124.523 41.4132C123.182 40.4107 121.553 39.869 119.879 39.869H119.457C117.049 39.869 114.811 38.6306 113.533 36.5911C112.835 35.4782 112.465 34.1912 112.465 32.8777V31.1086C112.465 29.1434 113.247 27.259 114.639 25.8714L114.764 25.7465C115.309 25.2037 115.946 24.763 116.647 24.4457L119.077 23.3444C120.947 22.4968 121.782 20.2981 120.946 18.4225L120.92 18.364C120.336 17.053 119.035 16.2086 117.6 16.2086C116.348 16.2086 115.184 15.5647 114.519 14.5041L113.533 12.9307C112.835 11.8178 112.465 10.5313 112.465 9.21777V5.00107C112.465 3.01234 110.607 1.68528 109.116 1.0199C108.455 0.724736 107.726 0.642578 107.002 0.642578H105.915C103.786 0.642578 101.82 1.78185 100.761 3.62888C100.246 4.52801 99.9749 5.54632 99.9749 6.58266Z" fill="#5C5C5C" fill-opacity="0.9"/>
<path d="M27.96 90.2352C28.7118 90.2352 29.3063 90.3052 29.7434 90.445C30.1893 90.5762 30.5128 90.8122 30.7139 91.1532C30.9149 91.4941 31.0155 91.975 31.0155 92.5957C31.0155 93.2427 30.8931 93.7366 30.6483 94.0776C30.4122 94.4185 30.0188 94.6152 29.4681 94.6677V94.7201C30.15 94.7813 30.6221 95.0174 30.8843 95.4283C31.1554 95.8392 31.2909 96.4075 31.2909 97.1331C31.2909 97.7538 31.1903 98.2347 30.9893 98.5756C30.7969 98.9166 30.4866 99.157 30.0582 99.2969C29.6298 99.428 29.0659 99.4936 28.3665 99.4936C27.8419 99.4936 27.3873 99.4892 27.0026 99.4805C26.618 99.4805 26.2639 99.4717 25.9404 99.4542C25.617 99.4368 25.2804 99.4149 24.9307 99.3887L25.1143 98.3789C25.3153 98.3876 25.6869 98.3964 26.2289 98.4051C26.7797 98.4139 27.4223 98.4182 28.1567 98.4182C28.62 98.4182 28.9828 98.3789 29.2451 98.3002C29.5074 98.2215 29.691 98.0729 29.7959 97.8544C29.9095 97.6358 29.9664 97.3167 29.9664 96.897C29.9664 96.4424 29.9095 96.0971 29.7959 95.8611C29.6822 95.6163 29.4855 95.4458 29.2058 95.3496C28.9348 95.2447 28.5588 95.1879 28.078 95.1791H25.1011V94.2218H28.0649C28.4845 94.2131 28.8167 94.1694 29.0615 94.0907C29.3063 94.012 29.4812 93.8677 29.5861 93.6579C29.691 93.4394 29.7434 93.1377 29.7434 92.7531C29.7434 92.3597 29.6866 92.058 29.573 91.8482C29.4593 91.6384 29.267 91.4985 28.996 91.4286C28.7337 91.3499 28.3665 91.3105 27.8944 91.3105C27.4573 91.3105 27.0638 91.3105 26.7141 91.3105C26.3732 91.3105 26.0672 91.3149 25.7962 91.3237C25.5339 91.3237 25.3066 91.3324 25.1143 91.3499L24.9307 90.3401C25.2454 90.3052 25.5426 90.2833 25.8224 90.2746C26.1109 90.2571 26.4256 90.2483 26.7666 90.2483C27.1076 90.2396 27.5053 90.2352 27.96 90.2352ZM26.2158 90.3401V99.3887H24.9307V90.3401H26.2158ZM35.7892 92.8318C36.5411 92.8318 37.14 92.941 37.5858 93.1596C38.0317 93.3782 38.3552 93.7366 38.5562 94.2349C38.7573 94.7245 38.8579 95.3758 38.8579 96.1889C38.8579 97.0107 38.7573 97.6708 38.5562 98.1691C38.3552 98.6587 38.0317 99.0127 37.5858 99.2313C37.14 99.4499 36.5411 99.5592 35.7892 99.5592C35.0374 99.5592 34.4341 99.4499 33.9795 99.2313C33.5336 99.0127 33.2102 98.6587 33.0091 98.1691C32.808 97.6708 32.7075 97.0107 32.7075 96.1889C32.7075 95.3758 32.808 94.7245 33.0091 94.2349C33.2102 93.7366 33.5336 93.3782 33.9795 93.1596C34.4341 92.941 35.0374 92.8318 35.7892 92.8318ZM35.7892 93.8546C35.3521 93.8546 35.0024 93.9246 34.7401 94.0645C34.4866 94.2043 34.303 94.4448 34.1893 94.7857C34.0844 95.1179 34.032 95.5857 34.032 96.1889C34.032 96.7921 34.0844 97.2642 34.1893 97.6052C34.303 97.9462 34.4866 98.1866 34.7401 98.3265C35.0024 98.4576 35.3521 98.5232 35.7892 98.5232C36.2264 98.5232 36.5717 98.4576 36.8252 98.3265C37.0788 98.1866 37.258 97.9462 37.3629 97.6052C37.4678 97.2642 37.5203 96.7921 37.5203 96.1889C37.5203 95.5857 37.4678 95.1179 37.3629 94.7857C37.258 94.4448 37.0788 94.2043 36.8252 94.0645C36.5717 93.9246 36.2264 93.8546 35.7892 93.8546ZM45.7214 92.9891V93.9464H43.3347C43.0724 93.9464 42.8801 94.0033 42.7577 94.1169C42.644 94.2306 42.5697 94.4316 42.5348 94.7201C42.491 95.0961 42.4386 95.4851 42.3774 95.8873C42.3249 96.2807 42.2637 96.661 42.1938 97.0282C42.1326 97.3866 42.0495 97.7101 41.9446 97.9986C41.8397 98.3308 41.6867 98.6062 41.4857 98.8248C41.2933 99.0433 41.0573 99.2051 40.7775 99.31C40.4977 99.4062 40.1786 99.4542 39.8202 99.4542L39.6891 98.4969C39.9164 98.4357 40.1 98.3702 40.2398 98.3002C40.3885 98.2303 40.5021 98.1429 40.5808 98.0379C40.6682 97.9243 40.7425 97.7888 40.8037 97.6314C40.8824 97.4391 40.948 97.2118 41.0004 96.9495C41.0616 96.6872 41.1097 96.4162 41.1447 96.1364C41.1884 95.8479 41.2234 95.5638 41.2496 95.284C41.2846 94.9955 41.3152 94.7333 41.3414 94.4972C41.4026 94.0076 41.5643 93.6361 41.8266 93.3825C42.0889 93.1203 42.4867 92.9891 43.02 92.9891H45.7214ZM45.8919 92.9891V99.3887H44.6199V92.9891H45.8919ZM50.6832 92.8318C51.435 92.8318 52.0339 92.941 52.4798 93.1596C52.9256 93.3782 53.2491 93.7366 53.4502 94.2349C53.6513 94.7245 53.7518 95.3758 53.7518 96.1889C53.7518 97.0107 53.6513 97.6708 53.4502 98.1691C53.2491 98.6587 52.9256 99.0127 52.4798 99.2313C52.0339 99.4499 51.435 99.5592 50.6832 99.5592C49.9313 99.5592 49.3281 99.4499 48.8735 99.2313C48.4276 99.0127 48.1041 98.6587 47.903 98.1691C47.7019 97.6708 47.6014 97.0107 47.6014 96.1889C47.6014 95.3758 47.7019 94.7245 47.903 94.2349C48.1041 93.7366 48.4276 93.3782 48.8735 93.1596C49.3281 92.941 49.9313 92.8318 50.6832 92.8318ZM50.6832 93.8546C50.246 93.8546 49.8963 93.9246 49.6341 94.0645C49.3805 94.2043 49.1969 94.4448 49.0833 94.7857C48.9784 95.1179 48.9259 95.5857 48.9259 96.1889C48.9259 96.7921 48.9784 97.2642 49.0833 97.6052C49.1969 97.9462 49.3805 98.1866 49.6341 98.3265C49.8963 98.4576 50.246 98.5232 50.6832 98.5232C51.1203 98.5232 51.4656 98.4576 51.7192 98.3265C51.9727 98.1866 52.1519 97.9462 52.2568 97.6052C52.3617 97.2642 52.4142 96.7921 52.4142 96.1889C52.4142 95.5857 52.3617 95.1179 52.2568 94.7857C52.1519 94.4448 51.9727 94.2043 51.7192 94.0645C51.4656 93.9246 51.1203 93.8546 50.6832 93.8546ZM60.9539 92.9891C60.8052 93.3825 60.6697 93.7366 60.5473 94.0513C60.4249 94.3661 60.3025 94.6415 60.1801 94.8775C60.0577 95.1136 59.9179 95.3103 59.7605 95.4676C59.6119 95.625 59.437 95.7518 59.2359 95.8479C59.0436 95.9441 58.8076 96.0053 58.5278 96.0315V96.084C58.825 96.1102 59.0742 96.167 59.2753 96.2545C59.4851 96.3419 59.6687 96.4687 59.8261 96.6348C59.9922 96.8009 60.1408 97.0107 60.2719 97.2642C60.4031 97.509 60.5386 97.8106 60.6785 98.1691C60.8183 98.5188 60.9713 98.9253 61.1374 99.3887H59.813C59.6556 98.9603 59.5113 98.5887 59.3802 98.274C59.2578 97.9505 59.1354 97.6795 59.013 97.4609C58.8906 97.2336 58.7595 97.0544 58.6196 96.9233C58.4797 96.7834 58.3136 96.6872 58.1213 96.6348C57.9377 96.5736 57.7191 96.543 57.4656 96.543V95.5857C57.7716 95.5857 58.0295 95.5332 58.2393 95.4283C58.4491 95.3146 58.6283 95.1485 58.777 94.93C58.9343 94.7114 59.0786 94.4448 59.2097 94.13C59.3409 93.8065 59.4851 93.4262 59.6425 92.9891H60.9539ZM56.7181 92.9891V94.8382C56.7181 95.0393 56.7006 95.2447 56.6656 95.4545C56.6394 95.6556 56.5957 95.8479 56.5345 96.0315C56.5869 96.2239 56.6307 96.4162 56.6656 96.6085C56.7006 96.8009 56.7181 96.9801 56.7181 97.1462V99.3887H55.446V92.9891H56.7181ZM57.8983 95.5857V96.543H56.3509V95.5857H57.8983ZM65.2697 92.8318C66.0216 92.8318 66.6205 92.941 67.0663 93.1596C67.5122 93.3782 67.8357 93.7366 68.0368 94.2349C68.2378 94.7245 68.3384 95.3758 68.3384 96.1889C68.3384 97.0107 68.2378 97.6708 68.0368 98.1691C67.8357 98.6587 67.5122 99.0127 67.0663 99.2313C66.6205 99.4499 66.0216 99.5592 65.2697 99.5592C64.5179 99.5592 63.9146 99.4499 63.46 99.2313C63.0142 99.0127 62.6907 98.6587 62.4896 98.1691C62.2885 97.6708 62.188 97.0107 62.188 96.1889C62.188 95.3758 62.2885 94.7245 62.4896 94.2349C62.6907 93.7366 63.0142 93.3782 63.46 93.1596C63.9146 92.941 64.5179 92.8318 65.2697 92.8318ZM65.2697 93.8546C64.8326 93.8546 64.4829 93.9246 64.2206 94.0645C63.9671 94.2043 63.7835 94.4448 63.6699 94.7857C63.5649 95.1179 63.5125 95.5857 63.5125 96.1889C63.5125 96.7921 63.5649 97.2642 63.6699 97.6052C63.7835 97.9462 63.9671 98.1866 64.2206 98.3265C64.4829 98.4576 64.8326 98.5232 65.2697 98.5232C65.7069 98.5232 66.0522 98.4576 66.3057 98.3265C66.5593 98.1866 66.7385 97.9462 66.8434 97.6052C66.9483 97.2642 67.0008 96.7921 67.0008 96.1889C67.0008 95.5857 66.9483 95.1179 66.8434 94.7857C66.7385 94.4448 66.5593 94.2043 66.3057 94.0645C66.0522 93.9246 65.7069 93.8546 65.2697 93.8546ZM75.2019 92.9891V93.9464H72.8152C72.5529 93.9464 72.3606 94.0033 72.2382 94.1169C72.1246 94.2306 72.0502 94.4316 72.0153 94.7201C71.9716 95.0961 71.9191 95.4851 71.8579 95.8873C71.8055 96.2807 71.7443 96.661 71.6743 97.0282C71.6131 97.3866 71.5301 97.7101 71.4251 97.9986C71.3202 98.3308 71.1672 98.6062 70.9662 98.8248C70.7738 99.0433 70.5378 99.2051 70.258 99.31C69.9783 99.4062 69.6592 99.4542 69.3007 99.4542L69.1696 98.4969C69.3969 98.4357 69.5805 98.3702 69.7204 98.3002C69.869 98.2303 69.9826 98.1429 70.0613 98.0379C70.1487 97.9243 70.223 97.7888 70.2842 97.6314C70.3629 97.4391 70.4285 97.2118 70.481 96.9495C70.5422 96.6872 70.5902 96.4162 70.6252 96.1364C70.6689 95.8479 70.7039 95.5638 70.7301 95.284C70.7651 94.9955 70.7957 94.7333 70.8219 94.4972C70.8831 94.0076 71.0448 93.6361 71.3071 93.3825C71.5694 93.1203 71.9672 92.9891 72.5005 92.9891H75.2019ZM75.3724 92.9891V99.3887H74.1004V92.9891H75.3724ZM80.4784 92.8318C80.968 92.8318 81.3789 92.8973 81.7111 93.0285C82.0433 93.1509 82.2925 93.3651 82.4586 93.671C82.6334 93.977 82.7209 94.3967 82.7209 94.93V99.3887H81.7242L81.5275 97.9986L81.4619 97.8412V94.93C81.4532 94.554 81.3614 94.283 81.1866 94.1169C81.0204 93.9508 80.6926 93.8677 80.203 93.8677C79.8621 93.8677 79.438 93.8852 78.931 93.9202C78.4326 93.9552 77.9387 93.9901 77.4491 94.0251L77.3311 93.1203C77.6283 93.0678 77.9606 93.0197 78.3277 92.976C78.6949 92.9323 79.0665 92.8973 79.4424 92.8711C79.8183 92.8449 80.1637 92.8318 80.4784 92.8318ZM82.1439 95.4414L82.1308 96.3331L79.1277 96.3463C78.8304 96.355 78.6206 96.4337 78.4982 96.5823C78.3758 96.7222 78.3146 96.9189 78.3146 97.1724V97.5658C78.3146 97.8806 78.3933 98.1123 78.5507 98.2609C78.708 98.4008 78.9485 98.4707 79.2719 98.4707C79.5167 98.4707 79.7877 98.427 80.085 98.3396C80.391 98.2434 80.697 98.1035 81.003 97.9199C81.3089 97.7276 81.5843 97.4872 81.8291 97.1987V98.0248C81.7504 98.1472 81.6237 98.2959 81.4488 98.4707C81.274 98.6368 81.0598 98.7985 80.8063 98.9559C80.5615 99.1133 80.2861 99.2444 79.9801 99.3493C79.6741 99.4542 79.3419 99.5067 78.9834 99.5067C78.5988 99.5067 78.2578 99.4411 77.9606 99.31C77.672 99.1701 77.4447 98.969 77.2786 98.7068C77.1213 98.4357 77.0426 98.1079 77.0426 97.7232V97.0282C77.0426 96.5299 77.1999 96.1408 77.5147 95.8611C77.8382 95.5813 78.284 95.4414 78.8523 95.4414H82.1439ZM91.9748 92.9891C92.2896 92.9891 92.4469 93.1421 92.4469 93.4481L92.7092 99.3887H91.529L91.2929 93.9464H91.0831L89.5488 98.2609C89.5138 98.392 89.457 98.4926 89.3783 98.5625C89.2996 98.6324 89.1903 98.6674 89.0505 98.6674H88.1718C88.0319 98.6674 87.9227 98.6324 87.844 98.5625C87.774 98.4926 87.7172 98.392 87.6735 98.2609L86.1392 93.9464H85.9294L85.7064 99.3887H84.5393L84.7885 93.4481C84.7972 93.1421 84.9589 92.9891 85.2737 92.9891H86.5326C86.6725 92.9891 86.7774 93.0241 86.8473 93.094C86.926 93.1552 86.9828 93.2558 87.0178 93.3956L88.2505 96.9233C88.3117 97.0806 88.3598 97.2336 88.3948 97.3823C88.4385 97.5309 88.4778 97.6839 88.5128 97.8412H88.7095C88.7532 97.6751 88.7925 97.5178 88.8275 97.3691C88.8712 97.2205 88.9193 97.0719 88.9718 96.9233L90.2045 93.3956C90.2832 93.1246 90.4493 92.9891 90.7028 92.9891H91.9748ZM97.3116 92.8318C97.5126 92.8318 97.7356 92.8405 97.9804 92.858C98.2251 92.8755 98.4743 92.9061 98.7278 92.9498C98.9814 92.9935 99.2174 93.0591 99.436 93.1465L99.2786 93.9595C98.9726 93.9333 98.6579 93.9158 98.3344 93.9071C98.0197 93.8896 97.7487 93.8809 97.5214 93.8809C97.0405 93.8809 96.6559 93.9508 96.3674 94.0907C96.0789 94.2218 95.869 94.4535 95.7379 94.7857C95.6155 95.1179 95.5543 95.5813 95.5543 96.1758C95.5543 96.7703 95.6155 97.238 95.7379 97.579C95.869 97.9199 96.0789 98.156 96.3674 98.2871C96.6559 98.4182 97.0405 98.4838 97.5214 98.4838C97.6525 98.4838 97.823 98.4794 98.0328 98.4707C98.2514 98.462 98.4831 98.4488 98.7278 98.4314C98.9726 98.4139 99.2043 98.3876 99.4229 98.3527L99.5409 99.192C99.2262 99.3144 98.8721 99.4018 98.4787 99.4542C98.0853 99.5154 97.6919 99.546 97.2984 99.546C96.5553 99.546 95.9565 99.4368 95.5018 99.2182C95.056 98.9996 94.7325 98.6456 94.5314 98.156C94.3303 97.6664 94.2298 97.0063 94.2298 96.1758C94.2298 95.354 94.3303 94.6983 94.5314 94.2087C94.7325 93.7191 95.056 93.3694 95.5018 93.1596C95.9565 92.941 96.5597 92.8318 97.3116 92.8318ZM106.532 92.9891C106.383 93.3825 106.248 93.7366 106.126 94.0513C106.003 94.3661 105.881 94.6415 105.758 94.8775C105.636 95.1136 105.496 95.3103 105.339 95.4676C105.19 95.625 105.015 95.7518 104.814 95.8479C104.622 95.9441 104.386 96.0053 104.106 96.0315V96.084C104.403 96.1102 104.652 96.167 104.854 96.2545C105.063 96.3419 105.247 96.4687 105.404 96.6348C105.57 96.8009 105.719 97.0107 105.85 97.2642C105.981 97.509 106.117 97.8106 106.257 98.1691C106.397 98.5188 106.55 98.9253 106.716 99.3887H105.391C105.234 98.9603 105.09 98.5887 104.958 98.274C104.836 97.9505 104.714 97.6795 104.591 97.4609C104.469 97.2336 104.338 97.0544 104.198 96.9233C104.058 96.7834 103.892 96.6872 103.7 96.6348C103.516 96.5736 103.297 96.543 103.044 96.543V95.5857C103.35 95.5857 103.608 95.5332 103.818 95.4283C104.027 95.3146 104.207 95.1485 104.355 94.93C104.513 94.7114 104.657 94.4448 104.788 94.13C104.919 93.8065 105.063 93.4262 105.221 92.9891H106.532ZM102.296 92.9891V94.8382C102.296 95.0393 102.279 95.2447 102.244 95.4545C102.218 95.6556 102.174 95.8479 102.113 96.0315C102.165 96.2239 102.209 96.4162 102.244 96.6085C102.279 96.8009 102.296 96.9801 102.296 97.1462V99.3887H101.024V92.9891H102.296ZM103.477 95.5857V96.543H101.929V95.5857H103.477ZM113.863 92.9891V99.3887H112.722V95.3103C112.722 95.1616 112.726 95.0174 112.735 94.8775C112.744 94.7376 112.757 94.5846 112.774 94.4185H112.735C112.683 94.5497 112.613 94.6895 112.525 94.8382C112.447 94.9781 112.368 95.1004 112.289 95.2054L109.181 99.3887H108.119V92.9891H109.26V97.0806C109.26 97.2205 109.256 97.3604 109.247 97.5003C109.247 97.6402 109.238 97.7932 109.221 97.9593H109.247C109.317 97.8194 109.391 97.6839 109.47 97.5527C109.548 97.4129 109.627 97.2948 109.706 97.1987L112.814 92.9891H113.863ZM121.611 92.9891V99.3887H120.47V95.3103C120.47 95.1616 120.474 95.0174 120.483 94.8775C120.492 94.7376 120.505 94.5846 120.522 94.4185H120.483C120.431 94.5497 120.361 94.6895 120.273 94.8382C120.195 94.9781 120.116 95.1004 120.037 95.2054L116.929 99.3887H115.867V92.9891H117.008V97.0806C117.008 97.2205 117.004 97.3604 116.995 97.5003C116.995 97.6402 116.986 97.7932 116.969 97.9593H116.995C117.065 97.8194 117.139 97.6839 117.218 97.5527C117.296 97.4129 117.375 97.2948 117.454 97.1987L120.562 92.9891H121.611ZM119.788 90.1434H120.706C120.741 90.4931 120.68 90.8079 120.522 91.0876C120.365 91.3586 120.133 91.5816 119.827 91.7564C119.521 91.9225 119.154 92.0056 118.726 92.0056C118.289 92.0056 117.913 91.9225 117.598 91.7564C117.292 91.5816 117.06 91.3586 116.903 91.0876C116.746 90.8079 116.68 90.4931 116.706 90.1434H117.637C117.629 90.5281 117.72 90.821 117.913 91.022C118.105 91.2144 118.376 91.3105 118.726 91.3105C119.067 91.3105 119.329 91.2144 119.513 91.022C119.696 90.821 119.788 90.5281 119.788 90.1434Z" fill="white"/>
</svg>
