<svg width="218" height="215" viewBox="0 0 218 215" fill="none" xmlns="http://www.w3.org/2000/svg">
<path d="M26.9762 11.812C28.0276 11.812 30.7798 12.6292 33.1196 13.4036C34.7863 13.9553 36.1126 15.2175 36.8059 16.8304C37.3183 18.0223 38.183 19.0288 39.2841 19.7149L39.7175 19.985C41.5529 21.1287 43.7736 21.479 45.8719 20.956L51.7365 19.4943C53.8944 18.9564 55.7905 17.6684 57.0856 15.8606L58.2018 14.3026L59.7356 11.6266C60.3717 10.5167 61.2285 9.54889 62.253 8.78279L65.6995 6.20566C67.3189 4.99471 69.2868 4.34034 71.3089 4.34034H73.1902C74.0975 4.34034 75.2965 3.82699 76.4718 3.14989C78.627 1.9082 81.4175 1.9581 83.1789 3.71426C83.594 4.12811 83.9293 4.6149 84.1679 5.15025L85.4934 8.12354C86.0284 9.32382 86.305 10.6233 86.305 11.9374V16.7932V21.7743V29.246C86.305 32.2539 88.1379 34.9581 90.9317 36.0723L91.1713 36.1678C92.0822 36.5311 93.0539 36.7177 94.0345 36.7177H96.407C97.5365 36.7177 98.6199 36.2699 99.4197 35.4724C100.22 34.675 101.303 34.2271 102.433 34.2271H104.506C105.684 34.2271 106.851 34.4513 107.946 34.8876L112.535 36.7177L116.887 38.5773C119.645 39.756 122.801 39.5421 125.376 38.0021L127.08 36.9824C127.374 36.8066 127.645 36.5955 127.888 36.3537C129.162 35.0831 131.106 34.768 132.717 35.5709L134.097 36.2593C134.707 36.5629 135.263 36.9627 135.745 37.4432L136.073 37.7702C137.796 39.4886 140.211 40.3613 142.429 41.3641C143.488 41.843 144.613 42.5489 145.634 43.5668C148.756 46.68 151.254 43.5668 153.128 43.5668C155.001 43.5668 156.875 42.9441 159.998 43.5668C162.496 44.0649 163.12 45.8498 163.12 46.68V49.7448C163.12 51.4074 163.563 53.0401 164.402 54.4752L166.879 58.7087C167.286 59.4036 167.78 60.0433 168.351 60.6117L170.428 62.6829C171.747 63.9976 172.488 65.7832 172.488 67.6453C172.488 69.3801 173.144 71.0421 174.233 72.3926C176.059 74.6566 178.108 77.5837 178.108 79.0574C178.108 80.0943 178.672 81.2887 179.36 82.3421C180.405 83.9427 182.304 84.6611 184.216 84.6611C185.132 84.6611 186.04 84.8355 186.891 85.1748L191.848 87.1517L193.634 88.1695C195.233 89.08 196.219 90.778 196.219 92.6174C196.219 95.4447 198.511 97.7366 201.339 97.7366H203.089C203.432 97.7366 203.747 97.7679 204.037 97.824C206.478 98.2972 208.035 100.944 210.169 102.221L213.081 103.963L214.106 104.693C216.206 106.188 217.453 108.607 217.453 111.185C217.453 112.961 216.859 114.686 215.767 116.086L213.081 119.529C212.134 121.04 209.189 124.646 204.526 127.91C203.597 128.561 202.886 129.496 201.983 130.183C201.79 130.331 201.59 130.449 201.387 130.54C198.424 131.868 194.317 130.495 191.848 132.605C190.807 133.435 188.475 135.593 187.476 137.586C187.277 137.982 185.603 140.188 185.603 140.632V142.567C185.603 143.722 184.983 144.788 183.98 145.359L182.6 146.146C181.703 146.657 180.686 146.925 179.653 146.925C178.642 146.925 177.644 147.182 176.759 147.673L172.488 150.039L168.902 152.273C167.969 152.854 167.146 153.595 166.47 154.462L164.161 157.421C163.487 158.286 163.12 159.351 163.12 160.448C163.12 161.756 163.631 163.021 164.613 163.885C166.208 165.29 168.267 166.85 169.365 166.85C171.142 166.85 172.357 168.529 172.478 174.011C172.492 174.63 172.446 175.258 172.218 175.832C171.582 177.433 170.165 179.161 168.928 180.434C168.019 181.37 166.847 181.99 165.591 182.346C163.423 182.959 160.748 183.661 159.998 183.661C158.749 183.661 153.128 183.661 151.254 181.793C149.381 179.925 148.132 177.435 145.634 177.435H143.163C141.509 177.435 139.884 177.873 138.454 178.705L135.864 180.211C134.099 181.238 132.717 182.813 131.93 184.697L130.745 187.532C130.267 188.676 130.021 189.903 130.021 191.144V197.359V201.551C130.021 202.487 129.881 203.418 129.604 204.313L128.446 208.065C127.857 209.976 126.51 211.562 124.72 212.454C122.565 213.529 120.019 213.474 117.913 212.307L115.657 211.057C114.408 210.227 111.66 208.567 110.661 208.567C110.14 208.567 109.257 206.988 108.384 205.065C106.99 201.995 104.04 199.85 100.669 199.85H96.2972H83.8069H83.3957C81.2382 199.85 79.1467 199.105 77.4749 197.741L74.2068 195.075C73.5493 194.539 72.7267 194.246 71.8781 194.246C69.8435 194.246 68.1941 195.895 68.1941 197.93V198.85C68.1941 199.509 68.0526 200.16 67.7792 200.76L66.5769 203.397C65.6084 205.521 63.8814 207.207 61.7344 208.125L61.4485 208.247C60.9504 208.46 60.4347 208.629 59.9073 208.753L51.1385 210.81C50.4373 210.974 49.7194 211.057 48.9992 211.057H45.2686C43.5173 211.057 41.8011 211.548 40.3148 212.475L39.3451 213.079C38.1999 213.792 36.8777 214.171 35.5284 214.171C34.0277 214.171 32.5644 213.703 31.342 212.832L31.0355 212.614C29.6137 211.602 27.9117 211.057 26.1663 211.057H24.4781H23.3702C21.7085 211.057 20.1434 210.276 19.1445 208.948C18.9535 208.695 18.7849 208.425 18.6488 208.138C17.9911 206.751 16.9839 204.305 16.9839 202.963C16.9839 201.757 15.6282 200.74 14.5579 200.175C14.1086 199.937 13.6003 199.85 13.0922 199.85C11.6394 199.85 10.3005 199.063 9.59329 197.794L9.18278 197.057C8.21661 195.324 8.27135 193.201 9.32563 191.519L9.73739 190.862C10.3917 189.819 10.7388 188.612 10.7388 187.38V187.3C10.7388 185.043 9.55308 182.952 7.61623 181.793L3.86915 179.925L3.60689 179.751C1.4302 178.304 0.12207 175.864 0.12207 173.25C0.12207 172.312 0.291346 171.381 0.62177 170.502L1.99561 166.85L3.62788 159.798C3.78821 159.105 3.86915 158.397 3.86915 157.686V155.753C3.86915 154.051 4.33284 152.381 5.21041 150.923L6.13915 149.38C7.10187 147.78 8.52068 146.504 10.2135 145.717L13.5483 144.165C15.6438 143.19 16.9839 141.089 16.9839 138.777C16.9839 137.991 16.8337 137.21 16.5007 136.497C15.2467 133.813 12.9138 129.736 10.7388 128.869C9.65533 128.437 8.92431 127.755 8.44382 127.036C7.46551 125.573 8.11201 123.719 9.04675 122.228L9.33935 121.761C10.2546 120.302 11.5547 119.122 13.0969 118.354L15.4434 117.184C16.4565 116.679 17.3382 115.945 18.0187 115.04C18.5729 114.304 18.9824 113.469 19.2256 112.579L20.4632 108.055C20.641 107.405 20.731 106.735 20.731 106.061C20.731 104.688 20.357 103.341 19.649 102.165L17.7492 99.0083C17.2422 98.1658 16.8734 97.2486 16.6394 96.2935C15.911 93.3205 14.7072 88.8382 13.8614 87.1517C12.7754 84.9862 14.2018 82.1706 16.6243 82.1706H20.731H24.0307C25.9481 82.1706 27.8312 81.5975 29.3491 80.4261C31.2549 78.9556 33.2213 77.2514 33.2213 76.5668V75.1989C33.2213 73.6448 32.8346 72.115 32.0961 70.7475L28.8497 64.7366C28.2252 63.6989 26.4765 61.2498 24.4781 59.7555C23.4485 58.9856 22.5957 57.5216 21.9539 56.0276C20.9598 53.7134 21.5231 51.0991 22.9232 49.0054L23.0163 48.8662C23.9694 47.4408 24.4781 45.7647 24.4781 44.0501C24.4781 41.7476 23.5617 39.5399 21.9312 37.9143L21.7849 37.7684C21.0869 37.0725 20.5057 36.2685 20.0639 35.3874L17.639 30.5523C17.2083 29.6933 16.9839 28.7456 16.9839 27.7847V27.3233C16.9839 25.7802 17.6706 24.3171 18.8575 23.3309C20.0444 22.3448 20.731 20.8816 20.731 19.3385V19.0108C20.731 17.5814 21.2392 16.1895 22.2475 15.1763C23.8397 13.5766 25.8836 11.812 26.9762 11.812Z" fill="#5C5C5C" fill-opacity="0.9"/>
<path d="M80.4597 94.9163C80.8094 94.9163 80.9842 95.0955 80.9842 95.454L81.3645 103.965H80.0663L79.7515 95.9785H79.4761L77.5615 102.47C77.4916 102.758 77.308 102.903 77.0107 102.903H75.9354C75.6382 102.903 75.4458 102.758 75.3584 102.47L73.4438 95.9785H73.1946L72.8799 103.965H71.5947L71.9488 95.454C71.9663 95.0955 72.1455 94.9163 72.4865 94.9163H73.9028C74.1825 94.9163 74.3617 95.0605 74.4404 95.3491L76.0403 100.699C76.1015 100.901 76.154 101.102 76.1977 101.303C76.2501 101.504 76.3026 101.714 76.355 101.932H76.578C76.6392 101.714 76.6916 101.504 76.7353 101.303C76.7878 101.102 76.8446 100.892 76.9058 100.673L78.4926 95.3491C78.5713 95.0605 78.7593 94.9163 79.0565 94.9163H80.4597ZM86.0562 97.4079C86.8081 97.4079 87.4069 97.5172 87.8528 97.7358C88.2987 97.9543 88.6222 98.3128 88.8232 98.8111C89.0243 99.3007 89.1248 99.952 89.1248 100.765C89.1248 101.587 89.0243 102.247 88.8232 102.745C88.6222 103.235 88.2987 103.589 87.8528 103.807C87.4069 104.026 86.8081 104.135 86.0562 104.135C85.3044 104.135 84.7011 104.026 84.2465 103.807C83.8006 103.589 83.4772 103.235 83.2761 102.745C83.075 102.247 82.9745 101.587 82.9745 100.765C82.9745 99.952 83.075 99.3007 83.2761 98.8111C83.4772 98.3128 83.8006 97.9543 84.2465 97.7358C84.7011 97.5172 85.3044 97.4079 86.0562 97.4079ZM86.0562 98.4308C85.6191 98.4308 85.2694 98.5007 85.0071 98.6406C84.7536 98.7805 84.57 99.0209 84.4563 99.3619C84.3514 99.6941 84.299 100.162 84.299 100.765C84.299 101.368 84.3514 101.84 84.4563 102.181C84.57 102.522 84.7536 102.763 85.0071 102.903C85.2694 103.034 85.6191 103.099 86.0562 103.099C86.4933 103.099 86.8387 103.034 87.0922 102.903C87.3457 102.763 87.525 102.522 87.6299 102.181C87.7348 101.84 87.7872 101.368 87.7872 100.765C87.7872 100.162 87.7348 99.6941 87.6299 99.3619C87.525 99.0209 87.3457 98.7805 87.0922 98.6406C86.8387 98.5007 86.4933 98.4308 86.0562 98.4308ZM99.6194 97.5653C99.4708 97.9587 99.3353 98.3128 99.2129 98.6275C99.0992 98.9335 98.9812 99.2045 98.8588 99.4406C98.7451 99.6766 98.614 99.8777 98.4654 100.044C98.3255 100.201 98.1594 100.328 97.9671 100.424C97.7747 100.52 97.5474 100.581 97.2851 100.608V100.647C97.5649 100.673 97.8053 100.734 98.0064 100.831C98.2075 100.918 98.3823 101.045 98.531 101.211C98.6883 101.377 98.8326 101.587 98.9637 101.84C99.0948 102.094 99.226 102.4 99.3571 102.758C99.497 103.108 99.6456 103.51 99.803 103.965H98.5047C98.3036 103.44 98.1244 102.994 97.9671 102.627C97.8184 102.26 97.6698 101.963 97.5212 101.735C97.3726 101.508 97.2065 101.346 97.0229 101.25C96.8393 101.154 96.612 101.106 96.3409 101.106L96.3278 100.175C96.5814 100.175 96.7999 100.118 96.9835 100.004C97.1759 99.8908 97.342 99.7247 97.4818 99.5061C97.6217 99.2876 97.7572 99.0166 97.8884 98.6931C98.0283 98.3696 98.1769 97.9937 98.3342 97.5653H99.6194ZM91.6462 97.5653C91.8036 97.9937 91.9522 98.3696 92.0921 98.6931C92.2319 99.0166 92.3718 99.2876 92.5117 99.5061C92.6603 99.7247 92.8221 99.8908 92.9969 100.004C93.1805 100.118 93.3991 100.175 93.6526 100.175V101.106C93.3816 101.106 93.1543 101.154 92.9707 101.25C92.7871 101.346 92.621 101.508 92.4724 101.735C92.3325 101.963 92.1839 102.26 92.0265 102.627C91.8779 102.994 91.6986 103.44 91.4888 103.965H90.1906C90.3567 103.51 90.5053 103.108 90.6364 102.758C90.7763 102.4 90.9074 102.094 91.0298 101.84C91.161 101.587 91.3009 101.377 91.4495 101.211C91.6068 101.045 91.7861 100.918 91.9871 100.831C92.197 100.734 92.4418 100.673 92.7215 100.647V100.608C92.4505 100.581 92.2188 100.52 92.0265 100.424C91.8429 100.328 91.6768 100.201 91.5282 100.044C91.3795 99.8777 91.244 99.6766 91.1216 99.4406C91.008 99.2045 90.89 98.9335 90.7676 98.6275C90.6539 98.3128 90.5271 97.9587 90.3873 97.5653H91.6462ZM94.7148 100.175V101.106H93.351V100.175H94.7148ZM95.5803 97.5653V99.4275C95.5803 99.6285 95.5672 99.8296 95.541 100.031C95.5148 100.232 95.4667 100.424 95.3967 100.608C95.4492 100.8 95.4929 100.992 95.5279 101.185C95.5629 101.368 95.5803 101.548 95.5803 101.722V103.965H94.4657V101.722C94.4657 101.548 94.4831 101.368 94.5181 101.185C94.5531 100.992 94.5924 100.8 94.6361 100.608C94.5749 100.424 94.5312 100.232 94.505 100.031C94.4788 99.8296 94.4657 99.6285 94.4657 99.4275V97.5653H95.5803ZM96.6557 100.175V101.106H95.3443V100.175H96.6557ZM104.3 97.4079C104.79 97.4079 105.2 97.4735 105.533 97.6046C105.865 97.727 106.114 97.9412 106.28 98.2472C106.455 98.5532 106.542 98.9728 106.542 99.5061V103.965H105.546L105.349 102.575L105.284 102.417V99.5061C105.275 99.1302 105.183 98.8592 105.008 98.6931C104.842 98.527 104.514 98.4439 104.025 98.4439C103.684 98.4439 103.26 98.4614 102.753 98.4964C102.254 98.5313 101.76 98.5663 101.271 98.6013L101.153 97.6964C101.45 97.644 101.782 97.5959 102.149 97.5522C102.517 97.5085 102.888 97.4735 103.264 97.4473C103.64 97.421 103.985 97.4079 104.3 97.4079ZM105.965 100.018L105.952 100.909L102.949 100.922C102.652 100.931 102.442 101.01 102.32 101.158C102.197 101.298 102.136 101.495 102.136 101.749V102.142C102.136 102.457 102.215 102.688 102.372 102.837C102.53 102.977 102.77 103.047 103.094 103.047C103.338 103.047 103.609 103.003 103.907 102.916C104.213 102.82 104.519 102.68 104.825 102.496C105.131 102.304 105.406 102.063 105.651 101.775V102.601C105.572 102.723 105.445 102.872 105.27 103.047C105.096 103.213 104.881 103.375 104.628 103.532C104.383 103.689 104.108 103.821 103.802 103.926C103.496 104.03 103.163 104.083 102.805 104.083C102.42 104.083 102.079 104.017 101.782 103.886C101.494 103.746 101.266 103.545 101.1 103.283C100.943 103.012 100.864 102.684 100.864 102.299V101.604C100.864 101.106 101.022 100.717 101.336 100.437C101.66 100.157 102.106 100.018 102.674 100.018H105.965ZM114.236 97.5653V103.965H113.095V99.8864C113.095 99.7378 113.099 99.5936 113.108 99.4537C113.117 99.3138 113.13 99.1608 113.147 98.9947H113.108C113.056 99.1258 112.986 99.2657 112.898 99.4143C112.82 99.5542 112.741 99.6766 112.662 99.7815L109.554 103.965H108.492V97.5653H109.633V101.657C109.633 101.797 109.629 101.937 109.62 102.076C109.62 102.216 109.611 102.369 109.594 102.535H109.62C109.69 102.396 109.764 102.26 109.843 102.129C109.921 101.989 110 101.871 110.079 101.775L113.187 97.5653H114.236ZM112.413 94.7196H113.331C113.366 95.0693 113.305 95.384 113.147 95.6638C112.99 95.9348 112.758 96.1577 112.452 96.3326C112.146 96.4987 111.779 96.5818 111.351 96.5818C110.914 96.5818 110.538 96.4987 110.223 96.3326C109.917 96.1577 109.685 95.9348 109.528 95.6638C109.371 95.384 109.305 95.0693 109.331 94.7196H110.262C110.254 95.1043 110.345 95.3971 110.538 95.5982C110.73 95.7906 111.001 95.8867 111.351 95.8867C111.692 95.8867 111.954 95.7906 112.138 95.5982C112.321 95.3971 112.413 95.1043 112.413 94.7196ZM119.02 97.4079C119.221 97.4079 119.444 97.4167 119.689 97.4342C119.934 97.4516 120.183 97.4822 120.436 97.526C120.69 97.5697 120.926 97.6352 121.145 97.7227L120.987 98.5357C120.681 98.5095 120.366 98.492 120.043 98.4833C119.728 98.4658 119.457 98.457 119.23 98.457C118.749 98.457 118.364 98.527 118.076 98.6669C117.787 98.798 117.578 99.0297 117.446 99.3619C117.324 99.6941 117.263 100.157 117.263 100.752C117.263 101.346 117.324 101.814 117.446 102.155C117.578 102.496 117.787 102.732 118.076 102.863C118.364 102.994 118.749 103.06 119.23 103.06C119.361 103.06 119.532 103.056 119.741 103.047C119.96 103.038 120.192 103.025 120.436 103.008C120.681 102.99 120.913 102.964 121.131 102.929L121.249 103.768C120.935 103.891 120.581 103.978 120.187 104.03C119.794 104.092 119.4 104.122 119.007 104.122C118.264 104.122 117.665 104.013 117.21 103.794C116.765 103.576 116.441 103.222 116.24 102.732C116.039 102.243 115.938 101.582 115.938 100.752C115.938 99.9302 116.039 99.2745 116.24 98.7849C116.441 98.2953 116.765 97.9456 117.21 97.7358C117.665 97.5172 118.268 97.4079 119.02 97.4079ZM128.241 97.5653C128.092 97.9587 127.957 98.3128 127.834 98.6275C127.712 98.9422 127.589 99.2176 127.467 99.4537C127.345 99.6897 127.205 99.8864 127.047 100.044C126.899 100.201 126.724 100.328 126.523 100.424C126.33 100.52 126.094 100.581 125.815 100.608V100.66C126.112 100.686 126.361 100.743 126.562 100.831C126.772 100.918 126.955 101.045 127.113 101.211C127.279 101.377 127.428 101.587 127.559 101.84C127.69 102.085 127.825 102.387 127.965 102.745C128.105 103.095 128.258 103.501 128.424 103.965H127.1C126.942 103.536 126.798 103.165 126.667 102.85C126.545 102.527 126.422 102.256 126.3 102.037C126.177 101.81 126.046 101.631 125.906 101.499C125.767 101.36 125.6 101.263 125.408 101.211C125.224 101.15 125.006 101.119 124.752 101.119V100.162C125.058 100.162 125.316 100.109 125.526 100.004C125.736 99.8908 125.915 99.7247 126.064 99.5061C126.221 99.2876 126.365 99.0209 126.497 98.7062C126.628 98.3827 126.772 98.0024 126.929 97.5653H128.241ZM124.005 97.5653V99.4143C124.005 99.6154 123.987 99.8209 123.952 100.031C123.926 100.232 123.882 100.424 123.821 100.608C123.874 100.8 123.917 100.992 123.952 101.185C123.987 101.377 124.005 101.556 124.005 101.722V103.965H122.733V97.5653H124.005ZM125.185 100.162V101.119H123.638V100.162H125.185ZM135.571 97.5653V103.965H134.431V99.8864C134.431 99.7378 134.435 99.5936 134.444 99.4537C134.452 99.3138 134.466 99.1608 134.483 98.9947H134.444C134.391 99.1258 134.321 99.2657 134.234 99.4143C134.155 99.5542 134.077 99.6766 133.998 99.7815L130.89 103.965H129.828V97.5653H130.969V101.657C130.969 101.797 130.964 101.937 130.955 102.076C130.955 102.216 130.947 102.369 130.929 102.535H130.955C131.025 102.396 131.1 102.26 131.178 102.129C131.257 101.989 131.336 101.871 131.414 101.775L134.522 97.5653H135.571ZM143.319 97.5653V103.965H142.179V99.8864C142.179 99.7378 142.183 99.5936 142.192 99.4537C142.2 99.3138 142.213 99.1608 142.231 98.9947H142.192C142.139 99.1258 142.069 99.2657 141.982 99.4143C141.903 99.5542 141.824 99.6766 141.746 99.7815L138.638 103.965H137.576V97.5653H138.716V101.657C138.716 101.797 138.712 101.937 138.703 102.076C138.703 102.216 138.695 102.369 138.677 102.535H138.703C138.773 102.396 138.848 102.26 138.926 102.129C139.005 101.989 139.084 101.871 139.162 101.775L142.27 97.5653H143.319ZM141.497 94.7196H142.415C142.45 95.0693 142.388 95.384 142.231 95.6638C142.074 95.9348 141.842 96.1577 141.536 96.3326C141.23 96.4987 140.863 96.5818 140.434 96.5818C139.997 96.5818 139.621 96.4987 139.307 96.3326C139.001 96.1577 138.769 95.9348 138.612 95.6638C138.454 95.384 138.389 95.0693 138.415 94.7196H139.346C139.337 95.1043 139.429 95.3971 139.621 95.5982C139.814 95.7906 140.085 95.8867 140.434 95.8867C140.775 95.8867 141.038 95.7906 141.221 95.5982C141.405 95.3971 141.497 95.1043 141.497 94.7196Z" fill="white"/>
</svg>
