<svg width="186" height="200" viewBox="0 0 186 200" fill="none" xmlns="http://www.w3.org/2000/svg">
<path d="M47.7935 199.981H50.2853H53.7014C55.5463 199.981 57.3501 199.437 58.8865 198.415L62.1511 196.245L67.7717 193.132L68.6337 192.488C69.6634 191.718 70.2698 190.507 70.2698 189.221C70.2698 188.138 70.7011 187.098 71.4686 186.333L71.9614 185.842C72.4778 185.327 73.1773 185.038 73.9066 185.038C75.0915 185.038 76.1437 184.28 76.5194 183.156L77.7639 179.434L79.6375 175.076L80.9124 172.533C81.7112 170.941 82.9477 169.609 84.4769 168.694L85.2581 168.227L88.761 166.286C90.15 165.517 91.7117 165.113 93.2996 165.113H94.0094C95.641 165.113 97.2443 165.54 98.6606 166.35L99.7803 166.99C101.197 167.8 102.8 168.227 104.431 168.227H106.492H108.427C109.939 168.227 111.34 167.434 112.12 166.139C112.523 165.468 112.737 164.7 112.737 163.916V161.899C112.737 159.971 113.504 158.122 114.869 156.761C115.113 156.518 115.338 156.259 115.545 155.984L116.201 155.112C116.8 154.315 117.548 153.643 118.404 153.131L118.772 152.911C119.727 152.34 120.818 152.038 121.931 152.038C123.26 152.038 124.553 152.468 125.617 153.264L126.476 153.906L128.692 155.168C130.105 155.973 131.703 156.396 133.329 156.396H135.219H137.112C138.736 156.396 140.333 155.973 141.745 155.169L141.805 155.135C143.218 154.33 144.389 153.162 145.197 151.752L145.433 151.339C146.105 150.167 147.085 149.201 148.267 148.546L149.75 147.725C151.188 146.929 152.081 145.414 152.081 143.769C152.081 143.065 152.245 142.371 152.561 141.741L152.773 141.317C153.88 139.11 156.138 137.717 158.607 137.717H159.575H160.739C162.024 137.717 163.287 137.391 164.411 136.768L165.896 135.945C167.391 135.118 168.318 133.544 168.318 131.835C168.318 131.197 168.188 130.566 167.936 129.98L167.012 127.828C166.636 126.954 166.129 126.143 165.509 125.421L164.406 124.138C163.304 122.856 162.698 121.222 162.698 119.531C162.698 117.999 163.196 116.508 164.117 115.283L165.116 113.955C165.99 112.793 167.122 111.851 168.423 111.203L170.554 110.14C171.144 109.846 171.701 109.491 172.216 109.08L174.564 107.208L179.706 103.013C180.842 102.086 181.744 100.907 182.341 99.5682L183.931 96.0001L185.043 93.4129C185.546 92.2443 185.805 90.9856 185.805 89.7137V88.5284V85.4403C185.805 83.885 184.97 82.4492 183.619 81.6794L182.626 81.1138C181.889 80.6936 181.433 79.9099 181.433 79.0609C181.433 77.756 180.375 76.6982 179.07 76.6982H178.935C177.555 76.6982 176.437 75.5798 176.437 74.2002V72.9456C176.437 71.7786 175.894 70.6781 174.968 69.9679L169.569 65.8272C168.741 65.1922 167.813 64.7 166.823 64.371L166.151 64.1476C163.959 63.4191 161.558 63.6821 159.575 64.868L152.436 69.02C152.2 69.1573 151.95 69.2699 151.691 69.3561L150.923 69.6115C148.726 70.3413 146.46 68.7065 146.46 66.3924C146.46 64.5189 144.942 63.0001 143.068 63.0001H142.089H136.83C135.843 63.0001 134.94 62.4429 134.497 61.5603C134.162 60.8921 134.13 60.1123 134.408 59.4186L134.921 58.1402C135.119 57.6467 135.385 57.1836 135.712 56.7644L139.009 52.5379C139.396 52.0422 139.832 51.5868 140.309 51.1784L141.689 49.9992C143.168 48.7356 144.147 47.0148 144.88 45.213C145.352 44.0533 145.918 43.0756 146.46 43.0756C146.918 43.0756 147.394 42.116 147.815 40.8567C148.704 38.1967 147.167 35.4144 144.612 34.2567C143.008 33.53 141.169 33.53 139.566 34.2567L135.219 36.2265L130.848 38.7171L125.928 41.8384C124.654 42.6465 123.177 43.0756 121.669 43.0756C120.718 43.0756 119.775 42.905 118.884 42.5721L116.931 41.8419C115.813 41.4239 114.797 40.7716 113.952 39.9289C113.15 39.1293 112.194 38.5008 111.142 38.0813L108.162 36.8929C107.059 36.4526 105.881 36.2265 104.693 36.2265H103.369H102.37C100.238 36.2265 98.221 35.2589 96.8866 33.596C96.6289 33.2748 96.3999 32.9316 96.2023 32.5704L93.9017 28.3652C93.1475 26.9867 92.7522 25.4407 92.7522 23.8694V22.2188C92.7522 21.2074 92.4235 20.2234 91.8155 19.4152C91.2075 18.6069 90.8787 17.623 90.8787 16.6116V10.0755V6.35895C90.8787 5.55476 90.5342 4.78909 89.9323 4.25571L86.436 1.1572C85.9791 0.752232 85.2581 1.07665 85.2581 1.68723C85.2581 1.87543 85.1832 2.05589 85.0499 2.18877L82.1355 5.09442L78.3315 8.12847C76.7511 9.38904 74.7894 10.0755 72.7678 10.0755H70.512C68.7571 10.0755 67.0739 9.37979 65.8311 8.14079C65.0552 7.36723 64.0997 6.79801 63.05 6.48405L58.9387 5.25434C58.5841 5.14829 58.216 5.09442 57.8459 5.09442H55.3037C54.6016 5.09442 54.0324 5.66361 54.0324 6.36574C54.0324 6.7437 53.8642 7.10206 53.5735 7.3436L50.2853 10.0755L49.0798 11.037C47.8683 12.0033 47.1627 13.4687 47.1627 15.0183C47.1627 16.9494 48.255 18.7144 49.9833 19.5759L50.1552 19.6616C51.4381 20.3011 52.4142 21.4243 52.8688 22.7838L53.1345 23.5787C53.7128 25.3083 53.6073 27.1818 53.0416 28.9156C52.5718 30.3553 52.1589 31.9676 52.1589 33.1133V38.0793C52.1589 40.8386 49.922 43.0756 47.1627 43.0756H42.0827C40.1076 43.0756 38.1831 43.6999 36.5841 44.8593L33.9809 46.7468C32.8461 47.5696 32.1744 48.8864 32.1744 50.2881C32.1744 51.2631 32.5001 52.21 33.0998 52.9787L35.8061 56.4479C36.2972 57.0774 36.87 57.6386 37.5094 58.1167C38.5211 58.8732 39.3619 59.8347 39.9768 60.9382L40.9821 62.7422C41.7589 64.1363 42.1666 65.7057 42.1666 67.3016V71.0944V74.8793C42.1666 76.0078 42.7595 77.0529 43.7279 77.6322C44.6963 78.2115 45.2892 79.257 45.2892 80.3855V81.1729C45.2892 82.3012 45.7041 83.39 46.4549 84.2321L46.7105 84.5188C48.578 86.6134 48.1079 89.8852 45.7262 91.3693C45.4358 91.5503 45.169 91.7644 44.9191 91.9981C43.6963 93.1415 41.2863 95.1059 39.0441 96.0001C36.546 96.9963 38.0032 98.9058 39.0441 99.736L40.0139 100.316C41.4242 101.16 42.5877 102.36 43.3877 103.795L44.1046 105.082C44.8815 106.476 45.2892 108.045 45.2892 109.641V112.189V114.477C45.2892 116.237 44.7934 117.961 43.8587 119.452L43.1319 120.611C42.5012 121.617 42.1666 122.781 42.1666 123.968C42.1666 126.913 40.1326 129.472 37.2231 129.927C34.0735 130.42 30.1489 130.868 26.5538 130.868H14.688C13.6662 130.868 11.6189 130.289 9.89156 129.724C8.53213 129.278 7.07537 129.185 5.68736 129.531C2.53589 130.317 0.324219 133.147 0.324219 136.395V137.717V140.481C0.324219 141.939 0.648782 143.386 1.39831 144.636C2.44601 146.385 3.92383 148.503 5.32033 149.547C6.54162 150.461 6.58118 152.195 6.23721 153.786C5.85443 155.555 5.40169 157.359 5.768 159.132C6.17936 161.123 6.85165 163.507 7.81838 165.113C9.69192 168.227 11.5655 165.113 12.8145 165.113H19.6841H21.5727C24.3237 165.113 26.5538 167.343 26.5538 170.094C26.5538 173.178 28.1939 176.029 30.8597 177.58L33.1307 178.901C33.7315 179.25 34.4141 179.434 35.109 179.434C37.2823 179.434 39.0441 181.196 39.0441 183.369V187.528V191.232C39.0441 192.484 39.3129 193.722 39.8324 194.861C41.2542 197.98 44.3661 199.981 47.7935 199.981Z" fill="#5C5C5C" fill-opacity="0.9"/>
<path d="M71.5527 88.5739C72.2172 88.5739 72.7811 88.6526 73.2444 88.81C73.7165 88.9674 74.0924 89.2253 74.3722 89.5837C74.652 89.9422 74.853 90.423 74.9754 91.0262C75.1066 91.6295 75.1722 92.377 75.1722 93.2687C75.1722 94.1517 75.1066 94.8992 74.9754 95.5112C74.853 96.1144 74.652 96.5952 74.3722 96.9537C74.0924 97.3121 73.7165 97.57 73.2444 97.7274C72.7811 97.8848 72.2172 97.9634 71.5527 97.9634C70.8883 97.9634 70.32 97.8848 69.8479 97.7274C69.3846 97.57 69.0086 97.3121 68.7201 96.9537C68.4404 96.5952 68.2349 96.1144 68.1038 95.5112C67.9727 94.8992 67.9071 94.1517 67.9071 93.2687C67.9071 92.377 67.9727 91.6295 68.1038 91.0262C68.2349 90.423 68.4404 89.9422 68.7201 89.5837C69.0086 89.2253 69.3846 88.9674 69.8479 88.81C70.32 88.6526 70.8883 88.5739 71.5527 88.5739ZM71.5527 89.7148C70.9845 89.7148 70.5342 89.8241 70.202 90.0427C69.8698 90.2613 69.6337 90.6284 69.4939 91.1443C69.3627 91.6513 69.2972 92.3595 69.2972 93.2687C69.2972 94.1692 69.3627 94.8773 69.4939 95.3931C69.6337 95.9089 69.8698 96.2761 70.202 96.4947C70.5342 96.7133 70.9845 96.8225 71.5527 96.8225C72.121 96.8225 72.5669 96.7133 72.8903 96.4947C73.2226 96.2761 73.4586 95.9089 73.5985 95.3931C73.7384 94.8773 73.8083 94.1692 73.8083 93.2687C73.8083 92.3595 73.7384 91.6513 73.5985 91.1443C73.4586 90.6284 73.2226 90.2613 72.8903 90.0427C72.5669 89.8241 72.121 89.7148 71.5527 89.7148ZM80.7177 91.2361C81.5132 91.2361 82.0815 91.5246 82.4225 92.1016C82.7634 92.6786 82.9339 93.5222 82.9339 94.6325C82.9339 95.4631 82.8465 96.1231 82.6716 96.6127C82.4968 97.0936 82.2301 97.4389 81.8717 97.6487C81.5132 97.8498 81.063 97.9503 80.521 97.9503C80.0926 97.9503 79.6729 97.8935 79.262 97.7799C78.8511 97.6575 78.4621 97.4739 78.0949 97.2291L78.1736 96.5209C78.5583 96.6346 78.8992 96.7264 79.1965 96.7963C79.4937 96.8663 79.8128 96.9012 80.1538 96.9012C80.5122 96.9012 80.7963 96.84 81.0062 96.7176C81.2247 96.5952 81.3821 96.3679 81.4783 96.0357C81.5744 95.7035 81.6225 95.2358 81.6225 94.6325C81.6225 94.038 81.5788 93.5747 81.4914 93.2425C81.404 92.9015 81.2641 92.6611 81.0717 92.5212C80.8794 92.3726 80.6171 92.2983 80.2849 92.2983C79.9527 92.2983 79.6248 92.377 79.3014 92.5343C78.9779 92.6829 78.6063 92.919 78.1867 93.2425L78.0424 92.4556C78.261 92.2108 78.5145 91.9967 78.803 91.8131C79.1003 91.6295 79.415 91.4896 79.7472 91.3934C80.0795 91.2885 80.4029 91.2361 80.7177 91.2361ZM77.99 91.3934L78.1342 92.6917L78.226 92.8622V96.9799L78.1605 97.1373C78.1867 97.3821 78.2042 97.6225 78.2129 97.8585C78.2304 98.0946 78.2348 98.3437 78.226 98.606V100.403H76.9671V91.3934H77.99ZM87.3521 91.2361C88.34 91.2361 89.0526 91.4153 89.4897 91.7737C89.9356 92.1234 90.1629 92.6436 90.1716 93.3343C90.1716 93.9113 90.0448 94.3571 89.7913 94.6719C89.5378 94.9866 89.1225 95.144 88.5455 95.144H84.8343V94.2391H88.2177C88.4974 94.2391 88.681 94.1473 88.7684 93.9637C88.8646 93.7801 88.9083 93.5703 88.8996 93.3343C88.8996 92.9408 88.7859 92.6611 88.5586 92.495C88.34 92.3289 87.9554 92.2458 87.4046 92.2458C86.9587 92.2458 86.609 92.3114 86.3555 92.4425C86.102 92.5737 85.9227 92.801 85.8178 93.1244C85.7129 93.4479 85.6605 93.9025 85.6605 94.4883C85.6605 95.144 85.726 95.6467 85.8572 95.9964C85.9883 96.3373 86.1937 96.5734 86.4735 96.7045C86.762 96.8357 87.1423 96.9012 87.6144 96.9012C87.9554 96.9012 88.3313 96.8881 88.7422 96.8619C89.1618 96.8269 89.5421 96.7876 89.8831 96.7439L90.0011 97.57C89.8001 97.6575 89.5465 97.7318 89.2405 97.793C88.9433 97.8454 88.6373 97.8848 88.3226 97.911C88.0078 97.9372 87.7193 97.9503 87.457 97.9503C86.7139 97.9503 86.1107 97.8367 85.6473 97.6094C85.1927 97.3821 84.8605 97.0236 84.6507 96.534C84.4496 96.0357 84.3491 95.3844 84.3491 94.5801C84.3491 93.7408 84.454 93.0764 84.6638 92.5868C84.8736 92.0972 85.1971 91.7519 85.6342 91.5508C86.0714 91.341 86.644 91.2361 87.3521 91.2361ZM97.2432 91.3934L95.2762 94.5014L97.4006 97.793H96.0368L93.991 94.5014L95.8925 91.3934H97.2432ZM92.4174 91.3934L94.3189 94.5014L92.26 97.793H90.8962L93.0206 94.5014L91.0666 91.3934H92.4174ZM94.8959 94.0031V94.9342H93.414V94.0031H94.8959ZM101.313 91.2361C102.065 91.2361 102.664 91.3453 103.11 91.5639C103.556 91.7825 103.879 92.1409 104.08 92.6392C104.281 93.1288 104.382 93.7801 104.382 94.5932C104.382 95.415 104.281 96.0751 104.08 96.5734C103.879 97.063 103.556 97.417 103.11 97.6356C102.664 97.8542 102.065 97.9634 101.313 97.9634C100.561 97.9634 99.9579 97.8542 99.5033 97.6356C99.0575 97.417 98.734 97.063 98.5329 96.5734C98.3318 96.0751 98.2313 95.415 98.2313 94.5932C98.2313 93.7801 98.3318 93.1288 98.5329 92.6392C98.734 92.1409 99.0575 91.7825 99.5033 91.5639C99.9579 91.3453 100.561 91.2361 101.313 91.2361ZM101.313 92.2589C100.876 92.2589 100.526 92.3289 100.264 92.4688C100.01 92.6086 99.8268 92.8491 99.7132 93.19C99.6082 93.5222 99.5558 93.99 99.5558 94.5932C99.5558 95.1964 99.6082 95.6685 99.7132 96.0095C99.8268 96.3504 100.01 96.5909 100.264 96.7307C100.526 96.8619 100.876 96.9275 101.313 96.9275C101.75 96.9275 102.096 96.8619 102.349 96.7307C102.603 96.5909 102.782 96.3504 102.887 96.0095C102.992 95.6685 103.044 95.1964 103.044 94.5932C103.044 93.99 102.992 93.5222 102.887 93.19C102.782 92.8491 102.603 92.6086 102.349 92.4688C102.096 92.3289 101.75 92.2589 101.313 92.2589ZM108.764 91.3278C109.437 91.3278 109.971 91.3759 110.364 91.4721C110.758 91.5683 111.042 91.7387 111.217 91.9835C111.4 92.2283 111.492 92.578 111.492 93.0326C111.492 93.4873 111.383 93.8326 111.164 94.0686C110.946 94.2959 110.591 94.4315 110.102 94.4752V94.5145C110.696 94.5582 111.112 94.7243 111.348 95.0128C111.592 95.3013 111.715 95.7035 111.715 96.2193C111.715 96.6564 111.627 96.9974 111.453 97.2422C111.278 97.4782 111.002 97.6443 110.626 97.7405C110.25 97.8367 109.752 97.8848 109.131 97.8848C108.668 97.8848 108.262 97.8804 107.912 97.8717C107.571 97.8717 107.256 97.8629 106.968 97.8454C106.688 97.8367 106.391 97.8236 106.076 97.8061L106.233 96.9012C106.408 96.91 106.736 96.9187 107.217 96.9275C107.706 96.9275 108.279 96.9275 108.935 96.9275C109.311 96.9275 109.608 96.9012 109.826 96.8488C110.054 96.7963 110.211 96.7001 110.299 96.5603C110.395 96.4116 110.443 96.2062 110.443 95.9439C110.443 95.5505 110.329 95.2839 110.102 95.144C109.875 94.9954 109.468 94.921 108.882 94.921H106.22V94.0686H108.882C109.223 94.0686 109.494 94.0468 109.695 94.0031C109.905 93.9506 110.054 93.8588 110.141 93.7277C110.237 93.5878 110.285 93.3955 110.285 93.1507C110.285 92.9146 110.233 92.7354 110.128 92.613C110.032 92.4906 109.87 92.4032 109.643 92.3507C109.416 92.2983 109.11 92.272 108.725 92.272C108.332 92.2633 107.982 92.2589 107.676 92.2589C107.37 92.2589 107.099 92.2633 106.863 92.272C106.627 92.272 106.417 92.2808 106.233 92.2983L106.076 91.4065C106.356 91.3803 106.622 91.3628 106.876 91.3541C107.129 91.3453 107.405 91.341 107.702 91.341C108.008 91.3322 108.362 91.3278 108.764 91.3278ZM107.269 91.4065V97.8061H106.076V91.4065H107.269ZM116.156 91.2361C116.908 91.2361 117.506 91.3453 117.952 91.5639C118.398 91.7825 118.722 92.1409 118.923 92.6392C119.124 93.1288 119.224 93.7801 119.224 94.5932C119.224 95.415 119.124 96.0751 118.923 96.5734C118.722 97.063 118.398 97.417 117.952 97.6356C117.506 97.8542 116.908 97.9634 116.156 97.9634C115.404 97.9634 114.801 97.8542 114.346 97.6356C113.9 97.417 113.577 97.063 113.376 96.5734C113.175 96.0751 113.074 95.415 113.074 94.5932C113.074 93.7801 113.175 93.1288 113.376 92.6392C113.577 92.1409 113.9 91.7825 114.346 91.5639C114.801 91.3453 115.404 91.2361 116.156 91.2361ZM116.156 92.2589C115.719 92.2589 115.369 92.3289 115.107 92.4688C114.853 92.6086 114.67 92.8491 114.556 93.19C114.451 93.5222 114.398 93.99 114.398 94.5932C114.398 95.1964 114.451 95.6685 114.556 96.0095C114.67 96.3504 114.853 96.5909 115.107 96.7307C115.369 96.8619 115.719 96.9275 116.156 96.9275C116.593 96.9275 116.938 96.8619 117.192 96.7307C117.445 96.5909 117.625 96.3504 117.729 96.0095C117.834 95.6685 117.887 95.1964 117.887 94.5932C117.887 93.99 117.834 93.5222 117.729 93.19C117.625 92.8491 117.445 92.6086 117.192 92.4688C116.938 92.3289 116.593 92.2589 116.156 92.2589ZM124.813 94.0162V94.9342H120.827V94.0162H124.813ZM69.8742 107.275C70.5911 107.275 71.1637 107.323 71.5921 107.42C72.0205 107.507 72.3308 107.673 72.5232 107.918C72.7155 108.163 72.8117 108.521 72.8117 108.993C72.8117 109.457 72.7111 109.811 72.51 110.056C72.3177 110.292 71.968 110.431 71.4609 110.475V110.515C72.0292 110.558 72.4357 110.72 72.6805 111C72.9253 111.271 73.0477 111.677 73.0477 112.219C73.0477 112.674 72.9515 113.024 72.7592 113.268C72.5669 113.513 72.2653 113.684 71.8544 113.78C71.4435 113.867 70.9102 113.911 70.2545 113.911C69.8436 113.911 69.4108 113.894 68.9562 113.859C68.5103 113.832 68.0776 113.784 67.6579 113.714L67.7628 112.77C68.0776 112.805 68.4535 112.836 68.8906 112.862C69.3278 112.879 69.7518 112.888 70.1627 112.888C70.7746 112.888 71.1899 112.827 71.4085 112.705C71.627 112.573 71.7363 112.324 71.7363 111.957C71.7363 111.695 71.6882 111.498 71.5921 111.367C71.4959 111.227 71.3342 111.131 71.1069 111.078C70.8796 111.017 70.5736 110.987 70.1889 110.987L68.589 110.973V110.095L70.1758 110.082C70.5342 110.082 70.814 110.056 71.0151 110.003C71.2161 109.951 71.356 109.859 71.4347 109.728C71.5221 109.597 71.5658 109.409 71.5658 109.164C71.5658 108.928 71.5134 108.753 71.4085 108.639C71.3123 108.517 71.1418 108.434 70.897 108.39C70.661 108.338 70.3288 108.311 69.9004 108.311C69.5507 108.311 69.201 108.324 68.8513 108.351C68.5016 108.368 68.2 108.394 67.9464 108.429L67.8415 107.485C68.2174 107.398 68.5846 107.341 68.9431 107.315C69.3015 107.289 69.6119 107.275 69.8742 107.275ZM80.4458 107.393L77.941 114.095C77.8623 114.322 77.7618 114.554 77.6394 114.79C77.517 115.034 77.3684 115.266 77.1935 115.485C77.0274 115.703 76.8307 115.891 76.6034 116.049C76.2712 116.276 75.8996 116.411 75.4887 116.455C75.0866 116.499 74.6582 116.49 74.2036 116.429L74.3085 115.563C74.6057 115.572 74.8899 115.559 75.1609 115.524C75.4319 115.489 75.6723 115.406 75.8821 115.275C76.0657 115.144 76.2318 114.964 76.3805 114.737C76.5291 114.519 76.6559 114.278 76.7608 114.016L77.0886 113.242C77.1586 113.059 77.2285 112.858 77.2984 112.639C77.3684 112.412 77.4339 112.215 77.4951 112.049L79.0819 107.393H80.4458ZM75.2133 107.393L76.8263 112.049C76.8701 112.18 76.9094 112.315 76.9444 112.455C76.9793 112.586 77.0143 112.722 77.0493 112.862H77.364L76.9312 113.793H76.5903C76.4766 113.793 76.3805 113.767 76.3018 113.714C76.2318 113.653 76.175 113.57 76.1313 113.465L73.8626 107.393H75.2133ZM84.3042 107.236C85.2921 107.236 86.0046 107.415 86.4418 107.774C86.8876 108.123 87.1149 108.644 87.1237 109.334C87.1237 109.911 86.9969 110.357 86.7434 110.672C86.4898 110.987 86.0746 111.144 85.4976 111.144H81.7863V110.239H85.1697C85.4495 110.239 85.6331 110.147 85.7205 109.964C85.8167 109.78 85.8604 109.57 85.8516 109.334C85.8516 108.941 85.738 108.661 85.5107 108.495C85.2921 108.329 84.9074 108.246 84.3567 108.246C83.9108 108.246 83.5611 108.311 83.3075 108.443C83.054 108.574 82.8748 108.801 82.7699 109.124C82.665 109.448 82.6125 109.903 82.6125 110.488C82.6125 111.144 82.6781 111.647 82.8092 111.996C82.9404 112.337 83.1458 112.573 83.4256 112.705C83.7141 112.836 84.0944 112.901 84.5665 112.901C84.9074 112.901 85.2834 112.888 85.6943 112.862C86.1139 112.827 86.4942 112.788 86.8352 112.744L86.9532 113.57C86.7521 113.657 86.4986 113.732 86.1926 113.793C85.8953 113.845 85.5894 113.885 85.2746 113.911C84.9599 113.937 84.6714 113.95 84.4091 113.95C83.666 113.95 83.0628 113.837 82.5994 113.609C82.1448 113.382 81.8126 113.024 81.6027 112.534C81.4017 112.036 81.3011 111.384 81.3011 110.58C81.3011 109.741 81.406 109.076 81.6159 108.587C81.8257 108.097 82.1492 107.752 82.5863 107.551C83.0234 107.341 83.596 107.236 84.3042 107.236ZM91.4371 107.328C92.1103 107.328 92.6436 107.376 93.037 107.472C93.4304 107.568 93.7145 107.739 93.8894 107.984C94.073 108.228 94.1648 108.578 94.1648 109.033C94.1648 109.487 94.0555 109.833 93.8369 110.069C93.6184 110.296 93.2643 110.431 92.7747 110.475V110.515C93.3692 110.558 93.7845 110.724 94.0205 111.013C94.2653 111.301 94.3877 111.703 94.3877 112.219C94.3877 112.656 94.3003 112.997 94.1254 113.242C93.9506 113.478 93.6752 113.644 93.2993 113.741C92.9233 113.837 92.425 113.885 91.8043 113.885C91.3409 113.885 90.9344 113.88 90.5847 113.872C90.2437 113.872 89.929 113.863 89.6405 113.845C89.3607 113.837 89.0635 113.824 88.7488 113.806L88.9061 112.901C89.081 112.91 89.4088 112.919 89.8897 112.927C90.3792 112.927 90.9519 112.927 91.6076 112.927C91.9835 112.927 92.2808 112.901 92.4993 112.849C92.7266 112.796 92.884 112.7 92.9714 112.56C93.0676 112.412 93.1157 112.206 93.1157 111.944C93.1157 111.551 93.002 111.284 92.7747 111.144C92.5474 110.995 92.1409 110.921 91.5551 110.921H88.893V110.069H91.5551C91.8961 110.069 92.1671 110.047 92.3682 110.003C92.578 109.951 92.7266 109.859 92.814 109.728C92.9102 109.588 92.9583 109.395 92.9583 109.151C92.9583 108.915 92.9058 108.735 92.8009 108.613C92.7048 108.491 92.543 108.403 92.3157 108.351C92.0884 108.298 91.7824 108.272 91.3978 108.272C91.0043 108.263 90.6546 108.259 90.3486 108.259C90.0427 108.259 89.7716 108.263 89.5356 108.272C89.2995 108.272 89.0897 108.281 88.9061 108.298L88.7488 107.407C89.0285 107.38 89.2952 107.363 89.5487 107.354C89.8022 107.345 90.0776 107.341 90.3749 107.341C90.6809 107.332 91.0349 107.328 91.4371 107.328ZM89.9421 107.407V113.806H88.7488V107.407H89.9421ZM98.8286 107.236C99.0297 107.236 99.2526 107.245 99.4974 107.262C99.7422 107.28 99.9913 107.31 100.245 107.354C100.498 107.398 100.734 107.463 100.953 107.551L100.796 108.364C100.49 108.338 100.175 108.32 99.8515 108.311C99.5367 108.294 99.2657 108.285 99.0384 108.285C98.5576 108.285 98.1729 108.355 97.8844 108.495C97.5959 108.626 97.3861 108.858 97.2549 109.19C97.1325 109.522 97.0713 109.986 97.0713 110.58C97.0713 111.175 97.1325 111.642 97.2549 111.983C97.3861 112.324 97.5959 112.56 97.8844 112.691C98.1729 112.823 98.5576 112.888 99.0384 112.888C99.1695 112.888 99.34 112.884 99.5498 112.875C99.7684 112.866 100 112.853 100.245 112.836C100.49 112.818 100.721 112.792 100.94 112.757L101.058 113.596C100.743 113.719 100.389 113.806 99.9957 113.859C99.6023 113.92 99.2089 113.95 98.8155 113.95C98.0724 113.95 97.4735 113.841 97.0189 113.622C96.573 113.404 96.2495 113.05 96.0485 112.56C95.8474 112.071 95.7468 111.411 95.7468 110.58C95.7468 109.758 95.8474 109.103 96.0485 108.613C96.2495 108.123 96.573 107.774 97.0189 107.564C97.4735 107.345 98.0767 107.236 98.8286 107.236ZM108.049 107.393C107.901 107.787 107.765 108.141 107.643 108.456C107.52 108.77 107.398 109.046 107.275 109.282C107.153 109.518 107.013 109.715 106.856 109.872C106.707 110.029 106.532 110.156 106.331 110.252C106.139 110.348 105.903 110.41 105.623 110.436V110.488C105.92 110.515 106.169 110.571 106.371 110.659C106.58 110.746 106.764 110.873 106.921 111.039C107.087 111.205 107.236 111.415 107.367 111.669C107.498 111.913 107.634 112.215 107.774 112.573C107.914 112.923 108.067 113.33 108.233 113.793H106.908C106.751 113.365 106.607 112.993 106.475 112.678C106.353 112.355 106.231 112.084 106.108 111.865C105.986 111.638 105.855 111.459 105.715 111.328C105.575 111.188 105.409 111.092 105.217 111.039C105.033 110.978 104.814 110.947 104.561 110.947V109.99C104.867 109.99 105.125 109.938 105.335 109.833C105.544 109.719 105.724 109.553 105.872 109.334C106.03 109.116 106.174 108.849 106.305 108.534C106.436 108.211 106.58 107.831 106.738 107.393H108.049ZM103.813 107.393V109.242C103.813 109.444 103.796 109.649 103.761 109.859C103.735 110.06 103.691 110.252 103.63 110.436C103.682 110.628 103.726 110.82 103.761 111.013C103.796 111.205 103.813 111.384 103.813 111.551V113.793H102.541V107.393H103.813ZM104.994 109.99V110.947H103.446V109.99H104.994ZM115.38 107.393V113.793H114.239V109.715C114.239 109.566 114.243 109.422 114.252 109.282C114.261 109.142 114.274 108.989 114.292 108.823H114.252C114.2 108.954 114.13 109.094 114.042 109.242C113.964 109.382 113.885 109.505 113.806 109.61L110.698 113.793H109.636V107.393H110.777V111.485C110.777 111.625 110.773 111.765 110.764 111.905C110.764 112.044 110.755 112.197 110.738 112.364H110.764C110.834 112.224 110.908 112.088 110.987 111.957C111.066 111.817 111.144 111.699 111.223 111.603L114.331 107.393H115.38ZM123.128 107.393V113.793H121.987V109.715C121.987 109.566 121.991 109.422 122 109.282C122.009 109.142 122.022 108.989 122.039 108.823H122C121.948 108.954 121.878 109.094 121.79 109.242C121.712 109.382 121.633 109.505 121.554 109.61L118.446 113.793H117.384V107.393H118.525V111.485C118.525 111.625 118.521 111.765 118.512 111.905C118.512 112.044 118.503 112.197 118.486 112.364H118.512C118.582 112.224 118.656 112.088 118.735 111.957C118.813 111.817 118.892 111.699 118.971 111.603L122.079 107.393H123.128ZM121.305 104.548H122.223C122.258 104.897 122.197 105.212 122.039 105.492C121.882 105.763 121.65 105.986 121.344 106.161C121.038 106.327 120.671 106.41 120.243 106.41C119.806 106.41 119.43 106.327 119.115 106.161C118.809 105.986 118.577 105.763 118.42 105.492C118.263 105.212 118.197 104.897 118.223 104.548H119.154C119.146 104.932 119.237 105.225 119.43 105.426C119.622 105.619 119.893 105.715 120.243 105.715C120.584 105.715 120.846 105.619 121.03 105.426C121.213 105.225 121.305 104.932 121.305 104.548Z" fill="white"/>
</svg>
