<svg width="174" height="294" viewBox="0 0 174 294" fill="none" xmlns="http://www.w3.org/2000/svg">
<path d="M31.9298 5.22528V4.75498C31.9298 2.82142 34.026 1.6156 35.6974 2.58769L39.4239 4.75498L45.0446 9.11347L48.9449 13.0022C49.2587 13.315 49.5942 13.6051 49.9491 13.8704L53.8794 16.8093C54.2342 17.0746 54.5697 17.3648 54.8835 17.6776L60.829 23.6053C61.5426 24.3168 62.1368 25.1388 62.5885 26.0396L64.0746 29.0028C64.2942 29.4407 64.5478 29.8607 64.8331 30.2589L66.9364 33.1947C67.329 33.7427 67.6613 34.3315 67.9276 34.9508L69.4006 38.3776L71.2741 43.9814L73.7722 50.8305L75.6457 54.5663L76.7351 56.3765C77.2545 57.2395 77.9097 58.0131 78.6754 58.6675L80.7347 60.4273C81.5005 61.0817 82.1557 61.8554 82.6751 62.7184L84.4305 65.6354C85.2233 66.9527 86.3139 68.0859 87.7142 68.7207C89.9826 69.7492 92.9069 70.6121 94.3811 69.5097C96.8792 67.6418 96.8792 69.5097 99.3773 69.5097C99.6447 69.5097 99.8928 69.4874 100.122 69.4473C101.96 69.1261 103.757 67.6418 105.622 67.6418H108.077C109.342 67.6418 110.594 67.8981 111.757 68.3952L113.547 69.1601C114.087 69.3908 114.668 69.5097 115.255 69.5097C116.657 69.5097 117.972 70.1855 118.789 71.3248L119.79 72.7222C120.333 73.4799 121.009 74.1326 121.785 74.6486L122.026 74.8088C123.547 75.8195 125.332 76.3588 127.158 76.3588H128.729H129.647C131.492 76.3588 133.296 75.814 134.833 74.7928L135.148 74.5832C135.862 74.1088 136.507 73.5386 137.066 72.8887L139.037 70.5954C139.655 69.8763 140.386 69.2615 141.199 68.7747C142.443 68.0309 143.484 66.9924 144.231 65.7509L146.84 61.4154L148.217 59.3561C148.956 58.251 149.922 57.3159 151.05 56.6129L153.663 54.9847C154.102 54.7113 154.609 54.5663 155.126 54.5663C156.172 54.5663 157.129 55.1568 157.598 56.0921L158.926 58.7408C159.195 59.2767 159.399 59.8426 159.534 60.4266L160.642 65.2154C161.01 66.8054 160.957 68.4639 160.486 70.0267L160.075 71.3956C159.588 73.0138 159.548 74.7337 159.959 76.3728L160.192 77.3028C160.831 79.8506 162.608 81.9619 165.009 83.0261C166.204 83.5553 167.26 84.3517 168.098 85.354L169.411 86.9243C169.766 87.3493 170.19 87.7115 170.665 87.9958C172.157 88.888 173.07 90.4982 173.07 92.2362V95.7176C173.07 97.3135 172.662 98.883 171.885 100.277L169.947 103.755L167.149 111.009C166.933 111.568 166.664 112.105 166.346 112.613L165.133 114.549C164.198 116.04 163.702 117.764 163.702 119.524V123.057V125.652C163.702 126.781 163.253 127.863 162.453 128.661C161.654 129.458 161.204 130.541 161.204 131.67V133.475C161.204 134.813 160.892 136.133 160.292 137.329L159.331 139.246L156.833 146.095L154.751 152.839C154.475 153.734 154.334 154.665 154.334 155.602V161.038V166.642C154.334 168.403 155.741 171.036 154.865 172.564L154.556 173.104C154.409 173.36 154.221 173.59 153.999 173.784L150.381 176.94C149.709 177.526 148.847 177.849 147.955 177.849C147.228 177.849 146.517 178.064 145.912 178.466L143.865 179.827C143.352 180.168 142.873 180.559 142.437 180.994L140.627 182.799C140.191 183.234 139.712 183.625 139.199 183.966L137.578 185.044C136.686 185.636 135.937 186.42 135.385 187.337C134.708 188.462 134.35 189.751 134.35 191.065V191.56C134.35 192.784 134.599 193.995 135.083 195.12L135.537 196.178C135.99 197.231 136.224 198.365 136.224 199.511C136.224 200.826 135.917 202.121 135.328 203.296L134.649 204.649C134.45 205.046 134.279 205.457 134.138 205.878L132.96 209.404C132.64 210.361 132.476 211.364 132.476 212.374V215.831V218.321C132.476 219.877 133.255 221.329 134.551 222.19L136.224 223.302L137.097 224.028C138.918 225.54 139.971 227.785 139.971 230.151V232.642V234.749C139.971 236.603 139.306 238.396 138.097 239.802C136.888 241.208 136.224 243.001 136.224 244.855V245.522C136.224 246.881 135.928 248.224 135.357 249.457L132.9 254.765C132.618 255.373 132.403 256.009 132.257 256.663L129.978 266.887L128.288 275.315C128.166 275.921 128.105 276.538 128.105 277.157V284.321V284.929C128.105 287.688 125.868 289.925 123.109 289.925H118.957C117.58 289.925 116.222 289.605 114.99 288.991C113.758 288.377 112.401 288.057 111.024 288.057H104.373C103.767 288.057 101.315 288.844 100.81 289.18L95.6321 292.622C95.2236 292.893 94.744 293.038 94.2535 293.038H93.66C91.5371 293.038 89.7621 291.509 88.9259 289.558C88.6933 289.015 88.429 288.495 88.136 288.057C86.887 286.189 85.638 283.076 85.638 281.208V273.114V266.904C85.638 263.8 83.1215 261.283 80.0173 261.283H77.2209C76.1886 261.283 75.1741 261.015 74.2771 260.504L72.8521 259.692C71.8765 259.136 71.2741 258.099 71.2741 256.977C71.2741 256.146 70.9436 255.35 70.3556 254.764L69.7129 254.123C68.7133 253.126 68.1516 251.773 68.1516 250.362V247.585V244.608C68.1516 242.948 67.3959 241.379 66.0985 240.344L66.052 240.307C65.3804 239.771 64.8515 239.078 64.5123 238.289C63.689 236.374 61.8045 235.132 59.7198 235.132H58.6703C57.5432 235.132 56.4621 234.686 55.664 233.89C54.8626 233.091 54.4123 232.006 54.4123 230.874V229.866C54.4123 228.825 54.6627 227.803 55.085 226.852C55.9201 224.97 56.9103 222.348 56.9103 220.812V218.048C56.9103 216.59 56.57 215.152 55.9164 213.849L55.3246 212.668C54.7247 211.472 54.4123 210.153 54.4123 208.814V207.891C54.4123 206.198 53.7381 204.573 52.5387 203.378L52.0626 202.903C51.168 202.011 50.6652 200.8 50.6652 199.536C50.6652 198.399 51.0729 197.3 51.8142 196.437L53.8314 194.091C54.2178 193.642 54.5606 193.157 54.8553 192.642L56.0499 190.558C56.6137 189.574 56.9103 188.46 56.9103 187.327C56.9103 186.415 56.7185 185.513 56.3473 184.681L54.7784 181.161C54.537 180.62 54.4123 180.034 54.4123 179.441C54.4123 178.415 54.0394 177.425 53.3653 176.652C51.635 174.667 48.9367 171.547 46.9181 169.132C43.7955 165.397 43.171 166.642 41.2975 166.642H36.3014H33.5049C32.4726 166.642 31.4581 166.373 30.5612 165.862L30.2632 165.692C28.5908 164.74 27.5582 162.963 27.5582 161.038V156.68C27.5582 155.434 27.0586 152.197 25.0601 149.208C24.2002 147.922 23.6177 143.794 22.796 142.483L21.9376 141.114L20.2253 138.041C19.3066 136.392 17.9111 135.059 16.2219 134.217L14.4757 133.347C14.0385 133.129 13.619 132.877 13.2211 132.593L10.0785 130.355C9.6584 130.056 9.26376 129.723 8.89857 129.359L7.86717 128.331C7.2608 127.726 6.77549 127.011 6.43734 126.225L6.00657 125.222C5.42217 123.863 5.52808 122.305 6.2911 121.037C6.72171 120.322 6.93823 119.503 6.99966 118.67C7.16793 116.388 7.79586 113.084 9.44729 111.849C10.3161 111.2 10.5869 110.527 10.547 109.922C10.4567 108.553 9.44729 107.306 9.44729 105.934V105.315C9.44729 104.333 8.9844 103.409 8.19827 102.821C7.41213 102.233 6.94924 101.309 6.94924 100.327V97.6742C6.94924 95.5776 6.16616 93.5566 4.75351 92.0073L2.31938 89.3378C1.28017 88.1981 0.704102 86.7113 0.704102 85.169C0.704102 82.8227 2.03118 80.6784 4.13097 79.6316L6.94924 78.2267C8.61461 77.189 12.3201 74.8644 13.8189 73.8682C14.8893 73.1567 16.4481 71.7678 17.6309 70.6539C18.418 69.9127 19.3571 69.3476 20.3929 69.0378C23.1626 68.2093 25.0601 65.6612 25.0601 62.7702V61.4154V57.6795V54.5663V52.4854C25.0601 51.3906 25.2521 50.3043 25.6272 49.2757L27.5582 43.9814L28.9484 39.8234C29.2685 38.8658 29.4317 37.8629 29.4317 36.8532V33.3077C29.4317 32.5396 29.3373 31.7745 29.1504 31.0294L27.9536 26.2565C27.692 25.213 27.2525 24.2223 26.6545 23.328L26.0984 22.4964C25.4215 21.4841 25.0601 20.2936 25.0601 19.0757C25.0601 17.8579 25.4215 16.6674 26.0984 15.655L27.0423 14.2434C27.3854 13.7304 27.7783 13.2525 28.2154 12.8167L29.1763 11.8587C30.939 10.1012 31.9298 7.71444 31.9298 5.22528Z" fill="#915539" fill-opacity="0.9" stroke="black" stroke-width="0.936702"/>
<path d="M44.5555 106.811V118.541H42.4305V108.375H40.5095C40.1355 108.375 39.8635 108.46 39.6935 108.63C39.5235 108.8 39.4272 109.078 39.4045 109.463C39.3478 110.279 39.2742 111.033 39.1835 111.724C39.1042 112.415 39.0022 113.061 38.8775 113.662C38.7528 114.263 38.5998 114.835 38.4185 115.379C38.2372 115.923 38.0218 116.456 37.7725 116.977C37.5232 117.487 37.2228 118.008 36.8715 118.541H35.0185C35.5738 117.578 36.0102 116.58 36.3275 115.549C36.6448 114.506 36.8828 113.447 37.0415 112.37C37.2115 111.293 37.3362 110.211 37.4155 109.123C37.4495 108.409 37.6875 107.848 38.1295 107.44C38.5828 107.021 39.1835 106.811 39.9315 106.811H44.5555ZM36.2935 118.422L36.1065 121.108H34.5935V118.422H36.2935ZM46.0515 116.977V118.541H34.5935V116.977H46.0515ZM46.0515 118.422V121.108H44.5385L44.3685 118.422H46.0515ZM57.5053 110.194C57.9813 110.194 58.2249 110.443 58.2363 110.942L58.5423 118.541H56.6553L56.3663 111.724H56.1113L54.4113 116.892C54.3659 117.096 54.2753 117.255 54.1393 117.368C54.0146 117.481 53.8389 117.538 53.6123 117.538H52.4053C52.1899 117.538 52.0143 117.481 51.8783 117.368C51.7536 117.255 51.6629 117.096 51.6063 116.892L49.9063 111.724H49.6513L49.3963 118.541H47.5263L47.8153 110.942C47.8153 110.443 48.0646 110.194 48.5633 110.194H50.4673C50.6826 110.194 50.8526 110.251 50.9773 110.364C51.1133 110.466 51.2039 110.63 51.2493 110.857L52.6093 115.005C52.6773 115.209 52.7339 115.413 52.7793 115.617C52.8246 115.81 52.8643 116.014 52.8983 116.229H53.1193C53.1646 116.014 53.2099 115.81 53.2553 115.617C53.3006 115.413 53.3516 115.209 53.4083 115.005L54.7683 110.857C54.8703 110.415 55.1366 110.194 55.5673 110.194H57.5053ZM68.5647 110.194V118.541L66.7117 118.558V113.679C66.7117 113.475 66.7174 113.277 66.7287 113.084C66.7514 112.88 66.7684 112.665 66.7797 112.438H66.7457C66.6664 112.619 66.57 112.818 66.4567 113.033C66.3434 113.237 66.23 113.413 66.1167 113.56L62.4957 118.541H60.7277V110.194H62.5807V115.124C62.5807 115.317 62.575 115.509 62.5637 115.702C62.5524 115.883 62.5354 116.087 62.5127 116.314H62.5467C62.6374 116.121 62.7337 115.934 62.8357 115.753C62.949 115.572 63.0624 115.407 63.1757 115.26L66.8137 110.194H68.5647ZM75.069 110.194V118.541H73.012V110.194H75.069ZM77.942 110.194V111.809H70.122V110.194H77.942ZM84.6725 109.99C85.7265 109.99 86.4745 110.37 86.9165 111.129C87.3698 111.888 87.5965 112.988 87.5965 114.427C87.5965 115.526 87.4775 116.393 87.2395 117.028C87.0128 117.651 86.6615 118.099 86.1855 118.371C85.7208 118.632 85.1371 118.762 84.4345 118.762C83.8678 118.762 83.3125 118.683 82.7685 118.524C82.2245 118.354 81.7315 118.093 81.2895 117.742L81.4255 116.722C81.8675 116.847 82.2585 116.954 82.5985 117.045C82.9498 117.136 83.3408 117.181 83.7715 117.181C84.1795 117.181 84.5081 117.113 84.7575 116.977C85.0068 116.83 85.1881 116.558 85.3015 116.161C85.4148 115.764 85.4715 115.192 85.4715 114.444C85.4715 113.707 85.4205 113.135 85.3185 112.727C85.2165 112.319 85.0465 112.036 84.8085 111.877C84.5818 111.707 84.2815 111.622 83.9075 111.622C83.4995 111.622 83.1141 111.713 82.7515 111.894C82.3888 112.064 81.9751 112.319 81.5105 112.659L81.2555 111.571C81.5161 111.265 81.8278 110.993 82.1905 110.755C82.5645 110.517 82.9611 110.33 83.3805 110.194C83.8111 110.058 84.2418 109.99 84.6725 109.99ZM81.1705 110.194L81.3915 111.809L81.5615 112.047V117.436L81.4765 117.64C81.5105 117.969 81.5331 118.297 81.5445 118.626C81.5671 118.966 81.5728 119.312 81.5615 119.663V121.856H79.5045V110.194H81.1705ZM93.3888 109.99C94.3975 109.99 95.2021 110.132 95.8028 110.415C96.4148 110.698 96.8511 111.163 97.1118 111.809C97.3838 112.455 97.5198 113.311 97.5198 114.376C97.5198 115.441 97.3838 116.297 97.1118 116.943C96.8511 117.578 96.4148 118.042 95.8028 118.337C95.2021 118.62 94.3975 118.762 93.3888 118.762C92.3801 118.762 91.5698 118.62 90.9578 118.337C90.3458 118.042 89.9038 117.578 89.6318 116.943C89.3598 116.297 89.2238 115.441 89.2238 114.376C89.2238 113.311 89.3598 112.455 89.6318 111.809C89.9038 111.163 90.3458 110.698 90.9578 110.415C91.5698 110.132 92.3801 109.99 93.3888 109.99ZM93.3888 111.554C92.8788 111.554 92.4765 111.639 92.1818 111.809C91.8985 111.968 91.6945 112.251 91.5698 112.659C91.4451 113.067 91.3828 113.639 91.3828 114.376C91.3828 115.113 91.4451 115.685 91.5698 116.093C91.6945 116.501 91.8985 116.784 92.1818 116.943C92.4765 117.102 92.8788 117.181 93.3888 117.181C93.8875 117.181 94.2785 117.102 94.5618 116.943C94.8565 116.784 95.0605 116.501 95.1738 116.093C95.2985 115.685 95.3608 115.113 95.3608 114.376C95.3608 113.639 95.2985 113.067 95.1738 112.659C95.0605 112.251 94.8565 111.968 94.5618 111.809C94.2785 111.639 93.8875 111.554 93.3888 111.554ZM103.266 110.109C104.161 110.109 104.87 110.171 105.391 110.296C105.912 110.421 106.286 110.647 106.513 110.976C106.751 111.293 106.87 111.747 106.87 112.336C106.87 112.925 106.728 113.373 106.445 113.679C106.173 113.985 105.708 114.166 105.051 114.223V114.274C105.844 114.331 106.394 114.546 106.7 114.92C107.017 115.294 107.176 115.815 107.176 116.484C107.176 117.051 107.057 117.493 106.819 117.81C106.592 118.127 106.224 118.354 105.714 118.49C105.215 118.615 104.558 118.677 103.742 118.677C103.107 118.677 102.552 118.671 102.076 118.66C101.6 118.66 101.158 118.649 100.75 118.626C100.353 118.615 99.9396 118.598 99.5089 118.575L99.7299 117.181C99.9679 117.192 100.416 117.204 101.073 117.215C101.742 117.215 102.524 117.215 103.419 117.215C103.838 117.215 104.173 117.187 104.422 117.13C104.683 117.062 104.864 116.943 104.966 116.773C105.079 116.603 105.136 116.365 105.136 116.059C105.136 115.594 105.006 115.283 104.745 115.124C104.484 114.954 104.02 114.869 103.351 114.869H99.7129V113.628H103.351C103.748 113.628 104.059 113.6 104.286 113.543C104.524 113.486 104.694 113.379 104.796 113.22C104.898 113.061 104.949 112.84 104.949 112.557C104.949 112.296 104.892 112.092 104.779 111.945C104.666 111.798 104.479 111.696 104.218 111.639C103.969 111.582 103.623 111.554 103.181 111.554C102.648 111.543 102.172 111.537 101.753 111.537C101.334 111.537 100.96 111.537 100.631 111.537C100.302 111.537 100.002 111.554 99.7299 111.588L99.5089 110.211C99.8943 110.177 100.263 110.154 100.614 110.143C100.977 110.132 101.368 110.126 101.787 110.126C102.218 110.115 102.711 110.109 103.266 110.109ZM101.447 110.211V118.575H99.5089V110.211H101.447ZM112.845 109.99C113.128 109.99 113.44 110.001 113.78 110.024C114.12 110.047 114.46 110.092 114.8 110.16C115.151 110.228 115.474 110.324 115.769 110.449L115.531 111.741C115.111 111.718 114.692 111.701 114.273 111.69C113.865 111.679 113.502 111.673 113.185 111.673C112.629 111.673 112.182 111.752 111.842 111.911C111.502 112.058 111.258 112.33 111.111 112.727C110.963 113.112 110.89 113.656 110.89 114.359C110.89 115.062 110.963 115.611 111.111 116.008C111.258 116.393 111.502 116.665 111.842 116.824C112.182 116.983 112.629 117.062 113.185 117.062C113.366 117.062 113.598 117.056 113.882 117.045C114.165 117.034 114.465 117.017 114.783 116.994C115.111 116.971 115.423 116.943 115.718 116.909L115.905 118.235C115.474 118.416 114.987 118.547 114.443 118.626C113.91 118.705 113.372 118.745 112.828 118.745C111.83 118.745 111.031 118.603 110.431 118.32C109.83 118.037 109.394 117.578 109.122 116.943C108.861 116.297 108.731 115.436 108.731 114.359C108.731 113.282 108.861 112.427 109.122 111.792C109.394 111.146 109.83 110.687 110.431 110.415C111.043 110.132 111.847 109.99 112.845 109.99ZM125.169 110.194C124.976 110.761 124.801 111.259 124.642 111.69C124.483 112.121 124.33 112.483 124.183 112.778C124.036 113.061 123.866 113.299 123.673 113.492C123.492 113.685 123.271 113.838 123.01 113.951C122.761 114.053 122.455 114.127 122.092 114.172V114.24C122.466 114.274 122.789 114.342 123.061 114.444C123.333 114.546 123.565 114.699 123.758 114.903C123.962 115.096 124.143 115.351 124.302 115.668C124.472 115.974 124.642 116.365 124.812 116.841C124.993 117.317 125.197 117.884 125.424 118.541H123.265C123.072 117.952 122.897 117.447 122.738 117.028C122.579 116.609 122.432 116.263 122.296 115.991C122.16 115.719 122.007 115.509 121.837 115.362C121.678 115.203 121.486 115.096 121.259 115.039C121.044 114.971 120.789 114.937 120.494 114.937L120.477 113.492C120.84 113.492 121.146 113.435 121.395 113.322C121.644 113.197 121.854 113.005 122.024 112.744C122.205 112.483 122.375 112.149 122.534 111.741C122.693 111.322 122.868 110.806 123.061 110.194H125.169ZM119.695 110.194V112.489C119.695 112.761 119.672 113.044 119.627 113.339C119.582 113.634 119.508 113.911 119.406 114.172C119.497 114.421 119.565 114.682 119.61 114.954C119.667 115.226 119.695 115.475 119.695 115.702V118.541H117.638V110.194H119.695ZM121.089 113.492V114.937H119.151V113.492H121.089ZM134.871 110.194V118.541L133.018 118.558V113.679C133.018 113.475 133.024 113.277 133.035 113.084C133.058 112.88 133.075 112.665 133.086 112.438H133.052C132.973 112.619 132.877 112.818 132.763 113.033C132.65 113.237 132.537 113.413 132.423 113.56L128.802 118.541H127.034V110.194H128.887V115.124C128.887 115.317 128.882 115.509 128.87 115.702C128.859 115.883 128.842 116.087 128.819 116.314H128.853C128.944 116.121 129.04 115.934 129.142 115.753C129.256 115.572 129.369 115.407 129.482 115.26L133.12 110.194H134.871ZM145.065 110.194V118.541L143.212 118.558V113.679C143.212 113.475 143.217 113.277 143.229 113.084C143.251 112.88 143.268 112.665 143.28 112.438H143.246C143.166 112.619 143.07 112.818 142.957 113.033C142.843 113.237 142.73 113.413 142.617 113.56L138.996 118.541H137.228V110.194H139.081V115.124C139.081 115.317 139.075 115.509 139.064 115.702C139.052 115.883 139.035 116.087 139.013 116.314H139.047C139.137 116.121 139.234 115.934 139.336 115.753C139.449 115.572 139.562 115.407 139.676 115.26L143.314 110.194H145.065ZM142.396 106.488H143.807C143.863 106.953 143.79 107.378 143.586 107.763C143.382 108.137 143.07 108.443 142.651 108.681C142.231 108.908 141.727 109.021 141.138 109.021C140.548 109.021 140.044 108.908 139.625 108.681C139.205 108.443 138.888 108.137 138.673 107.763C138.469 107.378 138.389 106.953 138.435 106.488H139.846C139.823 106.987 139.925 107.361 140.152 107.61C140.378 107.848 140.707 107.967 141.138 107.967C141.557 107.967 141.874 107.848 142.09 107.61C142.316 107.361 142.418 106.987 142.396 106.488Z" fill="black"/>
</svg>
