<svg width="105" height="96" viewBox="0 0 105 96" fill="none" xmlns="http://www.w3.org/2000/svg">
<path d="M17.8652 0.679688H20.8634C23.3427 0.679688 25.7208 1.66261 27.4766 3.41304L28.686 4.61865C29.7822 5.71148 31.1354 6.5041 32.593 7.02475C34.9735 7.875 38.1675 9.19258 40.3481 10.642C42.4912 12.0664 46.1813 10.642 48.7546 10.642H53.3476C55.4438 10.642 57.478 11.3538 59.1169 12.661L62.8306 15.6231C64.0797 16.6608 66.8275 19.1099 67.8267 20.6042C68.6077 21.7722 71.9831 23.777 74.6129 25.1916C75.8903 25.8787 77.3249 26.208 78.7753 26.208H82.8151H87.8884C89.4762 26.208 91.038 26.6116 92.4269 27.381L95.1969 28.9152C95.6845 29.1853 96.1471 29.4985 96.5791 29.8509L101.095 33.5345C102.206 34.4407 103.02 35.6586 103.433 37.0314L103.999 38.9116C104.414 40.2906 104.036 41.7861 103.017 42.8029C102.872 42.9469 102.739 43.1021 102.619 43.267L97.8034 49.8684L95.3976 53.8661C94.52 55.3243 93.9951 57.0199 94.464 58.656C94.7481 59.6476 95.209 60.7403 95.9298 61.6986C97.0914 63.2427 96.0776 66.6315 94.9811 69.1411C94.4598 70.3342 93.2466 71.0382 91.9445 71.0382C90.9064 71.0382 89.9199 71.491 89.2431 72.2782L88.4357 73.2175C87.2463 74.6009 85.5127 75.3967 83.6882 75.3967H80.317H75.2216C74.458 75.3967 73.6972 75.4901 72.9562 75.6748L68.6531 76.7473C67.2871 77.0878 66.0154 77.7318 64.9325 78.6315L63.3871 79.9155C63.0167 80.2233 62.6231 80.502 62.2098 80.7492L58.0296 83.2498C57.0745 83.8212 56.2335 84.5611 55.5161 85.4119C53.7052 87.5595 51.1582 90.3401 50.3404 90.3401C48.1962 90.3401 46.2336 92.7766 44.8192 91.1651L44.2644 90.5328C44.1518 90.4046 44.051 90.2666 43.963 90.1204L41.7543 86.4502C40.8359 84.9242 39.5015 83.6916 37.9075 82.897L36.6011 82.2458C34.3051 81.1012 32.854 78.7564 32.854 76.191V75.3967V71.0382V65.4344V63.6919C32.854 62.3777 32.5775 61.0783 32.0424 59.878L30.3559 56.0948L29.6364 54.8394C28.491 52.8411 26.6495 51.3347 24.4637 50.6083L22.931 50.0989C22.4696 49.9456 22.0245 49.7472 21.602 49.5065C19.2918 48.1905 17.8652 45.736 17.8652 43.0772V41.1514V37.4156V36.3359C17.8652 32.1778 15.124 28.5174 11.134 27.3474L9.53721 26.8791C8.03535 26.4387 6.67998 25.6148 5.4926 24.5952C4.31475 23.5837 2.86044 22.4639 1.62786 21.8495C0.0381753 21.057 0.450665 18.6361 1.10503 16.8432C1.40459 16.0224 1.62786 15.1681 1.62786 14.2944C1.62786 12.0738 2.93692 10.0619 4.96714 9.16228L6.18835 8.62115C6.89111 8.30974 7.54304 7.89443 8.12226 7.38912L12.2446 3.7929C13.2854 2.75516 15.8668 0.679688 17.8652 0.679688Z" fill="#5C5C5C" fill-opacity="0.9"/>
<path d="M36.6357 32.4792C37.3002 32.4792 37.8641 32.5579 38.3274 32.7153C38.7995 32.8726 39.1755 33.1305 39.4552 33.489C39.735 33.8474 39.9361 34.3283 40.0585 34.9315C40.1896 35.5347 40.2552 36.2822 40.2552 37.174C40.2552 38.057 40.1896 38.8045 40.0585 39.4164C39.9361 40.0197 39.735 40.5005 39.4552 40.859C39.1755 41.2174 38.7995 41.4753 38.3274 41.6327C37.8641 41.79 37.3002 41.8687 36.6357 41.8687C35.9713 41.8687 35.403 41.79 34.9309 41.6327C34.4676 41.4753 34.0917 41.2174 33.8032 40.859C33.5234 40.5005 33.3179 40.0197 33.1868 39.4164C33.0557 38.8045 32.9901 38.057 32.9901 37.174C32.9901 36.2822 33.0557 35.5347 33.1868 34.9315C33.3179 34.3283 33.5234 33.8474 33.8032 33.489C34.0917 33.1305 34.4676 32.8726 34.9309 32.7153C35.403 32.5579 35.9713 32.4792 36.6357 32.4792ZM36.6357 33.6201C36.0675 33.6201 35.6172 33.7294 35.285 33.948C34.9528 34.1665 34.7167 34.5337 34.5769 35.0495C34.4457 35.5566 34.3802 36.2647 34.3802 37.174C34.3802 38.0745 34.4457 38.7826 34.5769 39.2984C34.7167 39.8142 34.9528 40.1814 35.285 40.4C35.6172 40.6185 36.0675 40.7278 36.6357 40.7278C37.204 40.7278 37.6499 40.6185 37.9734 40.4C38.3056 40.1814 38.5416 39.8142 38.6815 39.2984C38.8214 38.7826 38.8913 38.0745 38.8913 37.174C38.8913 36.2647 38.8214 35.5566 38.6815 35.0495C38.5416 34.5337 38.3056 34.1665 37.9734 33.948C37.6499 33.7294 37.204 33.6201 36.6357 33.6201ZM43.768 35.1807C44.4849 35.1807 45.0576 35.2288 45.4859 35.3249C45.9143 35.4123 46.2247 35.5785 46.417 35.8232C46.6094 36.068 46.7055 36.4265 46.7055 36.8986C46.7055 37.3619 46.605 37.716 46.4039 37.9608C46.2116 38.1968 45.8619 38.3367 45.3548 38.3804V38.4198C45.9231 38.4635 46.3296 38.6252 46.5744 38.905C46.8192 39.176 46.9416 39.5825 46.9416 40.1246C46.9416 40.5792 46.8454 40.9289 46.6531 41.1737C46.4607 41.4185 46.1591 41.589 45.7482 41.6851C45.3373 41.7726 44.804 41.8163 44.1483 41.8163C43.7374 41.8163 43.3047 41.7988 42.8501 41.7638C42.4042 41.7376 41.9714 41.6895 41.5518 41.6196L41.6567 40.6754C41.9714 40.7103 42.3474 40.7409 42.7845 40.7672C43.2216 40.7846 43.6456 40.7934 44.0565 40.7934C44.6685 40.7934 45.0838 40.7322 45.3023 40.6098C45.5209 40.4787 45.6302 40.2295 45.6302 39.8623C45.6302 39.6 45.5821 39.4033 45.4859 39.2722C45.3898 39.1323 45.228 39.0361 45.0007 38.9837C44.7734 38.9225 44.4674 38.8919 44.0828 38.8919L42.4829 38.8788V38.0001L44.0696 37.987C44.4281 37.987 44.7079 37.9608 44.9089 37.9083C45.11 37.8559 45.2499 37.7641 45.3286 37.633C45.416 37.5018 45.4597 37.3139 45.4597 37.0691C45.4597 36.833 45.4073 36.6582 45.3023 36.5445C45.2062 36.4221 45.0357 36.3391 44.7909 36.2953C44.5549 36.2429 44.2226 36.2167 43.7943 36.2167C43.4446 36.2167 43.0949 36.2298 42.7451 36.256C42.3954 36.2735 42.0938 36.2997 41.8403 36.3347L41.7354 35.3905C42.1113 35.3031 42.4785 35.2462 42.8369 35.22C43.1954 35.1938 43.5058 35.1807 43.768 35.1807ZM51.2826 35.1413C52.2705 35.1413 52.983 35.3205 53.4201 35.679C53.866 36.0287 54.0933 36.5489 54.102 37.2395C54.102 37.8165 53.9753 38.2624 53.7217 38.5771C53.4682 38.8919 53.0529 39.0492 52.4759 39.0492H48.7647V38.1444H52.1481C52.4278 38.1444 52.6114 38.0526 52.6989 37.869C52.795 37.6854 52.8387 37.4756 52.83 37.2395C52.83 36.8461 52.7163 36.5664 52.489 36.4003C52.2705 36.2341 51.8858 36.1511 51.335 36.1511C50.8891 36.1511 50.5394 36.2167 50.2859 36.3478C50.0324 36.4789 49.8532 36.7062 49.7482 37.0297C49.6433 37.3532 49.5909 37.8078 49.5909 38.3936C49.5909 39.0492 49.6564 39.5519 49.7876 39.9016C49.9187 40.2426 50.1242 40.4787 50.4039 40.6098C50.6924 40.7409 51.0727 40.8065 51.5448 40.8065C51.8858 40.8065 52.2617 40.7934 52.6726 40.7672C53.0923 40.7322 53.4726 40.6928 53.8135 40.6491L53.9316 41.4753C53.7305 41.5627 53.4769 41.637 53.171 41.6982C52.8737 41.7507 52.5677 41.79 52.253 41.8163C51.9383 41.8425 51.6498 41.8556 51.3875 41.8556C50.6444 41.8556 50.0411 41.742 49.5778 41.5146C49.1232 41.2873 48.7909 40.9289 48.5811 40.4393C48.38 39.941 48.2795 39.2897 48.2795 38.4854C48.2795 37.6461 48.3844 36.9816 48.5942 36.492C48.804 36.0025 49.1275 35.6571 49.5647 35.4561C50.0018 35.2462 50.5744 35.1413 51.2826 35.1413ZM59.4908 35.1413C60.2864 35.1413 60.8546 35.4298 61.1956 36.0068C61.5366 36.5838 61.707 37.4275 61.707 38.5378C61.707 39.3684 61.6196 40.0284 61.4448 40.518C61.2699 40.9988 61.0033 41.3442 60.6448 41.554C60.2864 41.7551 59.8361 41.8556 59.2941 41.8556C58.8657 41.8556 58.4461 41.7988 58.0352 41.6851C57.6243 41.5627 57.2352 41.3791 56.868 41.1343L56.9467 40.4262C57.3314 40.5399 57.6723 40.6317 57.9696 40.7016C58.2668 40.7715 58.5859 40.8065 58.9269 40.8065C59.2853 40.8065 59.5695 40.7453 59.7793 40.6229C59.9979 40.5005 60.1552 40.2732 60.2514 39.941C60.3476 39.6088 60.3957 39.141 60.3957 38.5378C60.3957 37.9433 60.3519 37.48 60.2645 37.1477C60.1771 36.8068 60.0372 36.5664 59.8449 36.4265C59.6525 36.2779 59.3903 36.2035 59.058 36.2035C58.7258 36.2035 58.398 36.2822 58.0745 36.4396C57.751 36.5882 57.3795 36.8243 56.9598 37.1477L56.8156 36.3609C57.0341 36.1161 57.2877 35.9019 57.5762 35.7183C57.8734 35.5347 58.1882 35.3949 58.5204 35.2987C58.8526 35.1938 59.1761 35.1413 59.4908 35.1413ZM56.7631 35.2987L56.9074 36.597L56.9992 36.7674V40.8852L56.9336 41.0426C56.9598 41.2873 56.9773 41.5278 56.9861 41.7638C57.0035 41.9999 57.0079 42.249 56.9992 42.5113V44.3079H55.7402V35.2987H56.7631ZM66.204 35.1413C66.405 35.1413 66.628 35.1501 66.8728 35.1676C67.1176 35.185 67.3667 35.2156 67.6202 35.2593C67.8738 35.3031 68.1098 35.3686 68.3284 35.4561L68.171 36.2691C67.865 36.2429 67.5503 36.2254 67.2268 36.2167C66.9121 36.1992 66.6411 36.1904 66.4138 36.1904C65.9329 36.1904 65.5483 36.2604 65.2598 36.4003C64.9713 36.5314 64.7614 36.7631 64.6303 37.0953C64.5079 37.4275 64.4467 37.8909 64.4467 38.4854C64.4467 39.0798 64.5079 39.5476 64.6303 39.8885C64.7614 40.2295 64.9713 40.4655 65.2598 40.5967C65.5483 40.7278 65.9329 40.7934 66.4138 40.7934C66.5449 40.7934 66.7154 40.789 66.9252 40.7803C67.1438 40.7715 67.3755 40.7584 67.6202 40.7409C67.865 40.7234 68.0967 40.6972 68.3153 40.6622L68.4333 41.5015C68.1186 41.6239 67.7645 41.7114 67.3711 41.7638C66.9777 41.825 66.5843 41.8556 66.1908 41.8556C65.4477 41.8556 64.8489 41.7463 64.3942 41.5278C63.9484 41.3092 63.6249 40.9551 63.4238 40.4655C63.2227 39.976 63.1222 39.3159 63.1222 38.4854C63.1222 37.6636 63.2227 37.0079 63.4238 36.5183C63.6249 36.0287 63.9484 35.679 64.3942 35.4692C64.8489 35.2506 65.4521 35.1413 66.204 35.1413ZM38.734 51.2987C38.5853 51.6921 38.4498 52.0462 38.3274 52.3609C38.205 52.6756 38.0826 52.951 37.9602 53.1871C37.8378 53.4231 37.698 53.6198 37.5406 53.7772C37.392 53.9346 37.2171 54.0613 37.016 54.1575C36.8237 54.2537 36.5877 54.3149 36.3079 54.3411V54.3936C36.6051 54.4198 36.8543 54.4766 37.0554 54.564C37.2652 54.6515 37.4488 54.7782 37.6062 54.9443C37.7723 55.1104 37.9209 55.3203 38.052 55.5738C38.1832 55.8186 38.3187 56.1202 38.4586 56.4787C38.5984 56.8284 38.7514 57.2349 38.9175 57.6982H37.5931C37.4357 57.2699 37.2914 56.8983 37.1603 56.5836C37.0379 56.2601 36.9155 55.9891 36.7931 55.7705C36.6707 55.5432 36.5396 55.364 36.3997 55.2328C36.2598 55.093 36.0937 54.9968 35.9014 54.9443C35.7178 54.8831 35.4992 54.8525 35.2457 54.8525V53.8952C35.5517 53.8952 35.8096 53.8428 36.0194 53.7379C36.2292 53.6242 36.4084 53.4581 36.5571 53.2395C36.7144 53.021 36.8587 52.7543 36.9898 52.4396C37.121 52.1161 37.2652 51.7358 37.4226 51.2987H38.734ZM34.4982 51.2987V53.1477C34.4982 53.3488 34.4807 53.5543 34.4457 53.7641C34.4195 53.9652 34.3758 54.1575 34.3146 54.3411C34.367 54.5334 34.4108 54.7258 34.4457 54.9181C34.4807 55.1104 34.4982 55.2897 34.4982 55.4558V57.6982H33.2261V51.2987H34.4982ZM35.6784 53.8952V54.8525H34.131V53.8952H35.6784ZM46.0648 51.2987V57.6982H44.9239V53.6198C44.9239 53.4712 44.9283 53.327 44.937 53.1871C44.9457 53.0472 44.9589 52.8942 44.9763 52.7281H44.937C44.8845 52.8592 44.8146 52.9991 44.7272 53.1477C44.6485 53.2876 44.5698 53.41 44.4911 53.5149L41.3832 57.6982H40.3209V51.2987H41.4618V55.3902C41.4618 55.5301 41.4575 55.67 41.4487 55.8098C41.4487 55.9497 41.44 56.1027 41.4225 56.2688H41.4487C41.5187 56.129 41.593 55.9934 41.6717 55.8623C41.7503 55.7224 41.829 55.6044 41.9077 55.5082L45.0157 51.2987H46.0648ZM53.8127 51.2987V57.6982H52.6718V53.6198C52.6718 53.4712 52.6762 53.327 52.6849 53.1871C52.6937 53.0472 52.7068 52.8942 52.7243 52.7281H52.6849C52.6325 52.8592 52.5625 52.9991 52.4751 53.1477C52.3964 53.2876 52.3177 53.41 52.2391 53.5149L49.1311 57.6982H48.0689V51.2987H49.2098V55.3902C49.2098 55.5301 49.2054 55.67 49.1966 55.8098C49.1966 55.9497 49.1879 56.1027 49.1704 56.2688H49.1966C49.2666 56.129 49.3409 55.9934 49.4196 55.8623C49.4983 55.7224 49.5769 55.6044 49.6556 55.5082L52.7636 51.2987H53.8127ZM51.9899 48.453H52.9079C52.9428 48.8027 52.8816 49.1174 52.7243 49.3972C52.5669 49.6682 52.3352 49.8911 52.0292 50.066C51.7232 50.2321 51.3561 50.3152 50.9277 50.3152C50.4905 50.3152 50.1146 50.2321 49.7999 50.066C49.4939 49.8911 49.2622 49.6682 49.1048 49.3972C48.9475 49.1174 48.8819 48.8027 48.9081 48.453H49.8392C49.8305 48.8377 49.9223 49.1305 50.1146 49.3316C50.3069 49.524 50.578 49.6201 50.9277 49.6201C51.2686 49.6201 51.5309 49.524 51.7145 49.3316C51.8981 49.1305 51.9899 48.8377 51.9899 48.453Z" fill="white"/>
</svg>
