<svg width="146" height="224" viewBox="0 0 146 224" fill="none" xmlns="http://www.w3.org/2000/svg">
<path d="M64.5228 9.79036L64.1962 10.8758C64.0055 11.5095 63.7308 12.1147 63.3793 12.6754L62.2168 14.5298C61.2821 16.0209 60.7863 17.7451 60.7863 19.505V20.5476V26.774V31.1325V31.7805C60.7863 34.0745 59.5556 36.1922 57.5623 37.3277L57.2083 37.5295C56.6848 37.8277 56.2279 38.2299 55.8657 38.7114C55.0317 39.82 53.7252 40.4721 52.3379 40.4721H52.0932C51.2418 40.4721 50.4051 40.2505 49.6653 39.829L47.1721 38.4086C46.6746 38.1252 46.2171 37.7767 45.8116 37.3725L45.5272 37.0889C44.5008 36.0656 43.1106 35.491 41.6612 35.491H40.4866C39.5055 35.491 38.5814 35.9522 37.9916 36.7363L37.6364 37.2085C37.2702 37.6952 36.6965 37.9816 36.0874 37.9816C35.5131 37.9816 34.9728 38.2407 34.5703 38.6504C33.2539 39.9905 30.8421 41.9196 28.3116 42.34C28.0764 42.3791 27.8602 42.4236 27.6616 42.4726C26.1769 42.8392 23.762 44.8306 22.2328 44.8306C21.7263 44.8306 21.2406 45.0314 20.8819 45.3889L19.2562 47.0099C17.8564 48.4054 15.9604 49.1891 13.9838 49.1891H13.3233H7.70266C6.49468 49.1891 5.32758 49.6266 4.4173 50.4207L2.90614 51.739C1.58893 52.8881 0.833008 54.5507 0.833008 56.2987C0.833008 56.9509 0.938448 57.5988 1.14525 58.2174L2.22319 61.4415C2.54332 62.399 2.70655 63.402 2.70655 64.4116V67.8684V71.0302C2.70655 72.1586 3.29941 73.2041 4.26783 73.7834C5.23626 74.3628 5.82912 75.4083 5.82912 76.5367V76.9138C5.82912 77.5167 5.96985 78.1112 6.24011 78.6501L6.76589 79.6985C7.38189 80.9269 7.70266 82.282 7.70266 83.6561V87.7929V92.774V95.5081C7.70266 96.9731 8.13735 98.4052 8.95169 99.6231L9.40333 100.299C9.92321 101.076 10.2007 101.99 10.2007 102.926C10.2007 104.378 10.8688 105.75 12.0124 106.646L17.1122 110.641C18.3151 111.583 19.2691 112.806 19.8913 114.201L20.6304 115.859C21.1654 117.059 21.442 118.359 21.442 119.673V123.592C21.442 124.573 20.9791 125.498 20.1929 126.085C19.4068 126.673 18.9439 127.597 18.9439 128.579V129.726C18.9439 131.536 18.0383 133.225 16.5313 134.227L16.1336 134.491C14.3782 135.658 13.3233 137.626 13.3233 139.733V143.208V153.793C13.3233 156.185 12.3714 158.478 10.6777 160.166L10.4561 160.387C8.6934 162.145 8.2872 164.841 6.85759 166.879C6.59517 167.253 6.25821 167.491 5.82912 167.491C4.33028 167.491 3.12289 173.717 2.70655 176.831V183.057V185.818C2.70655 187.671 3.25656 189.483 4.28695 191.024L6.19334 193.875C7.17926 195.35 8.56355 196.514 10.1852 197.233L13.3233 198.623L16.8208 199.785C18.1802 200.237 19.3047 201.21 19.9469 202.491C20.8633 204.318 22.7327 205.472 24.7771 205.472H25.7755C27.4144 205.472 29.0017 206.046 30.2623 207.093L30.8383 207.571C31.6458 208.242 32.5634 208.768 33.5503 209.126L38.9283 211.076L45.5441 213.275C46.1283 213.469 46.6919 213.72 47.2268 214.025L49.1103 215.098C50.2211 215.731 51.1906 216.584 51.959 217.606L52.9634 218.941C53.9954 220.313 55.3845 221.375 56.9791 222.01L59.1154 222.862C60.2193 223.303 61.3968 223.529 62.5852 223.529H68.1717C69.4788 223.529 70.7714 223.255 71.9664 222.726L75.7747 221.038L81.3953 217.925L89.7484 214.039C90.4224 213.725 91.0567 213.332 91.6378 212.869L97.0081 208.585L100.755 205.472L106.376 200.491C107.833 199.453 110.747 197.129 110.747 196.133C110.747 195.304 114.204 193.556 116.804 192.395C117.751 191.972 118.638 191.423 119.414 190.735L123.862 186.793C125.319 185.755 128.609 183.555 130.107 183.057C131.082 182.733 132.462 181.865 133.594 181.069C134.611 180.354 135.411 179.382 136.008 178.291L136.888 176.682C138.139 174.395 138.381 171.689 137.554 169.216L136.977 167.491L135.435 161.855C135.215 161.05 135.103 160.22 135.103 159.385V153.793V148.009C135.103 146.916 134.731 145.857 134.047 145.005C133.136 143.869 131.758 143.208 130.302 143.208H130.257C128.961 143.208 127.716 142.692 126.799 141.777C125.104 140.088 124.866 137.42 126.241 135.462L127.445 133.747C127.966 133.004 128.347 132.172 128.568 131.291L129.536 127.43C129.911 125.934 129.911 124.369 129.536 122.873L128.234 117.68C127.953 116.561 127.003 115.259 126.003 114.148C124.713 112.717 122.807 112.076 120.88 112.076H120.296C118.96 112.076 117.657 111.659 116.568 110.884L115.785 110.327C114.584 109.471 113.87 108.087 113.87 106.611C113.87 105.709 114.138 104.826 114.64 104.076L116.368 101.491L118.212 99.1273C119.59 97.3612 119.217 94.8028 117.392 93.5035C116.726 93.029 115.928 92.774 115.111 92.774H110.747H107.29C106.705 92.774 106.143 92.542 105.729 92.1287C105.008 91.4106 104.871 90.2939 105.395 89.4224L106.054 88.3275C106.267 87.9734 106.536 87.656 106.85 87.3875L109.355 85.2473C110.274 84.4612 111.338 83.8608 112.486 83.4793L115.98 82.3182C117.446 81.831 118.708 80.8693 119.567 79.585C120.331 78.4412 120.74 77.0962 120.74 75.7202V72.8495V57.2834C120.74 56.7905 120.73 56.3426 120.712 55.9363C120.581 53.0124 116.203 51.5155 114.131 49.4491C113.957 49.2761 113.798 49.089 113.656 48.8898L112.5 47.2768C111.36 45.686 110.747 43.7783 110.747 41.8215V9.99007C110.747 4.81681 106.554 0.623047 101.38 0.623047H97.0081H92.9683C91.5179 0.623047 90.0873 0.959854 88.7893 1.60693L87.7406 2.12973C86.4425 2.77681 85.0119 3.11361 83.5616 3.11361H81.3953H80.8943C79.6014 3.11361 78.3467 3.55268 77.3359 4.3589C76.3251 5.16511 75.0705 5.60418 73.7776 5.60418H70.154C67.5589 5.60418 65.2706 7.30529 64.5228 9.79036Z" fill="#5C5C5C" fill-opacity="0.9"/>
<path d="M32.7351 92.2101C33.1285 92.2101 33.4651 92.2188 33.7448 92.2363C34.0246 92.2538 34.2825 92.2844 34.5186 92.3281C34.7546 92.3631 34.9994 92.4156 35.2529 92.4855L35.1218 93.469C34.8595 93.4428 34.6147 93.4253 34.3874 93.4166C34.1601 93.3991 33.9153 93.386 33.653 93.3772C33.3995 93.3685 33.0935 93.3641 32.7351 93.3641C32.1755 93.3641 31.734 93.4734 31.4106 93.692C31.0871 93.9105 30.8554 94.2777 30.7155 94.7935C30.5844 95.3006 30.5188 96 30.5188 96.8917C30.5188 97.7835 30.5844 98.4873 30.7155 99.0031C30.8554 99.5101 31.0871 99.873 31.4106 100.092C31.734 100.31 32.1755 100.419 32.7351 100.419C33.3033 100.419 33.7798 100.411 34.1645 100.393C34.5579 100.367 34.9382 100.328 35.3054 100.275L35.4365 101.259C35.0518 101.372 34.6541 101.451 34.2432 101.495C33.841 101.547 33.3383 101.573 32.7351 101.573C31.8608 101.573 31.157 101.425 30.6237 101.128C30.0992 100.822 29.7189 100.328 29.4828 99.6456C29.2468 98.9637 29.1288 98.0458 29.1288 96.8917C29.1288 95.7377 29.2468 94.8198 29.4828 94.1378C29.7189 93.4559 30.0992 92.9663 30.6237 92.6691C31.157 92.3631 31.8608 92.2101 32.7351 92.2101ZM39.494 94.8591C40.4819 94.8591 41.1945 95.0383 41.6316 95.3968C42.0774 95.7465 42.3048 96.2666 42.3135 96.9573C42.3135 97.5343 42.1867 97.9802 41.9332 98.2949C41.6797 98.6097 41.2644 98.767 40.6874 98.767H36.9762V97.8622H40.3595C40.6393 97.8622 40.8229 97.7704 40.9103 97.5868C41.0065 97.4032 41.0502 97.1934 41.0415 96.9573C41.0415 96.5639 40.9278 96.2841 40.7005 96.118C40.4819 95.9519 40.0973 95.8689 39.5465 95.8689C39.1006 95.8689 38.7509 95.9344 38.4974 96.0656C38.2438 96.1967 38.0646 96.424 37.9597 96.7475C37.8548 97.071 37.8023 97.5256 37.8023 98.1113C37.8023 98.767 37.8679 99.2697 37.999 99.6194C38.1302 99.9604 38.3356 100.196 38.6154 100.328C38.9039 100.459 39.2842 100.524 39.7563 100.524C40.0973 100.524 40.4732 100.511 40.8841 100.485C41.3037 100.45 41.684 100.411 42.025 100.367L42.143 101.193C41.9419 101.281 41.6884 101.355 41.3824 101.416C41.0852 101.468 40.7792 101.508 40.4644 101.534C40.1497 101.56 39.8612 101.573 39.5989 101.573C38.8558 101.573 38.2526 101.46 37.7892 101.232C37.3346 101.005 37.0024 100.647 36.7926 100.157C36.5915 99.6588 36.491 99.0074 36.491 98.2031C36.491 97.3638 36.5959 96.6994 36.8057 96.2098C37.0155 95.7202 37.339 95.3749 37.7761 95.1738C38.2132 94.964 38.7859 94.8591 39.494 94.8591ZM47.7023 94.8591C48.4978 94.8591 49.0661 95.1476 49.4071 95.7246C49.748 96.3016 49.9185 97.1453 49.9185 98.2556C49.9185 99.0861 49.8311 99.7462 49.6562 100.236C49.4814 100.717 49.2147 101.062 48.8563 101.272C48.4978 101.473 48.0476 101.573 47.5056 101.573C47.0772 101.573 46.6575 101.517 46.2466 101.403C45.8357 101.281 45.4467 101.097 45.0795 100.852L45.1582 100.144C45.5428 100.258 45.8838 100.349 46.1811 100.419C46.4783 100.489 46.7974 100.524 47.1384 100.524C47.4968 100.524 47.7809 100.463 47.9908 100.341C48.2093 100.218 48.3667 99.991 48.4629 99.6588C48.559 99.3265 48.6071 98.8588 48.6071 98.2556C48.6071 97.6611 48.5634 97.1977 48.476 96.8655C48.3885 96.5246 48.2487 96.2841 48.0563 96.1443C47.864 95.9956 47.6017 95.9213 47.2695 95.9213C46.9373 95.9213 46.6094 96 46.286 96.1574C45.9625 96.306 45.5909 96.542 45.1713 96.8655L45.027 96.0787C45.2456 95.8339 45.4991 95.6197 45.7876 95.4361C46.0849 95.2525 46.3996 95.1126 46.7318 95.0165C47.0641 94.9116 47.3875 94.8591 47.7023 94.8591ZM44.9746 95.0165L45.1188 96.3147L45.2106 96.4852V100.603L45.1451 100.76C45.1713 101.005 45.1888 101.246 45.1975 101.482C45.215 101.718 45.2194 101.967 45.2106 102.229V104.026H43.9517V95.0165H44.9746ZM57.2349 95.0165V101.416H55.9891V95.0165H57.2349ZM52.868 95.0165V101.416H51.6353V95.0165H52.868ZM56.1071 95.0165L56.094 96H52.8024V95.0165H56.1071ZM64.9734 95.0165V101.416H63.8325V97.3376C63.8325 97.189 63.8369 97.0447 63.8456 96.9049C63.8543 96.765 63.8674 96.612 63.8849 96.4459H63.8456C63.7931 96.577 63.7232 96.7169 63.6358 96.8655C63.5571 97.0054 63.4784 97.1278 63.3997 97.2327L60.2917 101.416H59.2295V95.0165H60.3704V99.108C60.3704 99.2479 60.3661 99.3877 60.3573 99.5276C60.3573 99.6675 60.3486 99.8205 60.3311 99.9866H60.3573C60.4273 99.8467 60.5016 99.7112 60.5802 99.5801C60.6589 99.4402 60.7376 99.3222 60.8163 99.226L63.9243 95.0165H64.9734ZM69.6789 94.8591C70.6668 94.8591 71.3793 95.0383 71.8164 95.3968C72.2623 95.7465 72.4896 96.2666 72.4984 96.9573C72.4984 97.5343 72.3716 97.9802 72.1181 98.2949C71.8645 98.6097 71.4493 98.767 70.8723 98.767H67.161V97.8622H70.5444C70.8242 97.8622 71.0078 97.7704 71.0952 97.5868C71.1914 97.4032 71.2351 97.1934 71.2263 96.9573C71.2263 96.5639 71.1127 96.2841 70.8854 96.118C70.6668 95.9519 70.2821 95.8689 69.7313 95.8689C69.2855 95.8689 68.9358 95.9344 68.6822 96.0656C68.4287 96.1967 68.2495 96.424 68.1446 96.7475C68.0397 97.071 67.9872 97.5256 67.9872 98.1113C67.9872 98.767 68.0528 99.2697 68.1839 99.6194C68.3151 99.9604 68.5205 100.196 68.8003 100.328C69.0888 100.459 69.4691 100.524 69.9412 100.524C70.2821 100.524 70.6581 100.511 71.069 100.485C71.4886 100.45 71.8689 100.411 72.2099 100.367L72.3279 101.193C72.1268 101.281 71.8733 101.355 71.5673 101.416C71.27 101.468 70.9641 101.508 70.6493 101.534C70.3346 101.56 70.0461 101.573 69.7838 101.573C69.0407 101.573 68.4375 101.46 67.9741 101.232C67.5195 101.005 67.1873 100.647 66.9774 100.157C66.7764 99.6588 66.6758 99.0074 66.6758 98.2031C66.6758 97.3638 66.7807 96.6994 66.9906 96.2098C67.2004 95.7202 67.5239 95.3749 67.961 95.1738C68.3981 94.964 68.9707 94.8591 69.6789 94.8591ZM76.8118 94.9509C77.485 94.9509 78.0183 94.999 78.4117 95.0951C78.8051 95.1913 79.0892 95.3618 79.2641 95.6066C79.4477 95.8514 79.5395 96.2011 79.5395 96.6557C79.5395 97.1103 79.4302 97.4556 79.2116 97.6917C78.9931 97.919 78.639 98.0545 78.1494 98.0982V98.1376C78.7439 98.1813 79.1592 98.3474 79.3952 98.6359C79.64 98.9244 79.7624 99.3265 79.7624 99.8424C79.7624 100.279 79.675 100.62 79.5001 100.865C79.3253 101.101 79.0499 101.267 78.674 101.364C78.298 101.46 77.7997 101.508 77.179 101.508C76.7156 101.508 76.3091 101.503 75.9594 101.495C75.6184 101.495 75.3037 101.486 75.0152 101.468C74.7354 101.46 74.4382 101.447 74.1235 101.429L74.2808 100.524C74.4557 100.533 74.7835 100.542 75.2644 100.551C75.7539 100.551 76.3266 100.551 76.9823 100.551C77.3582 100.551 77.6555 100.524 77.874 100.472C78.1013 100.419 78.2587 100.323 78.3461 100.183C78.4423 100.035 78.4904 99.8292 78.4904 99.567C78.4904 99.1735 78.3767 98.9069 78.1494 98.767C77.9221 98.6184 77.5156 98.5441 76.9298 98.5441H74.2677V97.6917H76.9298C77.2708 97.6917 77.5418 97.6698 77.7429 97.6261C77.9527 97.5737 78.1013 97.4819 78.1887 97.3507C78.2849 97.2108 78.333 97.0185 78.333 96.7737C78.333 96.5377 78.2805 96.3584 78.1756 96.2361C78.0795 96.1137 77.9177 96.0262 77.6904 95.9738C77.4631 95.9213 77.1571 95.8951 76.7725 95.8951C76.379 95.8863 76.0293 95.882 75.7233 95.882C75.4174 95.882 75.1463 95.8863 74.9103 95.8951C74.6742 95.8951 74.4644 95.9038 74.2808 95.9213L74.1235 95.0296C74.4032 95.0034 74.6699 94.9859 74.9234 94.9771C75.1769 94.9684 75.4523 94.964 75.7496 94.964C76.0556 94.9553 76.4096 94.9509 76.8118 94.9509ZM75.3168 95.0296V101.429H74.1235V95.0296H75.3168ZM84.2033 94.8591C84.9551 94.8591 85.554 94.9684 85.9999 95.1869C86.4458 95.4055 86.7692 95.764 86.9703 96.2623C87.1714 96.7519 87.2719 97.4032 87.2719 98.2162C87.2719 99.038 87.1714 99.6981 86.9703 100.196C86.7692 100.686 86.4458 101.04 85.9999 101.259C85.554 101.477 84.9551 101.586 84.2033 101.586C83.4514 101.586 82.8482 101.477 82.3936 101.259C81.9477 101.04 81.6242 100.686 81.4232 100.196C81.2221 99.6981 81.1215 99.038 81.1215 98.2162C81.1215 97.4032 81.2221 96.7519 81.4232 96.2623C81.6242 95.764 81.9477 95.4055 82.3936 95.1869C82.8482 94.9684 83.4514 94.8591 84.2033 94.8591ZM84.2033 95.882C83.7662 95.882 83.4165 95.9519 83.1542 96.0918C82.9006 96.2317 82.7171 96.4721 82.6034 96.8131C82.4985 97.1453 82.446 97.613 82.446 98.2162C82.446 98.8195 82.4985 99.2916 82.6034 99.6325C82.7171 99.9735 82.9006 100.214 83.1542 100.354C83.4165 100.485 83.7662 100.551 84.2033 100.551C84.6404 100.551 84.9857 100.485 85.2393 100.354C85.4928 100.214 85.672 99.9735 85.7769 99.6325C85.8819 99.2916 85.9343 98.8195 85.9343 98.2162C85.9343 97.613 85.8819 97.1453 85.7769 96.8131C85.672 96.4721 85.4928 96.2317 85.2393 96.0918C84.9857 95.9519 84.6404 95.882 84.2033 95.882ZM92.861 97.6392V98.5572H88.8744V97.6392H92.861ZM34.9644 111.016L34.9644 117.416H33.7186L33.7186 111.016H34.9644ZM30.5975 111.016V117.416H29.3648V111.016H30.5975ZM33.8366 111.016L33.8235 112H30.5319V111.016H33.8366ZM39.7392 110.859C40.4911 110.859 41.0899 110.968 41.5358 111.187C41.9817 111.406 42.3051 111.764 42.5062 112.262C42.7073 112.752 42.8078 113.403 42.8078 114.216C42.8078 115.038 42.7073 115.698 42.5062 116.196C42.3051 116.686 41.9817 117.04 41.5358 117.259C41.0899 117.477 40.4911 117.586 39.7392 117.586C38.9873 117.586 38.3841 117.477 37.9295 117.259C37.4836 117.04 37.1601 116.686 36.9591 116.196C36.758 115.698 36.6574 115.038 36.6574 114.216C36.6574 113.403 36.758 112.752 36.9591 112.262C37.1601 111.764 37.4836 111.406 37.9295 111.187C38.3841 110.968 38.9873 110.859 39.7392 110.859ZM39.7392 111.882C39.3021 111.882 38.9524 111.952 38.6901 112.092C38.4365 112.232 38.253 112.472 38.1393 112.813C38.0344 113.145 37.9819 113.613 37.9819 114.216C37.9819 114.819 38.0344 115.292 38.1393 115.633C38.253 115.973 38.4365 116.214 38.6901 116.354C38.9524 116.485 39.3021 116.551 39.7392 116.551C40.1763 116.551 40.5216 116.485 40.7752 116.354C41.0287 116.214 41.2079 115.973 41.3129 115.633C41.4178 115.292 41.4702 114.819 41.4702 114.216C41.4702 113.613 41.4178 113.145 41.3129 112.813C41.2079 112.472 41.0287 112.232 40.7752 112.092C40.5216 111.952 40.1763 111.882 39.7392 111.882ZM47.2822 110.859C47.4833 110.859 47.7062 110.868 47.951 110.885C48.1958 110.903 48.445 110.933 48.6985 110.977C48.952 111.021 49.1881 111.086 49.4066 111.174L49.2493 111.987C48.9433 111.961 48.6286 111.943 48.3051 111.934C47.9904 111.917 47.7193 111.908 47.492 111.908C47.0112 111.908 46.6265 111.978 46.338 112.118C46.0495 112.249 45.8397 112.481 45.7085 112.813C45.5862 113.145 45.525 113.609 45.525 114.203C45.525 114.798 45.5862 115.265 45.7085 115.606C45.8397 115.947 46.0495 116.183 46.338 116.314C46.6265 116.446 47.0112 116.511 47.492 116.511C47.6232 116.511 47.7936 116.507 48.0035 116.498C48.222 116.489 48.4537 116.476 48.6985 116.459C48.9433 116.441 49.175 116.415 49.3935 116.38L49.5116 117.219C49.1968 117.342 48.8428 117.429 48.4493 117.482C48.0559 117.543 47.6625 117.573 47.2691 117.573C46.526 117.573 45.9271 117.464 45.4725 117.246C45.0266 117.027 44.7032 116.673 44.5021 116.183C44.301 115.694 44.2005 115.034 44.2005 114.203C44.2005 113.381 44.301 112.726 44.5021 112.236C44.7032 111.746 45.0266 111.397 45.4725 111.187C45.9271 110.968 46.5303 110.859 47.2822 110.859ZM54.0898 110.859C54.5794 110.859 54.9903 110.925 55.3225 111.056C55.6547 111.178 55.9039 111.392 56.07 111.698C56.2449 112.004 56.3323 112.424 56.3323 112.957V117.416H55.3356L55.1389 116.026L55.0734 115.869V112.957C55.0646 112.581 54.9728 112.31 54.798 112.144C54.6319 111.978 54.304 111.895 53.8144 111.895C53.4735 111.895 53.0495 111.913 52.5424 111.948C52.0441 111.983 51.5501 112.017 51.0605 112.052L50.9425 111.148C51.2397 111.095 51.572 111.047 51.9392 111.003C52.3063 110.96 52.6779 110.925 53.0538 110.898C53.4298 110.872 53.7751 110.859 54.0898 110.859ZM55.7553 113.469L55.7422 114.36L52.7391 114.374C52.4419 114.382 52.232 114.461 52.1096 114.61C51.9872 114.75 51.926 114.946 51.926 115.2V115.593C51.926 115.908 52.0047 116.14 52.1621 116.288C52.3195 116.428 52.5599 116.498 52.8834 116.498C53.1281 116.498 53.3992 116.454 53.6964 116.367C54.0024 116.271 54.3084 116.131 54.6144 115.947C54.9204 115.755 55.1958 115.515 55.4405 115.226V116.052C55.3619 116.175 55.2351 116.323 55.0602 116.498C54.8854 116.664 54.6712 116.826 54.4177 116.983C54.1729 117.141 53.8975 117.272 53.5915 117.377C53.2855 117.482 52.9533 117.534 52.5948 117.534C52.2102 117.534 51.8692 117.468 51.572 117.337C51.2835 117.197 51.0562 116.996 50.89 116.734C50.7327 116.463 50.654 116.135 50.654 115.751V115.056C50.654 114.557 50.8114 114.168 51.1261 113.888C51.4496 113.609 51.8954 113.469 52.4637 113.469H55.7553ZM63.5667 111.016V111.961H61.2325C60.7604 111.961 60.5025 112.21 60.4587 112.708C60.4063 113.355 60.3189 113.954 60.1965 114.505C60.0828 115.047 59.9211 115.558 59.7113 116.039C59.5102 116.511 59.2348 116.97 58.8851 117.416H57.8491C58.19 116.9 58.4567 116.376 58.649 115.842C58.8414 115.3 58.99 114.75 59.0949 114.19C59.2086 113.63 59.2829 113.067 59.3178 112.498C59.3616 112 59.5189 111.628 59.7899 111.384C60.061 111.139 60.4544 111.016 60.9702 111.016H63.5667ZM58.5835 117.35L58.4654 119.291H57.6393V117.35H58.5835ZM64.6289 116.446V117.416H57.6393V116.446H64.6289ZM64.6289 117.35V119.291H63.7897L63.6716 117.35H64.6289ZM63.7241 111.016V117.416H62.5176V111.016H63.7241ZM68.8099 110.859C69.011 110.859 69.2339 110.868 69.4787 110.885C69.7235 110.903 69.9727 110.933 70.2262 110.977C70.4797 111.021 70.7158 111.086 70.9343 111.174L70.777 111.987C70.471 111.961 70.1562 111.943 69.8328 111.934C69.518 111.917 69.247 111.908 69.0197 111.908C68.5389 111.908 68.1542 111.978 67.8657 112.118C67.5772 112.249 67.3674 112.481 67.2362 112.813C67.1138 113.145 67.0526 113.609 67.0526 114.203C67.0526 114.798 67.1138 115.265 67.2362 115.606C67.3674 115.947 67.5772 116.183 67.8657 116.314C68.1542 116.446 68.5389 116.511 69.0197 116.511C69.1509 116.511 69.3213 116.507 69.5312 116.498C69.7497 116.489 69.9814 116.476 70.2262 116.459C70.471 116.441 70.7027 116.415 70.9212 116.38L71.0392 117.219C70.7245 117.342 70.3704 117.429 69.977 117.482C69.5836 117.543 69.1902 117.573 68.7968 117.573C68.0537 117.573 67.4548 117.464 67.0002 117.246C66.5543 117.027 66.2308 116.673 66.0298 116.183C65.8287 115.694 65.7281 115.034 65.7281 114.203C65.7281 113.381 65.8287 112.726 66.0298 112.236C66.2308 111.746 66.5543 111.397 67.0002 111.187C67.4548 110.968 68.058 110.859 68.8099 110.859ZM78.0305 111.016C77.8818 111.41 77.7463 111.764 77.6239 112.079C77.5015 112.393 77.3791 112.669 77.2567 112.905C77.1343 113.141 76.9945 113.338 76.8371 113.495C76.6885 113.652 76.5136 113.779 76.3125 113.875C76.1202 113.971 75.8842 114.033 75.6044 114.059V114.111C75.9016 114.138 76.1508 114.194 76.3519 114.282C76.5617 114.369 76.7453 114.496 76.9027 114.662C77.0688 114.828 77.2174 115.038 77.3485 115.292C77.4797 115.536 77.6152 115.838 77.7551 116.196C77.8949 116.546 78.0479 116.953 78.2141 117.416H76.8896C76.7322 116.988 76.5879 116.616 76.4568 116.301C76.3344 115.978 76.212 115.707 76.0896 115.488C75.9672 115.261 75.8361 115.082 75.6962 114.951C75.5563 114.811 75.3902 114.715 75.1979 114.662C75.0143 114.601 74.7957 114.57 74.5422 114.57V113.613C74.8482 113.613 75.1061 113.561 75.3159 113.456C75.5257 113.342 75.7049 113.176 75.8536 112.957C76.0109 112.739 76.1552 112.472 76.2863 112.157C76.4175 111.834 76.5617 111.454 76.7191 111.016H78.0305ZM73.7947 111.016V112.866C73.7947 113.067 73.7772 113.272 73.7422 113.482C73.716 113.683 73.6723 113.875 73.6111 114.059C73.6636 114.251 73.7073 114.444 73.7422 114.636C73.7772 114.828 73.7947 115.007 73.7947 115.174V117.416H72.5226V111.016H73.7947ZM74.9749 113.613V114.57H73.4275V113.613H74.9749ZM85.3613 111.016V117.416H84.2204V113.338C84.2204 113.189 84.2248 113.045 84.2335 112.905C84.2423 112.765 84.2554 112.612 84.2729 112.446H84.2335C84.1811 112.577 84.1111 112.717 84.0237 112.866C83.945 113.005 83.8663 113.128 83.7876 113.233L80.6797 117.416H79.6174V111.016H80.7583V115.108C80.7583 115.248 80.754 115.388 80.7452 115.528C80.7452 115.668 80.7365 115.82 80.719 115.987H80.7452C80.8152 115.847 80.8895 115.711 80.9682 115.58C81.0468 115.44 81.1255 115.322 81.2042 115.226L84.3122 111.016H85.3613ZM93.1092 111.016V117.416H91.9683V113.338C91.9683 113.189 91.9727 113.045 91.9814 112.905C91.9902 112.765 92.0033 112.612 92.0208 112.446H91.9814C91.929 112.577 91.859 112.717 91.7716 112.866C91.6929 113.005 91.6142 113.128 91.5356 113.233L88.4276 117.416H87.3654V111.016H88.5063V115.108C88.5063 115.248 88.5019 115.388 88.4931 115.528C88.4931 115.668 88.4844 115.82 88.4669 115.987H88.4931C88.5631 115.847 88.6374 115.711 88.7161 115.58C88.7948 115.44 88.8734 115.322 88.9521 115.226L92.0601 111.016H93.1092ZM91.2864 108.171H92.2044C92.2393 108.52 92.1781 108.835 92.0208 109.115C91.8634 109.386 91.6317 109.609 91.3257 109.784C91.0197 109.95 90.6526 110.033 90.2242 110.033C89.787 110.033 89.4111 109.95 89.0964 109.784C88.7904 109.609 88.5587 109.386 88.4014 109.115C88.244 108.835 88.1784 108.52 88.2046 108.171H89.1357C89.127 108.555 89.2188 108.848 89.4111 109.049C89.6035 109.242 89.8745 109.338 90.2242 109.338C90.5651 109.338 90.8274 109.242 91.011 109.049C91.1946 108.848 91.2864 108.555 91.2864 108.171Z" fill="white"/>
</svg>
