<svg width="207" height="191" viewBox="0 0 207 191" fill="none" xmlns="http://www.w3.org/2000/svg">
<path d="M200.069 24.6785H197.882C196.869 24.6785 195.884 24.3509 195.073 23.7446C194.262 23.1383 193.277 22.8106 192.264 22.8106H191.596C189.823 22.8106 188.123 22.1076 186.867 20.8558L184.456 18.4521L181.735 16.1266C180.67 15.2164 179.315 14.7163 177.914 14.7163C177.283 14.7163 176.657 14.6149 176.059 14.4161L172.926 13.375C171.879 13.0269 170.906 12.4864 170.057 11.7812L169.532 11.3449C168.28 10.3046 166.703 9.73513 165.075 9.73513C162.747 9.73513 160.572 8.57319 159.278 6.63772L158.712 5.79105C157.981 4.69823 157.017 3.78129 155.889 3.10641L155.449 2.84334C154.805 2.45823 154.116 2.1547 153.397 1.93973L150.304 1.01439C149.029 0.63307 147.647 0.980834 146.705 1.92037C146.477 2.14806 146.28 2.4052 146.119 2.68499L143.863 6.62193L142.973 8.1012C142.324 9.17943 141.464 10.1159 140.445 10.8546L135.905 14.1467C135.394 14.5169 134.78 14.7163 134.149 14.7163C133.56 14.7163 132.984 14.8902 132.494 15.2163L129.194 17.4097C128.171 18.0895 126.97 18.4521 125.742 18.4521H122.62C120.901 18.4521 119.507 19.846 119.507 21.5653C119.507 23.2847 118.113 24.6785 116.394 24.6785H114.452C113.669 24.6785 112.897 24.4968 112.196 24.1476L111.64 23.8702C110.302 23.203 108.727 23.203 107.389 23.8702C106.344 24.3909 105.488 25.2745 105.314 26.4285C105.137 27.603 105.151 29.0532 105.767 30.2823C105.934 30.615 106.034 30.8829 106.08 31.0965C106.386 32.5141 103.763 31.5276 102.313 31.5276H99.5223H96.3997H92.0281C90.3036 31.5276 88.9056 32.9256 88.9056 34.6502V39.3759C88.9056 39.949 88.7888 40.5161 88.5625 41.0426C87.697 43.0562 85.4342 44.0721 83.3543 43.3808L82.5492 43.1133C81.8083 42.8671 81.16 42.4009 80.6906 41.777C79.9648 40.8121 78.8276 40.2446 77.6203 40.2446H68.9211H63.0922C60.4417 40.2446 57.9152 41.3675 56.1391 43.335L55.7222 43.7969C54.1684 45.5182 53.3083 47.7546 53.3083 50.0735V51.501C53.3083 51.8799 53.2344 52.2536 53.0941 52.6055C52.8315 53.2644 52.482 54.1668 52.0968 55.2057C51.4361 56.9873 48.8138 57.0304 48.1627 55.2453C47.8775 54.4631 47.1337 53.9427 46.3011 53.9427H42.0595C40.684 53.9427 39.569 55.0578 39.569 56.4333V61.7304C39.569 63.4909 38.7387 65.1484 37.3288 66.2027C35.639 67.4662 33.3814 67.6695 31.4931 66.7282L29.0524 65.5115C27.7543 64.8644 26.3238 64.5276 24.8734 64.5276H17.3921C15.6735 64.5276 14.102 65.4975 13.3316 67.0338C12.9295 67.8356 12.299 68.5004 11.5196 68.9444L5.89261 72.1502C4.62935 72.8699 3.55096 73.8738 2.74282 75.0824L1.609 76.778C0.706404 78.1278 0.224609 79.7151 0.224609 81.3389V87.5654V89.4817C0.224609 90.2648 0.437972 91.0331 0.841774 91.7041L1.39524 92.6238C1.83141 93.3485 2.61546 93.7918 3.46136 93.7918C3.79785 93.7918 4.13063 93.8622 4.43827 93.9985L7.74211 95.4625C8.96151 96.0028 10.0515 96.7973 10.939 97.7929L13.39 100.542C14.1619 101.408 14.5884 102.527 14.5884 103.687V104.506C14.5884 104.829 14.5005 105.145 14.3342 105.422C13.6221 106.605 14.4743 108.113 15.8554 108.113H17.0865C18.6513 108.113 20.1156 108.878 21.0115 110.161C23.0683 113.107 25.8935 117.122 27.0787 118.697C28.1099 120.068 26.3739 121.469 25.3188 122.821L24.4946 123.878C23.3666 125.324 21.635 126.169 19.801 126.169H19.5845C18.0533 126.169 16.6531 127.033 15.9666 128.402L15.8618 128.611C15.0859 130.158 15.2829 132.016 16.3661 133.366L17.0865 134.263L18.1578 135.599C19.0953 136.767 20.2993 137.693 21.6688 138.3L25.2052 139.867L33.5173 142.63C34.2185 142.863 34.8898 143.178 35.5169 143.569L39.569 146.094L45.9207 149.504C47.0855 150.129 48.1047 150.994 48.9113 152.041L49.5781 152.907C50.8398 154.545 51.5239 156.555 51.5239 158.622V160.414V161.998C51.5239 162.601 51.4657 163.203 51.3501 163.795L50.4825 168.235C50.286 169.241 49.9257 170.208 49.4161 171.097L48.9278 171.949C48.1152 173.367 47.6876 174.972 47.6876 176.607V177.001C47.6876 177.565 47.6368 178.127 47.5357 178.682L46.8316 182.542C46.5731 183.96 46.6451 185.418 47.0421 186.803L47.6403 188.891C47.6717 189 47.6876 189.114 47.6876 189.228C47.6876 190.063 48.505 190.652 49.2972 190.389L52.7207 189.251C53.1099 189.122 53.5173 189.056 53.9274 189.056H56.7236C58.174 189.056 59.6045 188.719 60.9026 188.072L63.2004 186.927C64.4984 186.28 65.9284 185.943 67.3788 185.943H74.5417H81.4114H85.5163C86.5202 185.943 87.5177 185.781 88.4704 185.465L92.7363 184.047C93.9177 183.654 95.1644 183.506 96.4073 183.577C99.3274 183.743 103.312 183.853 104.518 183.452C105.769 183.037 107.685 182.015 108.89 181.326C109.308 181.087 109.701 180.807 110.071 180.499L112.705 178.311C113.076 178.003 113.469 177.724 113.882 177.477L119.507 174.113C121.38 172.867 125.127 170.252 125.127 169.754C125.127 169.439 125.792 168.445 126.492 167.494C127.206 166.524 127.625 165.362 127.625 164.158C127.625 163.334 127.433 162.522 127.064 161.785L125.325 158.317C125.193 158.055 125.039 157.806 124.863 157.572C123.861 156.24 123.609 154.488 124.196 152.928L124.888 151.089C125.047 150.665 125.24 150.255 125.466 149.862L127.001 147.183C127.415 146.46 127.924 145.796 128.514 145.207L130.748 142.98L132.336 141.001C132.939 140.25 133.654 139.596 134.457 139.062L134.913 138.759C136.269 137.858 137.862 137.377 139.491 137.377H140.767C142.724 137.377 144.575 136.488 145.8 134.962C146.172 134.499 146.606 134.089 147.09 133.744L149.502 132.027C150.274 131.477 150.732 130.587 150.732 129.639C150.732 129.003 150.939 128.385 151.321 127.877L152.606 126.169L154.079 124.211C154.346 123.856 154.637 123.521 154.951 123.208L157.602 120.565L161.349 116.207C162.182 114.962 163.972 112.097 164.472 110.603C164.796 109.634 165.663 108.088 166.46 106.781C167.147 105.654 168.387 104.999 169.707 104.999C170.754 104.999 171.746 105.429 172.569 106.076C173.817 107.058 175.537 108.113 176.962 108.113H180.085H182.02C183.365 108.113 184.456 107.022 184.456 105.676C184.456 105.233 184.336 104.799 184.107 104.42L183.211 102.93C182.8 102.247 182.583 101.465 182.583 100.668V97.5321C182.583 96.8419 183.142 96.2823 183.832 96.2823C184.225 96.2823 184.595 96.0977 184.831 95.7839L185.578 94.7905C186.066 94.1423 186.33 93.3531 186.33 92.542V92.2748C186.33 91.2416 186.682 90.2394 187.329 89.4336L187.579 89.122C188.387 88.1144 188.828 86.8613 188.828 85.5696V83.8295C188.828 82.2099 189.335 80.6309 190.278 79.3143L190.389 79.1597C191.404 77.7425 191.95 76.043 191.95 74.2996V71.3767V70.6971C191.95 69.1012 191.543 67.5317 190.766 66.1376L189.467 63.8066C189.043 63.0457 188.51 62.3529 187.919 61.7128C186.411 60.0783 184.456 57.6572 184.456 56.4333C184.456 55.7354 184.184 55.1915 183.83 54.7888C183.178 54.0472 182.285 53.4972 181.736 52.6765C180.736 51.1817 180.736 49.2319 181.736 47.7372L182.26 46.9531C182.475 46.6325 182.72 46.3338 182.993 46.0615L184.456 44.6031L186.33 42.7351C187.787 41.4899 190.951 38.8748 191.95 38.3767C192.791 37.9574 194.576 36.9205 195.741 36.2315C196.102 36.018 196.322 35.6294 196.322 35.2102C196.322 34.5518 196.856 34.0182 197.514 34.0182H199.098C199.727 34.0182 200.337 33.8046 200.828 33.4125L202.559 32.0324C202.968 31.7056 203.477 31.5276 204.001 31.5276C205.279 31.5276 206.314 30.492 206.314 29.2145V28.8876C206.314 28.186 206.035 27.5133 205.538 27.018L204.75 26.2318C203.752 25.2371 202.4 24.6785 200.992 24.6785H200.069Z" fill="#5C5C5C" fill-opacity="0.9"/>
<path d="M84.0365 81.9739C83.853 82.4897 83.6825 82.9662 83.5251 83.4033C83.3765 83.8317 83.2235 84.2164 83.0661 84.5573C82.9088 84.8896 82.7383 85.1781 82.5547 85.4229C82.3711 85.6676 82.1613 85.8644 81.9252 86.013C81.6892 86.1529 81.4094 86.2403 81.0859 86.2753V86.3277C81.4269 86.3627 81.7241 86.4545 81.9777 86.6031C82.2312 86.743 82.4541 86.9441 82.6465 87.2063C82.8476 87.4599 83.0312 87.7702 83.1973 88.1374C83.3634 88.5046 83.5295 88.933 83.6956 89.4226C83.8704 89.9034 84.0628 90.4367 84.2726 91.0225H82.8956C82.6509 90.3231 82.4323 89.7111 82.24 89.1865C82.0564 88.662 81.8597 88.2248 81.6498 87.8751C81.4488 87.5254 81.2127 87.2632 80.9417 87.0883C80.6707 86.9047 80.3297 86.8129 79.9188 86.8129V85.8032C80.3035 85.8032 80.627 85.7114 80.8892 85.5278C81.1602 85.3354 81.3963 85.0688 81.5974 84.7278C81.7985 84.3869 81.982 83.9847 82.1482 83.5213C82.323 83.058 82.5066 82.5422 82.6989 81.9739H84.0365ZM79.0795 81.9739V84.754C79.0795 85.0251 79.0664 85.2873 79.0402 85.5409C79.014 85.7944 78.9702 86.0436 78.909 86.2884C78.9528 86.5332 78.9921 86.7823 79.0271 87.0359C79.062 87.2894 79.0795 87.5298 79.0795 87.7571V91.0225H77.7812V81.9739H79.0795ZM80.4171 85.8032V86.8129H78.6992V85.8032H80.4171ZM90.9265 84.6229V85.5802H88.5398C88.2775 85.5802 88.0852 85.637 87.9628 85.7507C87.8492 85.8644 87.7748 86.0654 87.7399 86.3539C87.6962 86.7299 87.6437 87.1189 87.5825 87.5211C87.5301 87.9145 87.4689 88.2948 87.3989 88.662C87.3377 89.0204 87.2547 89.3439 87.1498 89.6324C87.0448 89.9646 86.8918 90.24 86.6908 90.4586C86.4984 90.6771 86.2624 90.8389 85.9826 90.9438C85.7029 91.0399 85.3838 91.088 85.0253 91.088L84.8942 90.1307C85.1215 90.0695 85.3051 90.004 85.445 89.934C85.5936 89.8641 85.7072 89.7766 85.7859 89.6717C85.8733 89.5581 85.9477 89.4226 86.0088 89.2652C86.0875 89.0729 86.1531 88.8456 86.2056 88.5833C86.2668 88.321 86.3148 88.05 86.3498 87.7702C86.3935 87.4817 86.4285 87.1976 86.4547 86.9178C86.4897 86.6293 86.5203 86.367 86.5465 86.131C86.6077 85.6414 86.7695 85.2699 87.0317 85.0163C87.294 84.754 87.6918 84.6229 88.2251 84.6229H90.9265ZM91.097 84.6229V91.0225H89.825V84.6229H91.097ZM98.852 84.6229V91.0225H97.7111V86.9441C97.7111 86.7954 97.7155 86.6512 97.7242 86.5113C97.733 86.3714 97.7461 86.2184 97.7636 86.0523H97.7242C97.6718 86.1835 97.6018 86.3233 97.5144 86.472C97.4357 86.6118 97.357 86.7342 97.2783 86.8391L94.1704 91.0225H93.1081V84.6229H94.249V88.7144C94.249 88.8543 94.2447 88.9942 94.2359 89.1341C94.2359 89.2739 94.2272 89.4269 94.2097 89.5931H94.2359C94.3059 89.4532 94.3802 89.3177 94.4589 89.1865C94.5376 89.0466 94.6162 88.9286 94.6949 88.8325L97.8029 84.6229H98.852ZM102.102 84.6229V91.0225H100.856V84.6229H102.102ZM105.42 87.1539V88.0981H102.023V87.1539H105.42ZM106.547 84.6229V91.0225H105.302V84.6229H106.547ZM111.32 84.4655C111.521 84.4655 111.744 84.4743 111.989 84.4918C112.234 84.5093 112.483 84.5399 112.736 84.5836C112.99 84.6273 113.226 84.6928 113.445 84.7803L113.287 85.5933C112.981 85.5671 112.666 85.5496 112.343 85.5409C112.028 85.5234 111.757 85.5147 111.53 85.5147C111.049 85.5147 110.664 85.5846 110.376 85.7245C110.087 85.8556 109.878 86.0873 109.746 86.4195C109.624 86.7517 109.563 87.2151 109.563 87.8096C109.563 88.4041 109.624 88.8718 109.746 89.2128C109.878 89.5537 110.087 89.7898 110.376 89.9209C110.664 90.052 111.049 90.1176 111.53 90.1176C111.661 90.1176 111.832 90.1132 112.041 90.1045C112.26 90.0957 112.492 90.0826 112.736 90.0652C112.981 90.0477 113.213 90.0214 113.431 89.9865L113.549 90.8258C113.235 90.9481 112.881 91.0356 112.487 91.088C112.094 91.1492 111.7 91.1798 111.307 91.1798C110.564 91.1798 109.965 91.0705 109.51 90.852C109.065 90.6334 108.741 90.2793 108.54 89.7898C108.339 89.3002 108.238 88.6401 108.238 87.8096C108.238 86.9878 108.339 86.3321 108.54 85.8425C108.741 85.3529 109.065 85.0032 109.51 84.7934C109.965 84.5748 110.568 84.4655 111.32 84.4655ZM120.541 84.6229C120.392 85.0163 120.257 85.3704 120.134 85.6851C120.012 85.9999 119.889 86.2753 119.767 86.5113C119.645 86.7474 119.505 86.9441 119.347 87.1014C119.199 87.2588 119.024 87.3856 118.823 87.4817C118.63 87.5779 118.394 87.6391 118.115 87.6653V87.7178C118.412 87.744 118.661 87.8008 118.862 87.8883C119.072 87.9757 119.255 88.1024 119.413 88.2686C119.579 88.4347 119.728 88.6445 119.859 88.898C119.99 89.1428 120.125 89.4444 120.265 89.8029C120.405 90.1526 120.558 90.5591 120.724 91.0225H119.4C119.242 90.5941 119.098 90.2225 118.967 89.9078C118.845 89.5843 118.722 89.3133 118.6 89.0947C118.477 88.8674 118.346 88.6882 118.206 88.5571C118.067 88.4172 117.9 88.321 117.708 88.2686C117.524 88.2074 117.306 88.1768 117.052 88.1768V87.2194C117.358 87.2194 117.616 87.167 117.826 87.0621C118.036 86.9484 118.215 86.7823 118.364 86.5638C118.521 86.3452 118.665 86.0785 118.797 85.7638C118.928 85.4403 119.072 85.06 119.229 84.6229H120.541ZM116.305 84.6229V86.472C116.305 86.673 116.287 86.8785 116.252 87.0883C116.226 87.2894 116.182 87.4817 116.121 87.6653C116.174 87.8577 116.217 88.05 116.252 88.2423C116.287 88.4347 116.305 88.6139 116.305 88.78V91.0225H115.033V84.6229H116.305ZM117.485 87.2194V88.1768H115.938V87.2194H117.485ZM127.871 84.6229V91.0225H126.731V86.9441C126.731 86.7954 126.735 86.6512 126.744 86.5113C126.752 86.3714 126.766 86.2184 126.783 86.0523H126.744C126.691 86.1835 126.621 86.3233 126.534 86.472C126.455 86.6118 126.377 86.7342 126.298 86.8391L123.19 91.0225H122.128V84.6229H123.269V88.7144C123.269 88.8543 123.264 88.9942 123.255 89.1341C123.255 89.2739 123.247 89.4269 123.229 89.5931H123.255C123.325 89.4532 123.4 89.3177 123.478 89.1865C123.557 89.0466 123.636 88.9286 123.714 88.8325L126.822 84.6229H127.871ZM135.619 84.6229V91.0225H134.479V86.9441C134.479 86.7954 134.483 86.6512 134.492 86.5113C134.5 86.3714 134.513 86.2184 134.531 86.0523H134.492C134.439 86.1835 134.369 86.3233 134.282 86.472C134.203 86.6118 134.124 86.7342 134.046 86.8391L130.938 91.0225H129.876V84.6229H131.016V88.7144C131.016 88.8543 131.012 88.9942 131.003 89.1341C131.003 89.2739 130.995 89.4269 130.977 89.5931H131.003C131.073 89.4532 131.148 89.3177 131.226 89.1865C131.305 89.0466 131.384 88.9286 131.462 88.8325L134.57 84.6229H135.619ZM133.797 81.7772H134.715C134.75 82.1269 134.688 82.4416 134.531 82.7214C134.374 82.9924 134.142 83.2154 133.836 83.3902C133.53 83.5563 133.163 83.6394 132.734 83.6394C132.297 83.6394 131.921 83.5563 131.607 83.3902C131.301 83.2154 131.069 82.9924 130.912 82.7214C130.754 82.4416 130.689 82.1269 130.715 81.7772H131.646C131.637 82.1619 131.729 82.4548 131.921 82.6558C132.114 82.8482 132.385 82.9443 132.734 82.9443C133.075 82.9443 133.338 82.8482 133.521 82.6558C133.705 82.4548 133.797 82.1619 133.797 81.7772Z" fill="white"/>
</svg>
