<svg width="157" height="157" viewBox="0 0 157 157" fill="none" xmlns="http://www.w3.org/2000/svg">
<path d="M144.243 90.3202L148.736 88.597C150.92 87.7597 152.361 85.6631 152.361 83.3245V82.6256C152.361 81.5724 152.78 80.5626 153.526 79.8191C153.991 79.3554 154.334 78.7834 154.523 78.1545L155.767 74.0188C155.993 73.2678 156.108 72.4877 156.108 71.7034C156.108 70.8372 155.968 69.9768 155.694 69.1553L154.235 64.7918L152.691 60.6874C152.472 60.1059 152.172 59.5587 151.798 59.0622C150.948 57.9316 150.488 56.5551 150.488 55.1402V54.4045C150.488 53.0463 150.805 51.7068 151.414 50.4927L152.361 48.6032L153.241 46.8492C153.894 45.546 154.235 44.1081 154.235 42.6502V40.6736C154.235 39.3543 153.806 38.0708 153.013 37.0165C152.582 36.4436 152.255 35.799 152.049 35.1124L151.232 32.3966C150.745 30.7783 150.705 29.0584 151.116 27.4192L151.9 24.2904C152.204 23.0772 152.749 21.9373 153.5 20.9378L154.235 19.9616C155.367 18.4564 155.472 16.4146 154.501 14.8008L152.361 11.2447L147.99 5.64088L147.102 4.46103C146.45 3.59468 145.644 2.85624 144.724 2.28291C142.447 0.864016 139.647 0.561597 137.119 1.46156L133.901 2.6076C132.892 2.96675 131.83 3.15032 130.759 3.15032H130.06C128.309 3.15032 126.593 2.65937 125.106 1.7332L124.659 1.45423C123.172 0.528057 121.456 0.0371094 119.705 0.0371094H117.388H114.751C113.605 0.0371094 112.468 0.247594 111.397 0.658095L106.518 2.52933C105.447 2.93983 104.31 3.15032 103.164 3.15032H98.653H97.5128C96.2057 3.15032 94.9131 3.42388 93.718 3.95342L91.2664 5.03976C90.3676 5.43803 89.5371 5.9753 88.8054 6.63186L84.1699 10.7913C83.8335 11.0931 83.4757 11.3703 83.0992 11.6205L79.9176 13.7352L74.321 18.0274C72.6854 19.2818 70.6821 19.9616 68.6209 19.9616H62.4312C60.4327 19.9616 58.2678 18.3013 57.4351 17.4711L53.3636 13.9917C53.1643 13.8214 52.9449 13.6761 52.7102 13.5591C50.5758 12.4951 48.0674 14.0474 48.0674 16.4324V17.4711V29.9239V37.8288C48.0674 38.3601 47.9226 38.8815 47.6486 39.3368C46.8369 40.6856 45.103 41.1499 43.7258 40.3871L41.7608 39.2987C40.9819 38.8673 40.106 38.6409 39.2156 38.6409H38.7134C36.7673 38.6409 34.9635 39.6607 33.9602 41.3283C33.7898 41.6116 33.5943 41.8791 33.3762 42.1276L29.3324 46.7352L28.5292 47.7648C26.4911 50.3774 22.8258 51.0618 19.9822 49.3608L19.5379 49.095C18.9965 48.7712 18.5338 48.3312 18.1831 47.8068C17.0431 46.1023 14.851 45.4511 12.9653 46.2569L12.2574 46.5594C9.61752 47.6874 8.39482 50.7443 9.52856 53.3817L10.5831 55.8349C11.0043 56.8148 11.2215 57.8702 11.2215 58.9368V63.0993C11.2215 65.7494 10.0424 68.2621 8.00401 69.9557C7.65149 70.2485 7.27856 70.5167 6.87514 70.7342C5.597 71.4232 3.33892 72.4655 1.22931 72.8862C-0.670401 73.265 0.921209 74.388 2.7082 75.2693C3.77402 75.795 4.96237 75.9994 6.15078 75.9994H8.91819C10.3743 75.9994 11.7518 76.6602 12.6631 77.7959C13.3469 78.6481 13.7196 79.7081 13.7196 80.8008V82.2267C13.7196 85.2783 11.9935 88.0674 9.26244 89.4288L8.47757 89.8201C7.81882 90.1485 7.25035 90.633 6.82167 91.2313C5.43334 93.1691 5.79079 95.8524 7.638 97.3592L11.2215 100.282L13.7196 102.773L18.7157 107.754L24.1037 114.738C24.6719 115.474 25.1273 116.291 25.4548 117.162L25.7657 117.988C26.4604 119.835 26.5541 121.854 26.0334 123.758L25.7618 124.751C25.2411 126.654 25.3348 128.673 26.0295 130.52L26.1192 130.758C26.5905 132.011 27.3249 133.149 28.273 134.094L28.4448 134.265C29.0339 134.853 29.6987 135.359 30.4215 135.771L32.0561 136.702C33.1361 137.317 34.3576 137.641 35.6006 137.641C36.8143 137.641 38.0082 137.949 39.0699 138.538L43.0717 140.754L45.675 142.312C46.0196 142.518 46.3377 142.765 46.6221 143.049C47.5474 143.972 48.0856 145.227 47.9616 146.527C47.7673 148.564 47.2707 151.153 46.1939 152.584C45.2295 153.866 45.7646 155.045 46.6016 155.889C47.4414 156.735 48.6881 156.943 49.8805 156.943C51.9189 156.943 53.8741 156.135 55.3176 154.695L55.8713 154.143C56.8997 153.118 58.1525 152.346 59.5307 151.888L63.4909 150.572C64.4436 150.255 65.441 150.094 66.445 150.094H69.8166C71.1237 150.094 72.4163 150.367 73.6113 150.897L77.4195 152.584L78.0985 152.971C80.4321 154.301 83.244 154.495 85.7387 153.501L86.3922 153.24C87.4675 152.811 88.4044 152.095 89.1003 151.17C89.634 150.46 90.3112 149.871 91.0877 149.441L95.5304 146.981L100.105 145.156C101.209 144.716 102.386 144.49 103.574 144.49H104.898H110.519H115.695C116.815 144.49 117.926 144.289 118.975 143.897L122.385 142.622L129.467 140.993C130.155 140.834 130.86 140.754 131.567 140.754H134.122C135.43 140.754 136.712 140.387 137.823 139.695L138.156 139.488C140 138.339 141.12 136.321 141.12 134.149C141.12 133.17 140.891 132.204 140.452 131.329L139.545 129.519C138.937 128.307 138.073 127.241 137.012 126.395L133.654 123.716C132.827 123.057 131.801 122.698 130.743 122.698C128.735 122.698 126.951 121.413 126.315 119.509L125.444 116.906C124.689 114.646 124.919 112.172 126.079 110.09L126.398 109.518C127.042 108.361 127.381 107.059 127.381 105.735C127.381 103.827 128.082 101.986 129.352 100.562L131.646 97.9887C132.132 97.4442 132.679 96.9584 133.277 96.5409L137.881 93.3275C138.374 92.9838 138.898 92.6882 139.447 92.4449L144.243 90.3202Z" fill="#5C5C5C" fill-opacity="0.9"/>
<path d="M51.2302 67.6857C51.6236 67.6857 51.9602 67.6944 52.24 67.7119C52.5197 67.7294 52.7776 67.76 53.0137 67.8037C53.2497 67.8387 53.4945 67.8911 53.748 67.9611L53.6169 68.9446C53.3546 68.9184 53.1098 68.9009 52.8825 68.8922C52.6552 68.8747 52.4104 68.8616 52.1482 68.8528C51.8946 68.8441 51.5886 68.8397 51.2302 68.8397C50.6707 68.8397 50.2292 68.949 49.9057 69.1676C49.5822 69.3861 49.3505 69.7533 49.2107 70.2691C49.0795 70.7762 49.014 71.4756 49.014 72.3673C49.014 73.2591 49.0795 73.9628 49.2107 74.4787C49.3505 74.9857 49.5822 75.3485 49.9057 75.5671C50.2292 75.7857 50.6707 75.895 51.2302 75.895C51.7985 75.895 52.2749 75.8862 52.6596 75.8687C53.053 75.8425 53.4333 75.8032 53.8005 75.7507L53.9316 76.7342C53.547 76.8479 53.1492 76.9266 52.7383 76.9703C52.3361 77.0227 51.8334 77.049 51.2302 77.049C50.3559 77.049 49.6522 76.9003 49.1189 76.6031C48.5943 76.2971 48.214 75.8032 47.978 75.1212C47.7419 74.4393 47.6239 73.5213 47.6239 72.3673C47.6239 71.2133 47.7419 70.2953 47.978 69.6134C48.214 68.9315 48.5943 68.4419 49.1189 68.1447C49.6522 67.8387 50.3559 67.6857 51.2302 67.6857ZM58.2624 70.492V76.8916H56.9903V70.492H58.2624ZM60.5442 70.492V71.5149H54.7085V70.492H60.5442ZM67.68 70.492L65.1752 77.1932C65.0965 77.4205 64.996 77.6522 64.8736 77.8883C64.7512 78.133 64.6026 78.3647 64.4277 78.5833C64.2616 78.8019 64.0649 78.9898 63.8376 79.1472C63.5054 79.3745 63.1338 79.51 62.7229 79.5537C62.3208 79.5974 61.8924 79.5887 61.4378 79.5275L61.5427 78.662C61.8399 78.6707 62.1241 78.6576 62.3951 78.6226C62.6661 78.5877 62.9065 78.5046 63.1163 78.3735C63.2999 78.2423 63.466 78.0631 63.6147 77.8358C63.7633 77.6172 63.8901 77.3768 63.995 77.1145L64.3228 76.3408C64.3928 76.1572 64.4627 75.9561 64.5326 75.7376C64.6026 75.5103 64.6681 75.3136 64.7293 75.1475L66.3161 70.492H67.68ZM62.4475 70.492L64.0605 75.1475C64.1043 75.2786 64.1436 75.4141 64.1786 75.554C64.2135 75.6851 64.2485 75.8206 64.2835 75.9605H64.5982L64.1654 76.8916H63.8245C63.7108 76.8916 63.6147 76.8654 63.536 76.8129C63.466 76.7517 63.4092 76.6687 63.3655 76.5638L61.0968 70.492H62.4475ZM74.5262 70.492V76.8916H73.2804V70.492H74.5262ZM70.1593 70.492V76.8916H68.9266V70.492H70.1593ZM73.3984 70.492L73.3853 71.4756H70.0937V70.492H73.3984ZM82.2647 70.492V76.8916H81.1238V72.8132C81.1238 72.6646 81.1282 72.5203 81.1369 72.3804C81.1456 72.2406 81.1588 72.0876 81.1762 71.9215H81.1369C81.0844 72.0526 81.0145 72.1925 80.9271 72.3411C80.8484 72.481 80.7697 72.6034 80.691 72.7083L77.5831 76.8916H76.5208V70.492H77.6617V74.5836C77.6617 74.7234 77.6574 74.8633 77.6486 75.0032C77.6486 75.1431 77.6399 75.2961 77.6224 75.4622H77.6486C77.7186 75.3223 77.7929 75.1868 77.8716 75.0557C77.9502 74.9158 78.0289 74.7978 78.1076 74.7016L81.2156 70.492H82.2647ZM85.5146 70.492V76.8916H84.2688V70.492H85.5146ZM88.8324 73.023V73.9672H85.4359V73.023H88.8324ZM89.9602 70.492V76.8916H88.7143V70.492H89.9602ZM97.4604 70.492C97.3118 70.8855 97.1763 71.2395 97.0539 71.5543C96.9315 71.869 96.8091 72.1444 96.6867 72.3804C96.5643 72.6165 96.4245 72.8132 96.2671 72.9706C96.1185 73.1279 95.9436 73.2547 95.7425 73.3509C95.5502 73.447 95.3142 73.5082 95.0344 73.5345V73.5869C95.3316 73.6131 95.5808 73.67 95.7819 73.7574C95.9917 73.8448 96.1753 73.9716 96.3327 74.1377C96.4988 74.3038 96.6474 74.5136 96.7785 74.7672C96.9097 75.012 97.0452 75.3136 97.1851 75.672C97.3249 76.0217 97.4779 76.4282 97.644 76.8916H96.3195C96.1622 76.4632 96.0179 76.0917 95.8868 75.7769C95.7644 75.4535 95.642 75.1824 95.5196 74.9639C95.3972 74.7366 95.2661 74.5573 95.1262 74.4262C94.9863 74.2863 94.8202 74.1902 94.6279 74.1377C94.4443 74.0765 94.2257 74.0459 93.9722 74.0459V73.0886C94.2782 73.0886 94.5361 73.0361 94.7459 72.9312C94.9557 72.8176 95.1349 72.6515 95.2836 72.4329C95.4409 72.2143 95.5852 71.9477 95.7163 71.633C95.8474 71.3095 95.9917 70.9292 96.1491 70.492H97.4604ZM93.2247 70.492V72.3411C93.2247 72.5422 93.2072 72.7476 93.1722 72.9575C93.146 73.1585 93.1023 73.3509 93.0411 73.5345C93.0935 73.7268 93.1373 73.9191 93.1722 74.1115C93.2072 74.3038 93.2247 74.483 93.2247 74.6491V76.8916H91.9526V70.492H93.2247ZM94.4049 73.0886V74.0459H92.8575V73.0886H94.4049ZM104.791 70.492V76.8916H103.65V72.8132C103.65 72.6646 103.655 72.5203 103.663 72.3804C103.672 72.2406 103.685 72.0876 103.703 71.9215H103.663C103.611 72.0526 103.541 72.1925 103.454 72.3411C103.375 72.481 103.296 72.6034 103.218 72.7083L100.11 76.8916H99.0474V70.492H100.188V74.5836C100.188 74.7234 100.184 74.8633 100.175 75.0032C100.175 75.1431 100.166 75.2961 100.149 75.4622H100.175C100.245 75.3223 100.319 75.1868 100.398 75.0557C100.477 74.9158 100.556 74.7978 100.634 74.7016L103.742 70.492H104.791ZM112.539 70.492V76.8916H111.398V72.8132C111.398 72.6646 111.403 72.5203 111.411 72.3804C111.42 72.2406 111.433 72.0876 111.451 71.9215H111.411C111.359 72.0526 111.289 72.1925 111.202 72.3411C111.123 72.481 111.044 72.6034 110.966 72.7083L107.858 76.8916H106.795V70.492H107.936V74.5836C107.936 74.7234 107.932 74.8633 107.923 75.0032C107.923 75.1431 107.914 75.2961 107.897 75.4622H107.923C107.993 75.3223 108.067 75.1868 108.146 75.0557C108.225 74.9158 108.303 74.7978 108.382 74.7016L111.49 70.492H112.539ZM110.716 67.6463H111.634C111.669 67.9961 111.608 68.3108 111.451 68.5905C111.293 68.8616 111.062 69.0845 110.756 69.2593C110.45 69.4255 110.083 69.5085 109.654 69.5085C109.217 69.5085 108.841 69.4255 108.526 69.2593C108.22 69.0845 107.989 68.8616 107.831 68.5905C107.674 68.3108 107.608 67.9961 107.635 67.6463H108.566C108.557 68.031 108.649 68.3239 108.841 68.525C109.033 68.7173 109.304 68.8135 109.654 68.8135C109.995 68.8135 110.257 68.7173 110.441 68.525C110.625 68.3239 110.716 68.031 110.716 67.6463Z" fill="white"/>
</svg>
