<svg width="109" height="94" viewBox="0 0 109 94" fill="none" xmlns="http://www.w3.org/2000/svg">
<path d="M57.528 29.9998H63.0776C63.8067 29.9998 64.3977 30.5908 64.3977 31.3198C64.3977 31.6706 64.258 32.0069 64.0096 32.2546L62.6022 33.6578C62.1368 34.1217 61.7494 34.6577 61.4548 35.2451L58.0348 42.0646C57.7015 42.7292 57.528 43.4624 57.528 44.2058C57.528 45.4751 56.9997 46.676 56.2341 47.6884C55.3162 48.9022 54.4054 50.4743 54.4054 51.7922V54.2828V60.7565C54.4054 61.9954 53.4011 62.9998 52.1621 62.9998C51.9928 62.9998 51.8241 63.019 51.6591 63.0569L44.8253 64.6292C44.1364 64.7877 43.4319 64.8677 42.725 64.8677H38.1173C36.5127 64.8677 34.935 65.2799 33.5355 66.0648L26.4573 70.0343C25.9388 70.3251 25.3938 70.5659 24.8296 70.7534L19.622 72.484C18.6693 72.8007 17.673 72.9621 16.669 72.9621H8.81593H7.42714C5.77936 72.9621 4.44434 71.6263 4.44434 69.9785C4.44434 69.106 4.82627 68.2772 5.48958 67.7103L6.63013 66.7356C8.01723 65.5503 8.81593 63.8171 8.81593 61.9925V59.2639V57.1171C8.81593 55.326 9.63146 53.6323 11.0317 52.5155C11.6305 52.0379 12.1303 51.4481 12.5031 50.779L14.5193 47.1608C14.8787 46.5157 15.3264 45.924 15.8493 45.4026L16.3015 44.9517C17.5064 43.7504 18.1836 42.119 18.1836 40.4176C18.1836 38.9165 17.6562 37.4631 16.6936 36.3114L16.6224 36.2262C15.6137 35.0194 15.0611 33.4966 15.0611 31.9238V29.9998V25.5115C15.0611 24.7908 15.3143 24.0931 15.7765 23.5401C17.0213 22.0507 19.3179 22.0737 20.5327 23.5877L23.5639 27.3654C24.9003 29.0308 26.9202 29.9998 29.0554 29.9998H30.6602C32.2137 29.9998 33.6485 30.8312 34.421 32.179C35.1935 33.5269 36.6283 34.3583 38.1818 34.3583H40.6661H44.4492C46.4258 34.3583 48.3218 33.5746 49.7216 32.179C51.1213 30.7835 53.0173 29.9998 54.9939 29.9998H57.528Z" fill="#5C5C5C" fill-opacity="0.9"/>
<path d="M9.17454 46.7972C9.27391 47.3351 9.36493 47.8325 9.4476 48.2893C9.53347 48.7342 9.59364 49.1434 9.62812 49.5169C9.65822 49.8829 9.65504 50.2176 9.6186 50.5211C9.58215 50.8245 9.49888 51.0994 9.36878 51.3458C9.2343 51.5846 9.03565 51.7998 8.77283 51.9914L8.79912 52.0368C9.11214 51.897 9.41576 51.8281 9.70997 51.8303C9.9998 51.8248 10.2938 51.8876 10.5919 52.0187C10.8932 52.1377 11.2079 52.3147 11.5358 52.5496C11.8638 52.7845 12.2224 53.0724 12.6118 53.4132C13.0043 53.742 13.4382 54.1076 13.9136 54.5098L12.7202 55.1967C12.1576 54.7136 11.6615 54.2931 11.2319 53.9351C10.8099 53.5727 10.4204 53.2926 10.0633 53.0946C9.71377 52.8923 9.37776 52.7831 9.05526 52.767C8.72837 52.7433 8.38686 52.834 8.03075 53.039L7.52473 52.1651C7.85811 51.9732 8.09246 51.7324 8.22776 51.4427C8.36626 51.1411 8.43722 50.7926 8.44062 50.3972C8.44403 50.0018 8.40161 49.5622 8.31338 49.0784C8.23272 48.5902 8.13334 48.0522 8.01526 47.4645L9.17454 46.7972ZM4.87841 49.2701L6.27161 51.676C6.40742 51.9105 6.52749 52.144 6.63181 52.3765C6.73613 52.609 6.82311 52.8464 6.89274 53.0888C7.0533 53.2788 7.21226 53.4748 7.36962 53.6768C7.52698 53.8787 7.66261 54.0781 7.77652 54.2748L9.41287 57.1005L8.2877 57.7482L3.75323 49.9178L4.87841 49.2701ZM7.95661 51.9165L8.46263 52.7904L6.97376 53.6474L6.46774 52.7736L7.95661 51.9165ZM15.0875 46.2685C15.777 45.8716 16.4141 45.8378 16.9987 46.167C17.5834 46.4962 18.1539 47.1413 18.7103 48.1021C19.1265 48.8208 19.3815 49.4356 19.4753 49.9465C19.5648 50.4499 19.5067 50.8817 19.3012 51.2421C19.0913 51.595 18.7515 51.9066 18.2817 52.177C17.9105 52.3907 17.5183 52.5509 17.1052 52.6575C16.6878 52.7566 16.2586 52.7918 15.8177 52.7631L15.531 52.1111C15.9213 52.0175 16.2628 51.9269 16.5555 51.8391C16.8482 51.7513 17.1423 51.6224 17.4378 51.4523C17.7484 51.2735 17.964 51.0788 18.0845 50.8682C18.2126 50.6532 18.2351 50.378 18.1519 50.0425C18.0688 49.7071 17.8761 49.2783 17.5738 48.7563C17.2759 48.2418 17.0058 47.8627 16.7635 47.6188C16.5169 47.3674 16.2752 47.2291 16.0384 47.204C15.7972 47.1713 15.5327 47.2379 15.2448 47.4036C14.9568 47.5693 14.7121 47.801 14.5106 48.0985C14.3048 48.3885 14.101 48.7781 13.8995 49.2674L13.3801 48.6585C13.4469 48.3376 13.5593 48.0258 13.7173 47.723C13.8829 47.4158 14.0856 47.1377 14.3253 46.8888C14.5607 46.6323 14.8147 46.4255 15.0875 46.2685ZM12.8024 47.7654L13.578 48.817L13.743 48.9187L15.8065 52.4821L15.8285 52.651C15.9739 52.8497 16.1095 53.0491 16.2354 53.249C16.3689 53.4445 16.4975 53.658 16.6214 53.8893L17.5217 55.444L16.4306 56.0721L11.9159 48.2757L12.8024 47.7654ZM21.1784 42.7624C21.6027 42.5182 21.9917 42.37 22.3453 42.3177C22.6946 42.2579 23.0179 42.319 23.3152 42.5009C23.62 42.6784 23.9061 42.998 24.1734 43.4595L26.4077 47.3179L25.544 47.8151L24.6769 46.7103L24.5412 46.6069L23.0823 44.0875C22.8863 43.7666 22.6709 43.5778 22.4362 43.5213C22.209 43.4604 21.8832 43.5521 21.4589 43.7964C21.1634 43.9665 20.8047 44.1931 20.3827 44.4763C19.9684 44.7552 19.5578 45.0319 19.151 45.3064L18.5953 44.5822C18.8266 44.3885 19.0904 44.1812 19.3868 43.9602C19.6831 43.7392 19.9876 43.5236 20.3002 43.3133C20.6129 43.1031 20.9056 42.9195 21.1784 42.7624ZM23.9296 44.1899L24.3651 44.9682L21.769 46.4777C21.5157 46.6335 21.3733 46.8063 21.3417 46.996C21.3057 47.1781 21.3513 47.3788 21.4783 47.5982L21.6755 47.9387C21.8332 48.211 22.0175 48.3723 22.2284 48.4224C22.4348 48.4649 22.6783 48.4055 22.9586 48.2441C23.1708 48.122 23.3837 47.949 23.5975 47.725C23.8145 47.4892 24.0096 47.2155 24.1828 46.9039C24.3516 46.5848 24.4698 46.2394 24.5374 45.8676L24.9514 46.5826C24.9446 46.7277 24.9092 46.9196 24.8453 47.1581C24.777 47.3891 24.6724 47.6359 24.5315 47.8986C24.3982 48.1569 24.2253 48.4078 24.0126 48.6512C23.8 48.8946 23.5384 49.1058 23.2277 49.2846C22.8943 49.4765 22.566 49.5898 22.2427 49.6246C21.9225 49.6475 21.6247 49.5869 21.3494 49.4428C21.0772 49.2868 20.8447 49.0423 20.6519 48.7094L20.3036 48.108C20.0539 47.6767 19.9953 47.2616 20.1279 46.8625C20.268 46.459 20.5843 46.1155 21.0769 45.832L23.9296 44.1899ZM27.221 39.2842C27.3953 39.1839 27.5928 39.0803 27.8138 38.9733C28.0347 38.8663 28.266 38.7685 28.5076 38.6798C28.7492 38.5911 28.9867 38.5301 29.2199 38.4967L29.491 39.2789C29.2126 39.4088 28.9311 39.5507 28.6464 39.7045C28.3648 39.8464 28.1256 39.974 27.9286 40.0874C27.5118 40.3273 27.2135 40.5797 27.0336 40.8447C26.8492 41.1021 26.7835 41.4073 26.8363 41.7602C26.8967 42.1087 27.0759 42.5402 27.3738 43.0547C27.6717 43.5692 27.9591 43.9434 28.2361 44.1774C28.5206 44.407 28.8207 44.5066 29.1365 44.4762C29.4523 44.4457 29.8185 44.3106 30.2352 44.0707C30.3489 44.0053 30.4944 43.9164 30.6719 43.8042C30.8569 43.6876 31.0512 43.5607 31.2546 43.4234C31.458 43.2862 31.6456 43.1479 31.8175 43.0086L32.3404 43.676C32.1289 43.9389 31.8659 44.1912 31.5512 44.4329C31.2409 44.6821 30.9153 44.9049 30.5743 45.1011C29.9303 45.4718 29.3565 45.676 28.853 45.7137C28.357 45.747 27.8992 45.602 27.4796 45.2786C27.06 44.9552 26.6421 44.4342 26.2259 43.7155C25.8141 43.0043 25.5726 42.3867 25.5015 41.8627C25.4305 41.3387 25.5356 40.8748 25.8168 40.4707C26.1013 40.0548 26.5694 39.6593 27.221 39.2842ZM31.5973 36.9467L34.8043 42.4847L33.7246 43.1062L30.5176 37.5682L31.5973 36.9467ZM35.7411 37.4818L36.2143 38.2988L33.2706 39.9933L32.7974 39.1762L35.7411 37.4818ZM35.4502 34.7289L38.6572 40.2669L37.5775 40.8884L34.3705 35.3504L35.4502 34.7289ZM39.5076 32.2118C40.1592 31.8367 40.733 31.6325 41.229 31.5992C41.7249 31.5659 42.1849 31.7147 42.6089 32.0457C43.0285 32.369 43.442 32.8825 43.8495 33.5861C44.2613 34.2973 44.505 34.9186 44.5804 35.4502C44.6515 35.9742 44.5486 36.4419 44.2717 36.8535C43.9948 37.2651 43.5305 37.6584 42.8789 38.0335C42.2273 38.4086 41.6497 38.615 41.1462 38.6526C40.6502 38.6859 40.1924 38.5409 39.7728 38.2175C39.3488 37.8866 38.9309 37.3655 38.5191 36.6544C38.1117 35.9508 37.8724 35.337 37.8013 34.813C37.7259 34.2814 37.8266 33.8099 38.1035 33.3983C38.388 32.9824 38.856 32.5869 39.5076 32.2118ZM40.0202 33.097C39.6414 33.315 39.3733 33.55 39.2161 33.8019C39.0665 34.0494 39.0279 34.3491 39.1002 34.7008C39.1758 35.0407 39.3647 35.4716 39.667 35.9936C39.9693 36.5156 40.2514 36.898 40.5131 37.1407C40.7825 37.3791 41.0621 37.4956 41.3519 37.4901C41.645 37.4728 41.9809 37.3551 42.3597 37.137C42.7386 36.9189 43.005 36.6899 43.159 36.4499C43.3087 36.2024 43.3435 35.9049 43.2636 35.5575C43.1836 35.2101 42.9925 34.7754 42.6902 34.2534C42.3879 33.7314 42.1081 33.3528 41.8507 33.1176C41.5889 32.8749 41.3131 32.7563 41.0232 32.7617C40.7334 32.7671 40.3991 32.8789 40.0202 33.097ZM14.2269 65.3614C14.7194 65.0779 15.2179 64.796 15.7224 64.5157C16.2344 64.231 16.7331 63.9843 17.2183 63.7756L17.6198 64.5735L15.1989 65.9669C14.9716 66.0978 14.8356 66.2467 14.7909 66.4137C14.7493 66.5687 14.7942 66.7597 14.9257 66.9867L17.2718 71.0381L16.1921 71.6596L13.6817 67.3245C13.4451 66.916 13.3737 66.5485 13.4676 66.2221C13.5571 65.8881 13.8102 65.6012 14.2269 65.3614ZM20.5106 61.6082C21.1622 61.2331 21.736 61.0289 22.2319 60.9956C22.7279 60.9623 23.1879 61.1111 23.6118 61.4421C24.0315 61.7654 24.445 62.2789 24.8524 62.9825C25.2643 63.6937 25.5079 64.315 25.5834 64.8466C25.6544 65.3706 25.5515 65.8383 25.2746 66.2499C24.9977 66.6615 24.5335 67.0548 23.8818 67.4299C23.2302 67.805 22.6527 68.0113 22.1491 68.049C21.6532 68.0823 21.1954 67.9373 20.7758 67.6139C20.3518 67.283 19.9339 66.7619 19.522 66.0508C19.1146 65.3472 18.8753 64.7334 18.8043 64.2094C18.7288 63.6778 18.8295 63.2063 19.1064 62.7947C19.3909 62.3788 19.859 61.9833 20.5106 61.6082ZM21.0232 62.4934C20.6443 62.7114 20.3763 62.9464 20.2191 63.1983C20.0694 63.4458 20.0308 63.7455 20.1032 64.0972C20.1787 64.4371 20.3677 64.868 20.67 65.39C20.9723 65.912 21.2543 66.2944 21.5161 66.5371C21.7854 66.7755 22.065 66.892 22.3549 66.8865C22.6479 66.8692 22.9838 66.7514 23.3627 66.5334C23.7415 66.3153 24.008 66.0863 24.162 65.8463C24.3116 65.5988 24.3465 65.3013 24.2665 64.9539C24.1866 64.6065 23.9955 64.1718 23.6932 63.6498C23.3909 63.1278 23.111 62.7492 22.8536 62.514C22.5918 62.2713 22.316 62.1527 22.0262 62.1581C21.7363 62.1635 21.402 62.2753 21.0232 62.4934ZM27.9003 57.3545C28.5898 56.9576 29.2269 56.9238 29.8116 57.253C30.3962 57.5822 30.9667 58.2273 31.5231 59.1881C31.9393 59.9068 32.1943 60.5216 32.2882 61.0325C32.3776 61.5359 32.3195 61.9678 32.114 62.3281C31.9041 62.681 31.5643 62.9926 31.0945 63.263C30.7233 63.4767 30.3311 63.6369 29.918 63.7435C29.5006 63.8426 29.0714 63.8778 28.6305 63.8491L28.3438 63.1971C28.7342 63.1035 29.0757 63.0129 29.3683 62.9251C29.661 62.8373 29.9551 62.7084 30.2506 62.5383C30.5612 62.3595 30.7768 62.1648 30.8973 61.9542C31.0254 61.7392 31.0479 61.464 30.9647 61.1286C30.8816 60.7931 30.6889 60.3643 30.3866 59.8423C30.0887 59.3279 29.8186 58.9487 29.5763 58.7048C29.3297 58.4534 29.088 58.3151 28.8512 58.29C28.61 58.2573 28.3455 58.3239 28.0576 58.4896C27.7696 58.6553 27.5249 58.887 27.3234 59.1845C27.1176 59.4745 26.9138 59.8642 26.7123 60.3534L26.1929 59.7445C26.2597 59.4236 26.3721 59.1118 26.5301 58.809C26.6957 58.5018 26.8984 58.2238 27.1381 57.9748C27.3735 57.7183 27.6275 57.5115 27.9003 57.3545ZM25.6152 58.8514L26.3908 59.903L26.5558 60.0047L28.6193 63.5681L28.6413 63.737C28.7867 63.9357 28.9224 64.1351 29.0482 64.335C29.1817 64.5305 29.3103 64.744 29.4342 64.9753L30.3345 66.53L29.2434 67.1581L24.7287 59.3617L25.6152 58.8514ZM33.7184 54.0055C33.8927 53.9052 34.0903 53.8015 34.3112 53.6945C34.5321 53.5875 34.7634 53.4897 35.005 53.4011C35.2467 53.3124 35.4841 53.2514 35.7174 53.218L35.9884 54.0001C35.7101 54.1301 35.4285 54.2719 35.1438 54.4258C34.8623 54.5676 34.623 54.6953 34.426 54.8087C34.0093 55.0485 33.7109 55.301 33.531 55.566C33.3467 55.8234 33.2809 56.1285 33.3338 56.4814C33.3942 56.83 33.5733 57.2615 33.8712 57.776C34.1692 58.2904 34.4566 58.6646 34.7335 58.8986C35.0181 59.1283 35.3182 59.2279 35.6339 59.1974C35.9497 59.167 36.3159 59.0318 36.7327 58.7919C36.8463 58.7265 36.9919 58.6377 37.1694 58.5255C37.3544 58.4089 37.5486 58.2819 37.752 58.1447C37.9554 58.0074 38.143 57.8692 38.3149 57.7299L38.8378 58.3973C38.6264 58.6602 38.3633 58.9125 38.0487 59.1542C37.7384 59.4034 37.4127 59.6261 37.0718 59.8224C36.4277 60.1931 35.8539 60.3973 35.3504 60.435C34.8545 60.4682 34.3967 60.3232 33.9771 59.9999C33.5575 59.6765 33.1395 59.1554 32.7233 58.4367C32.3115 57.7256 32.0701 57.108 31.999 56.584C31.9279 56.06 32.033 55.596 32.3143 55.192C32.5988 54.7761 33.0668 54.3806 33.7184 54.0055ZM41.7885 49.5418C41.8569 49.9563 41.9169 50.3304 41.9685 50.6638C42.0201 50.9972 42.0521 51.2966 42.0643 51.5619C42.0765 51.8272 42.0538 52.0672 41.9963 52.2819C41.9464 52.4923 41.8584 52.6892 41.7323 52.8727C41.6138 53.0519 41.4399 53.2226 41.2105 53.3849L41.2368 53.4303C41.5076 53.3047 41.752 53.2295 41.9701 53.2049C42.1957 53.1759 42.4184 53.194 42.638 53.2592C42.8652 53.3201 43.0992 53.4275 43.3399 53.5815C43.5762 53.7279 43.8448 53.9213 44.1457 54.1617C44.4421 54.3946 44.7785 54.6701 45.1546 54.9882L44.0067 55.6489C43.6556 55.3567 43.3444 55.1071 43.0731 54.9002C42.8049 54.6813 42.563 54.5079 42.3474 54.3798C42.1274 54.2441 41.9239 54.1545 41.737 54.1108C41.5456 54.0595 41.3535 54.0591 41.1605 54.1097C40.9707 54.1483 40.766 54.2309 40.5462 54.3574L40.0665 53.5289C40.3317 53.3763 40.5289 53.2022 40.6582 53.0068C40.7831 52.8037 40.8552 52.5706 40.8745 52.3073C40.9013 52.0397 40.8927 51.7369 40.8487 51.3992C40.8002 51.0538 40.7346 50.6528 40.652 50.196L41.7885 49.5418ZM38.1175 51.6549L39.0441 53.255C39.1449 53.429 39.2327 53.6155 39.3075 53.8145C39.3855 54.0016 39.444 54.1899 39.483 54.3793C39.6248 54.5196 39.7591 54.6642 39.8858 54.8132C40.0125 54.9622 40.1175 55.1086 40.2007 55.2523L41.3245 57.1929L40.222 57.8275L37.015 52.2895L38.1175 51.6549ZM40.4416 53.3131L40.9213 54.1415L39.5802 54.9135L39.1004 54.085L40.4416 53.3131ZM48.142 45.8846L51.3489 51.4226L50.3602 51.9918L48.3164 48.4624C48.2419 48.3338 48.1734 48.2068 48.1109 48.0814C48.0483 47.956 47.983 47.817 47.9149 47.6646L47.8809 47.6842C47.9011 47.8238 47.9106 47.9798 47.9093 48.152C47.9112 48.3123 47.9043 48.4575 47.8887 48.5875L47.2915 53.7581L46.3709 54.2881L43.1639 48.75L44.1527 48.1809L46.2031 51.7216C46.2732 51.8426 46.3395 51.9659 46.402 52.0913C46.4721 52.2123 46.5412 52.3491 46.6093 52.5015L46.632 52.4885C46.6225 52.3325 46.619 52.1782 46.6215 52.0254C46.6196 51.8651 46.6286 51.7237 46.6486 51.6013L47.2327 46.408L48.142 45.8846ZM54.8569 42.0193L58.0639 47.5573L57.0751 48.1265L55.0313 44.5972C54.9568 44.4686 54.8883 44.3415 54.8258 44.2161C54.7633 44.0907 54.698 43.9518 54.6299 43.7993L54.5958 43.8189C54.616 43.9586 54.6255 44.1145 54.6242 44.2868C54.6261 44.4471 54.6193 44.5922 54.6036 44.7223L54.0064 49.8929L53.0858 50.4228L49.8788 44.8848L50.8676 44.3156L52.918 47.8563C52.9881 47.9774 53.0544 48.1006 53.1169 48.226C53.187 48.3471 53.2561 48.4838 53.3242 48.6363L53.3469 48.6232C53.3374 48.4673 53.3339 48.3129 53.3364 48.1602C53.3345 47.9999 53.3436 47.8585 53.3636 47.736L53.9477 42.5427L54.8569 42.0193ZM51.851 40.4661L52.6466 40.0082C52.8522 40.2933 52.9568 40.5962 52.9607 40.9168C52.9601 41.2299 52.871 41.5384 52.6934 41.8423C52.5115 42.1387 52.2349 42.3938 51.8636 42.6075C51.4848 42.8256 51.1173 42.9412 50.7613 42.9545C50.4085 42.9558 50.096 42.8785 49.8238 42.7225C49.5472 42.5589 49.3327 42.3192 49.1802 42.0035L49.9871 41.539C50.1723 41.8763 50.3986 42.0839 50.6661 42.162C50.9292 42.2325 51.2122 42.1805 51.5153 42.006C51.8108 41.8359 51.9899 41.6219 52.0527 41.3638C52.111 41.0982 52.0438 40.799 51.851 40.4661Z" fill="white"/>
</svg>
