<svg width="126" height="149" viewBox="0 0 126 149" fill="none" xmlns="http://www.w3.org/2000/svg">
<path d="M32.8122 4.10053L34.8235 2.59655C36.1218 1.62576 37.9687 1.94217 38.8698 3.28977C39.3949 4.07499 40.2772 4.5464 41.2218 4.5464H41.9703C43.2997 4.5464 44.5518 5.1713 45.3509 6.23366L45.9552 7.03696C47.1349 8.60511 48.989 9.52753 50.9513 9.52753H52.9347C54.0642 9.52753 55.1476 9.07972 55.9474 8.28225C56.7473 7.48478 57.8307 7.03696 58.9602 7.03696H59.0995C59.8988 7.03696 60.6842 6.82892 61.3787 6.43328L62.5349 5.77457C63.9477 4.96967 65.5457 4.5464 67.1717 4.5464H67.8132H69.1615C69.9251 4.5464 70.685 4.63996 71.4265 4.82266C74.214 5.50951 78.7537 6.60342 80.928 7.03696C82.6009 7.37054 83.0601 9.02584 83.0559 10.5817C83.0524 11.8918 83.2831 13.241 84.1031 14.2628C84.863 15.2099 85.1638 16.4384 85.0026 17.642C84.6972 19.9223 84.534 22.603 85.2996 22.603C86.3642 22.603 89.2439 24.4126 93.165 28.803C94.585 30.3929 94.9572 32.5368 95.4948 34.5996C95.7966 35.7578 96.5473 36.4295 98.4144 37.5464C101.537 39.4143 102.786 38.1691 104.66 38.7917C106.533 39.4143 107.782 41.9049 107.782 45.6408C107.782 45.9557 106.451 47.1169 105.05 48.2431C103.601 49.4091 101.781 49.9992 99.9203 49.9992C98.1283 49.9992 96.386 50.5653 94.8956 51.5601C93.3603 52.585 91.5494 53.7328 90.2957 54.3577C88.8971 55.0549 89.6795 57.5915 89.4126 59.1312C89.0335 61.3175 89.0358 64.2929 90.2957 67.4332C91.1214 69.4914 93.1413 69.9904 94.5227 69.9846C95.0371 69.9824 95.5495 69.9238 96.0639 69.9238H102.786C104.174 69.9238 106.344 71.6028 107.326 72.5827C107.618 72.8736 108.013 73.037 108.425 73.037H111.104C112.606 73.037 114.079 73.4582 115.354 74.2528L116.125 74.7331C117.611 75.6592 119.405 76.0838 120.931 76.9424C121.935 77.5073 123.047 78.4311 124.019 79.886C124.324 80.3417 124.555 80.7743 124.725 81.1823C125.861 83.9083 124.019 87.2287 124.019 90.1818V90.471C124.019 88.603 119.398 94.8295 118.399 97.32C117.15 100.433 115.276 101.056 113.403 104.792C111.529 108.528 111.529 107.905 107.782 110.395C104.035 112.886 103.41 110.395 100.288 107.905C97.1653 105.414 102.161 102.924 100.288 97.32C99.1324 93.8638 97.4077 94.6265 96.2013 96.0131C95.5085 96.8095 94.897 97.686 94.0526 98.3194C91.7147 100.073 87.4318 102.714 82.1797 104.411C81.3538 104.678 80.4659 104.715 79.6359 104.968C77.7403 105.547 77.402 107.383 75.3074 107.905C73.3089 108.403 71.1439 109.773 70.3113 110.395L68.3188 112.161C66.1998 114.039 65.6722 117.138 67.0504 119.611C67.5506 120.509 67.8132 121.519 67.8132 122.547V130.32C67.8132 132.811 70.3113 137.169 70.3113 140.282V141.632C70.3113 143.589 69.7484 145.55 68.3453 146.914C67.2076 148.02 65.8509 148.999 64.6906 148.999C63.4979 148.999 62.3941 148.556 61.5652 148.066C60.7045 147.557 59.7576 147.131 58.7578 147.131C57.7579 147.131 56.7989 146.735 56.0908 146.029L54.6984 144.641L50.9513 140.282C49.9105 139.037 45.2058 136.173 34.714 134.679H33.1441C30.2006 134.679 27.479 133.224 25.2709 131.278C24.8947 130.946 24.5011 130.622 24.0972 130.32C23.7428 130.055 23.4879 129.773 23.313 129.484C22.0251 127.354 24.0972 124.563 24.0972 122.073V114.541C24.0972 113.446 24.2915 112.361 24.654 111.328C25.5103 108.888 26.5953 105.596 26.5953 104.792V99.8599C26.5953 98.2158 26.0345 96.6211 25.0056 95.3388L24.7351 95.0018C24.3141 94.477 23.7929 94.0413 23.2018 93.7199L21.1894 92.6254C19.2126 91.5505 18.8278 88.8756 20.4212 87.2869C21.4875 86.2238 21.7177 84.5817 20.9848 83.2664L19.1011 79.886L17.9755 77.6416C17.517 76.7274 16.5819 76.1502 15.5592 76.1502C14.0662 76.1502 12.7925 74.7619 11.6116 73.8483C11.1534 73.4938 10.5414 73.1981 9.73343 73.037C9.42403 72.9753 9.14338 72.8939 8.88909 72.797C6.56313 71.9105 5.62011 68.936 3.85737 67.1786L3.74372 67.0652C1.98098 65.3078 0.990234 62.921 0.990234 60.4318V56.2257V52.0622C0.990234 50.7032 1.28596 49.3604 1.85687 48.1272L4.73732 41.9049L8.87743 35.1974C9.44384 34.2797 10.1645 33.4668 11.0075 32.7943L12.856 31.32C14.3132 30.2823 17.6023 28.0823 19.1011 27.5841C19.8877 27.3227 20.938 26.364 21.909 25.3019C23.3648 23.7095 23.5764 21.3915 22.7244 19.4092C22.3941 18.6408 22.2237 17.8132 22.2237 16.9767V16.8459C22.2237 14.2692 23.6811 11.9142 25.9872 10.7646L26.7451 10.3868C27.8787 9.82172 28.8652 9.00057 29.6267 7.98834L31.7683 5.14139C32.0652 4.74673 32.4167 4.39627 32.8122 4.10053Z" fill="#5C5C5C" fill-opacity="0.9"/>
<path d="M21.8005 41.0333C22.1939 41.0333 22.5305 41.0421 22.8103 41.0596C23.09 41.0771 23.3479 41.1077 23.584 41.1514C23.82 41.1863 24.0648 41.2388 24.3184 41.3087L24.1872 42.2923C23.9249 42.266 23.6802 42.2486 23.4528 42.2398C23.2255 42.2223 22.9807 42.2092 22.7185 42.2005C22.4649 42.1917 22.1589 42.1874 21.8005 42.1874C21.241 42.1874 20.7995 42.2966 20.476 42.5152C20.1525 42.7338 19.9209 43.101 19.781 43.6168C19.6498 44.1238 19.5843 44.8232 19.5843 45.715C19.5843 46.6067 19.6498 47.3105 19.781 47.8263C19.9209 48.3334 20.1525 48.6962 20.476 48.9148C20.7995 49.1333 21.241 49.2426 21.8005 49.2426C22.3688 49.2426 22.8452 49.2339 23.2299 49.2164C23.6233 49.1902 24.0036 49.1508 24.3708 49.0984L24.502 50.0819C24.1173 50.1955 23.7195 50.2742 23.3086 50.3179C22.9064 50.3704 22.4037 50.3966 21.8005 50.3966C20.9262 50.3966 20.2225 50.248 19.6892 49.9508C19.1646 49.6448 18.7843 49.1508 18.5483 48.4689C18.3122 47.787 18.1942 46.869 18.1942 45.715C18.1942 44.561 18.3122 43.643 18.5483 42.9611C18.7843 42.2792 19.1646 41.7896 19.6892 41.4923C20.2225 41.1863 20.9262 41.0333 21.8005 41.0333ZM28.5595 43.6823C29.5474 43.6823 30.2599 43.8616 30.697 44.22C31.1429 44.5697 31.3702 45.0899 31.3789 45.7806C31.3789 46.3576 31.2522 46.8034 30.9986 47.1182C30.7451 47.4329 30.3298 47.5903 29.7528 47.5903H26.0416V46.6854H29.425C29.7047 46.6854 29.8883 46.5936 29.9757 46.41C30.0719 46.2264 30.1156 46.0166 30.1069 45.7806C30.1069 45.3871 29.9932 45.1074 29.7659 44.9413C29.5474 44.7752 29.1627 44.6921 28.6119 44.6921C28.166 44.6921 27.8163 44.7577 27.5628 44.8888C27.3093 45.02 27.13 45.2473 27.0251 45.5707C26.9202 45.8942 26.8678 46.3488 26.8678 46.9346C26.8678 47.5903 26.9333 48.093 27.0645 48.4427C27.1956 48.7836 27.4011 49.0197 27.6808 49.1508C27.9693 49.2819 28.3496 49.3475 28.8217 49.3475C29.1627 49.3475 29.5386 49.3344 29.9495 49.3082C30.3692 49.2732 30.7495 49.2339 31.0904 49.1902L31.2084 50.0163C31.0074 50.1037 30.7538 50.1781 30.4478 50.2393C30.1506 50.2917 29.8446 50.3311 29.5299 50.3573C29.2151 50.3835 28.9266 50.3966 28.6644 50.3966C27.9212 50.3966 27.318 50.283 26.8547 50.0557C26.4 49.8284 26.0678 49.4699 25.858 48.9803C25.6569 48.482 25.5564 47.8307 25.5564 47.0264C25.5564 46.1871 25.6613 45.5226 25.8711 45.0331C26.0809 44.5435 26.4044 44.1982 26.8415 43.9971C27.2787 43.7873 27.8513 43.6823 28.5595 43.6823ZM36.7677 43.6823C37.5633 43.6823 38.1315 43.9708 38.4725 44.5479C38.8134 45.1249 38.9839 45.9685 38.9839 47.0788C38.9839 47.9094 38.8965 48.5694 38.7216 49.059C38.5468 49.5399 38.2802 49.8852 37.9217 50.095C37.5633 50.2961 37.113 50.3966 36.571 50.3966C36.1426 50.3966 35.723 50.3398 35.3121 50.2261C34.9012 50.1037 34.5121 49.9202 34.1449 49.6754L34.2236 48.9672C34.6083 49.0809 34.9492 49.1727 35.2465 49.2426C35.5437 49.3125 35.8628 49.3475 36.2038 49.3475C36.5622 49.3475 36.8464 49.2863 37.0562 49.1639C37.2748 49.0415 37.4321 48.8142 37.5283 48.482C37.6245 48.1498 37.6725 47.6821 37.6725 47.0788C37.6725 46.4843 37.6288 46.021 37.5414 45.6888C37.454 45.3478 37.3141 45.1074 37.1218 44.9675C36.9294 44.8189 36.6671 44.7446 36.3349 44.7446C36.0027 44.7446 35.6749 44.8232 35.3514 44.9806C35.0279 45.1292 34.6564 45.3653 34.2367 45.6888L34.0925 44.9019C34.311 44.6571 34.5646 44.4429 34.8531 44.2593C35.1503 44.0758 35.465 43.9359 35.7973 43.8397C36.1295 43.7348 36.453 43.6823 36.7677 43.6823ZM34.04 43.8397L34.1843 45.138L34.2761 45.3085V49.4262L34.2105 49.5836C34.2367 49.8284 34.2542 50.0688 34.2629 50.3048C34.2804 50.5409 34.2848 50.79 34.2761 51.0523V52.8489H33.0171V43.8397H34.04ZM43.4022 43.6823C44.3901 43.6823 45.1026 43.8616 45.5397 44.22C45.9856 44.5697 46.2129 45.0899 46.2216 45.7806C46.2216 46.3576 46.0949 46.8034 45.8413 47.1182C45.5878 47.4329 45.1725 47.5903 44.5955 47.5903H40.8843V46.6854H44.2677C44.5474 46.6854 44.731 46.5936 44.8185 46.41C44.9146 46.2264 44.9583 46.0166 44.9496 45.7806C44.9496 45.3871 44.8359 45.1074 44.6086 44.9413C44.3901 44.7752 44.0054 44.6921 43.4546 44.6921C43.0087 44.6921 42.659 44.7577 42.4055 44.8888C42.152 45.02 41.9728 45.2473 41.8678 45.5707C41.7629 45.8942 41.7105 46.3488 41.7105 46.9346C41.7105 47.5903 41.776 48.093 41.9072 48.4427C42.0383 48.7836 42.2438 49.0197 42.5235 49.1508C42.812 49.2819 43.1923 49.3475 43.6644 49.3475C44.0054 49.3475 44.3813 49.3344 44.7922 49.3082C45.2119 49.2732 45.5922 49.2339 45.9331 49.1902L46.0512 50.0163C45.8501 50.1037 45.5965 50.1781 45.2906 50.2393C44.9933 50.2917 44.6873 50.3311 44.3726 50.3573C44.0579 50.3835 43.7693 50.3966 43.5071 50.3966C42.764 50.3966 42.1607 50.283 41.6974 50.0557C41.2427 49.8284 40.9105 49.4699 40.7007 48.9803C40.4996 48.482 40.3991 47.8307 40.3991 47.0264C40.3991 46.1871 40.504 45.5226 40.7138 45.0331C40.9236 44.5435 41.2471 44.1982 41.6842 43.9971C42.1214 43.7873 42.694 43.6823 43.4022 43.6823ZM53.1185 40.5744L53.3939 41.5448C53.1316 41.7109 52.8824 41.8377 52.6464 41.9251C52.4103 42.0125 52.1787 42.0781 51.9514 42.1218C51.7328 42.1568 51.5099 42.1917 51.2826 42.2267C51.0552 42.2617 50.8192 42.3141 50.5744 42.3841C50.1548 42.4977 49.8225 42.6595 49.5778 42.8693C49.3417 43.0791 49.1669 43.3152 49.0532 43.5774C48.9483 43.8397 48.8696 44.1107 48.8172 44.3905C48.7822 44.5916 48.7516 44.7752 48.7254 44.9413C48.7079 45.0986 48.6948 45.2298 48.686 45.3347H48.7122C48.7909 45.1773 48.8871 45.02 49.0007 44.8626C49.1144 44.7052 49.2586 44.5653 49.4335 44.4429C49.6171 44.3205 49.8444 44.2244 50.1154 44.1544C50.3952 44.0758 50.7361 44.0364 51.1383 44.0364C51.7765 44.0364 52.2836 44.1413 52.6595 44.3511C53.0354 44.561 53.3065 44.8932 53.4726 45.3478C53.6387 45.7937 53.7217 46.3838 53.7217 47.1182C53.7217 47.8001 53.6387 48.3858 53.4726 48.8754C53.3065 49.365 53.0048 49.7409 52.5677 50.0032C52.1393 50.2655 51.5317 50.3966 50.7449 50.3966C50.1766 50.3966 49.7045 50.3311 49.3286 50.1999C48.9614 50.0688 48.6685 49.8852 48.45 49.6491C48.2401 49.4043 48.0828 49.1158 47.9779 48.7836C47.8817 48.4514 47.8161 48.0798 47.7812 47.6689C47.7549 47.258 47.7418 46.8209 47.7418 46.3576C47.7418 45.6756 47.768 45.0637 47.8205 44.5216C47.8817 43.9796 47.991 43.5075 48.1483 43.1053C48.3145 42.7032 48.5592 42.3622 48.8827 42.0825C49.2062 41.8027 49.6302 41.5841 50.1548 41.4268C50.417 41.3481 50.6662 41.2869 50.9022 41.2432C51.147 41.1995 51.3875 41.1557 51.6235 41.112C51.8683 41.0683 52.1131 41.0071 52.3579 40.9284C52.6027 40.8498 52.8562 40.7317 53.1185 40.5744ZM50.8105 45.0462C50.3121 45.0462 49.9362 45.1249 49.6827 45.2822C49.4291 45.4396 49.2586 45.6713 49.1712 45.9773C49.0925 46.2745 49.0532 46.6548 49.0532 47.1182C49.0532 47.6864 49.1057 48.1367 49.2106 48.4689C49.3155 48.8011 49.4903 49.0328 49.7351 49.1639C49.9887 49.2951 50.3209 49.3606 50.7318 49.3606C51.1427 49.3606 51.4661 49.2951 51.7022 49.1639C51.947 49.0328 52.1218 48.8055 52.2267 48.482C52.3317 48.1498 52.3841 47.6952 52.3841 47.1182C52.3841 46.5761 52.336 46.1565 52.2399 45.8592C52.1524 45.5532 51.9951 45.3434 51.7678 45.2298C51.5405 45.1074 51.2214 45.0462 50.8105 45.0462ZM59.1918 43.6823C59.9874 43.6823 60.5557 43.9708 60.8966 44.5479C61.2376 45.1249 61.4081 45.9685 61.4081 47.0788C61.4081 47.9094 61.3206 48.5694 61.1458 49.059C60.9709 49.5399 60.7043 49.8852 60.3459 50.095C59.9874 50.2961 59.5372 50.3966 58.9951 50.3966C58.5667 50.3966 58.1471 50.3398 57.7362 50.2261C57.3253 50.1037 56.9363 49.9202 56.5691 49.6754L56.6477 48.9672C57.0324 49.0809 57.3734 49.1727 57.6706 49.2426C57.9679 49.3125 58.287 49.3475 58.6279 49.3475C58.9864 49.3475 59.2705 49.2863 59.4803 49.1639C59.6989 49.0415 59.8563 48.8142 59.9524 48.482C60.0486 48.1498 60.0967 47.6821 60.0967 47.0788C60.0967 46.4843 60.053 46.021 59.9655 45.6888C59.8781 45.3478 59.7382 45.1074 59.5459 44.9675C59.3536 44.8189 59.0913 44.7446 58.7591 44.7446C58.4269 44.7446 58.099 44.8232 57.7755 44.9806C57.4521 45.1292 57.0805 45.3653 56.6609 45.6888L56.5166 44.9019C56.7352 44.6571 56.9887 44.4429 57.2772 44.2593C57.5745 44.0758 57.8892 43.9359 58.2214 43.8397C58.5536 43.7348 58.8771 43.6823 59.1918 43.6823ZM56.4642 43.8397L56.6084 45.138L56.7002 45.3085V49.4262L56.6346 49.5836C56.6609 49.8284 56.6783 50.0688 56.6871 50.3048C56.7046 50.5409 56.7089 50.79 56.7002 51.0523V52.8489H55.4413V43.8397H56.4642ZM65.4329 43.761C65.9225 43.761 66.329 43.7654 66.6525 43.7741C66.976 43.7741 67.2645 43.7829 67.518 43.8004C67.7715 43.8091 68.0338 43.8266 68.3048 43.8528L68.1475 44.797C68.06 44.7795 67.7715 44.7664 67.2819 44.7577C66.8011 44.7489 66.1935 44.7446 65.4591 44.7446C64.9521 44.7446 64.6155 44.832 64.4494 45.0068C64.292 45.1729 64.2133 45.4483 64.2133 45.833C64.2133 46.2527 64.2964 46.5543 64.4625 46.7379C64.6373 46.9127 64.9826 47.0001 65.4985 47.0001H68.1606L68.1868 47.8919C68.0819 47.8919 67.9158 47.8963 67.6885 47.905C67.4612 47.905 67.1639 47.905 66.7967 47.905C66.4295 47.905 65.9837 47.905 65.4591 47.905C65.1619 47.905 64.9258 47.9575 64.751 48.0624C64.5761 48.1673 64.4581 48.3246 64.3969 48.5345L63.9248 50.2393H62.6134L63.1904 48.3115C63.2516 48.1279 63.3478 47.9793 63.4789 47.8657C63.6188 47.752 63.7718 47.6689 63.9379 47.6165C64.1128 47.564 64.2789 47.5291 64.4362 47.5116V47.4591C64.0865 47.3979 63.8024 47.293 63.5838 47.1444C63.374 46.987 63.221 46.7859 63.1249 46.5412C63.0287 46.2964 62.9806 46.0079 62.9806 45.6756C62.9806 45.3609 63.0156 45.0855 63.0855 44.8495C63.1642 44.6047 63.2953 44.4036 63.4789 44.2462C63.6713 44.0801 63.9248 43.9577 64.2395 43.879C64.563 43.8004 64.9608 43.761 65.4329 43.761ZM68.3048 43.8528V50.2393H67.0721V43.8528H68.3048ZM71.5423 43.8397V50.2393H70.2965V43.8397H71.5423ZM74.8601 46.3707V47.3149H71.4636V46.3707H74.8601ZM75.9879 43.8397V50.2393H74.7421V43.8397H75.9879ZM80.7605 43.6823C81.5124 43.6823 82.1112 43.7916 82.5571 44.0102C83.003 44.2288 83.3264 44.5872 83.5275 45.0855C83.7286 45.5751 83.8291 46.2264 83.8291 47.0395C83.8291 47.8613 83.7286 48.5213 83.5275 49.0197C83.3264 49.5093 83.003 49.8633 82.5571 50.0819C82.1112 50.3005 81.5124 50.4097 80.7605 50.4097C80.0086 50.4097 79.4054 50.3005 78.9508 50.0819C78.5049 49.8633 78.1814 49.5093 77.9804 49.0197C77.7793 48.5213 77.6788 47.8613 77.6788 47.0395C77.6788 46.2264 77.7793 45.5751 77.9804 45.0855C78.1814 44.5872 78.5049 44.2288 78.9508 44.0102C79.4054 43.7916 80.0086 43.6823 80.7605 43.6823ZM80.7605 44.7052C80.3234 44.7052 79.9737 44.7752 79.7114 44.915C79.4579 45.0549 79.2743 45.2953 79.1606 45.6363C79.0557 45.9685 79.0032 46.4362 79.0032 47.0395C79.0032 47.6427 79.0557 48.1148 79.1606 48.4558C79.2743 48.7967 79.4579 49.0372 79.7114 49.177C79.9737 49.3082 80.3234 49.3737 80.7605 49.3737C81.1976 49.3737 81.543 49.3082 81.7965 49.177C82.05 49.0372 82.2293 48.7967 82.3342 48.4558C82.4391 48.1148 82.4915 47.6427 82.4915 47.0395C82.4915 46.4362 82.4391 45.9685 82.3342 45.6363C82.2293 45.2953 82.05 45.0549 81.7965 44.915C81.543 44.7752 81.1976 44.7052 80.7605 44.7052ZM92.3253 46.4625V47.3804H88.3387V46.4625H92.3253ZM24.0299 59.8397V66.2393H22.784V59.8397H24.0299ZM19.6629 59.8397V66.2393H18.4302V59.8397H19.6629ZM22.9021 59.8397L22.8889 60.8232H19.5974V59.8397H22.9021ZM29.7882 59.6823C30.5837 59.6823 31.152 59.9708 31.493 60.5479C31.8339 61.1249 32.0044 61.9685 32.0044 63.0788C32.0044 63.9094 31.917 64.5694 31.7421 65.059C31.5673 65.5399 31.3006 65.8852 30.9422 66.095C30.5837 66.2961 30.1335 66.3966 29.5915 66.3966C29.1631 66.3966 28.7434 66.3398 28.3325 66.2261C27.9216 66.1037 27.5326 65.9202 27.1654 65.6754L27.2441 64.9672C27.6287 65.0809 27.9697 65.1727 28.267 65.2426C28.5642 65.3125 28.8833 65.3475 29.2243 65.3475C29.5827 65.3475 29.8668 65.2863 30.0767 65.1639C30.2952 65.0415 30.4526 64.8142 30.5488 64.482C30.6449 64.1498 30.693 63.6821 30.693 63.0788C30.693 62.4843 30.6493 62.021 30.5619 61.6888C30.4744 61.3478 30.3346 61.1074 30.1422 60.9675C29.9499 60.8189 29.6876 60.7446 29.3554 60.7446C29.0232 60.7446 28.6953 60.8232 28.3719 60.9806C28.0484 61.1292 27.6768 61.3653 27.2572 61.6888L27.1129 60.9019C27.3315 60.6571 27.585 60.4429 27.8735 60.2593C28.1708 60.0758 28.4855 59.9359 28.8177 59.8397C29.15 59.7348 29.4734 59.6823 29.7882 59.6823ZM27.0605 59.8397L27.2047 61.138L27.2965 61.3085V65.4262L27.231 65.5836C27.2572 65.8284 27.2747 66.0688 27.2834 66.3048C27.3009 66.5409 27.3053 66.79 27.2965 67.0523V68.8489H26.0376V59.8397H27.0605ZM39.4669 59.8397L36.9621 66.5409C36.8835 66.7682 36.7829 66.9999 36.6605 67.2359C36.5381 67.4807 36.3895 67.7124 36.2147 67.9309C36.0485 68.1495 35.8518 68.3375 35.6245 68.4948C35.2923 68.7221 34.9208 68.8577 34.5099 68.9014C34.1077 68.9451 33.6793 68.9363 33.2247 68.8751L33.3296 68.0096C33.6269 68.0184 33.911 68.0053 34.182 67.9703C34.453 67.9353 34.6934 67.8523 34.9033 67.7211C35.0869 67.59 35.253 67.4108 35.4016 67.1835C35.5502 66.9649 35.677 66.7245 35.7819 66.4622L36.1097 65.6885C36.1797 65.5049 36.2496 65.3038 36.3196 65.0852C36.3895 64.8579 36.4551 64.6612 36.5163 64.4951L38.103 59.8397H39.4669ZM34.2345 59.8397L35.8475 64.4951C35.8912 64.6263 35.9305 64.7618 35.9655 64.9016C36.0005 65.0328 36.0354 65.1683 36.0704 65.3082H36.3851L35.9524 66.2393H35.6114C35.4978 66.2393 35.4016 66.213 35.3229 66.1606C35.253 66.0994 35.1961 66.0163 35.1524 65.9114L32.8837 59.8397H34.2345ZM45.4605 59.8397V60.7839H43.1263C42.6542 60.7839 42.3963 61.0331 42.3525 61.5314C42.3001 62.1783 42.2127 62.7772 42.0903 63.328C41.9766 63.87 41.8149 64.3815 41.6051 64.8623C41.404 65.3344 41.1286 65.7934 40.7789 66.2393H39.7429C40.0838 65.7234 40.3505 65.1989 40.5428 64.6656C40.7352 64.1236 40.8838 63.5728 40.9887 63.0133C41.1024 62.4537 41.1767 61.8898 41.2116 61.3216C41.2554 60.8232 41.4127 60.4517 41.6837 60.2069C41.9548 59.9621 42.3482 59.8397 42.864 59.8397H45.4605ZM40.4773 66.1737L40.3592 68.1145H39.5331V66.1737H40.4773ZM46.5227 65.2688V66.2393H39.5331V65.2688H46.5227ZM46.5227 66.1737V68.1145H45.6835L45.5654 66.1737H46.5227ZM45.6179 59.8397V66.2393H44.4114V59.8397H45.6179ZM50.7037 59.6823C50.9048 59.6823 51.1277 59.6911 51.3725 59.7086C51.6173 59.7261 51.8665 59.7567 52.12 59.8004C52.3735 59.8441 52.6096 59.9096 52.8281 59.9971L52.6708 60.8101C52.3648 60.7839 52.0501 60.7664 51.7266 60.7577C51.4118 60.7402 51.1408 60.7314 50.9135 60.7314C50.4327 60.7314 50.048 60.8014 49.7595 60.9413C49.471 61.0724 49.2612 61.3041 49.13 61.6363C49.0076 61.9685 48.9464 62.4319 48.9464 63.0264C48.9464 63.6209 49.0076 64.0886 49.13 64.4295C49.2612 64.7705 49.471 65.0066 49.7595 65.1377C50.048 65.2688 50.4327 65.3344 50.9135 65.3344C51.0447 65.3344 51.2151 65.33 51.425 65.3213C51.6435 65.3125 51.8752 65.2994 52.12 65.2819C52.3648 65.2645 52.5965 65.2382 52.815 65.2033L52.9331 66.0426C52.6183 66.1649 52.2642 66.2524 51.8708 66.3048C51.4774 66.366 51.084 66.3966 50.6906 66.3966C49.9475 66.3966 49.3486 66.2873 48.894 66.0688C48.4481 65.8502 48.1246 65.4961 47.9236 65.0066C47.7225 64.517 47.6219 63.8569 47.6219 63.0264C47.6219 62.2046 47.7225 61.5489 47.9236 61.0593C48.1246 60.5697 48.4481 60.22 48.894 60.0102C49.3486 59.7916 49.9518 59.6823 50.7037 59.6823ZM59.9243 59.8397C59.7756 60.2331 59.6401 60.5872 59.5177 60.9019C59.3953 61.2167 59.2729 61.492 59.1505 61.7281C59.0281 61.9641 58.8883 62.1609 58.7309 62.3182C58.5823 62.4756 58.4074 62.6024 58.2063 62.6985C58.014 62.7947 57.778 62.8559 57.4982 62.8821V62.9346C57.7954 62.9608 58.0446 63.0176 58.2457 63.1051C58.4555 63.1925 58.6391 63.3192 58.7965 63.4854C58.9626 63.6515 59.1112 63.8613 59.2423 64.1148C59.3735 64.3596 59.509 64.6612 59.6489 65.0197C59.7888 65.3694 59.9417 65.7759 60.1079 66.2393H58.7834C58.626 65.8109 58.4817 65.4393 58.3506 65.1246C58.2282 64.8011 58.1058 64.5301 57.9834 64.3115C57.861 64.0842 57.7299 63.905 57.59 63.7739C57.4501 63.634 57.284 63.5378 57.0917 63.4854C56.9081 63.4242 56.6895 63.3936 56.436 63.3936V62.4362C56.742 62.4362 56.9999 62.3838 57.2097 62.2789C57.4195 62.1652 57.5987 61.9991 57.7474 61.7806C57.9047 61.562 58.049 61.2953 58.1801 60.9806C58.3113 60.6571 58.4555 60.2768 58.6129 59.8397H59.9243ZM55.6885 59.8397V61.6888C55.6885 61.8898 55.671 62.0953 55.636 62.3051C55.6098 62.5062 55.5661 62.6985 55.5049 62.8821C55.5574 63.0745 55.6011 63.2668 55.636 63.4591C55.671 63.6515 55.6885 63.8307 55.6885 63.9968V66.2393H54.4165V59.8397H55.6885ZM56.8687 62.4362V63.3936H55.3213V62.4362H56.8687ZM67.2551 59.8397V66.2393H66.1142V62.1609C66.1142 62.0122 66.1186 61.868 66.1273 61.7281C66.1361 61.5882 66.1492 61.4352 66.1667 61.2691H66.1273C66.0749 61.4003 66.0049 61.5401 65.9175 61.6888C65.8388 61.8286 65.7601 61.951 65.6814 62.0559L62.5735 66.2393H61.5112V59.8397H62.6521V63.9312C62.6521 64.0711 62.6478 64.211 62.639 64.3509C62.639 64.4907 62.6303 64.6437 62.6128 64.8098H62.639C62.709 64.67 62.7833 64.5345 62.862 64.4033C62.9406 64.2634 63.0193 64.1454 63.098 64.0492L66.206 59.8397H67.2551ZM75.003 59.8397V66.2393H73.8621V62.1609C73.8621 62.0122 73.8665 61.868 73.8752 61.7281C73.884 61.5882 73.8971 61.4352 73.9146 61.2691H73.8752C73.8228 61.4003 73.7528 61.5401 73.6654 61.6888C73.5867 61.8286 73.508 61.951 73.4294 62.0559L70.3214 66.2393H69.2592V59.8397H70.4001V63.9312C70.4001 64.0711 70.3957 64.211 70.3869 64.3509C70.3869 64.4907 70.3782 64.6437 70.3607 64.8098H70.3869C70.4569 64.67 70.5312 64.5345 70.6099 64.4033C70.6886 64.2634 70.7673 64.1454 70.8459 64.0492L73.9539 59.8397H75.003ZM73.1802 56.994H74.0982C74.1331 57.3437 74.0719 57.6584 73.9146 57.9382C73.7572 58.2092 73.5255 58.4322 73.2195 58.607C72.9135 58.7731 72.5464 58.8562 72.118 58.8562C71.6808 58.8562 71.3049 58.7731 70.9902 58.607C70.6842 58.4322 70.4525 58.2092 70.2952 57.9382C70.1378 57.6584 70.0722 57.3437 70.0984 56.994H71.0295C71.0208 57.3787 71.1126 57.6716 71.3049 57.8726C71.4973 58.065 71.7683 58.1611 72.118 58.1611C72.4589 58.1611 72.7212 58.065 72.9048 57.8726C73.0884 57.6716 73.1802 57.3787 73.1802 56.994Z" fill="white"/>
</svg>
