<svg width="138" height="128" viewBox="0 0 138 128" fill="none" xmlns="http://www.w3.org/2000/svg">
<path d="M137.099 62.1074V64.9063C137.099 66.6921 136.573 68.431 135.701 69.9892C134.292 72.5065 132.728 75.7787 132.728 77.6031C132.728 78.3732 133.007 79.3616 133.435 80.421C134.616 83.3452 132.759 86.9427 129.605 86.9427H125.234C123.164 86.9427 121.487 88.6197 121.487 90.689V100.018C121.487 102.067 120.117 103.453 118.786 104.255C117.784 104.86 116.545 104.659 115.541 104.058C114.552 103.466 113.364 103.302 112.252 103.605L108.653 104.583C107.64 104.859 106.681 105.302 105.815 105.896L100.605 109.467C98.3952 110.982 95.6429 111.478 93.0435 110.83L88.254 109.636C87.513 109.451 86.7522 109.358 85.9886 109.358H85.2478C83.6218 109.358 82.0334 109.809 80.5244 110.415C78.7217 111.138 76.3103 111.848 74.0236 111.848C73.5041 111.848 73.0701 111.885 72.7096 111.95C72.4119 112.004 69.313 112.133 69.0988 111.919C69.0531 111.874 68.9913 111.848 68.9268 111.848H63.1547C62.2592 111.848 61.5333 112.574 61.5333 113.47C61.5333 114.013 61.2572 114.515 60.8438 114.867C59.4238 116.076 57.1785 118.648 55.9127 122.433C54.0389 128.037 54.0391 124.924 51.5413 124.924C50.4303 124.924 49.0102 125.437 47.7534 126.036C46.272 126.741 44.4609 126.582 43.2988 125.423C42.9683 125.094 42.5744 124.835 42.1408 124.662L39.7066 123.691C37.7064 122.893 36.1589 121.255 35.4761 119.213C34.9597 117.668 33.9426 116.34 32.5861 115.438L31.9674 115.027C31.2802 114.57 30.6564 114.025 30.1122 113.405L27.1801 110.064C26.7682 109.594 26.4043 109.085 26.0938 108.543L24.4258 105.633C24.184 105.211 23.9092 104.809 23.6078 104.428C22.6615 103.23 21.1609 101.282 20.3156 100.018C19.9396 99.4558 19.4338 98.8758 18.9048 98.3379C17.487 96.8963 15.4757 96.2823 13.4537 96.2823H12.5739C10.7182 96.2823 8.92356 95.6199 7.51287 94.4144L6.1736 93.2699C5.62726 92.803 4.9322 92.5465 4.21354 92.5465C2.99673 92.5465 1.88315 91.82 1.53752 90.6533C0.727423 87.9188 0.228305 84.1604 2.2045 82.5842C4.9275 80.4123 9.83205 80.772 12.791 78.9345C13.6718 78.3876 14.5455 77.9117 15.3193 77.6031C17.8378 76.5987 15.4013 72.7208 14.1519 70.3143C13.6859 69.4167 13.0508 68.4924 12.1967 67.6408C10.6953 66.1439 10.6227 64.422 11.0298 63.016C11.4466 61.5761 11.6243 59.9357 10.7911 58.6897C10.1158 57.6798 10.0351 56.385 10.5797 55.2991L11.2099 54.0426C11.8456 52.775 12.9243 51.7846 14.2415 51.2593L14.4472 51.1773C15.0254 50.9467 15.5666 50.6322 16.0533 50.2441L17.1365 49.3801C17.9614 48.7221 18.4419 47.7244 18.4419 46.6692C18.4419 46.1294 18.3159 45.5971 18.0739 45.1147L17.7063 44.3817C16.9715 42.9165 15.7412 41.7591 14.2339 41.115L13.1264 40.6418C12.5084 40.3778 11.9206 40.048 11.3732 39.6581L10.0623 38.7245C8.60159 37.6843 7.47019 36.2467 6.80247 34.5824L6.00064 32.5838C5.5557 31.4748 5.32707 30.2909 5.32707 29.096V25.9238V20.9427V12.2257C5.32707 10.7151 6.22819 9.3501 7.61732 8.75654L8.19046 8.51164C9.16724 8.09428 10.2563 8.01884 11.2813 8.29755L15.8818 9.54845C16.3388 9.67273 16.7866 9.82705 17.2101 10.0391C19.2593 11.065 22.7173 13.2792 24.0625 15.9616C25.3147 18.4584 28.1069 17.6525 29.9631 16.5935C30.6162 16.2209 31.3384 15.9616 32.0902 15.9616C33.6271 15.9616 34.9868 14.9553 35.3888 13.4718C35.9612 11.3591 36.5528 8.89559 36.5528 7.86721V5.10308C36.5528 3.6451 36.7999 2.09537 37.9083 1.14807C38.4124 0.71714 39.0156 0.395508 39.6753 0.395508H39.9518C41.7744 0.395508 43.5227 1.11813 44.8134 2.40497C45.1343 2.72492 45.486 3.01242 45.8634 3.26327L49.043 5.37664L53.3006 9.09082C53.7916 9.51919 54.2366 9.99764 54.6283 10.5184L54.9483 10.9437C55.5866 11.7922 56.3645 12.526 57.2487 13.1137L60.1973 15.0735C61.0815 15.6613 61.8594 16.3951 62.4977 17.2435L65.2804 20.9427L68.2775 24.9269C68.7643 25.5739 69.0275 26.3617 69.0275 27.1713C69.0275 29.2334 70.6991 30.905 72.7611 30.905H73.1747C73.7348 30.905 74.2891 31.0184 74.8042 31.2385L75.0406 31.3395C77.0676 32.2056 79.4175 31.7536 80.9785 30.1973L81.3643 29.8126C82.2624 28.9172 83.4789 28.4144 84.7471 28.4144H85.1083C86.3865 28.4144 87.5903 29.0152 88.3587 30.0367C88.7867 30.6056 89.3564 31.0522 90.011 31.3319L91.3808 31.9172C92.6984 32.4801 93.8692 33.3378 94.8033 34.4243L97.1306 37.1314C98.796 38.7917 102.252 42.1125 102.751 42.1125C102.874 42.1125 103.126 42.2636 103.454 42.5099C105.564 44.0926 108.553 44.0154 110.175 41.9358C111.008 40.8685 112.286 40.2446 113.639 40.2446H117.115H125.234C126.733 40.2446 128.773 41.4899 129.605 42.1125L130.844 43.0386C133.209 44.807 134.601 47.5872 134.601 50.5403V50.7591C134.601 51.6319 134.723 52.5005 134.964 53.3396L136.737 59.527C136.977 60.366 137.099 61.2346 137.099 62.1074Z" fill="#5C5C5C" fill-opacity="0.9"/>
<path d="M34.4972 61.0042V62.0402H31.6777C31.1007 62.0402 30.786 62.3331 30.7335 62.9188C30.6723 63.6532 30.6155 64.2958 30.5631 64.8465C30.5106 65.3886 30.4494 65.8694 30.3795 66.2891C30.3183 66.7 30.244 67.0672 30.1565 67.3906C30.0778 67.7054 29.9642 68.0113 29.8156 68.3086C29.6495 68.6933 29.4484 69.0211 29.2123 69.2921C28.985 69.5632 28.7184 69.7642 28.4124 69.8954C28.1151 70.0178 27.7786 70.0746 27.4026 70.0658L27.2977 69.0561C27.5775 68.9774 27.8223 68.8594 28.0321 68.702C28.2507 68.5359 28.4386 68.2867 28.596 67.9545C28.6921 67.7272 28.7752 67.5043 28.8451 67.2857C28.9151 67.0584 28.9763 66.8092 29.0287 66.5382C29.0899 66.2672 29.1424 65.9525 29.1861 65.594C29.2386 65.2356 29.2823 64.8247 29.3172 64.3613C29.361 63.8892 29.409 63.3385 29.4615 62.709C29.5664 61.5725 30.1828 61.0042 31.3105 61.0042H34.4972ZM34.6808 61.0042V70.0527H33.3694V61.0042H34.6808ZM39.5752 63.4958C40.3271 63.4958 40.926 63.6051 41.3718 63.8237C41.8177 64.0422 42.1412 64.4007 42.3423 64.899C42.5433 65.3886 42.6439 66.0399 42.6439 66.853C42.6439 67.6748 42.5433 68.3348 42.3423 68.8331C42.1412 69.3227 41.8177 69.6768 41.3718 69.8954C40.926 70.1139 40.3271 70.2232 39.5752 70.2232C38.8234 70.2232 38.2201 70.1139 37.7655 69.8954C37.3197 69.6768 36.9962 69.3227 36.7951 68.8331C36.594 68.3348 36.4935 67.6748 36.4935 66.853C36.4935 66.0399 36.594 65.3886 36.7951 64.899C36.9962 64.4007 37.3197 64.0422 37.7655 63.8237C38.2201 63.6051 38.8234 63.4958 39.5752 63.4958ZM39.5752 64.5187C39.1381 64.5187 38.7884 64.5886 38.5261 64.7285C38.2726 64.8684 38.089 65.1088 37.9753 65.4498C37.8704 65.782 37.818 66.2497 37.818 66.853C37.818 67.4562 37.8704 67.9283 37.9753 68.2693C38.089 68.6102 38.2726 68.8506 38.5261 68.9905C38.7884 69.1217 39.1381 69.1872 39.5752 69.1872C40.0124 69.1872 40.3577 69.1217 40.6112 68.9905C40.8648 68.8506 41.044 68.6102 41.1489 68.2693C41.2538 67.9283 41.3063 67.4562 41.3063 66.853C41.3063 66.2497 41.2538 65.782 41.1489 65.4498C41.044 65.1088 40.8648 64.8684 40.6112 64.7285C40.3577 64.5886 40.0124 64.5187 39.5752 64.5187ZM47.1335 63.6532V70.0527H45.8615V63.6532H47.1335ZM49.4153 63.6532V64.6761H43.5797V63.6532H49.4153ZM53.419 63.4958C54.1709 63.4958 54.7698 63.6051 55.2156 63.8237C55.6615 64.0422 55.985 64.4007 56.1861 64.899C56.3871 65.3886 56.4877 66.0399 56.4877 66.853C56.4877 67.6748 56.3871 68.3348 56.1861 68.8331C55.985 69.3227 55.6615 69.6768 55.2156 69.8954C54.7698 70.1139 54.1709 70.2232 53.419 70.2232C52.6672 70.2232 52.0639 70.1139 51.6093 69.8954C51.1635 69.6768 50.84 69.3227 50.6389 68.8331C50.4378 68.3348 50.3373 67.6748 50.3373 66.853C50.3373 66.0399 50.4378 65.3886 50.6389 64.899C50.84 64.4007 51.1635 64.0422 51.6093 63.8237C52.0639 63.6051 52.6672 63.4958 53.419 63.4958ZM53.419 64.5187C52.9819 64.5187 52.6322 64.5886 52.3699 64.7285C52.1164 64.8684 51.9328 65.1088 51.8191 65.4498C51.7142 65.782 51.6618 66.2497 51.6618 66.853C51.6618 67.4562 51.7142 67.9283 51.8191 68.2693C51.9328 68.6102 52.1164 68.8506 52.3699 68.9905C52.6322 69.1217 52.9819 69.1872 53.419 69.1872C53.8562 69.1872 54.2015 69.1217 54.455 68.9905C54.7086 68.8506 54.8878 68.6102 54.9927 68.2693C55.0976 67.9283 55.1501 67.4562 55.1501 66.853C55.1501 66.2497 55.0976 65.782 54.9927 65.4498C54.8878 65.1088 54.7086 64.8684 54.455 64.7285C54.2015 64.5886 53.8562 64.5187 53.419 64.5187ZM59.4146 63.6532V70.0527H58.1819V63.6532H59.4146ZM65.9322 69.0823V70.0527H59.3228V69.0823H65.9322ZM63.0734 63.6532V70.0527H61.9325V63.6532H63.0734ZM66.8239 63.6532V70.0527H65.6043V63.6532H66.8239ZM74.568 63.6532V70.0527H73.4271V65.9743C73.4271 65.8257 73.4314 65.6815 73.4402 65.5416C73.4489 65.4017 73.462 65.2487 73.4795 65.0826H73.4402C73.3877 65.2137 73.3178 65.3536 73.2303 65.5022C73.1517 65.6421 73.073 65.7645 72.9943 65.8694L69.8863 70.0527H68.8241V63.6532H69.965V67.7447C69.965 67.8846 69.9606 68.0245 69.9519 68.1643C69.9519 68.3042 69.9431 68.4572 69.9257 68.6233H69.9519C70.0218 68.4834 70.0961 68.3479 70.1748 68.2168C70.2535 68.0769 70.3322 67.9589 70.4109 67.8627L73.5189 63.6532H74.568ZM77.8178 63.6532V70.0527H76.572V63.6532H77.8178ZM81.1356 66.1842V67.1283H77.7392V66.1842H81.1356ZM82.2634 63.6532V70.0527H81.0176V63.6532H82.2634ZM87.036 63.4958C87.2371 63.4958 87.4601 63.5046 87.7048 63.522C87.9496 63.5395 88.1988 63.5701 88.4523 63.6138C88.7059 63.6576 88.9419 63.7231 89.1605 63.8105L89.0031 64.6236C88.6971 64.5974 88.3824 64.5799 88.0589 64.5712C87.7442 64.5537 87.4732 64.5449 87.2459 64.5449C86.765 64.5449 86.3804 64.6149 86.0918 64.7547C85.8033 64.8859 85.5935 65.1176 85.4624 65.4498C85.34 65.782 85.2788 66.2454 85.2788 66.8398C85.2788 67.4343 85.34 67.9021 85.4624 68.243C85.5935 68.584 85.8033 68.82 86.0918 68.9512C86.3804 69.0823 86.765 69.1479 87.2459 69.1479C87.377 69.1479 87.5475 69.1435 87.7573 69.1348C87.9759 69.126 88.2075 69.1129 88.4523 69.0954C88.6971 69.0779 88.9288 69.0517 89.1474 69.0167L89.2654 69.856C88.9507 69.9784 88.5966 70.0658 88.2032 70.1183C87.8098 70.1795 87.4163 70.2101 87.0229 70.2101C86.2798 70.2101 85.6809 70.1008 85.2263 69.8823C84.7805 69.6637 84.457 69.3096 84.2559 68.82C84.0548 68.3305 83.9543 67.6704 83.9543 66.8398C83.9543 66.018 84.0548 65.3624 84.2559 64.8728C84.457 64.3832 84.7805 64.0335 85.2263 63.8237C85.6809 63.6051 86.2842 63.4958 87.036 63.4958ZM96.2566 63.6532C96.108 64.0466 95.9725 64.4007 95.8501 64.7154C95.7277 65.0301 95.6053 65.3055 95.4829 65.5416C95.3605 65.7776 95.2206 65.9743 95.0632 66.1317C94.9146 66.2891 94.7398 66.4158 94.5387 66.512C94.3464 66.6082 94.1103 66.6694 93.8305 66.6956V66.748C94.1278 66.7743 94.377 66.8311 94.578 66.9185C94.7879 67.006 94.9715 67.1327 95.1288 67.2988C95.2949 67.4649 95.4435 67.6748 95.5747 67.9283C95.7058 68.1731 95.8413 68.4747 95.9812 68.8331C96.1211 69.1828 96.2741 69.5894 96.4402 70.0527H95.1157C94.9583 69.6243 94.8141 69.2528 94.6829 68.9381C94.5606 68.6146 94.4382 68.3436 94.3158 68.125C94.1934 67.8977 94.0622 67.7185 93.9223 67.5873C93.7825 67.4475 93.6164 67.3513 93.424 67.2988C93.2404 67.2376 93.0219 67.207 92.7683 67.207V66.2497C93.0743 66.2497 93.3322 66.1973 93.542 66.0924C93.7519 65.9787 93.9311 65.8126 94.0797 65.594C94.2371 65.3755 94.3813 65.1088 94.5125 64.7941C94.6436 64.4706 94.7879 64.0903 94.9452 63.6532H96.2566ZM92.0208 63.6532V65.5022C92.0208 65.7033 92.0034 65.9088 91.9684 66.1186C91.9422 66.3197 91.8984 66.512 91.8372 66.6956C91.8897 66.8879 91.9334 67.0803 91.9684 67.2726C92.0034 67.4649 92.0208 67.6442 92.0208 67.8103V70.0527H90.7488V63.6532H92.0208ZM93.2011 66.2497V67.207H91.6536V66.2497H93.2011ZM103.587 63.6532V70.0527H102.447V65.9743C102.447 65.8257 102.451 65.6815 102.46 65.5416C102.468 65.4017 102.482 65.2487 102.499 65.0826H102.46C102.407 65.2137 102.337 65.3536 102.25 65.5022C102.171 65.6421 102.092 65.7645 102.014 65.8694L98.9058 70.0527H97.8436V63.6532H98.9845V67.7447C98.9845 67.8846 98.9801 68.0245 98.9714 68.1643C98.9714 68.3042 98.9626 68.4572 98.9451 68.6233H98.9714C99.0413 68.4834 99.1156 68.3479 99.1943 68.2168C99.273 68.0769 99.3517 67.9589 99.4304 67.8627L102.538 63.6532H103.587ZM111.335 63.6532V70.0527H110.194V65.9743C110.194 65.8257 110.199 65.6815 110.208 65.5416C110.216 65.4017 110.229 65.2487 110.247 65.0826H110.208C110.155 65.2137 110.085 65.3536 109.998 65.5022C109.919 65.6421 109.84 65.7645 109.762 65.8694L106.654 70.0527H105.592V63.6532H106.732V67.7447C106.732 67.8846 106.728 68.0245 106.719 68.1643C106.719 68.3042 106.711 68.4572 106.693 68.6233H106.719C106.789 68.4834 106.864 68.3479 106.942 68.2168C107.021 68.0769 107.1 67.9589 107.178 67.8627L110.286 63.6532H111.335ZM109.513 60.8075H110.431C110.465 61.1572 110.404 61.4719 110.247 61.7517C110.09 62.0227 109.858 62.2456 109.552 62.4205C109.246 62.5866 108.879 62.6696 108.45 62.6696C108.013 62.6696 107.637 62.5866 107.323 62.4205C107.017 62.2456 106.785 62.0227 106.627 61.7517C106.47 61.4719 106.405 61.1572 106.431 60.8075H107.362C107.353 61.1922 107.445 61.485 107.637 61.6861C107.83 61.8784 108.101 61.9746 108.45 61.9746C108.791 61.9746 109.054 61.8784 109.237 61.6861C109.421 61.485 109.513 61.1922 109.513 60.8075Z" fill="white"/>
</svg>
