<svg
  width="189"
  height="168"
  viewBox="0 0 189 168"
  fill="#5c5c5c"
  xmlns="http://www.w3.org/2000/svg"
>
<path
    d="M132.707 10.9623L125.149 2.35032C124.396 1.49206 123.309 1 122.167 1C120.601 1 119.212 1.95449 118.244 3.18621C116.915 4.87823 114.814 6.60378 112.098 6.60378C110.406 6.60378 109.176 8.43316 108.334 9.90147L108.133 10.2537C107.869 10.7135 107.463 11.0749 106.975 11.2832L104.221 12.4603C103.645 12.7063 103.095 13.0093 102.58 13.365L97.6383 16.7759C96.074 17.8557 94.2181 18.434 92.3173 18.434H92.1136H88.3609C87.3292 18.434 86.4929 19.2703 86.4929 20.3019V20.7343C86.4929 22.4776 85.947 24.1772 84.9317 25.5943C83.9164 27.0115 83.3704 28.7111 83.3704 30.4544V34.6227V40.8491V44.5849V46.7964C83.3704 47.806 83.1901 48.8047 82.9451 49.7841C82.4742 51.6668 82.2052 53.9245 83.3704 53.9245C84.5621 53.9245 83.4638 57.3362 82.3359 60.0905C81.8498 61.2776 80.6758 62.0189 79.393 62.0189H79.308C78.3269 62.0189 77.4028 62.4801 76.813 63.2642C76.2232 64.0482 75.2991 64.5095 74.3179 64.5095H71.8139C70.8327 64.5095 69.9086 64.0482 69.3188 63.2642C68.729 62.4801 67.8049 62.0189 66.8238 62.0189H65.884H60.2634H57.7483C56.1223 62.0189 54.5243 62.4422 53.1115 63.2471L50.8957 64.5095L46.5241 66.3774L44.7627 67.431C43.8616 67.97 43.0576 68.6567 42.3843 69.4623L40.2789 71.9812C39.1302 73.1264 37.4341 73.5263 35.8948 73.0147L33.2772 72.1448C32.951 72.0364 32.6096 71.9812 32.2659 71.9812C31.0527 71.9812 29.9433 71.2965 29.3995 70.212L28.7653 68.9475C28.5329 68.4841 28.2101 68.0718 27.816 67.735L26.1837 66.34C25.0944 65.4092 23.4207 65.7474 22.7784 67.0282C22.4043 67.7743 21.6411 68.2453 20.8064 68.2453H20.2945H18.7519C16.9071 68.2453 15.1033 67.7005 13.5668 66.6793L12.3436 65.8663C11.0124 64.9815 9.44956 64.5095 7.85111 64.5095H6.02784C4.7789 64.5095 3.59426 65.0632 2.79329 66.0215C1.67368 67.361 1.49555 69.2521 2.34533 70.7771L3.26419 72.4261C3.78419 73.3593 4.05714 74.4098 4.05714 75.4781C4.05714 76.4541 4.28496 77.4166 4.72247 78.289L5.56125 79.9615C6.21485 81.2648 6.55519 82.7026 6.55519 84.1606V85.6793V89.6504C6.55519 91.448 7.45489 93.1263 8.95196 94.1214C9.83253 94.7067 10.8663 95.0189 11.9237 95.0189H14.0494C16.3463 95.0189 18.4465 96.3152 19.4762 98.3684L19.8107 99.0353C20.1311 99.6743 20.5526 100.257 21.0588 100.762C21.7883 101.489 22.6769 102.037 23.6545 102.362L24.2482 102.559C25.3286 102.918 26.2587 103.627 26.8915 104.573L27.93 106.126C28.2319 106.578 28.7393 106.849 29.2825 106.849C29.8981 106.849 30.4609 107.197 30.7369 107.747L32.2643 110.792C32.609 111.48 33.0624 112.107 33.6069 112.65L35.2828 114.321L37.0888 115.761C37.9596 116.456 38.6995 117.3 39.2738 118.254L40.2789 119.925L43.4015 124.906L44.8839 127.862C45.1441 128.38 45.3555 128.922 45.5154 129.48L45.9264 130.914C46.3184 132.282 47.0529 133.527 48.0605 134.532C48.6974 135.167 49.2277 135.901 49.6309 136.704L50.4464 138.331C50.7418 138.92 50.8957 139.57 50.8957 140.229C50.8957 141.192 51.2243 142.127 51.8272 142.878L52.3215 143.494C53.0155 144.359 53.3937 145.435 53.3937 146.543V146.665C53.3937 147.882 53.8782 149.049 54.7403 149.909C55.0893 150.257 55.3799 150.659 55.6008 151.099L57.0832 154.055C57.535 154.956 58.1292 155.778 58.8428 156.489L60.2634 157.906L60.8072 158.583C62.0426 160.123 63.91 161.019 65.884 161.019H68.0509C69.4628 161.019 70.817 160.459 71.8169 159.462C72.8167 158.465 74.171 157.906 75.5828 157.906H75.9041C77.1077 157.906 78.2845 157.55 79.2869 156.884L80.9171 155.8C81.3023 155.544 81.7156 155.333 82.1488 155.171C84.7123 154.213 87.6001 155.093 89.194 157.317L89.6155 157.906L91.5112 160.268C91.9115 160.767 92.3659 161.22 92.8661 161.619L94.4124 162.852C94.9457 163.278 95.6076 163.509 96.2898 163.509C97.2029 163.509 98.0667 163.924 98.6381 164.636L98.9832 165.066C99.7728 166.05 100.966 166.623 102.228 166.623H103.355H103.735C106.258 166.623 108.645 165.478 110.224 163.509L113.972 157.906L117.094 153.547L118.124 152.264C119.088 151.062 120.333 150.117 121.749 149.512L121.898 149.449C123.256 148.869 124.457 147.975 125.405 146.842L126.293 145.779C126.819 145.15 127.256 144.45 127.59 143.701L128.404 141.875C129.139 140.226 128.976 138.316 127.973 136.816L127.622 136.291C127.273 135.769 127.086 135.155 127.086 134.528C127.086 133.562 126.647 132.649 125.892 132.048L125.525 131.755C124.538 130.968 123.964 129.774 123.964 128.512V127.396V125.66C123.964 123.61 124.898 121.67 126.501 120.392C126.89 120.081 127.244 119.729 127.555 119.341L128.982 117.562C129.382 117.063 129.837 116.61 130.337 116.211C131.871 114.987 133.776 114.321 135.739 114.321H136.955C138.248 114.321 139.503 113.882 140.513 113.076C141.524 112.269 142.779 111.83 144.072 111.83H144.833C145.897 111.83 146.951 111.615 147.93 111.196L149.888 110.36C150.506 110.095 151.094 109.766 151.641 109.376L155.189 106.849L158.201 104.848C158.689 104.523 159.218 104.265 159.775 104.08L160.701 103.772C161.958 103.354 162.968 102.404 163.462 101.174C163.77 100.406 164.283 99.738 164.945 99.2427L165.338 98.9492C166.047 98.4188 166.909 98.1321 167.795 98.1321C168.537 98.1321 169.265 98.3332 169.902 98.7141L171.355 99.5836C171.811 99.8561 172.332 100 172.862 100H174.864C175.38 100 175.798 100.418 175.798 100.934C175.798 101.45 176.217 101.868 176.732 101.868H177.465C177.988 101.868 178.482 102.114 178.796 102.533L179.233 103.113C179.823 103.897 180.747 104.359 181.728 104.359H181.878C182.784 104.359 183.653 103.999 184.294 103.36L184.539 103.116C185.34 102.317 185.791 101.232 185.791 100.1V98.1321V95.0189V90.0378V85.6793V83.5008C185.791 82.4832 186.077 81.4861 186.618 80.6239L186.763 80.3928C188.021 78.386 187.723 75.7759 186.046 74.1036C185.876 73.9341 185.694 73.7769 185.502 73.6332L184.169 72.6363C183.587 72.201 183.057 71.6995 182.591 71.1418L180.808 69.0085C180.396 68.5154 180.17 67.8932 180.17 67.2506V65.4462C180.17 64.9289 179.751 64.5095 179.233 64.5095C178.716 64.5095 178.296 64.09 178.296 63.5727V62.0189V60.151V58.8545C178.296 57.6658 178.62 56.4996 179.233 55.4812C179.846 54.4627 180.17 53.2965 180.17 52.1078V48.3208V40.8491V39.8651C180.17 36.6079 178.478 33.5845 175.702 31.8811L174.305 31.0245C172.831 30.1202 171.136 29.6415 169.407 29.6415H163.933H159.607C157.941 29.6415 156.305 29.1972 154.868 28.3545L146.446 23.4151L140.083 19.1857C139.333 18.6872 138.659 18.083 138.081 17.392L132.707 10.9623Z"
    fill="#5c5c5c"
    fill-opacity="0.9"
    stroke="black"
    stroke-width="0.936702"
  />
<path
    d="M58.4577 85.77V97.5H56.3327V85.77H58.4577ZM62.0957 85.77V87.504H52.6947V85.77H62.0957ZM67.8209 88.949C68.4895 88.949 69.0505 89.0397 69.5039 89.221C69.9572 89.391 70.3029 89.6857 70.5409 90.105C70.7789 90.5243 70.8979 91.1023 70.8979 91.839V97.5H69.2659L68.9769 95.698L68.8409 95.46V91.822C68.8295 91.38 68.7219 91.0627 68.5179 90.87C68.3139 90.666 67.9285 90.564 67.3619 90.564C66.9199 90.564 66.3702 90.581 65.7129 90.615C65.0669 90.649 64.4152 90.6943 63.7579 90.751L63.5709 89.34C63.9675 89.2607 64.4152 89.1927 64.9139 89.136C65.4239 89.0793 65.9282 89.034 66.4269 89C66.9369 88.966 67.4015 88.949 67.8209 88.949ZM70.0139 92.366L69.9969 93.641H66.1889C65.8375 93.6523 65.5882 93.743 65.4409 93.913C65.2935 94.083 65.2199 94.3153 65.2199 94.61V95.069C65.2199 95.409 65.3105 95.6697 65.4919 95.851C65.6845 96.021 65.9679 96.106 66.3419 96.106C66.6479 96.106 66.9879 96.0437 67.3619 95.919C67.7359 95.7943 68.1042 95.613 68.4669 95.375C68.8409 95.137 69.1752 94.8537 69.4699 94.525V95.596C69.3679 95.766 69.2092 95.97 68.9939 96.208C68.7785 96.4347 68.5122 96.6613 68.1949 96.888C67.8889 97.1147 67.5319 97.3017 67.1239 97.449C66.7159 97.5963 66.2682 97.67 65.7809 97.67C65.2822 97.67 64.8345 97.585 64.4379 97.415C64.0412 97.2337 63.7295 96.973 63.5029 96.633C63.2875 96.2817 63.1799 95.851 63.1799 95.341V94.457C63.1799 93.7997 63.3952 93.2897 63.8259 92.927C64.2565 92.553 64.8572 92.366 65.6279 92.366H70.0139ZM80.4596 89.153V90.632H77.2126C76.9066 90.632 76.6799 90.7057 76.5326 90.853C76.3966 90.989 76.3059 91.2213 76.2606 91.55C76.2039 92.026 76.1416 92.5133 76.0736 93.012C76.0056 93.4993 75.9319 93.9697 75.8526 94.423C75.7732 94.865 75.6769 95.2617 75.5636 95.613C75.4389 96.1117 75.2292 96.514 74.9346 96.82C74.6399 97.126 74.2829 97.3413 73.8636 97.466C73.4556 97.5793 72.9966 97.619 72.4866 97.585L72.2656 96.055C72.5489 95.987 72.7869 95.9133 72.9796 95.834C73.1722 95.7547 73.3252 95.6527 73.4386 95.528C73.5519 95.4033 73.6482 95.239 73.7276 95.035C73.8069 94.8083 73.8749 94.542 73.9316 94.236C73.9996 93.93 74.0562 93.607 74.1016 93.267C74.1582 92.9157 74.2036 92.5643 74.2376 92.213C74.2716 91.8503 74.3056 91.5047 74.3396 91.176C74.4189 90.5187 74.6286 90.02 74.9686 89.68C75.3199 89.3287 75.8469 89.153 76.5496 89.153H80.4596ZM80.6806 89.153V97.5H78.6236V89.153H80.6806ZM90.3213 89.153V90.598H87.1763C86.6096 90.598 86.298 90.8927 86.2413 91.482C86.1506 92.3433 86.0203 93.1253 85.8503 93.828C85.6916 94.5307 85.4706 95.1823 85.1873 95.783C84.9153 96.3723 84.564 96.9447 84.1333 97.5H82.5013C82.9206 96.82 83.255 96.1287 83.5043 95.426C83.765 94.7233 83.9633 94.015 84.0993 93.301C84.2466 92.5757 84.3543 91.8447 84.4223 91.108C84.479 90.462 84.6886 89.9747 85.0513 89.646C85.414 89.3173 85.941 89.153 86.6323 89.153H90.3213ZM83.7933 97.415L83.6233 99.914H82.2803V97.415H83.7933ZM91.7493 96.004V97.5H82.2803V96.004H91.7493ZM91.7493 97.415V99.914H90.3893L90.2363 97.415H91.7493ZM90.5253 89.153V97.5H88.5703V89.153H90.5253ZM97.1957 88.949C98.2043 88.949 99.009 89.0907 99.6097 89.374C100.222 89.6573 100.658 90.122 100.919 90.768C101.191 91.414 101.327 92.2697 101.327 93.335C101.327 94.4003 101.191 95.256 100.919 95.902C100.658 96.5367 100.222 97.0013 99.6097 97.296C99.009 97.5793 98.2043 97.721 97.1957 97.721C96.187 97.721 95.3767 97.5793 94.7647 97.296C94.1527 97.0013 93.7107 96.5367 93.4387 95.902C93.1667 95.256 93.0307 94.4003 93.0307 93.335C93.0307 92.2697 93.1667 91.414 93.4387 90.768C93.7107 90.122 94.1527 89.6573 94.7647 89.374C95.3767 89.0907 96.187 88.949 97.1957 88.949ZM97.1957 90.513C96.6857 90.513 96.2833 90.598 95.9887 90.768C95.7053 90.9267 95.5013 91.21 95.3767 91.618C95.252 92.026 95.1897 92.5983 95.1897 93.335C95.1897 94.0717 95.252 94.644 95.3767 95.052C95.5013 95.46 95.7053 95.7433 95.9887 95.902C96.2833 96.0607 96.6857 96.14 97.1957 96.14C97.6943 96.14 98.0853 96.0607 98.3687 95.902C98.6633 95.7433 98.8673 95.46 98.9807 95.052C99.1053 94.644 99.1677 94.0717 99.1677 93.335C99.1677 92.5983 99.1053 92.026 98.9807 91.618C98.8673 91.21 98.6633 90.9267 98.3687 90.768C98.0853 90.598 97.6943 90.513 97.1957 90.513ZM113.159 89.153C113.635 89.153 113.878 89.4023 113.89 89.901L114.196 97.5H112.309L112.02 90.683H111.765L110.065 95.851C110.019 96.055 109.929 96.2137 109.793 96.327C109.668 96.4403 109.492 96.497 109.266 96.497H108.059C107.843 96.497 107.668 96.4403 107.532 96.327C107.407 96.2137 107.316 96.055 107.26 95.851L105.56 90.683H105.305L105.05 97.5H103.18L103.469 89.901C103.469 89.4023 103.718 89.153 104.217 89.153H106.121C106.336 89.153 106.506 89.2097 106.631 89.323C106.767 89.425 106.857 89.5893 106.903 89.816L108.263 93.964C108.331 94.168 108.387 94.372 108.433 94.576C108.478 94.7687 108.518 94.9727 108.552 95.188H108.773C108.818 94.9727 108.863 94.7687 108.909 94.576C108.954 94.372 109.005 94.168 109.062 93.964L110.422 89.816C110.524 89.374 110.79 89.153 111.221 89.153H113.159ZM120.088 88.949C120.371 88.949 120.683 88.9603 121.023 88.983C121.363 89.0057 121.703 89.051 122.043 89.119C122.394 89.187 122.717 89.2833 123.012 89.408L122.774 90.7C122.355 90.6773 121.935 90.6603 121.516 90.649C121.108 90.6377 120.745 90.632 120.428 90.632C119.873 90.632 119.425 90.7113 119.085 90.87C118.745 91.0173 118.501 91.2893 118.354 91.686C118.207 92.0713 118.133 92.6153 118.133 93.318C118.133 94.0207 118.207 94.5703 118.354 94.967C118.501 95.3523 118.745 95.6243 119.085 95.783C119.425 95.9417 119.873 96.021 120.428 96.021C120.609 96.021 120.842 96.0153 121.125 96.004C121.408 95.9927 121.709 95.9757 122.026 95.953C122.355 95.9303 122.666 95.902 122.961 95.868L123.148 97.194C122.717 97.3753 122.23 97.5057 121.686 97.585C121.153 97.6643 120.615 97.704 120.071 97.704C119.074 97.704 118.275 97.5623 117.674 97.279C117.073 96.9957 116.637 96.5367 116.365 95.902C116.104 95.256 115.974 94.3947 115.974 93.318C115.974 92.2413 116.104 91.3857 116.365 90.751C116.637 90.105 117.073 89.646 117.674 89.374C118.286 89.0907 119.091 88.949 120.088 88.949ZM132.412 89.153C132.22 89.7197 132.044 90.2183 131.885 90.649C131.727 91.0797 131.574 91.4423 131.426 91.737C131.279 92.0203 131.109 92.2583 130.916 92.451C130.735 92.6437 130.514 92.7967 130.253 92.91C130.004 93.012 129.698 93.0857 129.335 93.131V93.199C129.709 93.233 130.032 93.301 130.304 93.403C130.576 93.505 130.809 93.658 131.001 93.862C131.205 94.0547 131.387 94.3097 131.545 94.627C131.715 94.933 131.885 95.324 132.055 95.8C132.237 96.276 132.441 96.8427 132.667 97.5H130.508C130.316 96.9107 130.14 96.4063 129.981 95.987C129.823 95.5677 129.675 95.222 129.539 94.95C129.403 94.678 129.25 94.4683 129.08 94.321C128.922 94.1623 128.729 94.0547 128.502 93.998C128.287 93.93 128.032 93.896 127.737 93.896L127.72 92.451C128.083 92.451 128.389 92.3943 128.638 92.281C128.888 92.1563 129.097 91.9637 129.267 91.703C129.449 91.4423 129.619 91.108 129.777 90.7C129.936 90.2807 130.112 89.765 130.304 89.153H132.412ZM126.938 89.153V91.448C126.938 91.72 126.916 92.0033 126.87 92.298C126.825 92.5927 126.751 92.8703 126.649 93.131C126.74 93.3803 126.808 93.641 126.853 93.913C126.91 94.185 126.938 94.4343 126.938 94.661V97.5H124.881V89.153H126.938ZM128.332 92.451V93.896H126.394V92.451H128.332ZM142.115 89.153V97.5L140.262 97.517V92.638C140.262 92.434 140.267 92.2357 140.279 92.043C140.301 91.839 140.318 91.6237 140.33 91.397H140.296C140.216 91.5783 140.12 91.7767 140.007 91.992C139.893 92.196 139.78 92.3717 139.667 92.519L136.046 97.5H134.278V89.153H136.131V94.083C136.131 94.2757 136.125 94.4683 136.114 94.661C136.102 94.8423 136.085 95.0463 136.063 95.273H136.097C136.187 95.0803 136.284 94.8933 136.386 94.712C136.499 94.5307 136.612 94.3663 136.726 94.219L140.364 89.153H142.115ZM152.308 89.153V97.5L150.455 97.517V92.638C150.455 92.434 150.461 92.2357 150.472 92.043C150.495 91.839 150.512 91.6237 150.523 91.397H150.489C150.41 91.5783 150.313 91.7767 150.2 91.992C150.087 92.196 149.973 92.3717 149.86 92.519L146.239 97.5H144.471V89.153H146.324V94.083C146.324 94.2757 146.318 94.4683 146.307 94.661C146.296 94.8423 146.279 95.0463 146.256 95.273H146.29C146.381 95.0803 146.477 94.8933 146.579 94.712C146.692 94.5307 146.806 94.3663 146.919 94.219L150.557 89.153H152.308ZM149.639 85.447H151.05C151.107 85.9117 151.033 86.3367 150.829 86.722C150.625 87.096 150.313 87.402 149.894 87.64C149.475 87.8667 148.97 87.98 148.381 87.98C147.792 87.98 147.287 87.8667 146.868 87.64C146.449 87.402 146.131 87.096 145.916 86.722C145.712 86.3367 145.633 85.9117 145.678 85.447H147.089C147.066 85.9457 147.168 86.3197 147.395 86.569C147.622 86.807 147.95 86.926 148.381 86.926C148.8 86.926 149.118 86.807 149.333 86.569C149.56 86.3197 149.662 85.9457 149.639 85.447Z"
    fill="black"
  />
</svg>
