<svg width="33" height="33" viewBox="0 0 33 33" fill="none" xmlns="http://www.w3.org/2000/svg">
<path fill-rule="evenodd" clip-rule="evenodd" d="M16.5 2.0625C20.3291 2.0625 24.0013 3.58359 26.7089 6.29115C29.4164 8.9987 30.9375 12.6709 30.9375 16.5C30.9375 20.3291 29.4164 24.0013 26.7089 26.7089C24.0013 29.4164 20.3291 30.9375 16.5 30.9375C12.6709 30.9375 8.9987 29.4164 6.29115 26.7089C3.58359 24.0013 2.0625 20.3291 2.0625 16.5C2.0625 12.6709 3.58359 8.9987 6.29115 6.29115C8.9987 3.58359 12.6709 2.0625 16.5 2.0625ZM16.5 33C20.8761 33 25.0729 31.2616 28.1673 28.1673C31.2616 25.0729 33 20.8761 33 16.5C33 12.1239 31.2616 7.92709 28.1673 4.83274C25.0729 1.73839 20.8761 -2.48945e-07 16.5 -1.96761e-07C12.1239 -1.44576e-07 7.92709 1.73839 4.83274 4.83274C1.73839 7.92709 1.44576e-07 12.1239 1.96761e-07 16.5C2.48945e-07 20.8761 1.73839 25.0729 4.83274 28.1673C7.92709 31.2616 12.1239 33 16.5 33ZM15.4688 23.7187C15.4688 23.9923 15.5774 24.2546 15.7708 24.448C15.9642 24.6414 16.2265 24.75 16.5 24.75C16.7735 24.75 17.0358 24.6414 17.2292 24.448C17.4226 24.2546 17.5313 23.9923 17.5313 23.7187L17.5313 11.7707L21.9574 16.1989C22.0533 16.2948 22.1671 16.3708 22.2924 16.4227C22.4176 16.4746 22.5519 16.5013 22.6875 16.5013C22.8231 16.5013 22.9574 16.4746 23.0826 16.4227C23.2079 16.3708 23.3217 16.2948 23.4176 16.1989C23.5135 16.103 23.5896 15.9892 23.6415 15.8639C23.6933 15.7386 23.7201 15.6043 23.7201 15.4687C23.7201 15.3332 23.6933 15.1989 23.6415 15.0736C23.5896 14.9483 23.5135 14.8345 23.4176 14.7386L17.2301 8.55112C17.1343 8.45509 17.0205 8.37889 16.8952 8.32691C16.77 8.27492 16.6356 8.24816 16.5 8.24816C16.3644 8.24816 16.23 8.27492 16.1048 8.32691C15.9795 8.37889 15.8657 8.45509 15.7699 8.55112L9.58237 14.7386C9.38873 14.9323 9.27995 15.1949 9.27995 15.4687C9.27995 15.7426 9.38873 16.0052 9.58237 16.1989C9.77602 16.3925 10.0386 16.5013 10.3125 16.5013C10.5864 16.5013 10.849 16.3925 11.0426 16.1989L15.4688 11.7707L15.4688 23.7187Z" fill="#07551D"/>
</svg>
