<svg width="16" height="18" viewBox="0 0 16 18" fill="none" xmlns="http://www.w3.org/2000/svg">
<path d="M17.8083 16.1843L12.2897 10.6657C13.1461 9.55859 13.6093 8.20497 13.6093 6.78122C13.6093 5.07698 12.9442 3.47899 11.7415 2.27412C10.5387 1.06925 8.93646 0.40625 7.23435 0.40625C5.53223 0.40625 3.92999 1.07137 2.72724 2.27412C1.52237 3.47686 0.859375 5.07698 0.859375 6.78122C0.859375 8.48334 1.5245 10.0856 2.72724 11.2883C3.92999 12.4932 5.5301 13.1562 7.23435 13.1562C8.65809 13.1562 10.0096 12.6929 11.1167 11.8387L16.6353 17.3552C16.6515 17.3714 16.6707 17.3842 16.6918 17.393C16.713 17.4017 16.7357 17.4062 16.7586 17.4062C16.7814 17.4062 16.8041 17.4017 16.8253 17.393C16.8464 17.3842 16.8656 17.3714 16.8818 17.3552L17.8083 16.4308C17.8245 16.4146 17.8373 16.3954 17.8461 16.3743C17.8549 16.3531 17.8594 16.3304 17.8594 16.3076C17.8594 16.2847 17.8549 16.262 17.8461 16.2408C17.8373 16.2197 17.8245 16.2005 17.8083 16.1843ZM10.6003 10.1472C9.69934 11.0461 8.50509 11.5412 7.23435 11.5412C5.9636 11.5412 4.76936 11.0461 3.86836 10.1472C2.96949 9.24621 2.47437 8.05197 2.47437 6.78122C2.47437 5.51048 2.96949 4.31411 3.86836 3.41524C4.76936 2.51637 5.9636 2.02124 7.23435 2.02124C8.50509 2.02124 9.70146 2.51424 10.6003 3.41524C11.4992 4.31623 11.9943 5.51048 11.9943 6.78122C11.9943 8.05197 11.4992 9.24834 10.6003 10.1472Z" fill="black"/>
</svg>
